G04 #@! TF.GenerationSoftware,KiCad,Pcbnew,5.1.10-88a1d61d58~88~ubuntu20.04.1*
G04 #@! TF.CreationDate,2021-05-19T20:40:34-06:00*
G04 #@! TF.ProjectId,CurrentSensorV1,43757272-656e-4745-9365-6e736f725631,rev?*
G04 #@! TF.SameCoordinates,Original*
G04 #@! TF.FileFunction,Copper,L1,Top*
G04 #@! TF.FilePolarity,Positive*
%FSLAX46Y46*%
G04 Gerber Fmt 4.6, Leading zero omitted, Abs format (unit mm)*
G04 Created by KiCad (PCBNEW 5.1.10-88a1d61d58~88~ubuntu20.04.1) date 2021-05-19 20:40:34*
%MOMM*%
%LPD*%
G01*
G04 APERTURE LIST*
G04 #@! TA.AperFunction,Profile*
%ADD10C,0.050000*%
G04 #@! TD*
G04 #@! TA.AperFunction,ComponentPad*
%ADD11O,3.500000X1.750000*%
G04 #@! TD*
G04 #@! TA.AperFunction,ComponentPad*
%ADD12R,2.500000X3.500000*%
G04 #@! TD*
G04 #@! TA.AperFunction,ComponentPad*
%ADD13C,5.000000*%
G04 #@! TD*
G04 #@! TA.AperFunction,ComponentPad*
%ADD14O,1.700000X1.700000*%
G04 #@! TD*
G04 #@! TA.AperFunction,ComponentPad*
%ADD15R,1.700000X1.700000*%
G04 #@! TD*
G04 #@! TA.AperFunction,SMDPad,CuDef*
%ADD16R,1.900000X0.400000*%
G04 #@! TD*
G04 #@! TA.AperFunction,SMDPad,CuDef*
%ADD17R,1.200000X1.400000*%
G04 #@! TD*
G04 #@! TA.AperFunction,SMDPad,CuDef*
%ADD18R,1.500000X1.400000*%
G04 #@! TD*
G04 #@! TA.AperFunction,ComponentPad*
%ADD19O,1.727200X1.727200*%
G04 #@! TD*
G04 #@! TA.AperFunction,ComponentPad*
%ADD20R,1.727200X1.727200*%
G04 #@! TD*
G04 #@! TA.AperFunction,SMDPad,CuDef*
%ADD21R,1.500000X2.000000*%
G04 #@! TD*
G04 #@! TA.AperFunction,SMDPad,CuDef*
%ADD22R,3.800000X2.000000*%
G04 #@! TD*
G04 #@! TA.AperFunction,ViaPad*
%ADD23C,0.800000*%
G04 #@! TD*
G04 #@! TA.AperFunction,Conductor*
%ADD24C,0.250000*%
G04 #@! TD*
G04 #@! TA.AperFunction,Conductor*
%ADD25C,0.400000*%
G04 #@! TD*
G04 #@! TA.AperFunction,Conductor*
%ADD26C,0.254000*%
G04 #@! TD*
G04 #@! TA.AperFunction,Conductor*
%ADD27C,0.350000*%
G04 #@! TD*
G04 APERTURE END LIST*
D10*
X132842000Y-64008000D02*
X132842000Y-65278000D01*
X170180000Y-64008000D02*
X132842000Y-64008000D01*
X170180000Y-65278000D02*
X170180000Y-64008000D01*
X132842000Y-91948000D02*
X170180000Y-91948000D01*
X170180000Y-91948000D02*
X170180000Y-65278000D01*
X132842000Y-65278000D02*
X132842000Y-91948000D01*
D11*
G04 #@! TO.P,J3,5*
G04 #@! TO.N,N/C*
X163722000Y-81828000D03*
G04 #@! TO.P,J3,4*
X163722000Y-86828000D03*
G04 #@! TO.P,J3,3*
G04 #@! TO.N,AIN1*
X163722000Y-79328000D03*
G04 #@! TO.P,J3,2*
G04 #@! TO.N,Net-(J3-Pad2)*
X163722000Y-89328000D03*
D12*
G04 #@! TO.P,J3,1*
G04 #@! TO.N,AIN0*
X168728000Y-84328000D03*
G04 #@! TD*
D13*
G04 #@! TO.P,H2,1*
G04 #@! TO.N,GND*
X158750000Y-66802000D03*
G04 #@! TD*
D14*
G04 #@! TO.P,J2,6*
G04 #@! TO.N,GND*
X152400000Y-90678000D03*
G04 #@! TO.P,J2,5*
G04 #@! TO.N,SDA*
X149860000Y-90678000D03*
G04 #@! TO.P,J2,4*
G04 #@! TO.N,+3V3*
X147320000Y-90678000D03*
G04 #@! TO.P,J2,3*
G04 #@! TO.N,FTDI_TX*
X144780000Y-90678000D03*
G04 #@! TO.P,J2,2*
G04 #@! TO.N,FTDI_RX*
X142240000Y-90678000D03*
D15*
G04 #@! TO.P,J2,1*
G04 #@! TO.N,RST*
X139700000Y-90678000D03*
G04 #@! TD*
D13*
G04 #@! TO.P,H1,1*
G04 #@! TO.N,GND*
X135636000Y-66802000D03*
G04 #@! TD*
D16*
G04 #@! TO.P,U9,1*
G04 #@! TO.N,VBUS*
X137316845Y-77993240D03*
G04 #@! TO.P,U9,2*
G04 #@! TO.N,Net-(U9-Pad2)*
X137316845Y-78643240D03*
G04 #@! TO.P,U9,3*
G04 #@! TO.N,Net-(U9-Pad3)*
X137316845Y-79293240D03*
G04 #@! TO.P,U9,4*
G04 #@! TO.N,Net-(U9-Pad4)*
X137316845Y-79943240D03*
G04 #@! TO.P,U9,5*
G04 #@! TO.N,GND*
X137316845Y-80593240D03*
D17*
G04 #@! TO.P,U9,6*
X136641840Y-76047600D03*
G04 #@! TO.P,U9,9*
X136652000Y-82550000D03*
D18*
G04 #@! TO.P,U9,7*
X134137400Y-75255120D03*
G04 #@! TO.P,U9,8*
X134127240Y-83367880D03*
G04 #@! TD*
D13*
G04 #@! TO.P,H3,1*
G04 #@! TO.N,GND*
X158750000Y-89154000D03*
G04 #@! TD*
G04 #@! TO.P,H4,1*
G04 #@! TO.N,GND*
X135636000Y-89154000D03*
G04 #@! TD*
G04 #@! TO.P,C4,2*
G04 #@! TO.N,GND*
G04 #@! TA.AperFunction,SMDPad,CuDef*
G36*
G01*
X143938000Y-68034000D02*
X143938000Y-69634000D01*
G75*
G02*
X143688000Y-69884000I-250000J0D01*
G01*
X139688000Y-69884000D01*
G75*
G02*
X139438000Y-69634000I0J250000D01*
G01*
X139438000Y-68034000D01*
G75*
G02*
X139688000Y-67784000I250000J0D01*
G01*
X143688000Y-67784000D01*
G75*
G02*
X143938000Y-68034000I0J-250000D01*
G01*
G37*
G04 #@! TD.AperFunction*
G04 #@! TO.P,C4,1*
G04 #@! TO.N,+3V3*
G04 #@! TA.AperFunction,SMDPad,CuDef*
G36*
G01*
X151138000Y-68034000D02*
X151138000Y-69634000D01*
G75*
G02*
X150888000Y-69884000I-250000J0D01*
G01*
X146888000Y-69884000D01*
G75*
G02*
X146638000Y-69634000I0J250000D01*
G01*
X146638000Y-68034000D01*
G75*
G02*
X146888000Y-67784000I250000J0D01*
G01*
X150888000Y-67784000D01*
G75*
G02*
X151138000Y-68034000I0J-250000D01*
G01*
G37*
G04 #@! TD.AperFunction*
G04 #@! TD*
D14*
G04 #@! TO.P,J6,2*
G04 #@! TO.N,AIN0*
X159512000Y-79248000D03*
D15*
G04 #@! TO.P,J6,1*
G04 #@! TO.N,AIN1*
X159512000Y-76708000D03*
G04 #@! TD*
D19*
G04 #@! TO.P,U2,8*
G04 #@! TO.N,FTDI_TX*
X148336000Y-84582000D03*
G04 #@! TO.P,U2,7*
G04 #@! TO.N,+3V3*
X145796000Y-84582000D03*
G04 #@! TO.P,U2,6*
G04 #@! TO.N,SDA*
X148336000Y-82042000D03*
G04 #@! TO.P,U2,5*
G04 #@! TO.N,RST*
X145796000Y-82042000D03*
G04 #@! TO.P,U2,4*
G04 #@! TO.N,SCL*
X148336000Y-79502000D03*
G04 #@! TO.P,U2,3*
G04 #@! TO.N,+3V3*
X145796000Y-79502000D03*
G04 #@! TO.P,U2,2*
G04 #@! TO.N,GND*
X148336000Y-76962000D03*
D20*
G04 #@! TO.P,U2,1*
G04 #@! TO.N,FTDI_RX*
X145796000Y-76962000D03*
G04 #@! TD*
D15*
G04 #@! TO.P,TP2,1*
G04 #@! TO.N,+3V3*
X154178000Y-76708000D03*
G04 #@! TD*
D11*
G04 #@! TO.P,J8,5*
G04 #@! TO.N,N/C*
X163722000Y-69128000D03*
G04 #@! TO.P,J8,4*
X163722000Y-74128000D03*
G04 #@! TO.P,J8,3*
G04 #@! TO.N,AIN3*
X163722000Y-66628000D03*
G04 #@! TO.P,J8,2*
G04 #@! TO.N,Net-(J8-Pad2)*
X163722000Y-76628000D03*
D12*
G04 #@! TO.P,J8,1*
G04 #@! TO.N,AIN2*
X168728000Y-71628000D03*
G04 #@! TD*
D21*
G04 #@! TO.P,U3,1*
G04 #@! TO.N,GND*
X156224000Y-73558000D03*
G04 #@! TO.P,U3,3*
G04 #@! TO.N,VBUS*
X151624000Y-73558000D03*
G04 #@! TO.P,U3,2*
G04 #@! TO.N,+3V3*
X153924000Y-73558000D03*
D22*
X153924000Y-79858000D03*
G04 #@! TD*
G04 #@! TO.P,U1,10*
G04 #@! TO.N,SCL*
G04 #@! TA.AperFunction,SMDPad,CuDef*
G36*
G01*
X152703000Y-84491000D02*
X152703000Y-84641000D01*
G75*
G02*
X152628000Y-84716000I-75000J0D01*
G01*
X151328000Y-84716000D01*
G75*
G02*
X151253000Y-84641000I0J75000D01*
G01*
X151253000Y-84491000D01*
G75*
G02*
X151328000Y-84416000I75000J0D01*
G01*
X152628000Y-84416000D01*
G75*
G02*
X152703000Y-84491000I0J-75000D01*
G01*
G37*
G04 #@! TD.AperFunction*
G04 #@! TO.P,U1,9*
G04 #@! TO.N,SDA*
G04 #@! TA.AperFunction,SMDPad,CuDef*
G36*
G01*
X152703000Y-83991000D02*
X152703000Y-84141000D01*
G75*
G02*
X152628000Y-84216000I-75000J0D01*
G01*
X151328000Y-84216000D01*
G75*
G02*
X151253000Y-84141000I0J75000D01*
G01*
X151253000Y-83991000D01*
G75*
G02*
X151328000Y-83916000I75000J0D01*
G01*
X152628000Y-83916000D01*
G75*
G02*
X152703000Y-83991000I0J-75000D01*
G01*
G37*
G04 #@! TD.AperFunction*
G04 #@! TO.P,U1,8*
G04 #@! TO.N,+3V3*
G04 #@! TA.AperFunction,SMDPad,CuDef*
G36*
G01*
X152703000Y-83491000D02*
X152703000Y-83641000D01*
G75*
G02*
X152628000Y-83716000I-75000J0D01*
G01*
X151328000Y-83716000D01*
G75*
G02*
X151253000Y-83641000I0J75000D01*
G01*
X151253000Y-83491000D01*
G75*
G02*
X151328000Y-83416000I75000J0D01*
G01*
X152628000Y-83416000D01*
G75*
G02*
X152703000Y-83491000I0J-75000D01*
G01*
G37*
G04 #@! TD.AperFunction*
G04 #@! TO.P,U1,7*
G04 #@! TO.N,AIN3*
G04 #@! TA.AperFunction,SMDPad,CuDef*
G36*
G01*
X152703000Y-82991000D02*
X152703000Y-83141000D01*
G75*
G02*
X152628000Y-83216000I-75000J0D01*
G01*
X151328000Y-83216000D01*
G75*
G02*
X151253000Y-83141000I0J75000D01*
G01*
X151253000Y-82991000D01*
G75*
G02*
X151328000Y-82916000I75000J0D01*
G01*
X152628000Y-82916000D01*
G75*
G02*
X152703000Y-82991000I0J-75000D01*
G01*
G37*
G04 #@! TD.AperFunction*
G04 #@! TO.P,U1,6*
G04 #@! TO.N,AIN2*
G04 #@! TA.AperFunction,SMDPad,CuDef*
G36*
G01*
X152703000Y-82491000D02*
X152703000Y-82641000D01*
G75*
G02*
X152628000Y-82716000I-75000J0D01*
G01*
X151328000Y-82716000D01*
G75*
G02*
X151253000Y-82641000I0J75000D01*
G01*
X151253000Y-82491000D01*
G75*
G02*
X151328000Y-82416000I75000J0D01*
G01*
X152628000Y-82416000D01*
G75*
G02*
X152703000Y-82491000I0J-75000D01*
G01*
G37*
G04 #@! TD.AperFunction*
G04 #@! TO.P,U1,5*
G04 #@! TO.N,AIN1*
G04 #@! TA.AperFunction,SMDPad,CuDef*
G36*
G01*
X157103000Y-82491000D02*
X157103000Y-82641000D01*
G75*
G02*
X157028000Y-82716000I-75000J0D01*
G01*
X155728000Y-82716000D01*
G75*
G02*
X155653000Y-82641000I0J75000D01*
G01*
X155653000Y-82491000D01*
G75*
G02*
X155728000Y-82416000I75000J0D01*
G01*
X157028000Y-82416000D01*
G75*
G02*
X157103000Y-82491000I0J-75000D01*
G01*
G37*
G04 #@! TD.AperFunction*
G04 #@! TO.P,U1,4*
G04 #@! TO.N,AIN0*
G04 #@! TA.AperFunction,SMDPad,CuDef*
G36*
G01*
X157103000Y-82991000D02*
X157103000Y-83141000D01*
G75*
G02*
X157028000Y-83216000I-75000J0D01*
G01*
X155728000Y-83216000D01*
G75*
G02*
X155653000Y-83141000I0J75000D01*
G01*
X155653000Y-82991000D01*
G75*
G02*
X155728000Y-82916000I75000J0D01*
G01*
X157028000Y-82916000D01*
G75*
G02*
X157103000Y-82991000I0J-75000D01*
G01*
G37*
G04 #@! TD.AperFunction*
G04 #@! TO.P,U1,3*
G04 #@! TO.N,GND*
G04 #@! TA.AperFunction,SMDPad,CuDef*
G36*
G01*
X157103000Y-83491000D02*
X157103000Y-83641000D01*
G75*
G02*
X157028000Y-83716000I-75000J0D01*
G01*
X155728000Y-83716000D01*
G75*
G02*
X155653000Y-83641000I0J75000D01*
G01*
X155653000Y-83491000D01*
G75*
G02*
X155728000Y-83416000I75000J0D01*
G01*
X157028000Y-83416000D01*
G75*
G02*
X157103000Y-83491000I0J-75000D01*
G01*
G37*
G04 #@! TD.AperFunction*
G04 #@! TO.P,U1,2*
G04 #@! TO.N,/ALERT*
G04 #@! TA.AperFunction,SMDPad,CuDef*
G36*
G01*
X157103000Y-83991000D02*
X157103000Y-84141000D01*
G75*
G02*
X157028000Y-84216000I-75000J0D01*
G01*
X155728000Y-84216000D01*
G75*
G02*
X155653000Y-84141000I0J75000D01*
G01*
X155653000Y-83991000D01*
G75*
G02*
X155728000Y-83916000I75000J0D01*
G01*
X157028000Y-83916000D01*
G75*
G02*
X157103000Y-83991000I0J-75000D01*
G01*
G37*
G04 #@! TD.AperFunction*
G04 #@! TO.P,U1,1*
G04 #@! TO.N,GND*
G04 #@! TA.AperFunction,SMDPad,CuDef*
G36*
G01*
X157103000Y-84491000D02*
X157103000Y-84641000D01*
G75*
G02*
X157028000Y-84716000I-75000J0D01*
G01*
X155728000Y-84716000D01*
G75*
G02*
X155653000Y-84641000I0J75000D01*
G01*
X155653000Y-84491000D01*
G75*
G02*
X155728000Y-84416000I75000J0D01*
G01*
X157028000Y-84416000D01*
G75*
G02*
X157103000Y-84491000I0J-75000D01*
G01*
G37*
G04 #@! TD.AperFunction*
G04 #@! TD*
G04 #@! TO.P,R6,2*
G04 #@! TO.N,RST*
G04 #@! TA.AperFunction,SMDPad,CuDef*
G36*
G01*
X139189750Y-85694000D02*
X139702250Y-85694000D01*
G75*
G02*
X139921000Y-85912750I0J-218750D01*
G01*
X139921000Y-86350250D01*
G75*
G02*
X139702250Y-86569000I-218750J0D01*
G01*
X139189750Y-86569000D01*
G75*
G02*
X138971000Y-86350250I0J218750D01*
G01*
X138971000Y-85912750D01*
G75*
G02*
X139189750Y-85694000I218750J0D01*
G01*
G37*
G04 #@! TD.AperFunction*
G04 #@! TO.P,R6,1*
G04 #@! TO.N,+3V3*
G04 #@! TA.AperFunction,SMDPad,CuDef*
G36*
G01*
X139189750Y-84119000D02*
X139702250Y-84119000D01*
G75*
G02*
X139921000Y-84337750I0J-218750D01*
G01*
X139921000Y-84775250D01*
G75*
G02*
X139702250Y-84994000I-218750J0D01*
G01*
X139189750Y-84994000D01*
G75*
G02*
X138971000Y-84775250I0J218750D01*
G01*
X138971000Y-84337750D01*
G75*
G02*
X139189750Y-84119000I218750J0D01*
G01*
G37*
G04 #@! TD.AperFunction*
G04 #@! TD*
G04 #@! TO.P,R3,2*
G04 #@! TO.N,/ALERT*
G04 #@! TA.AperFunction,SMDPad,CuDef*
G36*
G01*
X142336000Y-84838250D02*
X142336000Y-84325750D01*
G75*
G02*
X142554750Y-84107000I218750J0D01*
G01*
X142992250Y-84107000D01*
G75*
G02*
X143211000Y-84325750I0J-218750D01*
G01*
X143211000Y-84838250D01*
G75*
G02*
X142992250Y-85057000I-218750J0D01*
G01*
X142554750Y-85057000D01*
G75*
G02*
X142336000Y-84838250I0J218750D01*
G01*
G37*
G04 #@! TD.AperFunction*
G04 #@! TO.P,R3,1*
G04 #@! TO.N,GND*
G04 #@! TA.AperFunction,SMDPad,CuDef*
G36*
G01*
X140761000Y-84838250D02*
X140761000Y-84325750D01*
G75*
G02*
X140979750Y-84107000I218750J0D01*
G01*
X141417250Y-84107000D01*
G75*
G02*
X141636000Y-84325750I0J-218750D01*
G01*
X141636000Y-84838250D01*
G75*
G02*
X141417250Y-85057000I-218750J0D01*
G01*
X140979750Y-85057000D01*
G75*
G02*
X140761000Y-84838250I0J218750D01*
G01*
G37*
G04 #@! TD.AperFunction*
G04 #@! TD*
G04 #@! TO.P,R2,2*
G04 #@! TO.N,SDA*
G04 #@! TA.AperFunction,SMDPad,CuDef*
G36*
G01*
X142491750Y-80868000D02*
X143004250Y-80868000D01*
G75*
G02*
X143223000Y-81086750I0J-218750D01*
G01*
X143223000Y-81524250D01*
G75*
G02*
X143004250Y-81743000I-218750J0D01*
G01*
X142491750Y-81743000D01*
G75*
G02*
X142273000Y-81524250I0J218750D01*
G01*
X142273000Y-81086750D01*
G75*
G02*
X142491750Y-80868000I218750J0D01*
G01*
G37*
G04 #@! TD.AperFunction*
G04 #@! TO.P,R2,1*
G04 #@! TO.N,+3V3*
G04 #@! TA.AperFunction,SMDPad,CuDef*
G36*
G01*
X142491750Y-79293000D02*
X143004250Y-79293000D01*
G75*
G02*
X143223000Y-79511750I0J-218750D01*
G01*
X143223000Y-79949250D01*
G75*
G02*
X143004250Y-80168000I-218750J0D01*
G01*
X142491750Y-80168000D01*
G75*
G02*
X142273000Y-79949250I0J218750D01*
G01*
X142273000Y-79511750D01*
G75*
G02*
X142491750Y-79293000I218750J0D01*
G01*
G37*
G04 #@! TD.AperFunction*
G04 #@! TD*
G04 #@! TO.P,R1,2*
G04 #@! TO.N,SCL*
G04 #@! TA.AperFunction,SMDPad,CuDef*
G36*
G01*
X141226250Y-80168000D02*
X140713750Y-80168000D01*
G75*
G02*
X140495000Y-79949250I0J218750D01*
G01*
X140495000Y-79511750D01*
G75*
G02*
X140713750Y-79293000I218750J0D01*
G01*
X141226250Y-79293000D01*
G75*
G02*
X141445000Y-79511750I0J-218750D01*
G01*
X141445000Y-79949250D01*
G75*
G02*
X141226250Y-80168000I-218750J0D01*
G01*
G37*
G04 #@! TD.AperFunction*
G04 #@! TO.P,R1,1*
G04 #@! TO.N,+3V3*
G04 #@! TA.AperFunction,SMDPad,CuDef*
G36*
G01*
X141226250Y-81743000D02*
X140713750Y-81743000D01*
G75*
G02*
X140495000Y-81524250I0J218750D01*
G01*
X140495000Y-81086750D01*
G75*
G02*
X140713750Y-80868000I218750J0D01*
G01*
X141226250Y-80868000D01*
G75*
G02*
X141445000Y-81086750I0J-218750D01*
G01*
X141445000Y-81524250D01*
G75*
G02*
X141226250Y-81743000I-218750J0D01*
G01*
G37*
G04 #@! TD.AperFunction*
G04 #@! TD*
G04 #@! TO.P,C5,2*
G04 #@! TO.N,+3V3*
G04 #@! TA.AperFunction,SMDPad,CuDef*
G36*
G01*
X141922000Y-78150500D02*
X141922000Y-77805500D01*
G75*
G02*
X142069500Y-77658000I147500J0D01*
G01*
X142364500Y-77658000D01*
G75*
G02*
X142512000Y-77805500I0J-147500D01*
G01*
X142512000Y-78150500D01*
G75*
G02*
X142364500Y-78298000I-147500J0D01*
G01*
X142069500Y-78298000D01*
G75*
G02*
X141922000Y-78150500I0J147500D01*
G01*
G37*
G04 #@! TD.AperFunction*
G04 #@! TO.P,C5,1*
G04 #@! TO.N,GND*
G04 #@! TA.AperFunction,SMDPad,CuDef*
G36*
G01*
X140952000Y-78150500D02*
X140952000Y-77805500D01*
G75*
G02*
X141099500Y-77658000I147500J0D01*
G01*
X141394500Y-77658000D01*
G75*
G02*
X141542000Y-77805500I0J-147500D01*
G01*
X141542000Y-78150500D01*
G75*
G02*
X141394500Y-78298000I-147500J0D01*
G01*
X141099500Y-78298000D01*
G75*
G02*
X140952000Y-78150500I0J147500D01*
G01*
G37*
G04 #@! TD.AperFunction*
G04 #@! TD*
G04 #@! TO.P,C3,2*
G04 #@! TO.N,GND*
G04 #@! TA.AperFunction,SMDPad,CuDef*
G36*
G01*
X141542000Y-76281500D02*
X141542000Y-76626500D01*
G75*
G02*
X141394500Y-76774000I-147500J0D01*
G01*
X141099500Y-76774000D01*
G75*
G02*
X140952000Y-76626500I0J147500D01*
G01*
X140952000Y-76281500D01*
G75*
G02*
X141099500Y-76134000I147500J0D01*
G01*
X141394500Y-76134000D01*
G75*
G02*
X141542000Y-76281500I0J-147500D01*
G01*
G37*
G04 #@! TD.AperFunction*
G04 #@! TO.P,C3,1*
G04 #@! TO.N,+3V3*
G04 #@! TA.AperFunction,SMDPad,CuDef*
G36*
G01*
X142512000Y-76281500D02*
X142512000Y-76626500D01*
G75*
G02*
X142364500Y-76774000I-147500J0D01*
G01*
X142069500Y-76774000D01*
G75*
G02*
X141922000Y-76626500I0J147500D01*
G01*
X141922000Y-76281500D01*
G75*
G02*
X142069500Y-76134000I147500J0D01*
G01*
X142364500Y-76134000D01*
G75*
G02*
X142512000Y-76281500I0J-147500D01*
G01*
G37*
G04 #@! TD.AperFunction*
G04 #@! TD*
G04 #@! TO.P,C1,2*
G04 #@! TO.N,GND*
G04 #@! TA.AperFunction,SMDPad,CuDef*
G36*
G01*
X136570500Y-71692000D02*
X136225500Y-71692000D01*
G75*
G02*
X136078000Y-71544500I0J147500D01*
G01*
X136078000Y-71249500D01*
G75*
G02*
X136225500Y-71102000I147500J0D01*
G01*
X136570500Y-71102000D01*
G75*
G02*
X136718000Y-71249500I0J-147500D01*
G01*
X136718000Y-71544500D01*
G75*
G02*
X136570500Y-71692000I-147500J0D01*
G01*
G37*
G04 #@! TD.AperFunction*
G04 #@! TO.P,C1,1*
G04 #@! TO.N,VBUS*
G04 #@! TA.AperFunction,SMDPad,CuDef*
G36*
G01*
X136570500Y-72662000D02*
X136225500Y-72662000D01*
G75*
G02*
X136078000Y-72514500I0J147500D01*
G01*
X136078000Y-72219500D01*
G75*
G02*
X136225500Y-72072000I147500J0D01*
G01*
X136570500Y-72072000D01*
G75*
G02*
X136718000Y-72219500I0J-147500D01*
G01*
X136718000Y-72514500D01*
G75*
G02*
X136570500Y-72662000I-147500J0D01*
G01*
G37*
G04 #@! TD.AperFunction*
G04 #@! TD*
D15*
G04 #@! TO.P,TP1,1*
G04 #@! TO.N,VBUS*
X139446000Y-72136000D03*
G04 #@! TD*
D14*
G04 #@! TO.P,J7,2*
G04 #@! TO.N,AIN2*
X153924000Y-69596000D03*
D15*
G04 #@! TO.P,J7,1*
G04 #@! TO.N,AIN3*
X153924000Y-67056000D03*
G04 #@! TD*
D23*
G04 #@! TO.N,SCL*
X153670000Y-83312000D03*
G04 #@! TO.N,SDA*
X150368000Y-84328000D03*
G04 #@! TO.N,AIN2*
X153162000Y-81534000D03*
G04 #@! TO.N,AIN3*
X151638000Y-81534000D03*
G04 #@! TO.N,GND*
X136906000Y-75946000D03*
X134137400Y-75255120D03*
G04 #@! TD*
D24*
G04 #@! TO.N,+3V3*
X153924000Y-76962000D02*
X154178000Y-76708000D01*
X153924000Y-79858000D02*
X153924000Y-76962000D01*
X154178000Y-73812000D02*
X153924000Y-73558000D01*
X154178000Y-76708000D02*
X154178000Y-73812000D01*
X149200000Y-68834000D02*
X148888000Y-68834000D01*
X153924000Y-73558000D02*
X149200000Y-68834000D01*
D25*
X142217000Y-77978000D02*
X142217000Y-76454000D01*
X142217000Y-79199500D02*
X142748000Y-79730500D01*
D24*
X139446000Y-82829500D02*
X140970000Y-81305500D01*
X139446000Y-84556500D02*
X139446000Y-82829500D01*
X140739000Y-78717000D02*
X142217000Y-78717000D01*
X140169990Y-79286010D02*
X140739000Y-78717000D01*
X140169990Y-80505490D02*
X140169990Y-79286010D01*
X140970000Y-81305500D02*
X140169990Y-80505490D01*
D25*
X142217000Y-78717000D02*
X142217000Y-79199500D01*
X142217000Y-77978000D02*
X142217000Y-78717000D01*
D24*
X145567500Y-79730500D02*
X145796000Y-79502000D01*
X142748000Y-79730500D02*
X145567500Y-79730500D01*
X147889875Y-83230601D02*
X146538476Y-84582000D01*
X148906529Y-83230601D02*
X147889875Y-83230601D01*
X152279130Y-79858000D02*
X148906529Y-83230601D01*
X153924000Y-79858000D02*
X152279130Y-79858000D01*
X146538476Y-84582000D02*
X145796000Y-84582000D01*
X147727077Y-83393399D02*
X146538476Y-84582000D01*
X148906529Y-83393399D02*
X147727077Y-83393399D01*
X149079130Y-83566000D02*
X148906529Y-83393399D01*
X151978000Y-83566000D02*
X149079130Y-83566000D01*
G04 #@! TO.N,VBUS*
X136663500Y-72632500D02*
X137287441Y-73256441D01*
X136398000Y-72367000D02*
X136663500Y-72632500D01*
D25*
X138325559Y-73256441D02*
X139446000Y-72136000D01*
X137518441Y-73256441D02*
X138325559Y-73256441D01*
D24*
X137287441Y-73256441D02*
X137518441Y-73256441D01*
D25*
X150202000Y-72136000D02*
X151624000Y-73558000D01*
X139446000Y-72136000D02*
X150202000Y-72136000D01*
D24*
X135716839Y-77593234D02*
X135716839Y-73048161D01*
X135716839Y-73048161D02*
X136398000Y-72367000D01*
X136116845Y-77993240D02*
X135716839Y-77593234D01*
X137316845Y-77993240D02*
X136116845Y-77993240D01*
G04 #@! TO.N,SCL*
X147147399Y-80690601D02*
X148336000Y-79502000D01*
X145225471Y-80690601D02*
X147147399Y-80690601D01*
X145027880Y-80493010D02*
X145225471Y-80690601D01*
X141732510Y-80493010D02*
X145027880Y-80493010D01*
X140970000Y-79730500D02*
X141732510Y-80493010D01*
X153670000Y-83664702D02*
X153670000Y-83312000D01*
X152768702Y-84566000D02*
X153670000Y-83664702D01*
X151978000Y-84566000D02*
X152768702Y-84566000D01*
D25*
G04 #@! TO.N,SDA*
X147072399Y-83305601D02*
X148336000Y-82042000D01*
X144748101Y-83305601D02*
X147072399Y-83305601D01*
X142748000Y-81305500D02*
X144748101Y-83305601D01*
D24*
X150630000Y-84066000D02*
X150368000Y-84328000D01*
X151978000Y-84066000D02*
X150630000Y-84066000D01*
D25*
G04 #@! TO.N,RST*
X139700000Y-86385500D02*
X139446000Y-86131500D01*
X139700000Y-90678000D02*
X139700000Y-86385500D01*
D24*
G04 #@! TO.N,AIN1*
X161102000Y-76708000D02*
X163722000Y-79328000D01*
X159512000Y-76708000D02*
X161102000Y-76708000D01*
X158336999Y-77883001D02*
X159512000Y-76708000D01*
X158336999Y-80607001D02*
X158336999Y-77883001D01*
X156378000Y-82566000D02*
X158336999Y-80607001D01*
G04 #@! TO.N,AIN2*
X155956000Y-71628000D02*
X168728000Y-71628000D01*
X153924000Y-69596000D02*
X155956000Y-71628000D01*
X152130000Y-82566000D02*
X153162000Y-81534000D01*
X151978000Y-82566000D02*
X152130000Y-82566000D01*
G04 #@! TO.N,AIN3*
X163649930Y-66628000D02*
X163722000Y-66628000D01*
X160650929Y-69627001D02*
X163649930Y-66628000D01*
X156495001Y-69627001D02*
X160650929Y-69627001D01*
X153924000Y-67056000D02*
X156495001Y-69627001D01*
X150927990Y-82244010D02*
X151638000Y-81534000D01*
X150927990Y-82806692D02*
X150927990Y-82244010D01*
X151187298Y-83066000D02*
X150927990Y-82806692D01*
X151978000Y-83066000D02*
X151187298Y-83066000D01*
G04 #@! TO.N,/ALERT*
X155587298Y-84066000D02*
X156378000Y-84066000D01*
X153882697Y-85770601D02*
X155587298Y-84066000D01*
X143962101Y-85770601D02*
X153882697Y-85770601D01*
X142773500Y-84582000D02*
X143962101Y-85770601D01*
G04 #@! TO.N,AIN0*
X163389919Y-84328000D02*
X168728000Y-84328000D01*
X159512000Y-80450081D02*
X163389919Y-84328000D01*
X159512000Y-80722702D02*
X159512000Y-80264000D01*
X157168702Y-83066000D02*
X159512000Y-80722702D01*
X156378000Y-83066000D02*
X157168702Y-83066000D01*
X159512000Y-80264000D02*
X159512000Y-80450081D01*
X159512000Y-79248000D02*
X159512000Y-80264000D01*
G04 #@! TO.N,GND*
X133858000Y-72667000D02*
X133881000Y-72644000D01*
X133858000Y-68580000D02*
X135636000Y-66802000D01*
X139656000Y-66802000D02*
X141688000Y-68834000D01*
X135636000Y-66802000D02*
X139656000Y-66802000D01*
X136375000Y-71374000D02*
X136398000Y-71397000D01*
X133858000Y-71374000D02*
X136375000Y-71374000D01*
X133858000Y-72667000D02*
X133858000Y-71374000D01*
X133858000Y-71374000D02*
X133858000Y-68580000D01*
X141247000Y-76454000D02*
X141247000Y-77978000D01*
X141607601Y-75773399D02*
X147147399Y-75773399D01*
X141247000Y-76134000D02*
X141607601Y-75773399D01*
X147147399Y-75773399D02*
X148336000Y-76962000D01*
X141247000Y-76454000D02*
X141247000Y-76134000D01*
X158750000Y-86938000D02*
X156378000Y-84566000D01*
X158750000Y-89154000D02*
X158750000Y-86938000D01*
X157226000Y-90678000D02*
X158750000Y-89154000D01*
X152400000Y-90678000D02*
X157226000Y-90678000D01*
X156084001Y-81183001D02*
X156224000Y-81043002D01*
X156224000Y-81043002D02*
X156224000Y-73558000D01*
X152813999Y-65880999D02*
X157828999Y-65880999D01*
X152748999Y-65945999D02*
X152813999Y-65880999D01*
X152748999Y-70160001D02*
X152748999Y-65945999D01*
X153359999Y-70771001D02*
X152748999Y-70160001D01*
X154462591Y-70771001D02*
X153359999Y-70771001D01*
X157828999Y-65880999D02*
X158750000Y-66802000D01*
X156224000Y-72532410D02*
X154462591Y-70771001D01*
X156224000Y-73558000D02*
X156224000Y-72532410D01*
X157168702Y-83566000D02*
X156378000Y-83566000D01*
X157428010Y-83825308D02*
X157168702Y-83566000D01*
X157428010Y-84306692D02*
X157428010Y-83825308D01*
X157168702Y-84566000D02*
X157428010Y-84306692D01*
X156378000Y-84566000D02*
X157168702Y-84566000D01*
X155327990Y-81939012D02*
X156084001Y-81183001D01*
X155327990Y-83306692D02*
X155327990Y-81939012D01*
X155587298Y-83566000D02*
X155327990Y-83306692D01*
X156378000Y-83566000D02*
X155587298Y-83566000D01*
D25*
X133847840Y-75194160D02*
X133858000Y-75184000D01*
D24*
X135636000Y-84876640D02*
X134127240Y-83367880D01*
X135636000Y-89154000D02*
X135636000Y-84876640D01*
X135834120Y-83367880D02*
X136652000Y-82550000D01*
X134127240Y-83367880D02*
X135834120Y-83367880D01*
X137316845Y-81885155D02*
X137316845Y-80593240D01*
X136652000Y-82550000D02*
X137316845Y-81885155D01*
X136652000Y-83500000D02*
X136652000Y-82550000D01*
X140461490Y-85319010D02*
X138471010Y-85319010D01*
X138471010Y-85319010D02*
X136652000Y-83500000D01*
X141198500Y-84582000D02*
X140461490Y-85319010D01*
X133858000Y-74975720D02*
X134137400Y-75255120D01*
X133858000Y-72667000D02*
X133858000Y-74975720D01*
X137106207Y-76047600D02*
X136641840Y-76047600D01*
X138591846Y-77533239D02*
X137106207Y-76047600D01*
X138591846Y-80403241D02*
X138591846Y-77533239D01*
X138401847Y-80593240D02*
X138591846Y-80403241D01*
X137316845Y-80593240D02*
X138401847Y-80593240D01*
X140167761Y-77533239D02*
X141247000Y-76454000D01*
X138591846Y-77533239D02*
X140167761Y-77533239D01*
X136804400Y-76047600D02*
X136906000Y-75946000D01*
X136641840Y-76047600D02*
X136804400Y-76047600D01*
G04 #@! TD*
D26*
G04 #@! TO.N,GND*
X162826120Y-84839003D02*
X162849918Y-84868001D01*
X162965643Y-84962974D01*
X163097672Y-85033546D01*
X163240933Y-85077003D01*
X163352586Y-85088000D01*
X163352594Y-85088000D01*
X163389919Y-85091676D01*
X163427244Y-85088000D01*
X166839928Y-85088000D01*
X166839928Y-86078000D01*
X166852188Y-86202482D01*
X166888498Y-86322180D01*
X166947463Y-86432494D01*
X167026815Y-86529185D01*
X167123506Y-86608537D01*
X167233820Y-86667502D01*
X167353518Y-86703812D01*
X167478000Y-86716072D01*
X169520000Y-86716072D01*
X169520000Y-90551000D01*
X165486997Y-90551000D01*
X165669897Y-90400897D01*
X165858594Y-90170970D01*
X165998808Y-89908648D01*
X166085151Y-89624012D01*
X166114306Y-89328000D01*
X166085151Y-89031988D01*
X165998808Y-88747352D01*
X165858594Y-88485030D01*
X165669897Y-88255103D01*
X165454097Y-88078000D01*
X165669897Y-87900897D01*
X165858594Y-87670970D01*
X165998808Y-87408648D01*
X166085151Y-87124012D01*
X166114306Y-86828000D01*
X166085151Y-86531988D01*
X165998808Y-86247352D01*
X165858594Y-85985030D01*
X165669897Y-85755103D01*
X165439970Y-85566406D01*
X165177648Y-85426192D01*
X164893012Y-85339849D01*
X164671178Y-85318000D01*
X162772822Y-85318000D01*
X162550988Y-85339849D01*
X162266352Y-85426192D01*
X162004030Y-85566406D01*
X161774103Y-85755103D01*
X161585406Y-85985030D01*
X161445192Y-86247352D01*
X161358849Y-86531988D01*
X161329694Y-86828000D01*
X161358849Y-87124012D01*
X161445192Y-87408648D01*
X161585406Y-87670970D01*
X161774103Y-87900897D01*
X161989903Y-88078000D01*
X161774103Y-88255103D01*
X161759007Y-88273498D01*
X161659103Y-87945408D01*
X161371118Y-87406627D01*
X160953148Y-87130457D01*
X158929605Y-89154000D01*
X158943748Y-89168143D01*
X158764143Y-89347748D01*
X158750000Y-89333605D01*
X158735858Y-89347748D01*
X158556253Y-89168143D01*
X158570395Y-89154000D01*
X156546852Y-87130457D01*
X156128882Y-87406627D01*
X155838351Y-87951557D01*
X155659713Y-88542696D01*
X155599832Y-89157328D01*
X155661010Y-89771831D01*
X155840897Y-90362592D01*
X155941603Y-90551000D01*
X153885000Y-90551000D01*
X153885000Y-90550998D01*
X153720815Y-90550998D01*
X153841481Y-90321109D01*
X153744157Y-90046748D01*
X153595178Y-89796645D01*
X153400269Y-89580412D01*
X153166920Y-89406359D01*
X152904099Y-89281175D01*
X152756890Y-89236524D01*
X152527000Y-89357845D01*
X152527000Y-90551000D01*
X152273000Y-90551000D01*
X152273000Y-89357845D01*
X152043110Y-89236524D01*
X151895901Y-89281175D01*
X151633080Y-89406359D01*
X151399731Y-89580412D01*
X151204822Y-89796645D01*
X151135195Y-89913534D01*
X151013475Y-89731368D01*
X150806632Y-89524525D01*
X150563411Y-89362010D01*
X150293158Y-89250068D01*
X150006260Y-89193000D01*
X149713740Y-89193000D01*
X149426842Y-89250068D01*
X149156589Y-89362010D01*
X148913368Y-89524525D01*
X148706525Y-89731368D01*
X148590000Y-89905760D01*
X148473475Y-89731368D01*
X148266632Y-89524525D01*
X148023411Y-89362010D01*
X147753158Y-89250068D01*
X147466260Y-89193000D01*
X147173740Y-89193000D01*
X146886842Y-89250068D01*
X146616589Y-89362010D01*
X146373368Y-89524525D01*
X146166525Y-89731368D01*
X146050000Y-89905760D01*
X145933475Y-89731368D01*
X145726632Y-89524525D01*
X145483411Y-89362010D01*
X145213158Y-89250068D01*
X144926260Y-89193000D01*
X144633740Y-89193000D01*
X144346842Y-89250068D01*
X144076589Y-89362010D01*
X143833368Y-89524525D01*
X143626525Y-89731368D01*
X143510000Y-89905760D01*
X143393475Y-89731368D01*
X143186632Y-89524525D01*
X142943411Y-89362010D01*
X142673158Y-89250068D01*
X142386260Y-89193000D01*
X142093740Y-89193000D01*
X141806842Y-89250068D01*
X141536589Y-89362010D01*
X141293368Y-89524525D01*
X141161513Y-89656380D01*
X141139502Y-89583820D01*
X141080537Y-89473506D01*
X141001185Y-89376815D01*
X140904494Y-89297463D01*
X140794180Y-89238498D01*
X140674482Y-89202188D01*
X140550000Y-89189928D01*
X140535000Y-89189928D01*
X140535000Y-86950852D01*
X156726457Y-86950852D01*
X158750000Y-88974395D01*
X160773543Y-86950852D01*
X160497373Y-86532882D01*
X159952443Y-86242351D01*
X159361304Y-86063713D01*
X158746672Y-86003832D01*
X158132169Y-86065010D01*
X157541408Y-86244897D01*
X157002627Y-86532882D01*
X156726457Y-86950852D01*
X140535000Y-86950852D01*
X140535000Y-86542488D01*
X140542608Y-86517408D01*
X140559072Y-86350250D01*
X140559072Y-85912750D01*
X140542608Y-85745592D01*
X140511723Y-85643778D01*
X140516820Y-85646502D01*
X140636518Y-85682812D01*
X140761000Y-85695072D01*
X140912750Y-85692000D01*
X141071500Y-85533250D01*
X141071500Y-84709000D01*
X141051500Y-84709000D01*
X141051500Y-84455000D01*
X141071500Y-84455000D01*
X141071500Y-83630750D01*
X140912750Y-83472000D01*
X140761000Y-83468928D01*
X140636518Y-83481188D01*
X140516820Y-83517498D01*
X140406506Y-83576463D01*
X140309815Y-83655815D01*
X140271827Y-83702104D01*
X140206000Y-83648082D01*
X140206000Y-83144301D01*
X140969230Y-82381072D01*
X141226250Y-82381072D01*
X141393408Y-82364608D01*
X141554142Y-82315850D01*
X141702275Y-82236671D01*
X141832115Y-82130115D01*
X141859000Y-82097355D01*
X141885885Y-82130115D01*
X142015725Y-82236671D01*
X142163858Y-82315850D01*
X142324592Y-82364608D01*
X142491750Y-82381072D01*
X142642705Y-82381072D01*
X144128664Y-83867033D01*
X144154810Y-83898892D01*
X144186669Y-83925038D01*
X144186671Y-83925040D01*
X144281955Y-84003237D01*
X144389785Y-84060873D01*
X144354990Y-84144875D01*
X144297400Y-84434401D01*
X144297400Y-84729599D01*
X144353294Y-85010601D01*
X144276903Y-85010601D01*
X143849072Y-84582771D01*
X143849072Y-84325750D01*
X143832608Y-84158592D01*
X143783850Y-83997858D01*
X143704671Y-83849725D01*
X143598115Y-83719885D01*
X143468275Y-83613329D01*
X143320142Y-83534150D01*
X143159408Y-83485392D01*
X142992250Y-83468928D01*
X142554750Y-83468928D01*
X142387592Y-83485392D01*
X142226858Y-83534150D01*
X142078725Y-83613329D01*
X142057070Y-83631100D01*
X141990494Y-83576463D01*
X141880180Y-83517498D01*
X141760482Y-83481188D01*
X141636000Y-83468928D01*
X141484250Y-83472000D01*
X141325500Y-83630750D01*
X141325500Y-84455000D01*
X141345500Y-84455000D01*
X141345500Y-84709000D01*
X141325500Y-84709000D01*
X141325500Y-85533250D01*
X141484250Y-85692000D01*
X141636000Y-85695072D01*
X141760482Y-85682812D01*
X141880180Y-85646502D01*
X141990494Y-85587537D01*
X142057070Y-85532900D01*
X142078725Y-85550671D01*
X142226858Y-85629850D01*
X142387592Y-85678608D01*
X142554750Y-85695072D01*
X142811771Y-85695072D01*
X143398302Y-86281604D01*
X143422100Y-86310602D01*
X143537825Y-86405575D01*
X143669854Y-86476147D01*
X143813115Y-86519604D01*
X143924768Y-86530601D01*
X143924776Y-86530601D01*
X143962101Y-86534277D01*
X143999426Y-86530601D01*
X153845375Y-86530601D01*
X153882697Y-86534277D01*
X153920019Y-86530601D01*
X153920030Y-86530601D01*
X154031683Y-86519604D01*
X154174944Y-86476147D01*
X154306973Y-86405575D01*
X154422698Y-86310602D01*
X154446501Y-86281598D01*
X155418698Y-85309401D01*
X155538061Y-85343634D01*
X155662715Y-85353998D01*
X156092250Y-85351000D01*
X156251000Y-85192250D01*
X156251000Y-84854072D01*
X156505000Y-84854072D01*
X156505000Y-85192250D01*
X156663750Y-85351000D01*
X157093285Y-85353998D01*
X157217939Y-85343634D01*
X157338175Y-85309151D01*
X157449375Y-85251874D01*
X157547263Y-85174003D01*
X157628078Y-85078531D01*
X157688715Y-84969127D01*
X157726844Y-84849996D01*
X157738000Y-84747750D01*
X157579250Y-84589000D01*
X157578355Y-84589000D01*
X157620898Y-84537162D01*
X157662018Y-84460232D01*
X157738000Y-84384250D01*
X157726844Y-84282004D01*
X157726820Y-84281929D01*
X157727371Y-84280113D01*
X157741072Y-84141000D01*
X157741072Y-83991000D01*
X157727371Y-83851887D01*
X157726820Y-83850071D01*
X157726844Y-83849996D01*
X157738000Y-83747750D01*
X157683252Y-83693002D01*
X157738000Y-83693002D01*
X157738000Y-83571503D01*
X159648311Y-81661193D01*
X162826120Y-84839003D01*
G04 #@! TA.AperFunction,Conductor*
D27*
G36*
X162826120Y-84839003D02*
G01*
X162849918Y-84868001D01*
X162965643Y-84962974D01*
X163097672Y-85033546D01*
X163240933Y-85077003D01*
X163352586Y-85088000D01*
X163352594Y-85088000D01*
X163389919Y-85091676D01*
X163427244Y-85088000D01*
X166839928Y-85088000D01*
X166839928Y-86078000D01*
X166852188Y-86202482D01*
X166888498Y-86322180D01*
X166947463Y-86432494D01*
X167026815Y-86529185D01*
X167123506Y-86608537D01*
X167233820Y-86667502D01*
X167353518Y-86703812D01*
X167478000Y-86716072D01*
X169520000Y-86716072D01*
X169520000Y-90551000D01*
X165486997Y-90551000D01*
X165669897Y-90400897D01*
X165858594Y-90170970D01*
X165998808Y-89908648D01*
X166085151Y-89624012D01*
X166114306Y-89328000D01*
X166085151Y-89031988D01*
X165998808Y-88747352D01*
X165858594Y-88485030D01*
X165669897Y-88255103D01*
X165454097Y-88078000D01*
X165669897Y-87900897D01*
X165858594Y-87670970D01*
X165998808Y-87408648D01*
X166085151Y-87124012D01*
X166114306Y-86828000D01*
X166085151Y-86531988D01*
X165998808Y-86247352D01*
X165858594Y-85985030D01*
X165669897Y-85755103D01*
X165439970Y-85566406D01*
X165177648Y-85426192D01*
X164893012Y-85339849D01*
X164671178Y-85318000D01*
X162772822Y-85318000D01*
X162550988Y-85339849D01*
X162266352Y-85426192D01*
X162004030Y-85566406D01*
X161774103Y-85755103D01*
X161585406Y-85985030D01*
X161445192Y-86247352D01*
X161358849Y-86531988D01*
X161329694Y-86828000D01*
X161358849Y-87124012D01*
X161445192Y-87408648D01*
X161585406Y-87670970D01*
X161774103Y-87900897D01*
X161989903Y-88078000D01*
X161774103Y-88255103D01*
X161759007Y-88273498D01*
X161659103Y-87945408D01*
X161371118Y-87406627D01*
X160953148Y-87130457D01*
X158929605Y-89154000D01*
X158943748Y-89168143D01*
X158764143Y-89347748D01*
X158750000Y-89333605D01*
X158735858Y-89347748D01*
X158556253Y-89168143D01*
X158570395Y-89154000D01*
X156546852Y-87130457D01*
X156128882Y-87406627D01*
X155838351Y-87951557D01*
X155659713Y-88542696D01*
X155599832Y-89157328D01*
X155661010Y-89771831D01*
X155840897Y-90362592D01*
X155941603Y-90551000D01*
X153885000Y-90551000D01*
X153885000Y-90550998D01*
X153720815Y-90550998D01*
X153841481Y-90321109D01*
X153744157Y-90046748D01*
X153595178Y-89796645D01*
X153400269Y-89580412D01*
X153166920Y-89406359D01*
X152904099Y-89281175D01*
X152756890Y-89236524D01*
X152527000Y-89357845D01*
X152527000Y-90551000D01*
X152273000Y-90551000D01*
X152273000Y-89357845D01*
X152043110Y-89236524D01*
X151895901Y-89281175D01*
X151633080Y-89406359D01*
X151399731Y-89580412D01*
X151204822Y-89796645D01*
X151135195Y-89913534D01*
X151013475Y-89731368D01*
X150806632Y-89524525D01*
X150563411Y-89362010D01*
X150293158Y-89250068D01*
X150006260Y-89193000D01*
X149713740Y-89193000D01*
X149426842Y-89250068D01*
X149156589Y-89362010D01*
X148913368Y-89524525D01*
X148706525Y-89731368D01*
X148590000Y-89905760D01*
X148473475Y-89731368D01*
X148266632Y-89524525D01*
X148023411Y-89362010D01*
X147753158Y-89250068D01*
X147466260Y-89193000D01*
X147173740Y-89193000D01*
X146886842Y-89250068D01*
X146616589Y-89362010D01*
X146373368Y-89524525D01*
X146166525Y-89731368D01*
X146050000Y-89905760D01*
X145933475Y-89731368D01*
X145726632Y-89524525D01*
X145483411Y-89362010D01*
X145213158Y-89250068D01*
X144926260Y-89193000D01*
X144633740Y-89193000D01*
X144346842Y-89250068D01*
X144076589Y-89362010D01*
X143833368Y-89524525D01*
X143626525Y-89731368D01*
X143510000Y-89905760D01*
X143393475Y-89731368D01*
X143186632Y-89524525D01*
X142943411Y-89362010D01*
X142673158Y-89250068D01*
X142386260Y-89193000D01*
X142093740Y-89193000D01*
X141806842Y-89250068D01*
X141536589Y-89362010D01*
X141293368Y-89524525D01*
X141161513Y-89656380D01*
X141139502Y-89583820D01*
X141080537Y-89473506D01*
X141001185Y-89376815D01*
X140904494Y-89297463D01*
X140794180Y-89238498D01*
X140674482Y-89202188D01*
X140550000Y-89189928D01*
X140535000Y-89189928D01*
X140535000Y-86950852D01*
X156726457Y-86950852D01*
X158750000Y-88974395D01*
X160773543Y-86950852D01*
X160497373Y-86532882D01*
X159952443Y-86242351D01*
X159361304Y-86063713D01*
X158746672Y-86003832D01*
X158132169Y-86065010D01*
X157541408Y-86244897D01*
X157002627Y-86532882D01*
X156726457Y-86950852D01*
X140535000Y-86950852D01*
X140535000Y-86542488D01*
X140542608Y-86517408D01*
X140559072Y-86350250D01*
X140559072Y-85912750D01*
X140542608Y-85745592D01*
X140511723Y-85643778D01*
X140516820Y-85646502D01*
X140636518Y-85682812D01*
X140761000Y-85695072D01*
X140912750Y-85692000D01*
X141071500Y-85533250D01*
X141071500Y-84709000D01*
X141051500Y-84709000D01*
X141051500Y-84455000D01*
X141071500Y-84455000D01*
X141071500Y-83630750D01*
X140912750Y-83472000D01*
X140761000Y-83468928D01*
X140636518Y-83481188D01*
X140516820Y-83517498D01*
X140406506Y-83576463D01*
X140309815Y-83655815D01*
X140271827Y-83702104D01*
X140206000Y-83648082D01*
X140206000Y-83144301D01*
X140969230Y-82381072D01*
X141226250Y-82381072D01*
X141393408Y-82364608D01*
X141554142Y-82315850D01*
X141702275Y-82236671D01*
X141832115Y-82130115D01*
X141859000Y-82097355D01*
X141885885Y-82130115D01*
X142015725Y-82236671D01*
X142163858Y-82315850D01*
X142324592Y-82364608D01*
X142491750Y-82381072D01*
X142642705Y-82381072D01*
X144128664Y-83867033D01*
X144154810Y-83898892D01*
X144186669Y-83925038D01*
X144186671Y-83925040D01*
X144281955Y-84003237D01*
X144389785Y-84060873D01*
X144354990Y-84144875D01*
X144297400Y-84434401D01*
X144297400Y-84729599D01*
X144353294Y-85010601D01*
X144276903Y-85010601D01*
X143849072Y-84582771D01*
X143849072Y-84325750D01*
X143832608Y-84158592D01*
X143783850Y-83997858D01*
X143704671Y-83849725D01*
X143598115Y-83719885D01*
X143468275Y-83613329D01*
X143320142Y-83534150D01*
X143159408Y-83485392D01*
X142992250Y-83468928D01*
X142554750Y-83468928D01*
X142387592Y-83485392D01*
X142226858Y-83534150D01*
X142078725Y-83613329D01*
X142057070Y-83631100D01*
X141990494Y-83576463D01*
X141880180Y-83517498D01*
X141760482Y-83481188D01*
X141636000Y-83468928D01*
X141484250Y-83472000D01*
X141325500Y-83630750D01*
X141325500Y-84455000D01*
X141345500Y-84455000D01*
X141345500Y-84709000D01*
X141325500Y-84709000D01*
X141325500Y-85533250D01*
X141484250Y-85692000D01*
X141636000Y-85695072D01*
X141760482Y-85682812D01*
X141880180Y-85646502D01*
X141990494Y-85587537D01*
X142057070Y-85532900D01*
X142078725Y-85550671D01*
X142226858Y-85629850D01*
X142387592Y-85678608D01*
X142554750Y-85695072D01*
X142811771Y-85695072D01*
X143398302Y-86281604D01*
X143422100Y-86310602D01*
X143537825Y-86405575D01*
X143669854Y-86476147D01*
X143813115Y-86519604D01*
X143924768Y-86530601D01*
X143924776Y-86530601D01*
X143962101Y-86534277D01*
X143999426Y-86530601D01*
X153845375Y-86530601D01*
X153882697Y-86534277D01*
X153920019Y-86530601D01*
X153920030Y-86530601D01*
X154031683Y-86519604D01*
X154174944Y-86476147D01*
X154306973Y-86405575D01*
X154422698Y-86310602D01*
X154446501Y-86281598D01*
X155418698Y-85309401D01*
X155538061Y-85343634D01*
X155662715Y-85353998D01*
X156092250Y-85351000D01*
X156251000Y-85192250D01*
X156251000Y-84854072D01*
X156505000Y-84854072D01*
X156505000Y-85192250D01*
X156663750Y-85351000D01*
X157093285Y-85353998D01*
X157217939Y-85343634D01*
X157338175Y-85309151D01*
X157449375Y-85251874D01*
X157547263Y-85174003D01*
X157628078Y-85078531D01*
X157688715Y-84969127D01*
X157726844Y-84849996D01*
X157738000Y-84747750D01*
X157579250Y-84589000D01*
X157578355Y-84589000D01*
X157620898Y-84537162D01*
X157662018Y-84460232D01*
X157738000Y-84384250D01*
X157726844Y-84282004D01*
X157726820Y-84281929D01*
X157727371Y-84280113D01*
X157741072Y-84141000D01*
X157741072Y-83991000D01*
X157727371Y-83851887D01*
X157726820Y-83850071D01*
X157726844Y-83849996D01*
X157738000Y-83747750D01*
X157683252Y-83693002D01*
X157738000Y-83693002D01*
X157738000Y-83571503D01*
X159648311Y-81661193D01*
X162826120Y-84839003D01*
G37*
G04 #@! TD.AperFunction*
D26*
X156546850Y-64778458D02*
X156128882Y-65054627D01*
X155838351Y-65599557D01*
X155659713Y-66190696D01*
X155599832Y-66805328D01*
X155661010Y-67419831D01*
X155791644Y-67848842D01*
X155412072Y-67469270D01*
X155412072Y-66206000D01*
X155399812Y-66081518D01*
X155363502Y-65961820D01*
X155304537Y-65851506D01*
X155225185Y-65754815D01*
X155128494Y-65675463D01*
X155018180Y-65616498D01*
X154898482Y-65580188D01*
X154774000Y-65567928D01*
X153074000Y-65567928D01*
X152949518Y-65580188D01*
X152829820Y-65616498D01*
X152719506Y-65675463D01*
X152622815Y-65754815D01*
X152543463Y-65851506D01*
X152484498Y-65961820D01*
X152448188Y-66081518D01*
X152435928Y-66206000D01*
X152435928Y-67906000D01*
X152448188Y-68030482D01*
X152484498Y-68150180D01*
X152543463Y-68260494D01*
X152622815Y-68357185D01*
X152719506Y-68436537D01*
X152829820Y-68495502D01*
X152902380Y-68517513D01*
X152770525Y-68649368D01*
X152608010Y-68892589D01*
X152496068Y-69162842D01*
X152439000Y-69449740D01*
X152439000Y-69742260D01*
X152496068Y-70029158D01*
X152608010Y-70299411D01*
X152770525Y-70542632D01*
X152977368Y-70749475D01*
X153220589Y-70911990D01*
X153490842Y-71023932D01*
X153777740Y-71081000D01*
X154070260Y-71081000D01*
X154290408Y-71037209D01*
X155224526Y-71971328D01*
X155119506Y-72027463D01*
X155074000Y-72064809D01*
X155028494Y-72027463D01*
X154918180Y-71968498D01*
X154798482Y-71932188D01*
X154674000Y-71919928D01*
X153360730Y-71919928D01*
X151600163Y-70159362D01*
X151626405Y-70127386D01*
X151708472Y-69973850D01*
X151759008Y-69807254D01*
X151776072Y-69634000D01*
X151776072Y-68034000D01*
X151759008Y-67860746D01*
X151708472Y-67694150D01*
X151626405Y-67540614D01*
X151515962Y-67406038D01*
X151381386Y-67295595D01*
X151227850Y-67213528D01*
X151061254Y-67162992D01*
X150888000Y-67145928D01*
X146888000Y-67145928D01*
X146714746Y-67162992D01*
X146548150Y-67213528D01*
X146394614Y-67295595D01*
X146260038Y-67406038D01*
X146149595Y-67540614D01*
X146067528Y-67694150D01*
X146016992Y-67860746D01*
X145999928Y-68034000D01*
X145999928Y-69634000D01*
X146016992Y-69807254D01*
X146067528Y-69973850D01*
X146149595Y-70127386D01*
X146260038Y-70261962D01*
X146394614Y-70372405D01*
X146548150Y-70454472D01*
X146714746Y-70505008D01*
X146888000Y-70522072D01*
X149813271Y-70522072D01*
X151211126Y-71919928D01*
X151166796Y-71919928D01*
X150821446Y-71574578D01*
X150795291Y-71542709D01*
X150668146Y-71438364D01*
X150523087Y-71360828D01*
X150365689Y-71313082D01*
X150243019Y-71301000D01*
X150243018Y-71301000D01*
X150202000Y-71296960D01*
X150160982Y-71301000D01*
X140934072Y-71301000D01*
X140934072Y-71286000D01*
X140921812Y-71161518D01*
X140885502Y-71041820D01*
X140826537Y-70931506D01*
X140747185Y-70834815D01*
X140650494Y-70755463D01*
X140540180Y-70696498D01*
X140420482Y-70660188D01*
X140296000Y-70647928D01*
X138596000Y-70647928D01*
X138471518Y-70660188D01*
X138351820Y-70696498D01*
X138241506Y-70755463D01*
X138144815Y-70834815D01*
X138065463Y-70931506D01*
X138006498Y-71041820D01*
X137970188Y-71161518D01*
X137957928Y-71286000D01*
X137957928Y-72421441D01*
X137527243Y-72421441D01*
X137356072Y-72250271D01*
X137356072Y-72219500D01*
X137340977Y-72066243D01*
X137303688Y-71943316D01*
X137307502Y-71936180D01*
X137343812Y-71816482D01*
X137356072Y-71692000D01*
X137353000Y-71682750D01*
X137194250Y-71524000D01*
X136927763Y-71524000D01*
X136871125Y-71493726D01*
X136723757Y-71449023D01*
X136570500Y-71433928D01*
X136225500Y-71433928D01*
X136072243Y-71449023D01*
X135924875Y-71493726D01*
X135868237Y-71524000D01*
X135601750Y-71524000D01*
X135443000Y-71682750D01*
X135439928Y-71692000D01*
X135452188Y-71816482D01*
X135488498Y-71936180D01*
X135492312Y-71943316D01*
X135455023Y-72066243D01*
X135439928Y-72219500D01*
X135439928Y-72250271D01*
X135205837Y-72484362D01*
X135176839Y-72508160D01*
X135153041Y-72537158D01*
X135153040Y-72537159D01*
X135081865Y-72623885D01*
X135011293Y-72755915D01*
X134995191Y-72808998D01*
X134967837Y-72899175D01*
X134964274Y-72935354D01*
X134953163Y-73048161D01*
X134956840Y-73085493D01*
X134956840Y-73923887D01*
X134887400Y-73917048D01*
X134423150Y-73920120D01*
X134264400Y-74078870D01*
X134264400Y-75128120D01*
X134284400Y-75128120D01*
X134284400Y-75382120D01*
X134264400Y-75382120D01*
X134264400Y-76431370D01*
X134423150Y-76590120D01*
X134887400Y-76593192D01*
X134956839Y-76586353D01*
X134956839Y-77555911D01*
X134953163Y-77593234D01*
X134956839Y-77630556D01*
X134956839Y-77630566D01*
X134967836Y-77742219D01*
X135009012Y-77877960D01*
X135011293Y-77885480D01*
X135081865Y-78017510D01*
X135117549Y-78060990D01*
X135176838Y-78133235D01*
X135205842Y-78157038D01*
X135553041Y-78504237D01*
X135576844Y-78533241D01*
X135692569Y-78628214D01*
X135728773Y-78647566D01*
X135728773Y-78843240D01*
X135741033Y-78967722D01*
X135741190Y-78968240D01*
X135741033Y-78968758D01*
X135728773Y-79093240D01*
X135728773Y-79493240D01*
X135741033Y-79617722D01*
X135741190Y-79618240D01*
X135741033Y-79618758D01*
X135728773Y-79743240D01*
X135728773Y-80143240D01*
X135741033Y-80267722D01*
X135741682Y-80269862D01*
X135731845Y-80361490D01*
X135799813Y-80429458D01*
X135836308Y-80497734D01*
X135873597Y-80543171D01*
X135827372Y-80574058D01*
X135697138Y-80704292D01*
X135594814Y-80857431D01*
X135524332Y-81027591D01*
X135488400Y-81208231D01*
X135488400Y-81392409D01*
X135512313Y-81512625D01*
X135462498Y-81605820D01*
X135426188Y-81725518D01*
X135413928Y-81850000D01*
X135417000Y-82264250D01*
X135575748Y-82422998D01*
X135466367Y-82422998D01*
X135407777Y-82313386D01*
X135328425Y-82216695D01*
X135231734Y-82137343D01*
X135121420Y-82078378D01*
X135001722Y-82042068D01*
X134877240Y-82029808D01*
X134412990Y-82032880D01*
X134254240Y-82191630D01*
X134254240Y-83240880D01*
X134274240Y-83240880D01*
X134274240Y-83494880D01*
X134254240Y-83494880D01*
X134254240Y-84544130D01*
X134412990Y-84702880D01*
X134877240Y-84705952D01*
X135001722Y-84693692D01*
X135121420Y-84657382D01*
X135231734Y-84598417D01*
X135328425Y-84519065D01*
X135407777Y-84422374D01*
X135466742Y-84312060D01*
X135503052Y-84192362D01*
X135515312Y-84067880D01*
X135512240Y-83653630D01*
X135353492Y-83494882D01*
X135462873Y-83494882D01*
X135521463Y-83604494D01*
X135600815Y-83701185D01*
X135697506Y-83780537D01*
X135807820Y-83839502D01*
X135927518Y-83875812D01*
X136052000Y-83888072D01*
X136366250Y-83885000D01*
X136525000Y-83726250D01*
X136525000Y-82677000D01*
X136779000Y-82677000D01*
X136779000Y-83726250D01*
X136937750Y-83885000D01*
X137252000Y-83888072D01*
X137376482Y-83875812D01*
X137496180Y-83839502D01*
X137606494Y-83780537D01*
X137703185Y-83701185D01*
X137782537Y-83604494D01*
X137841502Y-83494180D01*
X137877812Y-83374482D01*
X137890072Y-83250000D01*
X137887000Y-82835750D01*
X137728250Y-82677000D01*
X136779000Y-82677000D01*
X136525000Y-82677000D01*
X136505000Y-82677000D01*
X136505000Y-82423000D01*
X136525000Y-82423000D01*
X136525000Y-82403000D01*
X136779000Y-82403000D01*
X136779000Y-82423000D01*
X137728250Y-82423000D01*
X137887000Y-82264250D01*
X137890072Y-81850000D01*
X137877812Y-81725518D01*
X137841502Y-81605820D01*
X137782537Y-81495506D01*
X137727807Y-81428817D01*
X138258854Y-81431262D01*
X138383479Y-81420562D01*
X138503623Y-81385753D01*
X138614667Y-81328175D01*
X138712344Y-81250040D01*
X138792901Y-81154350D01*
X138853242Y-81044783D01*
X138891049Y-80925549D01*
X138901845Y-80824990D01*
X138743095Y-80666240D01*
X138630523Y-80666240D01*
X138718030Y-80594425D01*
X138797382Y-80497734D01*
X138833877Y-80429458D01*
X138901845Y-80361490D01*
X138892008Y-80269862D01*
X138892657Y-80267722D01*
X138904917Y-80143240D01*
X138904917Y-79743240D01*
X138892657Y-79618758D01*
X138892500Y-79618240D01*
X138892657Y-79617722D01*
X138904917Y-79493240D01*
X138904917Y-79093240D01*
X138892657Y-78968758D01*
X138892500Y-78968240D01*
X138892657Y-78967722D01*
X138904917Y-78843240D01*
X138904917Y-78443240D01*
X138892657Y-78318758D01*
X138892500Y-78318240D01*
X138892657Y-78317722D01*
X138904917Y-78193240D01*
X138904917Y-77793240D01*
X138892657Y-77668758D01*
X138856347Y-77549060D01*
X138797382Y-77438746D01*
X138718030Y-77342055D01*
X138621339Y-77262703D01*
X138511025Y-77203738D01*
X138391327Y-77167428D01*
X138266845Y-77155168D01*
X137728820Y-77155168D01*
X137772377Y-77102094D01*
X137831342Y-76991780D01*
X137867652Y-76872082D01*
X137877311Y-76774000D01*
X140313928Y-76774000D01*
X140326188Y-76898482D01*
X140362498Y-77018180D01*
X140421463Y-77128494D01*
X140493277Y-77216000D01*
X140421463Y-77303506D01*
X140362498Y-77413820D01*
X140326188Y-77533518D01*
X140313928Y-77658000D01*
X140317000Y-77692250D01*
X140475750Y-77851000D01*
X141120000Y-77851000D01*
X141120000Y-76581000D01*
X140475750Y-76581000D01*
X140317000Y-76739750D01*
X140313928Y-76774000D01*
X137877311Y-76774000D01*
X137879912Y-76747600D01*
X137876840Y-76333350D01*
X137718090Y-76174600D01*
X136768840Y-76174600D01*
X136768840Y-76194600D01*
X136514840Y-76194600D01*
X136514840Y-76174600D01*
X136494840Y-76174600D01*
X136494840Y-76134000D01*
X140313928Y-76134000D01*
X140317000Y-76168250D01*
X140475750Y-76327000D01*
X141120000Y-76327000D01*
X141120000Y-75657750D01*
X140961250Y-75499000D01*
X140952000Y-75495928D01*
X140827518Y-75508188D01*
X140707820Y-75544498D01*
X140597506Y-75603463D01*
X140500815Y-75682815D01*
X140421463Y-75779506D01*
X140362498Y-75889820D01*
X140326188Y-76009518D01*
X140313928Y-76134000D01*
X136494840Y-76134000D01*
X136494840Y-75920600D01*
X136514840Y-75920600D01*
X136514840Y-74871350D01*
X136768840Y-74871350D01*
X136768840Y-75920600D01*
X137718090Y-75920600D01*
X137876840Y-75761850D01*
X137879912Y-75347600D01*
X137867652Y-75223118D01*
X137831342Y-75103420D01*
X137772377Y-74993106D01*
X137693025Y-74896415D01*
X137596334Y-74817063D01*
X137486020Y-74758098D01*
X137366322Y-74721788D01*
X137241840Y-74709528D01*
X136927590Y-74712600D01*
X136768840Y-74871350D01*
X136514840Y-74871350D01*
X136476839Y-74833349D01*
X136476839Y-73520641D01*
X136723641Y-73767443D01*
X136747440Y-73796442D01*
X136863165Y-73891415D01*
X136995194Y-73961987D01*
X137138455Y-74005444D01*
X137150641Y-74006644D01*
X137197354Y-74031613D01*
X137354752Y-74079359D01*
X137477422Y-74091441D01*
X138284541Y-74091441D01*
X138325559Y-74095481D01*
X138366577Y-74091441D01*
X138366578Y-74091441D01*
X138489248Y-74079359D01*
X138646646Y-74031613D01*
X138791705Y-73954077D01*
X138918850Y-73849732D01*
X138945004Y-73817863D01*
X139138795Y-73624072D01*
X140296000Y-73624072D01*
X140420482Y-73611812D01*
X140540180Y-73575502D01*
X140650494Y-73516537D01*
X140747185Y-73437185D01*
X140826537Y-73340494D01*
X140885502Y-73230180D01*
X140921812Y-73110482D01*
X140934072Y-72986000D01*
X140934072Y-72971000D01*
X149856133Y-72971000D01*
X150235928Y-73350796D01*
X150235928Y-74558000D01*
X150248188Y-74682482D01*
X150284498Y-74802180D01*
X150343463Y-74912494D01*
X150422815Y-75009185D01*
X150519506Y-75088537D01*
X150629820Y-75147502D01*
X150749518Y-75183812D01*
X150874000Y-75196072D01*
X152374000Y-75196072D01*
X152498482Y-75183812D01*
X152618180Y-75147502D01*
X152728494Y-75088537D01*
X152774000Y-75051191D01*
X152819506Y-75088537D01*
X152929820Y-75147502D01*
X153049518Y-75183812D01*
X153174000Y-75196072D01*
X153418001Y-75196072D01*
X153418001Y-75219928D01*
X153328000Y-75219928D01*
X153203518Y-75232188D01*
X153083820Y-75268498D01*
X152973506Y-75327463D01*
X152876815Y-75406815D01*
X152797463Y-75503506D01*
X152738498Y-75613820D01*
X152702188Y-75733518D01*
X152689928Y-75858000D01*
X152689928Y-77558000D01*
X152702188Y-77682482D01*
X152738498Y-77802180D01*
X152797463Y-77912494D01*
X152876815Y-78009185D01*
X152973506Y-78088537D01*
X153083820Y-78147502D01*
X153164001Y-78171825D01*
X153164001Y-78219928D01*
X152024000Y-78219928D01*
X151899518Y-78232188D01*
X151779820Y-78268498D01*
X151669506Y-78327463D01*
X151572815Y-78406815D01*
X151493463Y-78503506D01*
X151434498Y-78613820D01*
X151398188Y-78733518D01*
X151385928Y-78858000D01*
X151385928Y-79676400D01*
X149683414Y-81378915D01*
X149664042Y-81332147D01*
X149500039Y-81086698D01*
X149291302Y-80877961D01*
X149132719Y-80772000D01*
X149291302Y-80666039D01*
X149500039Y-80457302D01*
X149664042Y-80211853D01*
X149777010Y-79939125D01*
X149834600Y-79649599D01*
X149834600Y-79354401D01*
X149777010Y-79064875D01*
X149664042Y-78792147D01*
X149500039Y-78546698D01*
X149291302Y-78337961D01*
X149125897Y-78227441D01*
X149224488Y-78168817D01*
X149442854Y-77972293D01*
X149618684Y-77736944D01*
X149745222Y-77471814D01*
X149790958Y-77321026D01*
X149669817Y-77089000D01*
X148463000Y-77089000D01*
X148463000Y-77109000D01*
X148209000Y-77109000D01*
X148209000Y-77089000D01*
X148189000Y-77089000D01*
X148189000Y-76835000D01*
X148209000Y-76835000D01*
X148209000Y-75627536D01*
X148463000Y-75627536D01*
X148463000Y-76835000D01*
X149669817Y-76835000D01*
X149790958Y-76602974D01*
X149745222Y-76452186D01*
X149618684Y-76187056D01*
X149442854Y-75951707D01*
X149224488Y-75755183D01*
X148971978Y-75605036D01*
X148695027Y-75507037D01*
X148463000Y-75627536D01*
X148209000Y-75627536D01*
X147976973Y-75507037D01*
X147700022Y-75605036D01*
X147447512Y-75755183D01*
X147268053Y-75916692D01*
X147249102Y-75854220D01*
X147190137Y-75743906D01*
X147110785Y-75647215D01*
X147014094Y-75567863D01*
X146903780Y-75508898D01*
X146784082Y-75472588D01*
X146659600Y-75460328D01*
X144932400Y-75460328D01*
X144807918Y-75472588D01*
X144688220Y-75508898D01*
X144577906Y-75567863D01*
X144481215Y-75647215D01*
X144401863Y-75743906D01*
X144342898Y-75854220D01*
X144306588Y-75973918D01*
X144294328Y-76098400D01*
X144294328Y-77825600D01*
X144306588Y-77950082D01*
X144342898Y-78069780D01*
X144401863Y-78180094D01*
X144481215Y-78276785D01*
X144577906Y-78356137D01*
X144688220Y-78415102D01*
X144746023Y-78432636D01*
X144631961Y-78546698D01*
X144467958Y-78792147D01*
X144394082Y-78970500D01*
X143663143Y-78970500D01*
X143610115Y-78905885D01*
X143480275Y-78799329D01*
X143332142Y-78720150D01*
X143171408Y-78671392D01*
X143052000Y-78659631D01*
X143052000Y-78522730D01*
X143090274Y-78451125D01*
X143134977Y-78303757D01*
X143150072Y-78150500D01*
X143150072Y-77805500D01*
X143134977Y-77652243D01*
X143090274Y-77504875D01*
X143052000Y-77433270D01*
X143052000Y-76998730D01*
X143090274Y-76927125D01*
X143134977Y-76779757D01*
X143150072Y-76626500D01*
X143150072Y-76281500D01*
X143134977Y-76128243D01*
X143090274Y-75980875D01*
X143017679Y-75845060D01*
X142919983Y-75726017D01*
X142800940Y-75628321D01*
X142665125Y-75555726D01*
X142517757Y-75511023D01*
X142364500Y-75495928D01*
X142069500Y-75495928D01*
X141916243Y-75511023D01*
X141793316Y-75548312D01*
X141786180Y-75544498D01*
X141666482Y-75508188D01*
X141542000Y-75495928D01*
X141532750Y-75499000D01*
X141374000Y-75657750D01*
X141374000Y-75924237D01*
X141343726Y-75980875D01*
X141299023Y-76128243D01*
X141283928Y-76281500D01*
X141283928Y-76626500D01*
X141299023Y-76779757D01*
X141343726Y-76927125D01*
X141374000Y-76983763D01*
X141374000Y-77448237D01*
X141343726Y-77504875D01*
X141299023Y-77652243D01*
X141283928Y-77805500D01*
X141283928Y-77957000D01*
X140776325Y-77957000D01*
X140739000Y-77953324D01*
X140701675Y-77957000D01*
X140701667Y-77957000D01*
X140590014Y-77967997D01*
X140446753Y-78011454D01*
X140314724Y-78082026D01*
X140198999Y-78176999D01*
X140175200Y-78205998D01*
X139658988Y-78722211D01*
X139629990Y-78746009D01*
X139606192Y-78775007D01*
X139606191Y-78775008D01*
X139535016Y-78861734D01*
X139464444Y-78993764D01*
X139434170Y-79093568D01*
X139429490Y-79108998D01*
X139420988Y-79137025D01*
X139406314Y-79286010D01*
X139409991Y-79323342D01*
X139409990Y-80468167D01*
X139406314Y-80505490D01*
X139409990Y-80542812D01*
X139409990Y-80542822D01*
X139420987Y-80654475D01*
X139455743Y-80769052D01*
X139464444Y-80797736D01*
X139535016Y-80929766D01*
X139567663Y-80969546D01*
X139629989Y-81045491D01*
X139658992Y-81069293D01*
X139856928Y-81267229D01*
X139856928Y-81343770D01*
X138934998Y-82265701D01*
X138906000Y-82289499D01*
X138882202Y-82318497D01*
X138882201Y-82318498D01*
X138811026Y-82405224D01*
X138740454Y-82537254D01*
X138720381Y-82603430D01*
X138700831Y-82667880D01*
X138696998Y-82680515D01*
X138682324Y-82829500D01*
X138686001Y-82866832D01*
X138686001Y-83648082D01*
X138583885Y-83731885D01*
X138477329Y-83861725D01*
X138398150Y-84009858D01*
X138349392Y-84170592D01*
X138332928Y-84337750D01*
X138332928Y-84775250D01*
X138349392Y-84942408D01*
X138398150Y-85103142D01*
X138477329Y-85251275D01*
X138553426Y-85344000D01*
X138477329Y-85436725D01*
X138398150Y-85584858D01*
X138349392Y-85745592D01*
X138332928Y-85912750D01*
X138332928Y-86350250D01*
X138349392Y-86517408D01*
X138398150Y-86678142D01*
X138477329Y-86826275D01*
X138583885Y-86956115D01*
X138713725Y-87062671D01*
X138861858Y-87141850D01*
X138865001Y-87142803D01*
X138865000Y-89189928D01*
X138850000Y-89189928D01*
X138781688Y-89196656D01*
X138786168Y-89150672D01*
X138724990Y-88536169D01*
X138545103Y-87945408D01*
X138257118Y-87406627D01*
X137839148Y-87130457D01*
X135815605Y-89154000D01*
X135829748Y-89168143D01*
X135650143Y-89347748D01*
X135636000Y-89333605D01*
X135621858Y-89347748D01*
X135442253Y-89168143D01*
X135456395Y-89154000D01*
X135442253Y-89139858D01*
X135621858Y-88960253D01*
X135636000Y-88974395D01*
X137659543Y-86950852D01*
X137383373Y-86532882D01*
X136838443Y-86242351D01*
X136247304Y-86063713D01*
X135632672Y-86003832D01*
X135018169Y-86065010D01*
X134427408Y-86244897D01*
X133888627Y-86532882D01*
X133612458Y-86950850D01*
X133502000Y-86840392D01*
X133502000Y-84705126D01*
X133841490Y-84702880D01*
X134000240Y-84544130D01*
X134000240Y-83494880D01*
X133980240Y-83494880D01*
X133980240Y-83240880D01*
X134000240Y-83240880D01*
X134000240Y-82191630D01*
X133841490Y-82032880D01*
X133502000Y-82030634D01*
X133502000Y-76592434D01*
X133851650Y-76590120D01*
X134010400Y-76431370D01*
X134010400Y-75382120D01*
X133990400Y-75382120D01*
X133990400Y-75128120D01*
X134010400Y-75128120D01*
X134010400Y-74078870D01*
X133851650Y-73920120D01*
X133502000Y-73917806D01*
X133502000Y-71102000D01*
X135439928Y-71102000D01*
X135443000Y-71111250D01*
X135601750Y-71270000D01*
X136271000Y-71270000D01*
X136271000Y-70625750D01*
X136525000Y-70625750D01*
X136525000Y-71270000D01*
X137194250Y-71270000D01*
X137353000Y-71111250D01*
X137356072Y-71102000D01*
X137343812Y-70977518D01*
X137307502Y-70857820D01*
X137248537Y-70747506D01*
X137169185Y-70650815D01*
X137072494Y-70571463D01*
X136962180Y-70512498D01*
X136842482Y-70476188D01*
X136718000Y-70463928D01*
X136683750Y-70467000D01*
X136525000Y-70625750D01*
X136271000Y-70625750D01*
X136112250Y-70467000D01*
X136078000Y-70463928D01*
X135953518Y-70476188D01*
X135833820Y-70512498D01*
X135723506Y-70571463D01*
X135626815Y-70650815D01*
X135547463Y-70747506D01*
X135488498Y-70857820D01*
X135452188Y-70977518D01*
X135439928Y-71102000D01*
X133502000Y-71102000D01*
X133502000Y-69115608D01*
X133612458Y-69005150D01*
X133888627Y-69423118D01*
X134433557Y-69713649D01*
X135024696Y-69892287D01*
X135639328Y-69952168D01*
X136253831Y-69890990D01*
X136276786Y-69884000D01*
X138799928Y-69884000D01*
X138812188Y-70008482D01*
X138848498Y-70128180D01*
X138907463Y-70238494D01*
X138986815Y-70335185D01*
X139083506Y-70414537D01*
X139193820Y-70473502D01*
X139313518Y-70509812D01*
X139438000Y-70522072D01*
X141402250Y-70519000D01*
X141561000Y-70360250D01*
X141561000Y-68961000D01*
X141815000Y-68961000D01*
X141815000Y-70360250D01*
X141973750Y-70519000D01*
X143938000Y-70522072D01*
X144062482Y-70509812D01*
X144182180Y-70473502D01*
X144292494Y-70414537D01*
X144389185Y-70335185D01*
X144468537Y-70238494D01*
X144527502Y-70128180D01*
X144563812Y-70008482D01*
X144576072Y-69884000D01*
X144573000Y-69119750D01*
X144414250Y-68961000D01*
X141815000Y-68961000D01*
X141561000Y-68961000D01*
X138961750Y-68961000D01*
X138803000Y-69119750D01*
X138799928Y-69884000D01*
X136276786Y-69884000D01*
X136844592Y-69711103D01*
X137383373Y-69423118D01*
X137659543Y-69005148D01*
X135636000Y-66981605D01*
X135621858Y-66995748D01*
X135442253Y-66816143D01*
X135456395Y-66802000D01*
X135442253Y-66787858D01*
X135621858Y-66608253D01*
X135636000Y-66622395D01*
X135650143Y-66608253D01*
X135829748Y-66787858D01*
X135815605Y-66802000D01*
X137839148Y-68825543D01*
X138257118Y-68549373D01*
X138547649Y-68004443D01*
X138614265Y-67784000D01*
X138799928Y-67784000D01*
X138803000Y-68548250D01*
X138961750Y-68707000D01*
X141561000Y-68707000D01*
X141561000Y-67307750D01*
X141815000Y-67307750D01*
X141815000Y-68707000D01*
X144414250Y-68707000D01*
X144573000Y-68548250D01*
X144576072Y-67784000D01*
X144563812Y-67659518D01*
X144527502Y-67539820D01*
X144468537Y-67429506D01*
X144389185Y-67332815D01*
X144292494Y-67253463D01*
X144182180Y-67194498D01*
X144062482Y-67158188D01*
X143938000Y-67145928D01*
X141973750Y-67149000D01*
X141815000Y-67307750D01*
X141561000Y-67307750D01*
X141402250Y-67149000D01*
X139438000Y-67145928D01*
X139313518Y-67158188D01*
X139193820Y-67194498D01*
X139083506Y-67253463D01*
X138986815Y-67332815D01*
X138907463Y-67429506D01*
X138848498Y-67539820D01*
X138812188Y-67659518D01*
X138799928Y-67784000D01*
X138614265Y-67784000D01*
X138726287Y-67413304D01*
X138786168Y-66798672D01*
X138724990Y-66184169D01*
X138545103Y-65593408D01*
X138257118Y-65054627D01*
X137839150Y-64778458D01*
X137949608Y-64668000D01*
X156436392Y-64668000D01*
X156546850Y-64778458D01*
G04 #@! TA.AperFunction,Conductor*
D27*
G36*
X156546850Y-64778458D02*
G01*
X156128882Y-65054627D01*
X155838351Y-65599557D01*
X155659713Y-66190696D01*
X155599832Y-66805328D01*
X155661010Y-67419831D01*
X155791644Y-67848842D01*
X155412072Y-67469270D01*
X155412072Y-66206000D01*
X155399812Y-66081518D01*
X155363502Y-65961820D01*
X155304537Y-65851506D01*
X155225185Y-65754815D01*
X155128494Y-65675463D01*
X155018180Y-65616498D01*
X154898482Y-65580188D01*
X154774000Y-65567928D01*
X153074000Y-65567928D01*
X152949518Y-65580188D01*
X152829820Y-65616498D01*
X152719506Y-65675463D01*
X152622815Y-65754815D01*
X152543463Y-65851506D01*
X152484498Y-65961820D01*
X152448188Y-66081518D01*
X152435928Y-66206000D01*
X152435928Y-67906000D01*
X152448188Y-68030482D01*
X152484498Y-68150180D01*
X152543463Y-68260494D01*
X152622815Y-68357185D01*
X152719506Y-68436537D01*
X152829820Y-68495502D01*
X152902380Y-68517513D01*
X152770525Y-68649368D01*
X152608010Y-68892589D01*
X152496068Y-69162842D01*
X152439000Y-69449740D01*
X152439000Y-69742260D01*
X152496068Y-70029158D01*
X152608010Y-70299411D01*
X152770525Y-70542632D01*
X152977368Y-70749475D01*
X153220589Y-70911990D01*
X153490842Y-71023932D01*
X153777740Y-71081000D01*
X154070260Y-71081000D01*
X154290408Y-71037209D01*
X155224526Y-71971328D01*
X155119506Y-72027463D01*
X155074000Y-72064809D01*
X155028494Y-72027463D01*
X154918180Y-71968498D01*
X154798482Y-71932188D01*
X154674000Y-71919928D01*
X153360730Y-71919928D01*
X151600163Y-70159362D01*
X151626405Y-70127386D01*
X151708472Y-69973850D01*
X151759008Y-69807254D01*
X151776072Y-69634000D01*
X151776072Y-68034000D01*
X151759008Y-67860746D01*
X151708472Y-67694150D01*
X151626405Y-67540614D01*
X151515962Y-67406038D01*
X151381386Y-67295595D01*
X151227850Y-67213528D01*
X151061254Y-67162992D01*
X150888000Y-67145928D01*
X146888000Y-67145928D01*
X146714746Y-67162992D01*
X146548150Y-67213528D01*
X146394614Y-67295595D01*
X146260038Y-67406038D01*
X146149595Y-67540614D01*
X146067528Y-67694150D01*
X146016992Y-67860746D01*
X145999928Y-68034000D01*
X145999928Y-69634000D01*
X146016992Y-69807254D01*
X146067528Y-69973850D01*
X146149595Y-70127386D01*
X146260038Y-70261962D01*
X146394614Y-70372405D01*
X146548150Y-70454472D01*
X146714746Y-70505008D01*
X146888000Y-70522072D01*
X149813271Y-70522072D01*
X151211126Y-71919928D01*
X151166796Y-71919928D01*
X150821446Y-71574578D01*
X150795291Y-71542709D01*
X150668146Y-71438364D01*
X150523087Y-71360828D01*
X150365689Y-71313082D01*
X150243019Y-71301000D01*
X150243018Y-71301000D01*
X150202000Y-71296960D01*
X150160982Y-71301000D01*
X140934072Y-71301000D01*
X140934072Y-71286000D01*
X140921812Y-71161518D01*
X140885502Y-71041820D01*
X140826537Y-70931506D01*
X140747185Y-70834815D01*
X140650494Y-70755463D01*
X140540180Y-70696498D01*
X140420482Y-70660188D01*
X140296000Y-70647928D01*
X138596000Y-70647928D01*
X138471518Y-70660188D01*
X138351820Y-70696498D01*
X138241506Y-70755463D01*
X138144815Y-70834815D01*
X138065463Y-70931506D01*
X138006498Y-71041820D01*
X137970188Y-71161518D01*
X137957928Y-71286000D01*
X137957928Y-72421441D01*
X137527243Y-72421441D01*
X137356072Y-72250271D01*
X137356072Y-72219500D01*
X137340977Y-72066243D01*
X137303688Y-71943316D01*
X137307502Y-71936180D01*
X137343812Y-71816482D01*
X137356072Y-71692000D01*
X137353000Y-71682750D01*
X137194250Y-71524000D01*
X136927763Y-71524000D01*
X136871125Y-71493726D01*
X136723757Y-71449023D01*
X136570500Y-71433928D01*
X136225500Y-71433928D01*
X136072243Y-71449023D01*
X135924875Y-71493726D01*
X135868237Y-71524000D01*
X135601750Y-71524000D01*
X135443000Y-71682750D01*
X135439928Y-71692000D01*
X135452188Y-71816482D01*
X135488498Y-71936180D01*
X135492312Y-71943316D01*
X135455023Y-72066243D01*
X135439928Y-72219500D01*
X135439928Y-72250271D01*
X135205837Y-72484362D01*
X135176839Y-72508160D01*
X135153041Y-72537158D01*
X135153040Y-72537159D01*
X135081865Y-72623885D01*
X135011293Y-72755915D01*
X134995191Y-72808998D01*
X134967837Y-72899175D01*
X134964274Y-72935354D01*
X134953163Y-73048161D01*
X134956840Y-73085493D01*
X134956840Y-73923887D01*
X134887400Y-73917048D01*
X134423150Y-73920120D01*
X134264400Y-74078870D01*
X134264400Y-75128120D01*
X134284400Y-75128120D01*
X134284400Y-75382120D01*
X134264400Y-75382120D01*
X134264400Y-76431370D01*
X134423150Y-76590120D01*
X134887400Y-76593192D01*
X134956839Y-76586353D01*
X134956839Y-77555911D01*
X134953163Y-77593234D01*
X134956839Y-77630556D01*
X134956839Y-77630566D01*
X134967836Y-77742219D01*
X135009012Y-77877960D01*
X135011293Y-77885480D01*
X135081865Y-78017510D01*
X135117549Y-78060990D01*
X135176838Y-78133235D01*
X135205842Y-78157038D01*
X135553041Y-78504237D01*
X135576844Y-78533241D01*
X135692569Y-78628214D01*
X135728773Y-78647566D01*
X135728773Y-78843240D01*
X135741033Y-78967722D01*
X135741190Y-78968240D01*
X135741033Y-78968758D01*
X135728773Y-79093240D01*
X135728773Y-79493240D01*
X135741033Y-79617722D01*
X135741190Y-79618240D01*
X135741033Y-79618758D01*
X135728773Y-79743240D01*
X135728773Y-80143240D01*
X135741033Y-80267722D01*
X135741682Y-80269862D01*
X135731845Y-80361490D01*
X135799813Y-80429458D01*
X135836308Y-80497734D01*
X135873597Y-80543171D01*
X135827372Y-80574058D01*
X135697138Y-80704292D01*
X135594814Y-80857431D01*
X135524332Y-81027591D01*
X135488400Y-81208231D01*
X135488400Y-81392409D01*
X135512313Y-81512625D01*
X135462498Y-81605820D01*
X135426188Y-81725518D01*
X135413928Y-81850000D01*
X135417000Y-82264250D01*
X135575748Y-82422998D01*
X135466367Y-82422998D01*
X135407777Y-82313386D01*
X135328425Y-82216695D01*
X135231734Y-82137343D01*
X135121420Y-82078378D01*
X135001722Y-82042068D01*
X134877240Y-82029808D01*
X134412990Y-82032880D01*
X134254240Y-82191630D01*
X134254240Y-83240880D01*
X134274240Y-83240880D01*
X134274240Y-83494880D01*
X134254240Y-83494880D01*
X134254240Y-84544130D01*
X134412990Y-84702880D01*
X134877240Y-84705952D01*
X135001722Y-84693692D01*
X135121420Y-84657382D01*
X135231734Y-84598417D01*
X135328425Y-84519065D01*
X135407777Y-84422374D01*
X135466742Y-84312060D01*
X135503052Y-84192362D01*
X135515312Y-84067880D01*
X135512240Y-83653630D01*
X135353492Y-83494882D01*
X135462873Y-83494882D01*
X135521463Y-83604494D01*
X135600815Y-83701185D01*
X135697506Y-83780537D01*
X135807820Y-83839502D01*
X135927518Y-83875812D01*
X136052000Y-83888072D01*
X136366250Y-83885000D01*
X136525000Y-83726250D01*
X136525000Y-82677000D01*
X136779000Y-82677000D01*
X136779000Y-83726250D01*
X136937750Y-83885000D01*
X137252000Y-83888072D01*
X137376482Y-83875812D01*
X137496180Y-83839502D01*
X137606494Y-83780537D01*
X137703185Y-83701185D01*
X137782537Y-83604494D01*
X137841502Y-83494180D01*
X137877812Y-83374482D01*
X137890072Y-83250000D01*
X137887000Y-82835750D01*
X137728250Y-82677000D01*
X136779000Y-82677000D01*
X136525000Y-82677000D01*
X136505000Y-82677000D01*
X136505000Y-82423000D01*
X136525000Y-82423000D01*
X136525000Y-82403000D01*
X136779000Y-82403000D01*
X136779000Y-82423000D01*
X137728250Y-82423000D01*
X137887000Y-82264250D01*
X137890072Y-81850000D01*
X137877812Y-81725518D01*
X137841502Y-81605820D01*
X137782537Y-81495506D01*
X137727807Y-81428817D01*
X138258854Y-81431262D01*
X138383479Y-81420562D01*
X138503623Y-81385753D01*
X138614667Y-81328175D01*
X138712344Y-81250040D01*
X138792901Y-81154350D01*
X138853242Y-81044783D01*
X138891049Y-80925549D01*
X138901845Y-80824990D01*
X138743095Y-80666240D01*
X138630523Y-80666240D01*
X138718030Y-80594425D01*
X138797382Y-80497734D01*
X138833877Y-80429458D01*
X138901845Y-80361490D01*
X138892008Y-80269862D01*
X138892657Y-80267722D01*
X138904917Y-80143240D01*
X138904917Y-79743240D01*
X138892657Y-79618758D01*
X138892500Y-79618240D01*
X138892657Y-79617722D01*
X138904917Y-79493240D01*
X138904917Y-79093240D01*
X138892657Y-78968758D01*
X138892500Y-78968240D01*
X138892657Y-78967722D01*
X138904917Y-78843240D01*
X138904917Y-78443240D01*
X138892657Y-78318758D01*
X138892500Y-78318240D01*
X138892657Y-78317722D01*
X138904917Y-78193240D01*
X138904917Y-77793240D01*
X138892657Y-77668758D01*
X138856347Y-77549060D01*
X138797382Y-77438746D01*
X138718030Y-77342055D01*
X138621339Y-77262703D01*
X138511025Y-77203738D01*
X138391327Y-77167428D01*
X138266845Y-77155168D01*
X137728820Y-77155168D01*
X137772377Y-77102094D01*
X137831342Y-76991780D01*
X137867652Y-76872082D01*
X137877311Y-76774000D01*
X140313928Y-76774000D01*
X140326188Y-76898482D01*
X140362498Y-77018180D01*
X140421463Y-77128494D01*
X140493277Y-77216000D01*
X140421463Y-77303506D01*
X140362498Y-77413820D01*
X140326188Y-77533518D01*
X140313928Y-77658000D01*
X140317000Y-77692250D01*
X140475750Y-77851000D01*
X141120000Y-77851000D01*
X141120000Y-76581000D01*
X140475750Y-76581000D01*
X140317000Y-76739750D01*
X140313928Y-76774000D01*
X137877311Y-76774000D01*
X137879912Y-76747600D01*
X137876840Y-76333350D01*
X137718090Y-76174600D01*
X136768840Y-76174600D01*
X136768840Y-76194600D01*
X136514840Y-76194600D01*
X136514840Y-76174600D01*
X136494840Y-76174600D01*
X136494840Y-76134000D01*
X140313928Y-76134000D01*
X140317000Y-76168250D01*
X140475750Y-76327000D01*
X141120000Y-76327000D01*
X141120000Y-75657750D01*
X140961250Y-75499000D01*
X140952000Y-75495928D01*
X140827518Y-75508188D01*
X140707820Y-75544498D01*
X140597506Y-75603463D01*
X140500815Y-75682815D01*
X140421463Y-75779506D01*
X140362498Y-75889820D01*
X140326188Y-76009518D01*
X140313928Y-76134000D01*
X136494840Y-76134000D01*
X136494840Y-75920600D01*
X136514840Y-75920600D01*
X136514840Y-74871350D01*
X136768840Y-74871350D01*
X136768840Y-75920600D01*
X137718090Y-75920600D01*
X137876840Y-75761850D01*
X137879912Y-75347600D01*
X137867652Y-75223118D01*
X137831342Y-75103420D01*
X137772377Y-74993106D01*
X137693025Y-74896415D01*
X137596334Y-74817063D01*
X137486020Y-74758098D01*
X137366322Y-74721788D01*
X137241840Y-74709528D01*
X136927590Y-74712600D01*
X136768840Y-74871350D01*
X136514840Y-74871350D01*
X136476839Y-74833349D01*
X136476839Y-73520641D01*
X136723641Y-73767443D01*
X136747440Y-73796442D01*
X136863165Y-73891415D01*
X136995194Y-73961987D01*
X137138455Y-74005444D01*
X137150641Y-74006644D01*
X137197354Y-74031613D01*
X137354752Y-74079359D01*
X137477422Y-74091441D01*
X138284541Y-74091441D01*
X138325559Y-74095481D01*
X138366577Y-74091441D01*
X138366578Y-74091441D01*
X138489248Y-74079359D01*
X138646646Y-74031613D01*
X138791705Y-73954077D01*
X138918850Y-73849732D01*
X138945004Y-73817863D01*
X139138795Y-73624072D01*
X140296000Y-73624072D01*
X140420482Y-73611812D01*
X140540180Y-73575502D01*
X140650494Y-73516537D01*
X140747185Y-73437185D01*
X140826537Y-73340494D01*
X140885502Y-73230180D01*
X140921812Y-73110482D01*
X140934072Y-72986000D01*
X140934072Y-72971000D01*
X149856133Y-72971000D01*
X150235928Y-73350796D01*
X150235928Y-74558000D01*
X150248188Y-74682482D01*
X150284498Y-74802180D01*
X150343463Y-74912494D01*
X150422815Y-75009185D01*
X150519506Y-75088537D01*
X150629820Y-75147502D01*
X150749518Y-75183812D01*
X150874000Y-75196072D01*
X152374000Y-75196072D01*
X152498482Y-75183812D01*
X152618180Y-75147502D01*
X152728494Y-75088537D01*
X152774000Y-75051191D01*
X152819506Y-75088537D01*
X152929820Y-75147502D01*
X153049518Y-75183812D01*
X153174000Y-75196072D01*
X153418001Y-75196072D01*
X153418001Y-75219928D01*
X153328000Y-75219928D01*
X153203518Y-75232188D01*
X153083820Y-75268498D01*
X152973506Y-75327463D01*
X152876815Y-75406815D01*
X152797463Y-75503506D01*
X152738498Y-75613820D01*
X152702188Y-75733518D01*
X152689928Y-75858000D01*
X152689928Y-77558000D01*
X152702188Y-77682482D01*
X152738498Y-77802180D01*
X152797463Y-77912494D01*
X152876815Y-78009185D01*
X152973506Y-78088537D01*
X153083820Y-78147502D01*
X153164001Y-78171825D01*
X153164001Y-78219928D01*
X152024000Y-78219928D01*
X151899518Y-78232188D01*
X151779820Y-78268498D01*
X151669506Y-78327463D01*
X151572815Y-78406815D01*
X151493463Y-78503506D01*
X151434498Y-78613820D01*
X151398188Y-78733518D01*
X151385928Y-78858000D01*
X151385928Y-79676400D01*
X149683414Y-81378915D01*
X149664042Y-81332147D01*
X149500039Y-81086698D01*
X149291302Y-80877961D01*
X149132719Y-80772000D01*
X149291302Y-80666039D01*
X149500039Y-80457302D01*
X149664042Y-80211853D01*
X149777010Y-79939125D01*
X149834600Y-79649599D01*
X149834600Y-79354401D01*
X149777010Y-79064875D01*
X149664042Y-78792147D01*
X149500039Y-78546698D01*
X149291302Y-78337961D01*
X149125897Y-78227441D01*
X149224488Y-78168817D01*
X149442854Y-77972293D01*
X149618684Y-77736944D01*
X149745222Y-77471814D01*
X149790958Y-77321026D01*
X149669817Y-77089000D01*
X148463000Y-77089000D01*
X148463000Y-77109000D01*
X148209000Y-77109000D01*
X148209000Y-77089000D01*
X148189000Y-77089000D01*
X148189000Y-76835000D01*
X148209000Y-76835000D01*
X148209000Y-75627536D01*
X148463000Y-75627536D01*
X148463000Y-76835000D01*
X149669817Y-76835000D01*
X149790958Y-76602974D01*
X149745222Y-76452186D01*
X149618684Y-76187056D01*
X149442854Y-75951707D01*
X149224488Y-75755183D01*
X148971978Y-75605036D01*
X148695027Y-75507037D01*
X148463000Y-75627536D01*
X148209000Y-75627536D01*
X147976973Y-75507037D01*
X147700022Y-75605036D01*
X147447512Y-75755183D01*
X147268053Y-75916692D01*
X147249102Y-75854220D01*
X147190137Y-75743906D01*
X147110785Y-75647215D01*
X147014094Y-75567863D01*
X146903780Y-75508898D01*
X146784082Y-75472588D01*
X146659600Y-75460328D01*
X144932400Y-75460328D01*
X144807918Y-75472588D01*
X144688220Y-75508898D01*
X144577906Y-75567863D01*
X144481215Y-75647215D01*
X144401863Y-75743906D01*
X144342898Y-75854220D01*
X144306588Y-75973918D01*
X144294328Y-76098400D01*
X144294328Y-77825600D01*
X144306588Y-77950082D01*
X144342898Y-78069780D01*
X144401863Y-78180094D01*
X144481215Y-78276785D01*
X144577906Y-78356137D01*
X144688220Y-78415102D01*
X144746023Y-78432636D01*
X144631961Y-78546698D01*
X144467958Y-78792147D01*
X144394082Y-78970500D01*
X143663143Y-78970500D01*
X143610115Y-78905885D01*
X143480275Y-78799329D01*
X143332142Y-78720150D01*
X143171408Y-78671392D01*
X143052000Y-78659631D01*
X143052000Y-78522730D01*
X143090274Y-78451125D01*
X143134977Y-78303757D01*
X143150072Y-78150500D01*
X143150072Y-77805500D01*
X143134977Y-77652243D01*
X143090274Y-77504875D01*
X143052000Y-77433270D01*
X143052000Y-76998730D01*
X143090274Y-76927125D01*
X143134977Y-76779757D01*
X143150072Y-76626500D01*
X143150072Y-76281500D01*
X143134977Y-76128243D01*
X143090274Y-75980875D01*
X143017679Y-75845060D01*
X142919983Y-75726017D01*
X142800940Y-75628321D01*
X142665125Y-75555726D01*
X142517757Y-75511023D01*
X142364500Y-75495928D01*
X142069500Y-75495928D01*
X141916243Y-75511023D01*
X141793316Y-75548312D01*
X141786180Y-75544498D01*
X141666482Y-75508188D01*
X141542000Y-75495928D01*
X141532750Y-75499000D01*
X141374000Y-75657750D01*
X141374000Y-75924237D01*
X141343726Y-75980875D01*
X141299023Y-76128243D01*
X141283928Y-76281500D01*
X141283928Y-76626500D01*
X141299023Y-76779757D01*
X141343726Y-76927125D01*
X141374000Y-76983763D01*
X141374000Y-77448237D01*
X141343726Y-77504875D01*
X141299023Y-77652243D01*
X141283928Y-77805500D01*
X141283928Y-77957000D01*
X140776325Y-77957000D01*
X140739000Y-77953324D01*
X140701675Y-77957000D01*
X140701667Y-77957000D01*
X140590014Y-77967997D01*
X140446753Y-78011454D01*
X140314724Y-78082026D01*
X140198999Y-78176999D01*
X140175200Y-78205998D01*
X139658988Y-78722211D01*
X139629990Y-78746009D01*
X139606192Y-78775007D01*
X139606191Y-78775008D01*
X139535016Y-78861734D01*
X139464444Y-78993764D01*
X139434170Y-79093568D01*
X139429490Y-79108998D01*
X139420988Y-79137025D01*
X139406314Y-79286010D01*
X139409991Y-79323342D01*
X139409990Y-80468167D01*
X139406314Y-80505490D01*
X139409990Y-80542812D01*
X139409990Y-80542822D01*
X139420987Y-80654475D01*
X139455743Y-80769052D01*
X139464444Y-80797736D01*
X139535016Y-80929766D01*
X139567663Y-80969546D01*
X139629989Y-81045491D01*
X139658992Y-81069293D01*
X139856928Y-81267229D01*
X139856928Y-81343770D01*
X138934998Y-82265701D01*
X138906000Y-82289499D01*
X138882202Y-82318497D01*
X138882201Y-82318498D01*
X138811026Y-82405224D01*
X138740454Y-82537254D01*
X138720381Y-82603430D01*
X138700831Y-82667880D01*
X138696998Y-82680515D01*
X138682324Y-82829500D01*
X138686001Y-82866832D01*
X138686001Y-83648082D01*
X138583885Y-83731885D01*
X138477329Y-83861725D01*
X138398150Y-84009858D01*
X138349392Y-84170592D01*
X138332928Y-84337750D01*
X138332928Y-84775250D01*
X138349392Y-84942408D01*
X138398150Y-85103142D01*
X138477329Y-85251275D01*
X138553426Y-85344000D01*
X138477329Y-85436725D01*
X138398150Y-85584858D01*
X138349392Y-85745592D01*
X138332928Y-85912750D01*
X138332928Y-86350250D01*
X138349392Y-86517408D01*
X138398150Y-86678142D01*
X138477329Y-86826275D01*
X138583885Y-86956115D01*
X138713725Y-87062671D01*
X138861858Y-87141850D01*
X138865001Y-87142803D01*
X138865000Y-89189928D01*
X138850000Y-89189928D01*
X138781688Y-89196656D01*
X138786168Y-89150672D01*
X138724990Y-88536169D01*
X138545103Y-87945408D01*
X138257118Y-87406627D01*
X137839148Y-87130457D01*
X135815605Y-89154000D01*
X135829748Y-89168143D01*
X135650143Y-89347748D01*
X135636000Y-89333605D01*
X135621858Y-89347748D01*
X135442253Y-89168143D01*
X135456395Y-89154000D01*
X135442253Y-89139858D01*
X135621858Y-88960253D01*
X135636000Y-88974395D01*
X137659543Y-86950852D01*
X137383373Y-86532882D01*
X136838443Y-86242351D01*
X136247304Y-86063713D01*
X135632672Y-86003832D01*
X135018169Y-86065010D01*
X134427408Y-86244897D01*
X133888627Y-86532882D01*
X133612458Y-86950850D01*
X133502000Y-86840392D01*
X133502000Y-84705126D01*
X133841490Y-84702880D01*
X134000240Y-84544130D01*
X134000240Y-83494880D01*
X133980240Y-83494880D01*
X133980240Y-83240880D01*
X134000240Y-83240880D01*
X134000240Y-82191630D01*
X133841490Y-82032880D01*
X133502000Y-82030634D01*
X133502000Y-76592434D01*
X133851650Y-76590120D01*
X134010400Y-76431370D01*
X134010400Y-75382120D01*
X133990400Y-75382120D01*
X133990400Y-75128120D01*
X134010400Y-75128120D01*
X134010400Y-74078870D01*
X133851650Y-73920120D01*
X133502000Y-73917806D01*
X133502000Y-71102000D01*
X135439928Y-71102000D01*
X135443000Y-71111250D01*
X135601750Y-71270000D01*
X136271000Y-71270000D01*
X136271000Y-70625750D01*
X136525000Y-70625750D01*
X136525000Y-71270000D01*
X137194250Y-71270000D01*
X137353000Y-71111250D01*
X137356072Y-71102000D01*
X137343812Y-70977518D01*
X137307502Y-70857820D01*
X137248537Y-70747506D01*
X137169185Y-70650815D01*
X137072494Y-70571463D01*
X136962180Y-70512498D01*
X136842482Y-70476188D01*
X136718000Y-70463928D01*
X136683750Y-70467000D01*
X136525000Y-70625750D01*
X136271000Y-70625750D01*
X136112250Y-70467000D01*
X136078000Y-70463928D01*
X135953518Y-70476188D01*
X135833820Y-70512498D01*
X135723506Y-70571463D01*
X135626815Y-70650815D01*
X135547463Y-70747506D01*
X135488498Y-70857820D01*
X135452188Y-70977518D01*
X135439928Y-71102000D01*
X133502000Y-71102000D01*
X133502000Y-69115608D01*
X133612458Y-69005150D01*
X133888627Y-69423118D01*
X134433557Y-69713649D01*
X135024696Y-69892287D01*
X135639328Y-69952168D01*
X136253831Y-69890990D01*
X136276786Y-69884000D01*
X138799928Y-69884000D01*
X138812188Y-70008482D01*
X138848498Y-70128180D01*
X138907463Y-70238494D01*
X138986815Y-70335185D01*
X139083506Y-70414537D01*
X139193820Y-70473502D01*
X139313518Y-70509812D01*
X139438000Y-70522072D01*
X141402250Y-70519000D01*
X141561000Y-70360250D01*
X141561000Y-68961000D01*
X141815000Y-68961000D01*
X141815000Y-70360250D01*
X141973750Y-70519000D01*
X143938000Y-70522072D01*
X144062482Y-70509812D01*
X144182180Y-70473502D01*
X144292494Y-70414537D01*
X144389185Y-70335185D01*
X144468537Y-70238494D01*
X144527502Y-70128180D01*
X144563812Y-70008482D01*
X144576072Y-69884000D01*
X144573000Y-69119750D01*
X144414250Y-68961000D01*
X141815000Y-68961000D01*
X141561000Y-68961000D01*
X138961750Y-68961000D01*
X138803000Y-69119750D01*
X138799928Y-69884000D01*
X136276786Y-69884000D01*
X136844592Y-69711103D01*
X137383373Y-69423118D01*
X137659543Y-69005148D01*
X135636000Y-66981605D01*
X135621858Y-66995748D01*
X135442253Y-66816143D01*
X135456395Y-66802000D01*
X135442253Y-66787858D01*
X135621858Y-66608253D01*
X135636000Y-66622395D01*
X135650143Y-66608253D01*
X135829748Y-66787858D01*
X135815605Y-66802000D01*
X137839148Y-68825543D01*
X138257118Y-68549373D01*
X138547649Y-68004443D01*
X138614265Y-67784000D01*
X138799928Y-67784000D01*
X138803000Y-68548250D01*
X138961750Y-68707000D01*
X141561000Y-68707000D01*
X141561000Y-67307750D01*
X141815000Y-67307750D01*
X141815000Y-68707000D01*
X144414250Y-68707000D01*
X144573000Y-68548250D01*
X144576072Y-67784000D01*
X144563812Y-67659518D01*
X144527502Y-67539820D01*
X144468537Y-67429506D01*
X144389185Y-67332815D01*
X144292494Y-67253463D01*
X144182180Y-67194498D01*
X144062482Y-67158188D01*
X143938000Y-67145928D01*
X141973750Y-67149000D01*
X141815000Y-67307750D01*
X141561000Y-67307750D01*
X141402250Y-67149000D01*
X139438000Y-67145928D01*
X139313518Y-67158188D01*
X139193820Y-67194498D01*
X139083506Y-67253463D01*
X138986815Y-67332815D01*
X138907463Y-67429506D01*
X138848498Y-67539820D01*
X138812188Y-67659518D01*
X138799928Y-67784000D01*
X138614265Y-67784000D01*
X138726287Y-67413304D01*
X138786168Y-66798672D01*
X138724990Y-66184169D01*
X138545103Y-65593408D01*
X138257118Y-65054627D01*
X137839150Y-64778458D01*
X137949608Y-64668000D01*
X156436392Y-64668000D01*
X156546850Y-64778458D01*
G37*
G04 #@! TD.AperFunction*
D26*
X166839928Y-73378000D02*
X166852188Y-73502482D01*
X166888498Y-73622180D01*
X166947463Y-73732494D01*
X167026815Y-73829185D01*
X167123506Y-73908537D01*
X167233820Y-73967502D01*
X167353518Y-74003812D01*
X167478000Y-74016072D01*
X169520001Y-74016072D01*
X169520000Y-81939928D01*
X167478000Y-81939928D01*
X167353518Y-81952188D01*
X167233820Y-81988498D01*
X167123506Y-82047463D01*
X167026815Y-82126815D01*
X166947463Y-82223506D01*
X166888498Y-82333820D01*
X166852188Y-82453518D01*
X166839928Y-82578000D01*
X166839928Y-83568000D01*
X163704721Y-83568000D01*
X163474721Y-83338000D01*
X164671178Y-83338000D01*
X164893012Y-83316151D01*
X165177648Y-83229808D01*
X165439970Y-83089594D01*
X165669897Y-82900897D01*
X165858594Y-82670970D01*
X165998808Y-82408648D01*
X166085151Y-82124012D01*
X166114306Y-81828000D01*
X166085151Y-81531988D01*
X165998808Y-81247352D01*
X165858594Y-80985030D01*
X165669897Y-80755103D01*
X165454097Y-80578000D01*
X165669897Y-80400897D01*
X165858594Y-80170970D01*
X165998808Y-79908648D01*
X166085151Y-79624012D01*
X166114306Y-79328000D01*
X166085151Y-79031988D01*
X165998808Y-78747352D01*
X165858594Y-78485030D01*
X165669897Y-78255103D01*
X165439970Y-78066406D01*
X165274574Y-77978000D01*
X165439970Y-77889594D01*
X165669897Y-77700897D01*
X165858594Y-77470970D01*
X165998808Y-77208648D01*
X166085151Y-76924012D01*
X166114306Y-76628000D01*
X166085151Y-76331988D01*
X165998808Y-76047352D01*
X165858594Y-75785030D01*
X165669897Y-75555103D01*
X165454097Y-75378000D01*
X165669897Y-75200897D01*
X165858594Y-74970970D01*
X165998808Y-74708648D01*
X166085151Y-74424012D01*
X166114306Y-74128000D01*
X166085151Y-73831988D01*
X165998808Y-73547352D01*
X165858594Y-73285030D01*
X165669897Y-73055103D01*
X165439970Y-72866406D01*
X165177648Y-72726192D01*
X164893012Y-72639849D01*
X164671178Y-72618000D01*
X162772822Y-72618000D01*
X162550988Y-72639849D01*
X162266352Y-72726192D01*
X162004030Y-72866406D01*
X161774103Y-73055103D01*
X161585406Y-73285030D01*
X161445192Y-73547352D01*
X161358849Y-73831988D01*
X161329694Y-74128000D01*
X161358849Y-74424012D01*
X161445192Y-74708648D01*
X161585406Y-74970970D01*
X161774103Y-75200897D01*
X161989903Y-75378000D01*
X161774103Y-75555103D01*
X161585406Y-75785030D01*
X161452537Y-76033611D01*
X161394247Y-76002454D01*
X161250986Y-75958997D01*
X161139333Y-75948000D01*
X161139322Y-75948000D01*
X161102000Y-75944324D01*
X161064678Y-75948000D01*
X161000072Y-75948000D01*
X161000072Y-75858000D01*
X160987812Y-75733518D01*
X160951502Y-75613820D01*
X160892537Y-75503506D01*
X160813185Y-75406815D01*
X160716494Y-75327463D01*
X160606180Y-75268498D01*
X160486482Y-75232188D01*
X160362000Y-75219928D01*
X158662000Y-75219928D01*
X158537518Y-75232188D01*
X158417820Y-75268498D01*
X158307506Y-75327463D01*
X158210815Y-75406815D01*
X158131463Y-75503506D01*
X158072498Y-75613820D01*
X158036188Y-75733518D01*
X158023928Y-75858000D01*
X158023928Y-77121271D01*
X157825997Y-77319202D01*
X157796999Y-77343000D01*
X157773201Y-77371998D01*
X157773200Y-77371999D01*
X157702025Y-77458725D01*
X157631453Y-77590755D01*
X157587997Y-77734016D01*
X157573323Y-77883001D01*
X157577000Y-77920333D01*
X157576999Y-80292199D01*
X156091271Y-81777928D01*
X155728000Y-81777928D01*
X155588887Y-81791629D01*
X155455119Y-81832207D01*
X155331838Y-81898102D01*
X155223782Y-81986782D01*
X155135102Y-82094838D01*
X155069207Y-82218119D01*
X155028629Y-82351887D01*
X155014928Y-82491000D01*
X155014928Y-82641000D01*
X155028629Y-82780113D01*
X155039515Y-82816000D01*
X155028629Y-82851887D01*
X155014928Y-82991000D01*
X155014928Y-83141000D01*
X155028629Y-83280113D01*
X155029180Y-83281929D01*
X155029156Y-83282004D01*
X155018000Y-83384250D01*
X155072748Y-83438998D01*
X155018000Y-83438998D01*
X155018000Y-83560496D01*
X153567896Y-85010601D01*
X153398902Y-85010601D01*
X154181004Y-84228500D01*
X154210001Y-84204703D01*
X154225876Y-84185359D01*
X154329774Y-84115937D01*
X154473937Y-83971774D01*
X154587205Y-83802256D01*
X154665226Y-83613898D01*
X154705000Y-83413939D01*
X154705000Y-83210061D01*
X154665226Y-83010102D01*
X154587205Y-82821744D01*
X154473937Y-82652226D01*
X154329774Y-82508063D01*
X154160256Y-82394795D01*
X153971898Y-82316774D01*
X153864333Y-82295378D01*
X153965937Y-82193774D01*
X154079205Y-82024256D01*
X154157226Y-81835898D01*
X154197000Y-81635939D01*
X154197000Y-81496072D01*
X155824000Y-81496072D01*
X155948482Y-81483812D01*
X156068180Y-81447502D01*
X156178494Y-81388537D01*
X156275185Y-81309185D01*
X156354537Y-81212494D01*
X156413502Y-81102180D01*
X156449812Y-80982482D01*
X156462072Y-80858000D01*
X156462072Y-78858000D01*
X156449812Y-78733518D01*
X156413502Y-78613820D01*
X156354537Y-78503506D01*
X156275185Y-78406815D01*
X156178494Y-78327463D01*
X156068180Y-78268498D01*
X155948482Y-78232188D01*
X155824000Y-78219928D01*
X154684000Y-78219928D01*
X154684000Y-78196072D01*
X155028000Y-78196072D01*
X155152482Y-78183812D01*
X155272180Y-78147502D01*
X155382494Y-78088537D01*
X155479185Y-78009185D01*
X155558537Y-77912494D01*
X155617502Y-77802180D01*
X155653812Y-77682482D01*
X155666072Y-77558000D01*
X155666072Y-75858000D01*
X155653812Y-75733518D01*
X155617502Y-75613820D01*
X155558537Y-75503506D01*
X155479185Y-75406815D01*
X155382494Y-75327463D01*
X155272180Y-75268498D01*
X155152482Y-75232188D01*
X155028000Y-75219928D01*
X154938000Y-75219928D01*
X154938000Y-75136908D01*
X155028494Y-75088537D01*
X155074000Y-75051191D01*
X155119506Y-75088537D01*
X155229820Y-75147502D01*
X155349518Y-75183812D01*
X155474000Y-75196072D01*
X155938250Y-75193000D01*
X156097000Y-75034250D01*
X156097000Y-73685000D01*
X156351000Y-73685000D01*
X156351000Y-75034250D01*
X156509750Y-75193000D01*
X156974000Y-75196072D01*
X157098482Y-75183812D01*
X157218180Y-75147502D01*
X157328494Y-75088537D01*
X157425185Y-75009185D01*
X157504537Y-74912494D01*
X157563502Y-74802180D01*
X157599812Y-74682482D01*
X157612072Y-74558000D01*
X157609000Y-73843750D01*
X157450250Y-73685000D01*
X156351000Y-73685000D01*
X156097000Y-73685000D01*
X156077000Y-73685000D01*
X156077000Y-73431000D01*
X156097000Y-73431000D01*
X156097000Y-73411000D01*
X156351000Y-73411000D01*
X156351000Y-73431000D01*
X157450250Y-73431000D01*
X157609000Y-73272250D01*
X157612072Y-72558000D01*
X157599812Y-72433518D01*
X157586004Y-72388000D01*
X166839928Y-72388000D01*
X166839928Y-73378000D01*
G04 #@! TA.AperFunction,Conductor*
D27*
G36*
X166839928Y-73378000D02*
G01*
X166852188Y-73502482D01*
X166888498Y-73622180D01*
X166947463Y-73732494D01*
X167026815Y-73829185D01*
X167123506Y-73908537D01*
X167233820Y-73967502D01*
X167353518Y-74003812D01*
X167478000Y-74016072D01*
X169520001Y-74016072D01*
X169520000Y-81939928D01*
X167478000Y-81939928D01*
X167353518Y-81952188D01*
X167233820Y-81988498D01*
X167123506Y-82047463D01*
X167026815Y-82126815D01*
X166947463Y-82223506D01*
X166888498Y-82333820D01*
X166852188Y-82453518D01*
X166839928Y-82578000D01*
X166839928Y-83568000D01*
X163704721Y-83568000D01*
X163474721Y-83338000D01*
X164671178Y-83338000D01*
X164893012Y-83316151D01*
X165177648Y-83229808D01*
X165439970Y-83089594D01*
X165669897Y-82900897D01*
X165858594Y-82670970D01*
X165998808Y-82408648D01*
X166085151Y-82124012D01*
X166114306Y-81828000D01*
X166085151Y-81531988D01*
X165998808Y-81247352D01*
X165858594Y-80985030D01*
X165669897Y-80755103D01*
X165454097Y-80578000D01*
X165669897Y-80400897D01*
X165858594Y-80170970D01*
X165998808Y-79908648D01*
X166085151Y-79624012D01*
X166114306Y-79328000D01*
X166085151Y-79031988D01*
X165998808Y-78747352D01*
X165858594Y-78485030D01*
X165669897Y-78255103D01*
X165439970Y-78066406D01*
X165274574Y-77978000D01*
X165439970Y-77889594D01*
X165669897Y-77700897D01*
X165858594Y-77470970D01*
X165998808Y-77208648D01*
X166085151Y-76924012D01*
X166114306Y-76628000D01*
X166085151Y-76331988D01*
X165998808Y-76047352D01*
X165858594Y-75785030D01*
X165669897Y-75555103D01*
X165454097Y-75378000D01*
X165669897Y-75200897D01*
X165858594Y-74970970D01*
X165998808Y-74708648D01*
X166085151Y-74424012D01*
X166114306Y-74128000D01*
X166085151Y-73831988D01*
X165998808Y-73547352D01*
X165858594Y-73285030D01*
X165669897Y-73055103D01*
X165439970Y-72866406D01*
X165177648Y-72726192D01*
X164893012Y-72639849D01*
X164671178Y-72618000D01*
X162772822Y-72618000D01*
X162550988Y-72639849D01*
X162266352Y-72726192D01*
X162004030Y-72866406D01*
X161774103Y-73055103D01*
X161585406Y-73285030D01*
X161445192Y-73547352D01*
X161358849Y-73831988D01*
X161329694Y-74128000D01*
X161358849Y-74424012D01*
X161445192Y-74708648D01*
X161585406Y-74970970D01*
X161774103Y-75200897D01*
X161989903Y-75378000D01*
X161774103Y-75555103D01*
X161585406Y-75785030D01*
X161452537Y-76033611D01*
X161394247Y-76002454D01*
X161250986Y-75958997D01*
X161139333Y-75948000D01*
X161139322Y-75948000D01*
X161102000Y-75944324D01*
X161064678Y-75948000D01*
X161000072Y-75948000D01*
X161000072Y-75858000D01*
X160987812Y-75733518D01*
X160951502Y-75613820D01*
X160892537Y-75503506D01*
X160813185Y-75406815D01*
X160716494Y-75327463D01*
X160606180Y-75268498D01*
X160486482Y-75232188D01*
X160362000Y-75219928D01*
X158662000Y-75219928D01*
X158537518Y-75232188D01*
X158417820Y-75268498D01*
X158307506Y-75327463D01*
X158210815Y-75406815D01*
X158131463Y-75503506D01*
X158072498Y-75613820D01*
X158036188Y-75733518D01*
X158023928Y-75858000D01*
X158023928Y-77121271D01*
X157825997Y-77319202D01*
X157796999Y-77343000D01*
X157773201Y-77371998D01*
X157773200Y-77371999D01*
X157702025Y-77458725D01*
X157631453Y-77590755D01*
X157587997Y-77734016D01*
X157573323Y-77883001D01*
X157577000Y-77920333D01*
X157576999Y-80292199D01*
X156091271Y-81777928D01*
X155728000Y-81777928D01*
X155588887Y-81791629D01*
X155455119Y-81832207D01*
X155331838Y-81898102D01*
X155223782Y-81986782D01*
X155135102Y-82094838D01*
X155069207Y-82218119D01*
X155028629Y-82351887D01*
X155014928Y-82491000D01*
X155014928Y-82641000D01*
X155028629Y-82780113D01*
X155039515Y-82816000D01*
X155028629Y-82851887D01*
X155014928Y-82991000D01*
X155014928Y-83141000D01*
X155028629Y-83280113D01*
X155029180Y-83281929D01*
X155029156Y-83282004D01*
X155018000Y-83384250D01*
X155072748Y-83438998D01*
X155018000Y-83438998D01*
X155018000Y-83560496D01*
X153567896Y-85010601D01*
X153398902Y-85010601D01*
X154181004Y-84228500D01*
X154210001Y-84204703D01*
X154225876Y-84185359D01*
X154329774Y-84115937D01*
X154473937Y-83971774D01*
X154587205Y-83802256D01*
X154665226Y-83613898D01*
X154705000Y-83413939D01*
X154705000Y-83210061D01*
X154665226Y-83010102D01*
X154587205Y-82821744D01*
X154473937Y-82652226D01*
X154329774Y-82508063D01*
X154160256Y-82394795D01*
X153971898Y-82316774D01*
X153864333Y-82295378D01*
X153965937Y-82193774D01*
X154079205Y-82024256D01*
X154157226Y-81835898D01*
X154197000Y-81635939D01*
X154197000Y-81496072D01*
X155824000Y-81496072D01*
X155948482Y-81483812D01*
X156068180Y-81447502D01*
X156178494Y-81388537D01*
X156275185Y-81309185D01*
X156354537Y-81212494D01*
X156413502Y-81102180D01*
X156449812Y-80982482D01*
X156462072Y-80858000D01*
X156462072Y-78858000D01*
X156449812Y-78733518D01*
X156413502Y-78613820D01*
X156354537Y-78503506D01*
X156275185Y-78406815D01*
X156178494Y-78327463D01*
X156068180Y-78268498D01*
X155948482Y-78232188D01*
X155824000Y-78219928D01*
X154684000Y-78219928D01*
X154684000Y-78196072D01*
X155028000Y-78196072D01*
X155152482Y-78183812D01*
X155272180Y-78147502D01*
X155382494Y-78088537D01*
X155479185Y-78009185D01*
X155558537Y-77912494D01*
X155617502Y-77802180D01*
X155653812Y-77682482D01*
X155666072Y-77558000D01*
X155666072Y-75858000D01*
X155653812Y-75733518D01*
X155617502Y-75613820D01*
X155558537Y-75503506D01*
X155479185Y-75406815D01*
X155382494Y-75327463D01*
X155272180Y-75268498D01*
X155152482Y-75232188D01*
X155028000Y-75219928D01*
X154938000Y-75219928D01*
X154938000Y-75136908D01*
X155028494Y-75088537D01*
X155074000Y-75051191D01*
X155119506Y-75088537D01*
X155229820Y-75147502D01*
X155349518Y-75183812D01*
X155474000Y-75196072D01*
X155938250Y-75193000D01*
X156097000Y-75034250D01*
X156097000Y-73685000D01*
X156351000Y-73685000D01*
X156351000Y-75034250D01*
X156509750Y-75193000D01*
X156974000Y-75196072D01*
X157098482Y-75183812D01*
X157218180Y-75147502D01*
X157328494Y-75088537D01*
X157425185Y-75009185D01*
X157504537Y-74912494D01*
X157563502Y-74802180D01*
X157599812Y-74682482D01*
X157612072Y-74558000D01*
X157609000Y-73843750D01*
X157450250Y-73685000D01*
X156351000Y-73685000D01*
X156097000Y-73685000D01*
X156077000Y-73685000D01*
X156077000Y-73431000D01*
X156097000Y-73431000D01*
X156097000Y-73411000D01*
X156351000Y-73411000D01*
X156351000Y-73431000D01*
X157450250Y-73431000D01*
X157609000Y-73272250D01*
X157612072Y-72558000D01*
X157599812Y-72433518D01*
X157586004Y-72388000D01*
X166839928Y-72388000D01*
X166839928Y-73378000D01*
G37*
G04 #@! TD.AperFunction*
D26*
X158943748Y-66787858D02*
X158929605Y-66802000D01*
X158943748Y-66816143D01*
X158764143Y-66995748D01*
X158750000Y-66981605D01*
X158735858Y-66995748D01*
X158556253Y-66816143D01*
X158570395Y-66802000D01*
X158556253Y-66787858D01*
X158735858Y-66608253D01*
X158750000Y-66622395D01*
X158764143Y-66608253D01*
X158943748Y-66787858D01*
G04 #@! TA.AperFunction,Conductor*
D27*
G36*
X158943748Y-66787858D02*
G01*
X158929605Y-66802000D01*
X158943748Y-66816143D01*
X158764143Y-66995748D01*
X158750000Y-66981605D01*
X158735858Y-66995748D01*
X158556253Y-66816143D01*
X158570395Y-66802000D01*
X158556253Y-66787858D01*
X158735858Y-66608253D01*
X158750000Y-66622395D01*
X158764143Y-66608253D01*
X158943748Y-66787858D01*
G37*
G04 #@! TD.AperFunction*
G04 #@! TD*
M02*
