G04 #@! TF.GenerationSoftware,KiCad,Pcbnew,5.1.10-88a1d61d58~88~ubuntu20.04.1*
G04 #@! TF.CreationDate,2021-05-19T20:40:34-06:00*
G04 #@! TF.ProjectId,CurrentSensorV1,43757272-656e-4745-9365-6e736f725631,rev?*
G04 #@! TF.SameCoordinates,Original*
G04 #@! TF.FileFunction,Legend,Top*
G04 #@! TF.FilePolarity,Positive*
%FSLAX46Y46*%
G04 Gerber Fmt 4.6, Leading zero omitted, Abs format (unit mm)*
G04 Created by KiCad (PCBNEW 5.1.10-88a1d61d58~88~ubuntu20.04.1) date 2021-05-19 20:40:34*
%MOMM*%
%LPD*%
G01*
G04 APERTURE LIST*
G04 #@! TA.AperFunction,Profile*
%ADD10C,0.050000*%
G04 #@! TD*
%ADD11C,0.120000*%
%ADD12C,0.150000*%
%ADD13C,0.152400*%
%ADD14C,0.254000*%
G04 APERTURE END LIST*
D10*
X132842000Y-64008000D02*
X132842000Y-65278000D01*
X170180000Y-64008000D02*
X132842000Y-64008000D01*
X170180000Y-65278000D02*
X170180000Y-64008000D01*
X132842000Y-91948000D02*
X170180000Y-91948000D01*
D11*
X153162000Y-74676000D02*
X148082000Y-74676000D01*
X153162000Y-84836000D02*
X153162000Y-74676000D01*
X148082000Y-84836000D02*
X153162000Y-84836000D01*
X148082000Y-74676000D02*
X148082000Y-84836000D01*
D10*
X170180000Y-91948000D02*
X170180000Y-65278000D01*
X132842000Y-65278000D02*
X132842000Y-91948000D01*
D12*
G04 #@! TO.C,J3*
X161036000Y-90424000D02*
X161036000Y-78232000D01*
X173228000Y-90424000D02*
X161036000Y-90424000D01*
X161036000Y-78232000D02*
X173228000Y-78232000D01*
X175260000Y-81788000D02*
X175260000Y-86868000D01*
X173736000Y-89408000D02*
X173228000Y-89408000D01*
X173736000Y-79248000D02*
X173736000Y-89408000D01*
X173482000Y-79248000D02*
X173736000Y-79248000D01*
X173228000Y-79248000D02*
X173482000Y-79248000D01*
X174498000Y-81788000D02*
X174498000Y-86868000D01*
X173736000Y-86868000D02*
X175260000Y-86868000D01*
X175260000Y-81788000D02*
X173736000Y-81788000D01*
X173228000Y-90424000D02*
X173228000Y-89408000D01*
X173228000Y-79248000D02*
X173228000Y-78232000D01*
X168656000Y-88138000D02*
X168656000Y-86106000D01*
X172212000Y-88138000D02*
X168656000Y-88138000D01*
X172212000Y-80518000D02*
X172212000Y-88138000D01*
X168656000Y-80518000D02*
X172212000Y-80518000D01*
X168656000Y-82550000D02*
X168656000Y-80518000D01*
D11*
G04 #@! TO.C,J2*
X153730000Y-92008000D02*
X153730000Y-89348000D01*
X140970000Y-92008000D02*
X153730000Y-92008000D01*
X140970000Y-89348000D02*
X153730000Y-89348000D01*
X140970000Y-92008000D02*
X140970000Y-89348000D01*
X139700000Y-92008000D02*
X138370000Y-92008000D01*
X138370000Y-92008000D02*
X138370000Y-90678000D01*
G04 #@! TO.C,C4*
X149548000Y-65638437D02*
X148483563Y-64574000D01*
X149548000Y-72029563D02*
X148483563Y-73094000D01*
X149548000Y-72029563D02*
X149548000Y-70144000D01*
X149548000Y-65638437D02*
X149548000Y-67524000D01*
X148483563Y-64574000D02*
X141028000Y-64574000D01*
X148483563Y-73094000D02*
X141028000Y-73094000D01*
X141028000Y-73094000D02*
X141028000Y-70144000D01*
X141028000Y-64574000D02*
X141028000Y-67524000D01*
G04 #@! TO.C,J6*
X158182000Y-75378000D02*
X159512000Y-75378000D01*
X158182000Y-76708000D02*
X158182000Y-75378000D01*
X158182000Y-77978000D02*
X160842000Y-77978000D01*
X160842000Y-77978000D02*
X160842000Y-80578000D01*
X158182000Y-77978000D02*
X158182000Y-80578000D01*
X158182000Y-80578000D02*
X160842000Y-80578000D01*
D13*
G04 #@! TO.C,U2*
X149606000Y-75692000D02*
X147066000Y-75692000D01*
X149606000Y-85852000D02*
X149606000Y-75692000D01*
X144526000Y-85852000D02*
X149606000Y-85852000D01*
X144526000Y-78232000D02*
X144526000Y-85852000D01*
X144526000Y-75692000D02*
X144526000Y-78232000D01*
X147066000Y-75692000D02*
X144526000Y-75692000D01*
D14*
X144018000Y-87884000D02*
X144018000Y-73660000D01*
X168656000Y-87884000D02*
X144018000Y-87884000D01*
X168656000Y-73660000D02*
X168656000Y-87884000D01*
X144018000Y-73660000D02*
X168656000Y-73660000D01*
D11*
G04 #@! TO.C,TP2*
X154178000Y-75378000D02*
X155508000Y-75378000D01*
X155508000Y-75378000D02*
X155508000Y-76708000D01*
X155508000Y-77918000D02*
X155508000Y-78038000D01*
X152848000Y-77918000D02*
X152848000Y-78038000D01*
X152848000Y-78038000D02*
X155508000Y-78038000D01*
D12*
G04 #@! TO.C,J8*
X161036000Y-77724000D02*
X161036000Y-65532000D01*
X173228000Y-77724000D02*
X161036000Y-77724000D01*
X161036000Y-65532000D02*
X173228000Y-65532000D01*
X175260000Y-69088000D02*
X175260000Y-74168000D01*
X173736000Y-76708000D02*
X173228000Y-76708000D01*
X173736000Y-66548000D02*
X173736000Y-76708000D01*
X173482000Y-66548000D02*
X173736000Y-66548000D01*
X173228000Y-66548000D02*
X173482000Y-66548000D01*
X174498000Y-69088000D02*
X174498000Y-74168000D01*
X173736000Y-74168000D02*
X175260000Y-74168000D01*
X175260000Y-69088000D02*
X173736000Y-69088000D01*
X173228000Y-77724000D02*
X173228000Y-76708000D01*
X173228000Y-66548000D02*
X173228000Y-65532000D01*
X168656000Y-75438000D02*
X168656000Y-73406000D01*
X172212000Y-75438000D02*
X168656000Y-75438000D01*
X172212000Y-67818000D02*
X172212000Y-75438000D01*
X168656000Y-67818000D02*
X172212000Y-67818000D01*
X168656000Y-69850000D02*
X168656000Y-67818000D01*
D11*
G04 #@! TO.C,U3*
X157334000Y-72608000D02*
X157334000Y-78618000D01*
X150514000Y-74858000D02*
X150514000Y-78618000D01*
X157334000Y-78618000D02*
X156074000Y-78618000D01*
X150514000Y-78618000D02*
X151774000Y-78618000D01*
G04 #@! TO.C,U1*
X154178000Y-85176000D02*
X157103000Y-85176000D01*
X154178000Y-85176000D02*
X152678000Y-85176000D01*
X154178000Y-81956000D02*
X155678000Y-81956000D01*
X154178000Y-81956000D02*
X152678000Y-81956000D01*
G04 #@! TO.C,R6*
X138936000Y-85181221D02*
X138936000Y-85506779D01*
X139956000Y-85181221D02*
X139956000Y-85506779D01*
G04 #@! TO.C,R3*
X141823221Y-85092000D02*
X142148779Y-85092000D01*
X141823221Y-84072000D02*
X142148779Y-84072000D01*
G04 #@! TO.C,R2*
X142238000Y-80355221D02*
X142238000Y-80680779D01*
X143258000Y-80355221D02*
X143258000Y-80680779D01*
G04 #@! TO.C,R1*
X141480000Y-80680779D02*
X141480000Y-80355221D01*
X140460000Y-80680779D02*
X140460000Y-80355221D01*
G04 #@! TO.C,TP1*
X139446000Y-70806000D02*
X140776000Y-70806000D01*
X140776000Y-70806000D02*
X140776000Y-72136000D01*
X140776000Y-73346000D02*
X140776000Y-73466000D01*
X138116000Y-73346000D02*
X138116000Y-73466000D01*
X138116000Y-73466000D02*
X140776000Y-73466000D01*
G04 #@! TO.C,J7*
X152594000Y-65726000D02*
X153924000Y-65726000D01*
X152594000Y-67056000D02*
X152594000Y-65726000D01*
X152594000Y-68326000D02*
X155254000Y-68326000D01*
X155254000Y-68326000D02*
X155254000Y-70926000D01*
X152594000Y-68326000D02*
X152594000Y-70926000D01*
X152594000Y-70926000D02*
X155254000Y-70926000D01*
G04 #@! TD*
G04 #@! TO.C,J2*
D12*
X139152380Y-89352380D02*
X138819047Y-88876190D01*
X138580952Y-89352380D02*
X138580952Y-88352380D01*
X138961904Y-88352380D01*
X139057142Y-88400000D01*
X139104761Y-88447619D01*
X139152380Y-88542857D01*
X139152380Y-88685714D01*
X139104761Y-88780952D01*
X139057142Y-88828571D01*
X138961904Y-88876190D01*
X138580952Y-88876190D01*
X139533333Y-89304761D02*
X139676190Y-89352380D01*
X139914285Y-89352380D01*
X140009523Y-89304761D01*
X140057142Y-89257142D01*
X140104761Y-89161904D01*
X140104761Y-89066666D01*
X140057142Y-88971428D01*
X140009523Y-88923809D01*
X139914285Y-88876190D01*
X139723809Y-88828571D01*
X139628571Y-88780952D01*
X139580952Y-88733333D01*
X139533333Y-88638095D01*
X139533333Y-88542857D01*
X139580952Y-88447619D01*
X139628571Y-88400000D01*
X139723809Y-88352380D01*
X139961904Y-88352380D01*
X140104761Y-88400000D01*
X140390476Y-88352380D02*
X140961904Y-88352380D01*
X140676190Y-89352380D02*
X140676190Y-88352380D01*
X142073333Y-89352380D02*
X141740000Y-88876190D01*
X141501904Y-89352380D02*
X141501904Y-88352380D01*
X141882857Y-88352380D01*
X141978095Y-88400000D01*
X142025714Y-88447619D01*
X142073333Y-88542857D01*
X142073333Y-88685714D01*
X142025714Y-88780952D01*
X141978095Y-88828571D01*
X141882857Y-88876190D01*
X141501904Y-88876190D01*
X142406666Y-88352380D02*
X143073333Y-89352380D01*
X143073333Y-88352380D02*
X142406666Y-89352380D01*
X144018095Y-88352380D02*
X144589523Y-88352380D01*
X144303809Y-89352380D02*
X144303809Y-88352380D01*
X144827619Y-88352380D02*
X145494285Y-89352380D01*
X145494285Y-88352380D02*
X144827619Y-89352380D01*
X145986666Y-88352380D02*
X146320000Y-89352380D01*
X146653333Y-88352380D01*
X147558095Y-89257142D02*
X147510476Y-89304761D01*
X147367619Y-89352380D01*
X147272380Y-89352380D01*
X147129523Y-89304761D01*
X147034285Y-89209523D01*
X146986666Y-89114285D01*
X146939047Y-88923809D01*
X146939047Y-88780952D01*
X146986666Y-88590476D01*
X147034285Y-88495238D01*
X147129523Y-88400000D01*
X147272380Y-88352380D01*
X147367619Y-88352380D01*
X147510476Y-88400000D01*
X147558095Y-88447619D01*
X148558095Y-89257142D02*
X148510476Y-89304761D01*
X148367619Y-89352380D01*
X148272380Y-89352380D01*
X148129523Y-89304761D01*
X148034285Y-89209523D01*
X147986666Y-89114285D01*
X147939047Y-88923809D01*
X147939047Y-88780952D01*
X147986666Y-88590476D01*
X148034285Y-88495238D01*
X148129523Y-88400000D01*
X148272380Y-88352380D01*
X148367619Y-88352380D01*
X148510476Y-88400000D01*
X148558095Y-88447619D01*
X149360000Y-88979190D02*
X149312380Y-89074428D01*
X149312380Y-89217285D01*
X149360000Y-89360142D01*
X149455238Y-89455380D01*
X149550476Y-89503000D01*
X149740952Y-89550619D01*
X149883809Y-89550619D01*
X150074285Y-89503000D01*
X150169523Y-89455380D01*
X150264761Y-89360142D01*
X150312380Y-89217285D01*
X150312380Y-89122047D01*
X150264761Y-88979190D01*
X150217142Y-88931571D01*
X149883809Y-88931571D01*
X149883809Y-89122047D01*
X150312380Y-88503000D02*
X149312380Y-88503000D01*
X149312380Y-88122047D01*
X149360000Y-88026809D01*
X149407619Y-87979190D01*
X149502857Y-87931571D01*
X149645714Y-87931571D01*
X149740952Y-87979190D01*
X149788571Y-88026809D01*
X149836190Y-88122047D01*
X149836190Y-88503000D01*
X150312380Y-87503000D02*
X149312380Y-87503000D01*
X149312380Y-86836333D02*
X149312380Y-86645857D01*
X149360000Y-86550619D01*
X149455238Y-86455380D01*
X149645714Y-86407761D01*
X149979047Y-86407761D01*
X150169523Y-86455380D01*
X150264761Y-86550619D01*
X150312380Y-86645857D01*
X150312380Y-86836333D01*
X150264761Y-86931571D01*
X150169523Y-87026809D01*
X149979047Y-87074428D01*
X149645714Y-87074428D01*
X149455238Y-87026809D01*
X149360000Y-86931571D01*
X149312380Y-86836333D01*
X149312380Y-85788714D02*
X149312380Y-85693476D01*
X149360000Y-85598238D01*
X149407619Y-85550619D01*
X149502857Y-85503000D01*
X149693333Y-85455380D01*
X149931428Y-85455380D01*
X150121904Y-85503000D01*
X150217142Y-85550619D01*
X150264761Y-85598238D01*
X150312380Y-85693476D01*
X150312380Y-85788714D01*
X150264761Y-85883952D01*
X150217142Y-85931571D01*
X150121904Y-85979190D01*
X149931428Y-86026809D01*
X149693333Y-86026809D01*
X149502857Y-85979190D01*
X149407619Y-85931571D01*
X149360000Y-85883952D01*
X149312380Y-85788714D01*
X151892095Y-88146000D02*
X151796857Y-88098380D01*
X151654000Y-88098380D01*
X151511142Y-88146000D01*
X151415904Y-88241238D01*
X151368285Y-88336476D01*
X151320666Y-88526952D01*
X151320666Y-88669809D01*
X151368285Y-88860285D01*
X151415904Y-88955523D01*
X151511142Y-89050761D01*
X151654000Y-89098380D01*
X151749238Y-89098380D01*
X151892095Y-89050761D01*
X151939714Y-89003142D01*
X151939714Y-88669809D01*
X151749238Y-88669809D01*
X152368285Y-89098380D02*
X152368285Y-88098380D01*
X152939714Y-89098380D01*
X152939714Y-88098380D01*
X153415904Y-89098380D02*
X153415904Y-88098380D01*
X153654000Y-88098380D01*
X153796857Y-88146000D01*
X153892095Y-88241238D01*
X153939714Y-88336476D01*
X153987333Y-88526952D01*
X153987333Y-88669809D01*
X153939714Y-88860285D01*
X153892095Y-88955523D01*
X153796857Y-89050761D01*
X153654000Y-89098380D01*
X153415904Y-89098380D01*
G04 #@! TO.C,H3*
X157988095Y-86106380D02*
X157988095Y-85106380D01*
X157988095Y-85582571D02*
X158559523Y-85582571D01*
X158559523Y-86106380D02*
X158559523Y-85106380D01*
X158940476Y-85106380D02*
X159559523Y-85106380D01*
X159226190Y-85487333D01*
X159369047Y-85487333D01*
X159464285Y-85534952D01*
X159511904Y-85582571D01*
X159559523Y-85677809D01*
X159559523Y-85915904D01*
X159511904Y-86011142D01*
X159464285Y-86058761D01*
X159369047Y-86106380D01*
X159083333Y-86106380D01*
X158988095Y-86058761D01*
X158940476Y-86011142D01*
G04 #@! TD*
M02*
