M48
; DRILL file {KiCad 5.1.10-88a1d61d58~88~ubuntu20.04.1} date Wed May 19 20:40:34 2021
; FORMAT={-:-/ absolute / metric / decimal}
; #@! TF.CreationDate,2021-05-19T20:40:34-06:00
; #@! TF.GenerationSoftware,Kicad,Pcbnew,5.1.10-88a1d61d58~88~ubuntu20.04.1
FMAT,2
METRIC
T1C0.400
T2C1.000
T3C1.016
T4C1.200
T5C2.500
T6C0.600
%
G90
G05
T1
X134.137Y-75.255
X136.906Y-75.946
X150.368Y-84.328
X151.638Y-81.534
X153.162Y-81.534
X153.67Y-83.312
T2
X139.446Y-72.136
X139.7Y-90.678
X142.24Y-90.678
X144.78Y-90.678
X147.32Y-90.678
X149.86Y-90.678
X152.4Y-90.678
X153.924Y-67.056
X153.924Y-69.596
X154.178Y-76.708
X159.512Y-76.708
X159.512Y-79.248
T3
X145.796Y-76.962
X145.796Y-79.502
X145.796Y-82.042
X145.796Y-84.582
X148.336Y-76.962
X148.336Y-79.502
X148.336Y-82.042
X148.336Y-84.582
T4
X163.722Y-66.628
X163.722Y-69.128
X163.722Y-74.128
X163.722Y-76.628
X163.722Y-79.328
X163.722Y-81.828
X163.722Y-86.828
X163.722Y-89.328
X168.728Y-71.628
X168.728Y-84.328
T5
X135.636Y-66.802
X135.636Y-89.154
X158.75Y-66.802
X158.75Y-89.154
T6
X136.423Y-77.302
X136.423Y-81.3
T0
M30
