G04 #@! TF.GenerationSoftware,KiCad,Pcbnew,5.1.10-88a1d61d58~88~ubuntu20.04.1*
G04 #@! TF.CreationDate,2021-05-19T20:40:34-06:00*
G04 #@! TF.ProjectId,CurrentSensorV1,43757272-656e-4745-9365-6e736f725631,rev?*
G04 #@! TF.SameCoordinates,Original*
G04 #@! TF.FileFunction,Paste,Top*
G04 #@! TF.FilePolarity,Positive*
%FSLAX46Y46*%
G04 Gerber Fmt 4.6, Leading zero omitted, Abs format (unit mm)*
G04 Created by KiCad (PCBNEW 5.1.10-88a1d61d58~88~ubuntu20.04.1) date 2021-05-19 20:40:34*
%MOMM*%
%LPD*%
G01*
G04 APERTURE LIST*
G04 #@! TA.AperFunction,Profile*
%ADD10C,0.050000*%
G04 #@! TD*
%ADD11R,1.900000X0.400000*%
%ADD12R,1.200000X1.400000*%
%ADD13R,1.500000X1.400000*%
%ADD14R,1.500000X2.000000*%
%ADD15R,3.800000X2.000000*%
G04 APERTURE END LIST*
D10*
X132842000Y-64008000D02*
X132842000Y-65278000D01*
X170180000Y-64008000D02*
X132842000Y-64008000D01*
X170180000Y-65278000D02*
X170180000Y-64008000D01*
X132842000Y-91948000D02*
X170180000Y-91948000D01*
X170180000Y-91948000D02*
X170180000Y-65278000D01*
X132842000Y-65278000D02*
X132842000Y-91948000D01*
D11*
G04 #@! TO.C,U9*
X137316845Y-77993240D03*
X137316845Y-78643240D03*
X137316845Y-79293240D03*
X137316845Y-79943240D03*
X137316845Y-80593240D03*
D12*
X136641840Y-76047600D03*
X136652000Y-82550000D03*
D13*
X134137400Y-75255120D03*
X134127240Y-83367880D03*
G04 #@! TD*
G04 #@! TO.C,C4*
G36*
G01*
X143938000Y-68034000D02*
X143938000Y-69634000D01*
G75*
G02*
X143688000Y-69884000I-250000J0D01*
G01*
X139688000Y-69884000D01*
G75*
G02*
X139438000Y-69634000I0J250000D01*
G01*
X139438000Y-68034000D01*
G75*
G02*
X139688000Y-67784000I250000J0D01*
G01*
X143688000Y-67784000D01*
G75*
G02*
X143938000Y-68034000I0J-250000D01*
G01*
G37*
G36*
G01*
X151138000Y-68034000D02*
X151138000Y-69634000D01*
G75*
G02*
X150888000Y-69884000I-250000J0D01*
G01*
X146888000Y-69884000D01*
G75*
G02*
X146638000Y-69634000I0J250000D01*
G01*
X146638000Y-68034000D01*
G75*
G02*
X146888000Y-67784000I250000J0D01*
G01*
X150888000Y-67784000D01*
G75*
G02*
X151138000Y-68034000I0J-250000D01*
G01*
G37*
G04 #@! TD*
D14*
G04 #@! TO.C,U3*
X156224000Y-73558000D03*
X151624000Y-73558000D03*
X153924000Y-73558000D03*
D15*
X153924000Y-79858000D03*
G04 #@! TD*
G04 #@! TO.C,U1*
G36*
G01*
X152703000Y-84491000D02*
X152703000Y-84641000D01*
G75*
G02*
X152628000Y-84716000I-75000J0D01*
G01*
X151328000Y-84716000D01*
G75*
G02*
X151253000Y-84641000I0J75000D01*
G01*
X151253000Y-84491000D01*
G75*
G02*
X151328000Y-84416000I75000J0D01*
G01*
X152628000Y-84416000D01*
G75*
G02*
X152703000Y-84491000I0J-75000D01*
G01*
G37*
G36*
G01*
X152703000Y-83991000D02*
X152703000Y-84141000D01*
G75*
G02*
X152628000Y-84216000I-75000J0D01*
G01*
X151328000Y-84216000D01*
G75*
G02*
X151253000Y-84141000I0J75000D01*
G01*
X151253000Y-83991000D01*
G75*
G02*
X151328000Y-83916000I75000J0D01*
G01*
X152628000Y-83916000D01*
G75*
G02*
X152703000Y-83991000I0J-75000D01*
G01*
G37*
G36*
G01*
X152703000Y-83491000D02*
X152703000Y-83641000D01*
G75*
G02*
X152628000Y-83716000I-75000J0D01*
G01*
X151328000Y-83716000D01*
G75*
G02*
X151253000Y-83641000I0J75000D01*
G01*
X151253000Y-83491000D01*
G75*
G02*
X151328000Y-83416000I75000J0D01*
G01*
X152628000Y-83416000D01*
G75*
G02*
X152703000Y-83491000I0J-75000D01*
G01*
G37*
G36*
G01*
X152703000Y-82991000D02*
X152703000Y-83141000D01*
G75*
G02*
X152628000Y-83216000I-75000J0D01*
G01*
X151328000Y-83216000D01*
G75*
G02*
X151253000Y-83141000I0J75000D01*
G01*
X151253000Y-82991000D01*
G75*
G02*
X151328000Y-82916000I75000J0D01*
G01*
X152628000Y-82916000D01*
G75*
G02*
X152703000Y-82991000I0J-75000D01*
G01*
G37*
G36*
G01*
X152703000Y-82491000D02*
X152703000Y-82641000D01*
G75*
G02*
X152628000Y-82716000I-75000J0D01*
G01*
X151328000Y-82716000D01*
G75*
G02*
X151253000Y-82641000I0J75000D01*
G01*
X151253000Y-82491000D01*
G75*
G02*
X151328000Y-82416000I75000J0D01*
G01*
X152628000Y-82416000D01*
G75*
G02*
X152703000Y-82491000I0J-75000D01*
G01*
G37*
G36*
G01*
X157103000Y-82491000D02*
X157103000Y-82641000D01*
G75*
G02*
X157028000Y-82716000I-75000J0D01*
G01*
X155728000Y-82716000D01*
G75*
G02*
X155653000Y-82641000I0J75000D01*
G01*
X155653000Y-82491000D01*
G75*
G02*
X155728000Y-82416000I75000J0D01*
G01*
X157028000Y-82416000D01*
G75*
G02*
X157103000Y-82491000I0J-75000D01*
G01*
G37*
G36*
G01*
X157103000Y-82991000D02*
X157103000Y-83141000D01*
G75*
G02*
X157028000Y-83216000I-75000J0D01*
G01*
X155728000Y-83216000D01*
G75*
G02*
X155653000Y-83141000I0J75000D01*
G01*
X155653000Y-82991000D01*
G75*
G02*
X155728000Y-82916000I75000J0D01*
G01*
X157028000Y-82916000D01*
G75*
G02*
X157103000Y-82991000I0J-75000D01*
G01*
G37*
G36*
G01*
X157103000Y-83491000D02*
X157103000Y-83641000D01*
G75*
G02*
X157028000Y-83716000I-75000J0D01*
G01*
X155728000Y-83716000D01*
G75*
G02*
X155653000Y-83641000I0J75000D01*
G01*
X155653000Y-83491000D01*
G75*
G02*
X155728000Y-83416000I75000J0D01*
G01*
X157028000Y-83416000D01*
G75*
G02*
X157103000Y-83491000I0J-75000D01*
G01*
G37*
G36*
G01*
X157103000Y-83991000D02*
X157103000Y-84141000D01*
G75*
G02*
X157028000Y-84216000I-75000J0D01*
G01*
X155728000Y-84216000D01*
G75*
G02*
X155653000Y-84141000I0J75000D01*
G01*
X155653000Y-83991000D01*
G75*
G02*
X155728000Y-83916000I75000J0D01*
G01*
X157028000Y-83916000D01*
G75*
G02*
X157103000Y-83991000I0J-75000D01*
G01*
G37*
G36*
G01*
X157103000Y-84491000D02*
X157103000Y-84641000D01*
G75*
G02*
X157028000Y-84716000I-75000J0D01*
G01*
X155728000Y-84716000D01*
G75*
G02*
X155653000Y-84641000I0J75000D01*
G01*
X155653000Y-84491000D01*
G75*
G02*
X155728000Y-84416000I75000J0D01*
G01*
X157028000Y-84416000D01*
G75*
G02*
X157103000Y-84491000I0J-75000D01*
G01*
G37*
G04 #@! TD*
G04 #@! TO.C,R6*
G36*
G01*
X139189750Y-85694000D02*
X139702250Y-85694000D01*
G75*
G02*
X139921000Y-85912750I0J-218750D01*
G01*
X139921000Y-86350250D01*
G75*
G02*
X139702250Y-86569000I-218750J0D01*
G01*
X139189750Y-86569000D01*
G75*
G02*
X138971000Y-86350250I0J218750D01*
G01*
X138971000Y-85912750D01*
G75*
G02*
X139189750Y-85694000I218750J0D01*
G01*
G37*
G36*
G01*
X139189750Y-84119000D02*
X139702250Y-84119000D01*
G75*
G02*
X139921000Y-84337750I0J-218750D01*
G01*
X139921000Y-84775250D01*
G75*
G02*
X139702250Y-84994000I-218750J0D01*
G01*
X139189750Y-84994000D01*
G75*
G02*
X138971000Y-84775250I0J218750D01*
G01*
X138971000Y-84337750D01*
G75*
G02*
X139189750Y-84119000I218750J0D01*
G01*
G37*
G04 #@! TD*
G04 #@! TO.C,R3*
G36*
G01*
X142336000Y-84838250D02*
X142336000Y-84325750D01*
G75*
G02*
X142554750Y-84107000I218750J0D01*
G01*
X142992250Y-84107000D01*
G75*
G02*
X143211000Y-84325750I0J-218750D01*
G01*
X143211000Y-84838250D01*
G75*
G02*
X142992250Y-85057000I-218750J0D01*
G01*
X142554750Y-85057000D01*
G75*
G02*
X142336000Y-84838250I0J218750D01*
G01*
G37*
G36*
G01*
X140761000Y-84838250D02*
X140761000Y-84325750D01*
G75*
G02*
X140979750Y-84107000I218750J0D01*
G01*
X141417250Y-84107000D01*
G75*
G02*
X141636000Y-84325750I0J-218750D01*
G01*
X141636000Y-84838250D01*
G75*
G02*
X141417250Y-85057000I-218750J0D01*
G01*
X140979750Y-85057000D01*
G75*
G02*
X140761000Y-84838250I0J218750D01*
G01*
G37*
G04 #@! TD*
G04 #@! TO.C,R2*
G36*
G01*
X142491750Y-80868000D02*
X143004250Y-80868000D01*
G75*
G02*
X143223000Y-81086750I0J-218750D01*
G01*
X143223000Y-81524250D01*
G75*
G02*
X143004250Y-81743000I-218750J0D01*
G01*
X142491750Y-81743000D01*
G75*
G02*
X142273000Y-81524250I0J218750D01*
G01*
X142273000Y-81086750D01*
G75*
G02*
X142491750Y-80868000I218750J0D01*
G01*
G37*
G36*
G01*
X142491750Y-79293000D02*
X143004250Y-79293000D01*
G75*
G02*
X143223000Y-79511750I0J-218750D01*
G01*
X143223000Y-79949250D01*
G75*
G02*
X143004250Y-80168000I-218750J0D01*
G01*
X142491750Y-80168000D01*
G75*
G02*
X142273000Y-79949250I0J218750D01*
G01*
X142273000Y-79511750D01*
G75*
G02*
X142491750Y-79293000I218750J0D01*
G01*
G37*
G04 #@! TD*
G04 #@! TO.C,R1*
G36*
G01*
X141226250Y-80168000D02*
X140713750Y-80168000D01*
G75*
G02*
X140495000Y-79949250I0J218750D01*
G01*
X140495000Y-79511750D01*
G75*
G02*
X140713750Y-79293000I218750J0D01*
G01*
X141226250Y-79293000D01*
G75*
G02*
X141445000Y-79511750I0J-218750D01*
G01*
X141445000Y-79949250D01*
G75*
G02*
X141226250Y-80168000I-218750J0D01*
G01*
G37*
G36*
G01*
X141226250Y-81743000D02*
X140713750Y-81743000D01*
G75*
G02*
X140495000Y-81524250I0J218750D01*
G01*
X140495000Y-81086750D01*
G75*
G02*
X140713750Y-80868000I218750J0D01*
G01*
X141226250Y-80868000D01*
G75*
G02*
X141445000Y-81086750I0J-218750D01*
G01*
X141445000Y-81524250D01*
G75*
G02*
X141226250Y-81743000I-218750J0D01*
G01*
G37*
G04 #@! TD*
G04 #@! TO.C,C5*
G36*
G01*
X141922000Y-78150500D02*
X141922000Y-77805500D01*
G75*
G02*
X142069500Y-77658000I147500J0D01*
G01*
X142364500Y-77658000D01*
G75*
G02*
X142512000Y-77805500I0J-147500D01*
G01*
X142512000Y-78150500D01*
G75*
G02*
X142364500Y-78298000I-147500J0D01*
G01*
X142069500Y-78298000D01*
G75*
G02*
X141922000Y-78150500I0J147500D01*
G01*
G37*
G36*
G01*
X140952000Y-78150500D02*
X140952000Y-77805500D01*
G75*
G02*
X141099500Y-77658000I147500J0D01*
G01*
X141394500Y-77658000D01*
G75*
G02*
X141542000Y-77805500I0J-147500D01*
G01*
X141542000Y-78150500D01*
G75*
G02*
X141394500Y-78298000I-147500J0D01*
G01*
X141099500Y-78298000D01*
G75*
G02*
X140952000Y-78150500I0J147500D01*
G01*
G37*
G04 #@! TD*
G04 #@! TO.C,C3*
G36*
G01*
X141542000Y-76281500D02*
X141542000Y-76626500D01*
G75*
G02*
X141394500Y-76774000I-147500J0D01*
G01*
X141099500Y-76774000D01*
G75*
G02*
X140952000Y-76626500I0J147500D01*
G01*
X140952000Y-76281500D01*
G75*
G02*
X141099500Y-76134000I147500J0D01*
G01*
X141394500Y-76134000D01*
G75*
G02*
X141542000Y-76281500I0J-147500D01*
G01*
G37*
G36*
G01*
X142512000Y-76281500D02*
X142512000Y-76626500D01*
G75*
G02*
X142364500Y-76774000I-147500J0D01*
G01*
X142069500Y-76774000D01*
G75*
G02*
X141922000Y-76626500I0J147500D01*
G01*
X141922000Y-76281500D01*
G75*
G02*
X142069500Y-76134000I147500J0D01*
G01*
X142364500Y-76134000D01*
G75*
G02*
X142512000Y-76281500I0J-147500D01*
G01*
G37*
G04 #@! TD*
G04 #@! TO.C,C1*
G36*
G01*
X136570500Y-71692000D02*
X136225500Y-71692000D01*
G75*
G02*
X136078000Y-71544500I0J147500D01*
G01*
X136078000Y-71249500D01*
G75*
G02*
X136225500Y-71102000I147500J0D01*
G01*
X136570500Y-71102000D01*
G75*
G02*
X136718000Y-71249500I0J-147500D01*
G01*
X136718000Y-71544500D01*
G75*
G02*
X136570500Y-71692000I-147500J0D01*
G01*
G37*
G36*
G01*
X136570500Y-72662000D02*
X136225500Y-72662000D01*
G75*
G02*
X136078000Y-72514500I0J147500D01*
G01*
X136078000Y-72219500D01*
G75*
G02*
X136225500Y-72072000I147500J0D01*
G01*
X136570500Y-72072000D01*
G75*
G02*
X136718000Y-72219500I0J-147500D01*
G01*
X136718000Y-72514500D01*
G75*
G02*
X136570500Y-72662000I-147500J0D01*
G01*
G37*
G04 #@! TD*
M02*
