G04 #@! TF.GenerationSoftware,KiCad,Pcbnew,5.1.6+dfsg1-1*
G04 #@! TF.CreationDate,2021-03-01T10:48:13-07:00*
G04 #@! TF.ProjectId,CurrentSensorV1,43757272-656e-4745-9365-6e736f725631,rev?*
G04 #@! TF.SameCoordinates,Original*
G04 #@! TF.FileFunction,Soldermask,Top*
G04 #@! TF.FilePolarity,Negative*
%FSLAX46Y46*%
G04 Gerber Fmt 4.6, Leading zero omitted, Abs format (unit mm)*
G04 Created by KiCad (PCBNEW 5.1.6+dfsg1-1) date 2021-03-01 10:48:13*
%MOMM*%
%LPD*%
G01*
G04 APERTURE LIST*
%ADD10C,0.350000*%
G04 APERTURE END LIST*
D10*
G36*
X141210995Y-91604996D02*
G01*
X139408997Y-91604996D01*
X139408997Y-90502996D01*
X141210995Y-90502996D01*
X141210995Y-91604996D01*
G37*
G36*
X134910998Y-91604996D02*
G01*
X133109000Y-91604996D01*
X133109000Y-90502996D01*
X134910998Y-90502996D01*
X134910998Y-91604996D01*
G37*
G36*
X164270529Y-89431398D02*
G01*
X164445079Y-89484348D01*
X164605947Y-89570333D01*
X164746949Y-89686051D01*
X164862667Y-89827053D01*
X164948652Y-89987921D01*
X165001602Y-90162471D01*
X165019480Y-90344000D01*
X165001602Y-90525529D01*
X164948652Y-90700079D01*
X164862667Y-90860947D01*
X164746949Y-91001949D01*
X164605947Y-91117667D01*
X164445079Y-91203652D01*
X164270529Y-91256602D01*
X164134490Y-91270000D01*
X162293510Y-91270000D01*
X162157471Y-91256602D01*
X161982921Y-91203652D01*
X161822053Y-91117667D01*
X161681051Y-91001949D01*
X161565333Y-90860947D01*
X161479348Y-90700079D01*
X161426398Y-90525529D01*
X161408520Y-90344000D01*
X161426398Y-90162471D01*
X161479348Y-89987921D01*
X161565333Y-89827053D01*
X161681051Y-89686051D01*
X161822053Y-89570333D01*
X161982921Y-89484348D01*
X162157471Y-89431398D01*
X162293510Y-89418000D01*
X164134490Y-89418000D01*
X164270529Y-89431398D01*
G37*
G36*
X159371512Y-89019927D02*
G01*
X159520812Y-89049624D01*
X159684784Y-89117544D01*
X159832354Y-89216147D01*
X159957853Y-89341646D01*
X160056456Y-89489216D01*
X160124376Y-89653188D01*
X160159000Y-89827259D01*
X160159000Y-90004741D01*
X160124376Y-90178812D01*
X160056456Y-90342784D01*
X159957853Y-90490354D01*
X159832354Y-90615853D01*
X159684784Y-90714456D01*
X159520812Y-90782376D01*
X159371512Y-90812073D01*
X159346742Y-90817000D01*
X159169258Y-90817000D01*
X159144488Y-90812073D01*
X158995188Y-90782376D01*
X158831216Y-90714456D01*
X158683646Y-90615853D01*
X158558147Y-90490354D01*
X158459544Y-90342784D01*
X158391624Y-90178812D01*
X158357000Y-90004741D01*
X158357000Y-89827259D01*
X158391624Y-89653188D01*
X158459544Y-89489216D01*
X158558147Y-89341646D01*
X158683646Y-89216147D01*
X158831216Y-89117544D01*
X158995188Y-89049624D01*
X159144488Y-89019927D01*
X159169258Y-89015000D01*
X159346742Y-89015000D01*
X159371512Y-89019927D01*
G37*
G36*
X153529512Y-88511927D02*
G01*
X153678812Y-88541624D01*
X153842784Y-88609544D01*
X153990354Y-88708147D01*
X154115853Y-88833646D01*
X154214456Y-88981216D01*
X154282376Y-89145188D01*
X154317000Y-89319259D01*
X154317000Y-89496741D01*
X154282376Y-89670812D01*
X154214456Y-89834784D01*
X154115853Y-89982354D01*
X153990354Y-90107853D01*
X153842784Y-90206456D01*
X153678812Y-90274376D01*
X153529512Y-90304073D01*
X153504742Y-90309000D01*
X153327258Y-90309000D01*
X153302488Y-90304073D01*
X153153188Y-90274376D01*
X152989216Y-90206456D01*
X152841646Y-90107853D01*
X152716147Y-89982354D01*
X152617544Y-89834784D01*
X152549624Y-89670812D01*
X152515000Y-89496741D01*
X152515000Y-89319259D01*
X152549624Y-89145188D01*
X152617544Y-88981216D01*
X152716147Y-88833646D01*
X152841646Y-88708147D01*
X152989216Y-88609544D01*
X153153188Y-88541624D01*
X153302488Y-88511927D01*
X153327258Y-88507000D01*
X153504742Y-88507000D01*
X153529512Y-88511927D01*
G37*
G36*
X150989512Y-88511927D02*
G01*
X151138812Y-88541624D01*
X151302784Y-88609544D01*
X151450354Y-88708147D01*
X151575853Y-88833646D01*
X151674456Y-88981216D01*
X151742376Y-89145188D01*
X151777000Y-89319259D01*
X151777000Y-89496741D01*
X151742376Y-89670812D01*
X151674456Y-89834784D01*
X151575853Y-89982354D01*
X151450354Y-90107853D01*
X151302784Y-90206456D01*
X151138812Y-90274376D01*
X150989512Y-90304073D01*
X150964742Y-90309000D01*
X150787258Y-90309000D01*
X150762488Y-90304073D01*
X150613188Y-90274376D01*
X150449216Y-90206456D01*
X150301646Y-90107853D01*
X150176147Y-89982354D01*
X150077544Y-89834784D01*
X150009624Y-89670812D01*
X149975000Y-89496741D01*
X149975000Y-89319259D01*
X150009624Y-89145188D01*
X150077544Y-88981216D01*
X150176147Y-88833646D01*
X150301646Y-88708147D01*
X150449216Y-88609544D01*
X150613188Y-88541624D01*
X150762488Y-88511927D01*
X150787258Y-88507000D01*
X150964742Y-88507000D01*
X150989512Y-88511927D01*
G37*
G36*
X148449512Y-88511927D02*
G01*
X148598812Y-88541624D01*
X148762784Y-88609544D01*
X148910354Y-88708147D01*
X149035853Y-88833646D01*
X149134456Y-88981216D01*
X149202376Y-89145188D01*
X149237000Y-89319259D01*
X149237000Y-89496741D01*
X149202376Y-89670812D01*
X149134456Y-89834784D01*
X149035853Y-89982354D01*
X148910354Y-90107853D01*
X148762784Y-90206456D01*
X148598812Y-90274376D01*
X148449512Y-90304073D01*
X148424742Y-90309000D01*
X148247258Y-90309000D01*
X148222488Y-90304073D01*
X148073188Y-90274376D01*
X147909216Y-90206456D01*
X147761646Y-90107853D01*
X147636147Y-89982354D01*
X147537544Y-89834784D01*
X147469624Y-89670812D01*
X147435000Y-89496741D01*
X147435000Y-89319259D01*
X147469624Y-89145188D01*
X147537544Y-88981216D01*
X147636147Y-88833646D01*
X147761646Y-88708147D01*
X147909216Y-88609544D01*
X148073188Y-88541624D01*
X148222488Y-88511927D01*
X148247258Y-88507000D01*
X148424742Y-88507000D01*
X148449512Y-88511927D01*
G37*
G36*
X145909512Y-88511927D02*
G01*
X146058812Y-88541624D01*
X146222784Y-88609544D01*
X146370354Y-88708147D01*
X146495853Y-88833646D01*
X146594456Y-88981216D01*
X146662376Y-89145188D01*
X146697000Y-89319259D01*
X146697000Y-89496741D01*
X146662376Y-89670812D01*
X146594456Y-89834784D01*
X146495853Y-89982354D01*
X146370354Y-90107853D01*
X146222784Y-90206456D01*
X146058812Y-90274376D01*
X145909512Y-90304073D01*
X145884742Y-90309000D01*
X145707258Y-90309000D01*
X145682488Y-90304073D01*
X145533188Y-90274376D01*
X145369216Y-90206456D01*
X145221646Y-90107853D01*
X145096147Y-89982354D01*
X144997544Y-89834784D01*
X144929624Y-89670812D01*
X144895000Y-89496741D01*
X144895000Y-89319259D01*
X144929624Y-89145188D01*
X144997544Y-88981216D01*
X145096147Y-88833646D01*
X145221646Y-88708147D01*
X145369216Y-88609544D01*
X145533188Y-88541624D01*
X145682488Y-88511927D01*
X145707258Y-88507000D01*
X145884742Y-88507000D01*
X145909512Y-88511927D01*
G37*
G36*
X143369512Y-88511927D02*
G01*
X143518812Y-88541624D01*
X143682784Y-88609544D01*
X143830354Y-88708147D01*
X143955853Y-88833646D01*
X144054456Y-88981216D01*
X144122376Y-89145188D01*
X144157000Y-89319259D01*
X144157000Y-89496741D01*
X144122376Y-89670812D01*
X144054456Y-89834784D01*
X143955853Y-89982354D01*
X143830354Y-90107853D01*
X143682784Y-90206456D01*
X143518812Y-90274376D01*
X143369512Y-90304073D01*
X143344742Y-90309000D01*
X143167258Y-90309000D01*
X143142488Y-90304073D01*
X142993188Y-90274376D01*
X142829216Y-90206456D01*
X142681646Y-90107853D01*
X142556147Y-89982354D01*
X142457544Y-89834784D01*
X142389624Y-89670812D01*
X142355000Y-89496741D01*
X142355000Y-89319259D01*
X142389624Y-89145188D01*
X142457544Y-88981216D01*
X142556147Y-88833646D01*
X142681646Y-88708147D01*
X142829216Y-88609544D01*
X142993188Y-88541624D01*
X143142488Y-88511927D01*
X143167258Y-88507000D01*
X143344742Y-88507000D01*
X143369512Y-88511927D01*
G37*
G36*
X156857000Y-90309000D02*
G01*
X155055000Y-90309000D01*
X155055000Y-88507000D01*
X156857000Y-88507000D01*
X156857000Y-90309000D01*
G37*
G36*
X164270529Y-86931398D02*
G01*
X164445079Y-86984348D01*
X164605947Y-87070333D01*
X164746949Y-87186051D01*
X164862667Y-87327053D01*
X164948652Y-87487921D01*
X165001602Y-87662471D01*
X165019480Y-87844000D01*
X165001602Y-88025529D01*
X164948652Y-88200079D01*
X164862667Y-88360947D01*
X164746949Y-88501949D01*
X164605947Y-88617667D01*
X164445079Y-88703652D01*
X164270529Y-88756602D01*
X164134490Y-88770000D01*
X162293510Y-88770000D01*
X162157471Y-88756602D01*
X161982921Y-88703652D01*
X161822053Y-88617667D01*
X161681051Y-88501949D01*
X161565333Y-88360947D01*
X161479348Y-88200079D01*
X161426398Y-88025529D01*
X161408520Y-87844000D01*
X161426398Y-87662471D01*
X161479348Y-87487921D01*
X161565333Y-87327053D01*
X161681051Y-87186051D01*
X161822053Y-87070333D01*
X161982921Y-86984348D01*
X162157471Y-86931398D01*
X162293510Y-86918000D01*
X164134490Y-86918000D01*
X164270529Y-86931398D01*
G37*
G36*
X160159000Y-88277000D02*
G01*
X158357000Y-88277000D01*
X158357000Y-86475000D01*
X160159000Y-86475000D01*
X160159000Y-88277000D01*
G37*
G36*
X141210995Y-87804999D02*
G01*
X139408997Y-87804999D01*
X139408997Y-86702999D01*
X141210995Y-86702999D01*
X141210995Y-87804999D01*
G37*
G36*
X134910998Y-87804999D02*
G01*
X133109000Y-87804999D01*
X133109000Y-86702999D01*
X134910998Y-86702999D01*
X134910998Y-87804999D01*
G37*
G36*
X169521000Y-87145000D02*
G01*
X166919000Y-87145000D01*
X166919000Y-83543000D01*
X169521000Y-83543000D01*
X169521000Y-87145000D01*
G37*
G36*
X154266091Y-85330085D02*
G01*
X154300069Y-85340393D01*
X154331390Y-85357134D01*
X154358839Y-85379661D01*
X154381366Y-85407110D01*
X154398107Y-85438431D01*
X154408415Y-85472409D01*
X154412500Y-85513890D01*
X154412500Y-86190110D01*
X154408415Y-86231591D01*
X154398107Y-86265569D01*
X154381366Y-86296890D01*
X154358839Y-86324339D01*
X154331390Y-86346866D01*
X154300069Y-86363607D01*
X154266091Y-86373915D01*
X154224610Y-86378000D01*
X153623390Y-86378000D01*
X153581909Y-86373915D01*
X153547931Y-86363607D01*
X153516610Y-86346866D01*
X153489161Y-86324339D01*
X153466634Y-86296890D01*
X153449893Y-86265569D01*
X153439585Y-86231591D01*
X153435500Y-86190110D01*
X153435500Y-85513890D01*
X153439585Y-85472409D01*
X153449893Y-85438431D01*
X153466634Y-85407110D01*
X153489161Y-85379661D01*
X153516610Y-85357134D01*
X153547931Y-85340393D01*
X153581909Y-85330085D01*
X153623390Y-85326000D01*
X154224610Y-85326000D01*
X154266091Y-85330085D01*
G37*
G36*
X155841091Y-85330085D02*
G01*
X155875069Y-85340393D01*
X155906390Y-85357134D01*
X155933839Y-85379661D01*
X155956366Y-85407110D01*
X155973107Y-85438431D01*
X155983415Y-85472409D01*
X155987500Y-85513890D01*
X155987500Y-86190110D01*
X155983415Y-86231591D01*
X155973107Y-86265569D01*
X155956366Y-86296890D01*
X155933839Y-86324339D01*
X155906390Y-86346866D01*
X155875069Y-86363607D01*
X155841091Y-86373915D01*
X155799610Y-86378000D01*
X155198390Y-86378000D01*
X155156909Y-86373915D01*
X155122931Y-86363607D01*
X155091610Y-86346866D01*
X155064161Y-86324339D01*
X155041634Y-86296890D01*
X155024893Y-86265569D01*
X155014585Y-86231591D01*
X155010500Y-86190110D01*
X155010500Y-85513890D01*
X155014585Y-85472409D01*
X155024893Y-85438431D01*
X155041634Y-85407110D01*
X155064161Y-85379661D01*
X155091610Y-85357134D01*
X155122931Y-85340393D01*
X155156909Y-85330085D01*
X155198390Y-85326000D01*
X155799610Y-85326000D01*
X155841091Y-85330085D01*
G37*
G36*
X144143591Y-85393085D02*
G01*
X144177569Y-85403393D01*
X144208890Y-85420134D01*
X144236339Y-85442661D01*
X144258866Y-85470110D01*
X144275607Y-85501431D01*
X144285915Y-85535409D01*
X144290000Y-85576890D01*
X144290000Y-86178110D01*
X144285915Y-86219591D01*
X144275607Y-86253569D01*
X144258866Y-86284890D01*
X144236339Y-86312339D01*
X144208890Y-86334866D01*
X144177569Y-86351607D01*
X144143591Y-86361915D01*
X144102110Y-86366000D01*
X143425890Y-86366000D01*
X143384409Y-86361915D01*
X143350431Y-86351607D01*
X143319110Y-86334866D01*
X143291661Y-86312339D01*
X143269134Y-86284890D01*
X143252393Y-86253569D01*
X143242085Y-86219591D01*
X143238000Y-86178110D01*
X143238000Y-85576890D01*
X143242085Y-85535409D01*
X143252393Y-85501431D01*
X143269134Y-85470110D01*
X143291661Y-85442661D01*
X143319110Y-85420134D01*
X143350431Y-85403393D01*
X143384409Y-85393085D01*
X143425890Y-85389000D01*
X144102110Y-85389000D01*
X144143591Y-85393085D01*
G37*
G36*
X142365591Y-85393085D02*
G01*
X142399569Y-85403393D01*
X142430890Y-85420134D01*
X142458339Y-85442661D01*
X142480866Y-85470110D01*
X142497607Y-85501431D01*
X142507915Y-85535409D01*
X142512000Y-85576890D01*
X142512000Y-86178110D01*
X142507915Y-86219591D01*
X142497607Y-86253569D01*
X142480866Y-86284890D01*
X142458339Y-86312339D01*
X142430890Y-86334866D01*
X142399569Y-86351607D01*
X142365591Y-86361915D01*
X142324110Y-86366000D01*
X141647890Y-86366000D01*
X141606409Y-86361915D01*
X141572431Y-86351607D01*
X141541110Y-86334866D01*
X141513661Y-86312339D01*
X141491134Y-86284890D01*
X141474393Y-86253569D01*
X141464085Y-86219591D01*
X141460000Y-86178110D01*
X141460000Y-85576890D01*
X141464085Y-85535409D01*
X141474393Y-85501431D01*
X141491134Y-85470110D01*
X141513661Y-85442661D01*
X141541110Y-85420134D01*
X141572431Y-85403393D01*
X141606409Y-85393085D01*
X141647890Y-85389000D01*
X142324110Y-85389000D01*
X142365591Y-85393085D01*
G37*
G36*
X135232000Y-85162886D02*
G01*
X135232602Y-85175138D01*
X135235149Y-85201000D01*
X135232602Y-85226862D01*
X135232000Y-85239114D01*
X135232000Y-85293008D01*
X135231382Y-85294164D01*
X135223563Y-85325376D01*
X135222580Y-85328616D01*
X135222580Y-85328618D01*
X135210887Y-85367164D01*
X135185354Y-85451336D01*
X135124906Y-85564425D01*
X135043554Y-85663554D01*
X134944425Y-85744906D01*
X134831336Y-85805354D01*
X134799404Y-85815040D01*
X134708618Y-85842580D01*
X134644855Y-85848860D01*
X134612974Y-85852000D01*
X133849026Y-85852000D01*
X133817145Y-85848860D01*
X133753382Y-85842580D01*
X133662596Y-85815040D01*
X133630664Y-85805354D01*
X133517575Y-85744906D01*
X133418446Y-85663554D01*
X133337094Y-85564425D01*
X133276646Y-85451336D01*
X133251113Y-85367164D01*
X133239420Y-85328618D01*
X133239420Y-85328616D01*
X133236162Y-85317876D01*
X133235723Y-85315672D01*
X133230000Y-85301869D01*
X133230000Y-85239114D01*
X133229398Y-85226862D01*
X133226851Y-85201000D01*
X133229398Y-85175138D01*
X133230000Y-85162886D01*
X133230000Y-83585000D01*
X135232000Y-83585000D01*
X135232000Y-85162886D01*
G37*
G36*
X140333591Y-84123085D02*
G01*
X140367569Y-84133393D01*
X140398890Y-84150134D01*
X140426339Y-84172661D01*
X140448866Y-84200110D01*
X140465607Y-84231431D01*
X140475915Y-84265409D01*
X140480000Y-84306890D01*
X140480000Y-84908110D01*
X140475915Y-84949591D01*
X140465607Y-84983569D01*
X140448866Y-85014890D01*
X140426339Y-85042339D01*
X140398890Y-85064866D01*
X140367569Y-85081607D01*
X140333591Y-85091915D01*
X140292110Y-85096000D01*
X139615890Y-85096000D01*
X139574409Y-85091915D01*
X139540431Y-85081607D01*
X139509110Y-85064866D01*
X139481661Y-85042339D01*
X139459134Y-85014890D01*
X139442393Y-84983569D01*
X139432085Y-84949591D01*
X139428000Y-84908110D01*
X139428000Y-84306890D01*
X139432085Y-84265409D01*
X139442393Y-84231431D01*
X139459134Y-84200110D01*
X139481661Y-84172661D01*
X139509110Y-84150134D01*
X139540431Y-84133393D01*
X139574409Y-84123085D01*
X139615890Y-84119000D01*
X140292110Y-84119000D01*
X140333591Y-84123085D01*
G37*
G36*
X142365591Y-83818085D02*
G01*
X142399569Y-83828393D01*
X142430890Y-83845134D01*
X142458339Y-83867661D01*
X142480866Y-83895110D01*
X142497607Y-83926431D01*
X142507915Y-83960409D01*
X142512000Y-84001890D01*
X142512000Y-84603110D01*
X142507915Y-84644591D01*
X142497607Y-84678569D01*
X142480866Y-84709890D01*
X142458339Y-84737339D01*
X142430890Y-84759866D01*
X142399569Y-84776607D01*
X142365591Y-84786915D01*
X142324110Y-84791000D01*
X141647890Y-84791000D01*
X141606409Y-84786915D01*
X141572431Y-84776607D01*
X141541110Y-84759866D01*
X141513661Y-84737339D01*
X141491134Y-84709890D01*
X141474393Y-84678569D01*
X141464085Y-84644591D01*
X141460000Y-84603110D01*
X141460000Y-84001890D01*
X141464085Y-83960409D01*
X141474393Y-83926431D01*
X141491134Y-83895110D01*
X141513661Y-83867661D01*
X141541110Y-83845134D01*
X141572431Y-83828393D01*
X141606409Y-83818085D01*
X141647890Y-83814000D01*
X142324110Y-83814000D01*
X142365591Y-83818085D01*
G37*
G36*
X144143591Y-83818085D02*
G01*
X144177569Y-83828393D01*
X144208890Y-83845134D01*
X144236339Y-83867661D01*
X144258866Y-83895110D01*
X144275607Y-83926431D01*
X144285915Y-83960409D01*
X144290000Y-84001890D01*
X144290000Y-84603110D01*
X144285915Y-84644591D01*
X144275607Y-84678569D01*
X144258866Y-84709890D01*
X144236339Y-84737339D01*
X144208890Y-84759866D01*
X144177569Y-84776607D01*
X144143591Y-84786915D01*
X144102110Y-84791000D01*
X143425890Y-84791000D01*
X143384409Y-84786915D01*
X143350431Y-84776607D01*
X143319110Y-84759866D01*
X143291661Y-84737339D01*
X143269134Y-84709890D01*
X143252393Y-84678569D01*
X143242085Y-84644591D01*
X143238000Y-84603110D01*
X143238000Y-84001890D01*
X143242085Y-83960409D01*
X143252393Y-83926431D01*
X143269134Y-83895110D01*
X143291661Y-83867661D01*
X143319110Y-83845134D01*
X143350431Y-83828393D01*
X143384409Y-83818085D01*
X143425890Y-83814000D01*
X144102110Y-83814000D01*
X144143591Y-83818085D01*
G37*
G36*
X146570778Y-82940547D02*
G01*
X146737224Y-83009491D01*
X146887022Y-83109583D01*
X147014417Y-83236978D01*
X147114509Y-83386776D01*
X147183453Y-83553222D01*
X147218600Y-83729918D01*
X147218600Y-83910082D01*
X147183453Y-84086778D01*
X147114509Y-84253224D01*
X147014417Y-84403022D01*
X146887022Y-84530417D01*
X146737224Y-84630509D01*
X146570778Y-84699453D01*
X146394082Y-84734600D01*
X146213918Y-84734600D01*
X146037222Y-84699453D01*
X145870776Y-84630509D01*
X145720978Y-84530417D01*
X145593583Y-84403022D01*
X145493491Y-84253224D01*
X145424547Y-84086778D01*
X145389400Y-83910082D01*
X145389400Y-83729918D01*
X145424547Y-83553222D01*
X145493491Y-83386776D01*
X145593583Y-83236978D01*
X145720978Y-83109583D01*
X145870776Y-83009491D01*
X146037222Y-82940547D01*
X146213918Y-82905400D01*
X146394082Y-82905400D01*
X146570778Y-82940547D01*
G37*
G36*
X149110778Y-82940547D02*
G01*
X149277224Y-83009491D01*
X149427022Y-83109583D01*
X149554417Y-83236978D01*
X149654509Y-83386776D01*
X149723453Y-83553222D01*
X149758600Y-83729918D01*
X149758600Y-83910082D01*
X149723453Y-84086778D01*
X149654509Y-84253224D01*
X149554417Y-84403022D01*
X149427022Y-84530417D01*
X149277224Y-84630509D01*
X149110778Y-84699453D01*
X148934082Y-84734600D01*
X148753918Y-84734600D01*
X148577222Y-84699453D01*
X148410776Y-84630509D01*
X148260978Y-84530417D01*
X148133583Y-84403022D01*
X148033491Y-84253224D01*
X147964547Y-84086778D01*
X147929400Y-83910082D01*
X147929400Y-83729918D01*
X147964547Y-83553222D01*
X148033491Y-83386776D01*
X148133583Y-83236978D01*
X148260978Y-83109583D01*
X148410776Y-83009491D01*
X148577222Y-82940547D01*
X148753918Y-82905400D01*
X148934082Y-82905400D01*
X149110778Y-82940547D01*
G37*
G36*
X159663295Y-81858323D02*
G01*
X159670310Y-81860451D01*
X159676776Y-81863908D01*
X159682442Y-81868558D01*
X159687092Y-81874224D01*
X159690549Y-81880690D01*
X159692677Y-81887705D01*
X159694000Y-81901140D01*
X159694000Y-82214860D01*
X159692677Y-82228295D01*
X159690549Y-82235309D01*
X159683190Y-82249077D01*
X159673813Y-82271716D01*
X159669033Y-82295749D01*
X159669033Y-82320253D01*
X159673814Y-82344286D01*
X159683190Y-82366923D01*
X159690549Y-82380691D01*
X159692677Y-82387705D01*
X159694000Y-82401140D01*
X159694000Y-82714860D01*
X159692677Y-82728295D01*
X159690549Y-82735309D01*
X159683190Y-82749077D01*
X159673813Y-82771716D01*
X159669033Y-82795749D01*
X159669033Y-82820253D01*
X159673814Y-82844286D01*
X159683190Y-82866923D01*
X159690549Y-82880691D01*
X159692677Y-82887705D01*
X159694000Y-82901140D01*
X159694000Y-83214860D01*
X159692677Y-83228295D01*
X159690549Y-83235309D01*
X159683190Y-83249077D01*
X159673813Y-83271716D01*
X159669033Y-83295749D01*
X159669033Y-83320253D01*
X159673814Y-83344286D01*
X159683190Y-83366923D01*
X159690549Y-83380691D01*
X159692677Y-83387705D01*
X159694000Y-83401140D01*
X159694000Y-83714860D01*
X159692677Y-83728295D01*
X159690549Y-83735309D01*
X159683190Y-83749077D01*
X159673813Y-83771716D01*
X159669033Y-83795749D01*
X159669033Y-83820253D01*
X159673814Y-83844286D01*
X159683190Y-83866923D01*
X159690549Y-83880691D01*
X159692677Y-83887705D01*
X159694000Y-83901140D01*
X159694000Y-84214860D01*
X159692677Y-84228295D01*
X159690549Y-84235310D01*
X159687092Y-84241776D01*
X159682442Y-84247442D01*
X159676776Y-84252092D01*
X159670310Y-84255549D01*
X159663295Y-84257677D01*
X159649860Y-84259000D01*
X158186140Y-84259000D01*
X158172705Y-84257677D01*
X158165690Y-84255549D01*
X158159224Y-84252092D01*
X158153558Y-84247442D01*
X158148908Y-84241776D01*
X158145451Y-84235310D01*
X158143323Y-84228295D01*
X158142000Y-84214860D01*
X158142000Y-83901140D01*
X158143323Y-83887705D01*
X158145451Y-83880691D01*
X158152810Y-83866923D01*
X158162187Y-83844284D01*
X158166967Y-83820251D01*
X158166967Y-83795747D01*
X158162186Y-83771714D01*
X158152810Y-83749077D01*
X158145451Y-83735309D01*
X158143323Y-83728295D01*
X158142000Y-83714860D01*
X158142000Y-83401140D01*
X158143323Y-83387705D01*
X158145451Y-83380691D01*
X158152810Y-83366923D01*
X158162187Y-83344284D01*
X158166967Y-83320251D01*
X158166967Y-83295747D01*
X158162186Y-83271714D01*
X158152810Y-83249077D01*
X158145451Y-83235309D01*
X158143323Y-83228295D01*
X158142000Y-83214860D01*
X158142000Y-82901140D01*
X158143323Y-82887705D01*
X158145451Y-82880691D01*
X158152810Y-82866923D01*
X158162187Y-82844284D01*
X158166967Y-82820251D01*
X158166967Y-82795747D01*
X158162186Y-82771714D01*
X158152810Y-82749077D01*
X158145451Y-82735309D01*
X158143323Y-82728295D01*
X158142000Y-82714860D01*
X158142000Y-82401140D01*
X158143323Y-82387705D01*
X158145451Y-82380691D01*
X158152810Y-82366923D01*
X158162187Y-82344284D01*
X158166967Y-82320251D01*
X158166967Y-82295747D01*
X158162186Y-82271714D01*
X158152810Y-82249077D01*
X158145451Y-82235309D01*
X158143323Y-82228295D01*
X158142000Y-82214860D01*
X158142000Y-81901140D01*
X158143323Y-81887705D01*
X158145451Y-81880690D01*
X158148908Y-81874224D01*
X158153558Y-81868558D01*
X158159224Y-81863908D01*
X158165690Y-81860451D01*
X158172705Y-81858323D01*
X158186140Y-81857000D01*
X159649860Y-81857000D01*
X159663295Y-81858323D01*
G37*
G36*
X155263295Y-81858323D02*
G01*
X155270310Y-81860451D01*
X155276776Y-81863908D01*
X155282442Y-81868558D01*
X155287092Y-81874224D01*
X155290549Y-81880690D01*
X155292677Y-81887705D01*
X155294000Y-81901140D01*
X155294000Y-82214860D01*
X155292677Y-82228295D01*
X155290549Y-82235309D01*
X155283190Y-82249077D01*
X155273813Y-82271716D01*
X155269033Y-82295749D01*
X155269033Y-82320253D01*
X155273814Y-82344286D01*
X155283190Y-82366923D01*
X155290549Y-82380691D01*
X155292677Y-82387705D01*
X155294000Y-82401140D01*
X155294000Y-82714860D01*
X155292677Y-82728295D01*
X155290549Y-82735309D01*
X155283190Y-82749077D01*
X155273813Y-82771716D01*
X155269033Y-82795749D01*
X155269033Y-82820253D01*
X155273814Y-82844286D01*
X155283190Y-82866923D01*
X155290549Y-82880691D01*
X155292677Y-82887705D01*
X155294000Y-82901140D01*
X155294000Y-83214860D01*
X155292677Y-83228295D01*
X155290549Y-83235309D01*
X155283190Y-83249077D01*
X155273813Y-83271716D01*
X155269033Y-83295749D01*
X155269033Y-83320253D01*
X155273814Y-83344286D01*
X155283190Y-83366923D01*
X155290549Y-83380691D01*
X155292677Y-83387705D01*
X155294000Y-83401140D01*
X155294000Y-83714860D01*
X155292677Y-83728295D01*
X155290549Y-83735309D01*
X155283190Y-83749077D01*
X155273813Y-83771716D01*
X155269033Y-83795749D01*
X155269033Y-83820253D01*
X155273814Y-83844286D01*
X155283190Y-83866923D01*
X155290549Y-83880691D01*
X155292677Y-83887705D01*
X155294000Y-83901140D01*
X155294000Y-84214860D01*
X155292677Y-84228295D01*
X155290549Y-84235310D01*
X155287092Y-84241776D01*
X155282442Y-84247442D01*
X155276776Y-84252092D01*
X155270310Y-84255549D01*
X155263295Y-84257677D01*
X155249860Y-84259000D01*
X153786140Y-84259000D01*
X153772705Y-84257677D01*
X153765690Y-84255549D01*
X153759224Y-84252092D01*
X153753558Y-84247442D01*
X153748908Y-84241776D01*
X153745451Y-84235310D01*
X153743323Y-84228295D01*
X153742000Y-84214860D01*
X153742000Y-83901140D01*
X153743323Y-83887705D01*
X153745451Y-83880691D01*
X153752810Y-83866923D01*
X153762187Y-83844284D01*
X153766967Y-83820251D01*
X153766967Y-83795747D01*
X153762186Y-83771714D01*
X153752810Y-83749077D01*
X153745451Y-83735309D01*
X153743323Y-83728295D01*
X153742000Y-83714860D01*
X153742000Y-83401140D01*
X153743323Y-83387705D01*
X153745451Y-83380691D01*
X153752810Y-83366923D01*
X153762187Y-83344284D01*
X153766967Y-83320251D01*
X153766967Y-83295747D01*
X153762186Y-83271714D01*
X153752810Y-83249077D01*
X153745451Y-83235309D01*
X153743323Y-83228295D01*
X153742000Y-83214860D01*
X153742000Y-82901140D01*
X153743323Y-82887705D01*
X153745451Y-82880691D01*
X153752810Y-82866923D01*
X153762187Y-82844284D01*
X153766967Y-82820251D01*
X153766967Y-82795747D01*
X153762186Y-82771714D01*
X153752810Y-82749077D01*
X153745451Y-82735309D01*
X153743323Y-82728295D01*
X153742000Y-82714860D01*
X153742000Y-82401140D01*
X153743323Y-82387705D01*
X153745451Y-82380691D01*
X153752810Y-82366923D01*
X153762187Y-82344284D01*
X153766967Y-82320251D01*
X153766967Y-82295747D01*
X153762186Y-82271714D01*
X153752810Y-82249077D01*
X153745451Y-82235309D01*
X153743323Y-82228295D01*
X153742000Y-82214860D01*
X153742000Y-81901140D01*
X153743323Y-81887705D01*
X153745451Y-81880690D01*
X153748908Y-81874224D01*
X153753558Y-81868558D01*
X153759224Y-81863908D01*
X153765690Y-81860451D01*
X153772705Y-81858323D01*
X153786140Y-81857000D01*
X155249860Y-81857000D01*
X155263295Y-81858323D01*
G37*
G36*
X138049200Y-82577025D02*
G01*
X137767061Y-82577025D01*
X137742675Y-82579427D01*
X137719226Y-82586540D01*
X137697615Y-82598091D01*
X137678673Y-82613636D01*
X137663128Y-82632578D01*
X137651577Y-82654189D01*
X137644464Y-82677638D01*
X137642062Y-82702024D01*
X137644464Y-82726410D01*
X137651577Y-82749859D01*
X137663128Y-82771470D01*
X137687759Y-82798646D01*
X137740264Y-82841736D01*
X137812244Y-82929443D01*
X137846429Y-82993399D01*
X137865728Y-83029505D01*
X137865729Y-83029508D01*
X137898666Y-83138084D01*
X137909787Y-83251000D01*
X137898666Y-83363916D01*
X137870277Y-83457500D01*
X137865728Y-83472495D01*
X137861804Y-83479836D01*
X137812244Y-83572557D01*
X137740264Y-83660264D01*
X137652557Y-83732244D01*
X137602499Y-83759000D01*
X137552495Y-83785728D01*
X137552492Y-83785729D01*
X137443916Y-83818666D01*
X137359298Y-83827000D01*
X137102702Y-83827000D01*
X137018084Y-83818666D01*
X136909508Y-83785729D01*
X136909505Y-83785728D01*
X136859501Y-83759000D01*
X136809443Y-83732244D01*
X136721736Y-83660264D01*
X136649756Y-83572557D01*
X136600196Y-83479836D01*
X136596272Y-83472495D01*
X136591723Y-83457500D01*
X136563334Y-83363916D01*
X136552213Y-83251000D01*
X136563334Y-83138084D01*
X136596271Y-83029508D01*
X136596272Y-83029505D01*
X136615571Y-82993399D01*
X136649756Y-82929443D01*
X136721736Y-82841736D01*
X136774242Y-82798645D01*
X136791565Y-82781322D01*
X136805178Y-82760948D01*
X136814556Y-82738309D01*
X136819336Y-82714276D01*
X136819336Y-82689772D01*
X136814556Y-82665739D01*
X136805178Y-82643100D01*
X136791564Y-82622725D01*
X136774237Y-82605398D01*
X136753863Y-82591785D01*
X136731224Y-82582407D01*
X136694939Y-82577025D01*
X136169200Y-82577025D01*
X136169200Y-82074975D01*
X138049200Y-82074975D01*
X138049200Y-82577025D01*
G37*
G36*
X164270529Y-81931398D02*
G01*
X164445079Y-81984348D01*
X164605947Y-82070333D01*
X164746949Y-82186051D01*
X164862667Y-82327053D01*
X164948652Y-82487921D01*
X165001602Y-82662471D01*
X165019480Y-82844000D01*
X165001602Y-83025529D01*
X164948652Y-83200079D01*
X164862667Y-83360947D01*
X164746949Y-83501949D01*
X164605947Y-83617667D01*
X164445079Y-83703652D01*
X164270529Y-83756602D01*
X164134490Y-83770000D01*
X162293510Y-83770000D01*
X162157471Y-83756602D01*
X161982921Y-83703652D01*
X161822053Y-83617667D01*
X161681051Y-83501949D01*
X161565333Y-83360947D01*
X161479348Y-83200079D01*
X161426398Y-83025529D01*
X161408520Y-82844000D01*
X161426398Y-82662471D01*
X161479348Y-82487921D01*
X161565333Y-82327053D01*
X161681051Y-82186051D01*
X161822053Y-82070333D01*
X161982921Y-81984348D01*
X162157471Y-81931398D01*
X162293510Y-81918000D01*
X164134490Y-81918000D01*
X164270529Y-81931398D01*
G37*
G36*
X140333591Y-82548085D02*
G01*
X140367569Y-82558393D01*
X140398890Y-82575134D01*
X140426339Y-82597661D01*
X140448866Y-82625110D01*
X140465607Y-82656431D01*
X140475915Y-82690409D01*
X140480000Y-82731890D01*
X140480000Y-83333110D01*
X140475915Y-83374591D01*
X140465607Y-83408569D01*
X140448866Y-83439890D01*
X140426339Y-83467339D01*
X140398890Y-83489866D01*
X140367569Y-83506607D01*
X140333591Y-83516915D01*
X140292110Y-83521000D01*
X139615890Y-83521000D01*
X139574409Y-83516915D01*
X139540431Y-83506607D01*
X139509110Y-83489866D01*
X139481661Y-83467339D01*
X139459134Y-83439890D01*
X139442393Y-83408569D01*
X139432085Y-83374591D01*
X139428000Y-83333110D01*
X139428000Y-82731890D01*
X139432085Y-82690409D01*
X139442393Y-82656431D01*
X139459134Y-82625110D01*
X139481661Y-82597661D01*
X139509110Y-82575134D01*
X139540431Y-82558393D01*
X139574409Y-82548085D01*
X139615890Y-82544000D01*
X140292110Y-82544000D01*
X140333591Y-82548085D01*
G37*
G36*
X135232000Y-83252000D02*
G01*
X133230000Y-83252000D01*
X133230000Y-81350000D01*
X135232000Y-81350000D01*
X135232000Y-83252000D01*
G37*
G36*
X142727938Y-82435716D02*
G01*
X142748557Y-82441971D01*
X142767553Y-82452124D01*
X142784208Y-82465792D01*
X142797876Y-82482447D01*
X142808029Y-82501443D01*
X142814284Y-82522062D01*
X142817000Y-82549640D01*
X142817000Y-83058360D01*
X142814284Y-83085938D01*
X142808029Y-83106557D01*
X142797876Y-83125553D01*
X142784208Y-83142208D01*
X142767553Y-83155876D01*
X142748557Y-83166029D01*
X142727938Y-83172284D01*
X142700360Y-83175000D01*
X142241640Y-83175000D01*
X142214062Y-83172284D01*
X142193443Y-83166029D01*
X142174447Y-83155876D01*
X142157792Y-83142208D01*
X142144124Y-83125553D01*
X142133971Y-83106557D01*
X142127716Y-83085938D01*
X142125000Y-83058360D01*
X142125000Y-82549640D01*
X142127716Y-82522062D01*
X142133971Y-82501443D01*
X142144124Y-82482447D01*
X142157792Y-82465792D01*
X142174447Y-82452124D01*
X142193443Y-82441971D01*
X142214062Y-82435716D01*
X142241640Y-82433000D01*
X142700360Y-82433000D01*
X142727938Y-82435716D01*
G37*
G36*
X141757938Y-82435716D02*
G01*
X141778557Y-82441971D01*
X141797553Y-82452124D01*
X141814208Y-82465792D01*
X141827876Y-82482447D01*
X141838029Y-82501443D01*
X141844284Y-82522062D01*
X141847000Y-82549640D01*
X141847000Y-83058360D01*
X141844284Y-83085938D01*
X141838029Y-83106557D01*
X141827876Y-83125553D01*
X141814208Y-83142208D01*
X141797553Y-83155876D01*
X141778557Y-83166029D01*
X141757938Y-83172284D01*
X141730360Y-83175000D01*
X141271640Y-83175000D01*
X141244062Y-83172284D01*
X141223443Y-83166029D01*
X141204447Y-83155876D01*
X141187792Y-83142208D01*
X141174124Y-83125553D01*
X141163971Y-83106557D01*
X141157716Y-83085938D01*
X141155000Y-83058360D01*
X141155000Y-82549640D01*
X141157716Y-82522062D01*
X141163971Y-82501443D01*
X141174124Y-82482447D01*
X141187792Y-82465792D01*
X141204447Y-82452124D01*
X141223443Y-82441971D01*
X141244062Y-82435716D01*
X141271640Y-82433000D01*
X141730360Y-82433000D01*
X141757938Y-82435716D01*
G37*
G36*
X146570778Y-80400547D02*
G01*
X146737224Y-80469491D01*
X146887022Y-80569583D01*
X147014417Y-80696978D01*
X147114509Y-80846776D01*
X147183453Y-81013222D01*
X147218600Y-81189918D01*
X147218600Y-81370082D01*
X147183453Y-81546778D01*
X147114509Y-81713224D01*
X147014417Y-81863022D01*
X146887022Y-81990417D01*
X146737224Y-82090509D01*
X146570778Y-82159453D01*
X146394082Y-82194600D01*
X146213918Y-82194600D01*
X146037222Y-82159453D01*
X145870776Y-82090509D01*
X145720978Y-81990417D01*
X145593583Y-81863022D01*
X145493491Y-81713224D01*
X145424547Y-81546778D01*
X145389400Y-81370082D01*
X145389400Y-81189918D01*
X145424547Y-81013222D01*
X145493491Y-80846776D01*
X145593583Y-80696978D01*
X145720978Y-80569583D01*
X145870776Y-80469491D01*
X146037222Y-80400547D01*
X146213918Y-80365400D01*
X146394082Y-80365400D01*
X146570778Y-80400547D01*
G37*
G36*
X149110778Y-80400547D02*
G01*
X149277224Y-80469491D01*
X149427022Y-80569583D01*
X149554417Y-80696978D01*
X149654509Y-80846776D01*
X149723453Y-81013222D01*
X149758600Y-81189918D01*
X149758600Y-81370082D01*
X149723453Y-81546778D01*
X149654509Y-81713224D01*
X149554417Y-81863022D01*
X149427022Y-81990417D01*
X149277224Y-82090509D01*
X149110778Y-82159453D01*
X148934082Y-82194600D01*
X148753918Y-82194600D01*
X148577222Y-82159453D01*
X148410776Y-82090509D01*
X148260978Y-81990417D01*
X148133583Y-81863022D01*
X148033491Y-81713224D01*
X147964547Y-81546778D01*
X147929400Y-81370082D01*
X147929400Y-81189918D01*
X147964547Y-81013222D01*
X148033491Y-80846776D01*
X148133583Y-80696978D01*
X148260978Y-80569583D01*
X148410776Y-80469491D01*
X148577222Y-80400547D01*
X148753918Y-80365400D01*
X148934082Y-80365400D01*
X149110778Y-80400547D01*
G37*
G36*
X144415000Y-81907000D02*
G01*
X143113000Y-81907000D01*
X143113000Y-80905000D01*
X144415000Y-80905000D01*
X144415000Y-81907000D01*
G37*
G36*
X140150468Y-80279565D02*
G01*
X140189138Y-80291296D01*
X140224777Y-80310346D01*
X140256017Y-80335983D01*
X140281654Y-80367223D01*
X140300704Y-80402862D01*
X140312435Y-80441532D01*
X140317000Y-80487888D01*
X140317000Y-81564112D01*
X140312435Y-81610468D01*
X140300704Y-81649138D01*
X140281654Y-81684777D01*
X140256017Y-81716017D01*
X140224777Y-81741654D01*
X140189138Y-81760704D01*
X140150468Y-81772435D01*
X140104112Y-81777000D01*
X139452888Y-81777000D01*
X139406532Y-81772435D01*
X139367862Y-81760704D01*
X139332223Y-81741654D01*
X139300983Y-81716017D01*
X139275346Y-81684777D01*
X139256296Y-81649138D01*
X139244565Y-81610468D01*
X139240000Y-81564112D01*
X139240000Y-80487888D01*
X139244565Y-80441532D01*
X139256296Y-80402862D01*
X139275346Y-80367223D01*
X139300983Y-80335983D01*
X139332223Y-80310346D01*
X139367862Y-80291296D01*
X139406532Y-80279565D01*
X139452888Y-80275000D01*
X140104112Y-80275000D01*
X140150468Y-80279565D01*
G37*
G36*
X142025468Y-80279565D02*
G01*
X142064138Y-80291296D01*
X142099777Y-80310346D01*
X142131017Y-80335983D01*
X142156654Y-80367223D01*
X142175704Y-80402862D01*
X142187435Y-80441532D01*
X142192000Y-80487888D01*
X142192000Y-81564112D01*
X142187435Y-81610468D01*
X142175704Y-81649138D01*
X142156654Y-81684777D01*
X142131017Y-81716017D01*
X142099777Y-81741654D01*
X142064138Y-81760704D01*
X142025468Y-81772435D01*
X141979112Y-81777000D01*
X141327888Y-81777000D01*
X141281532Y-81772435D01*
X141242862Y-81760704D01*
X141207223Y-81741654D01*
X141175983Y-81716017D01*
X141150346Y-81684777D01*
X141131296Y-81649138D01*
X141119565Y-81610468D01*
X141115000Y-81564112D01*
X141115000Y-80487888D01*
X141119565Y-80441532D01*
X141131296Y-80402862D01*
X141150346Y-80367223D01*
X141175983Y-80335983D01*
X141207223Y-80310346D01*
X141242862Y-80291296D01*
X141281532Y-80279565D01*
X141327888Y-80275000D01*
X141979112Y-80275000D01*
X142025468Y-80279565D01*
G37*
G36*
X164270529Y-79431398D02*
G01*
X164445079Y-79484348D01*
X164605947Y-79570333D01*
X164746949Y-79686051D01*
X164862667Y-79827053D01*
X164948652Y-79987921D01*
X165001602Y-80162471D01*
X165019480Y-80344000D01*
X165001602Y-80525529D01*
X164948652Y-80700079D01*
X164862667Y-80860947D01*
X164746949Y-81001949D01*
X164605947Y-81117667D01*
X164445079Y-81203652D01*
X164270529Y-81256602D01*
X164134490Y-81270000D01*
X162293510Y-81270000D01*
X162157471Y-81256602D01*
X161982921Y-81203652D01*
X161822053Y-81117667D01*
X161681051Y-81001949D01*
X161565333Y-80860947D01*
X161479348Y-80700079D01*
X161426398Y-80525529D01*
X161408520Y-80344000D01*
X161426398Y-80162471D01*
X161479348Y-79987921D01*
X161565333Y-79827053D01*
X161681051Y-79686051D01*
X161822053Y-79570333D01*
X161982921Y-79484348D01*
X162157471Y-79431398D01*
X162293510Y-79418000D01*
X164134490Y-79418000D01*
X164270529Y-79431398D01*
G37*
G36*
X135232000Y-80702000D02*
G01*
X133230000Y-80702000D01*
X133230000Y-78800000D01*
X135232000Y-78800000D01*
X135232000Y-80702000D01*
G37*
G36*
X158669000Y-80553000D02*
G01*
X154767000Y-80553000D01*
X154767000Y-78451000D01*
X158669000Y-78451000D01*
X158669000Y-80553000D01*
G37*
G36*
X137443916Y-78233334D02*
G01*
X137552492Y-78266271D01*
X137552495Y-78266272D01*
X137588601Y-78285571D01*
X137652557Y-78319756D01*
X137740264Y-78391736D01*
X137812244Y-78479443D01*
X137846429Y-78543399D01*
X137865728Y-78579505D01*
X137865729Y-78579508D01*
X137898666Y-78688084D01*
X137909787Y-78801000D01*
X137898666Y-78913916D01*
X137865729Y-79022492D01*
X137865728Y-79022495D01*
X137846429Y-79058601D01*
X137812244Y-79122557D01*
X137740264Y-79210264D01*
X137687758Y-79253355D01*
X137670435Y-79270678D01*
X137656822Y-79291052D01*
X137647444Y-79313691D01*
X137642664Y-79337724D01*
X137642664Y-79362228D01*
X137647444Y-79386261D01*
X137656822Y-79408900D01*
X137670436Y-79429275D01*
X137687763Y-79446602D01*
X137708137Y-79460215D01*
X137730776Y-79469593D01*
X137767061Y-79474975D01*
X138049200Y-79474975D01*
X138049200Y-79977025D01*
X136169200Y-79977025D01*
X136169200Y-79474975D01*
X136694939Y-79474975D01*
X136719325Y-79472573D01*
X136742774Y-79465460D01*
X136764385Y-79453909D01*
X136783327Y-79438364D01*
X136798872Y-79419422D01*
X136810423Y-79397811D01*
X136817536Y-79374362D01*
X136819938Y-79349976D01*
X136817536Y-79325590D01*
X136810423Y-79302141D01*
X136798872Y-79280530D01*
X136774241Y-79253354D01*
X136721736Y-79210264D01*
X136649756Y-79122557D01*
X136615571Y-79058601D01*
X136596272Y-79022495D01*
X136596271Y-79022492D01*
X136563334Y-78913916D01*
X136552213Y-78801000D01*
X136563334Y-78688084D01*
X136596271Y-78579508D01*
X136596272Y-78579505D01*
X136615571Y-78543399D01*
X136649756Y-78479443D01*
X136721736Y-78391736D01*
X136809443Y-78319756D01*
X136873399Y-78285571D01*
X136909505Y-78266272D01*
X136909508Y-78266271D01*
X137018084Y-78233334D01*
X137102702Y-78225000D01*
X137359298Y-78225000D01*
X137443916Y-78233334D01*
G37*
G36*
X149110778Y-77860547D02*
G01*
X149277224Y-77929491D01*
X149427022Y-78029583D01*
X149554417Y-78156978D01*
X149654509Y-78306776D01*
X149723453Y-78473222D01*
X149758600Y-78649918D01*
X149758600Y-78830082D01*
X149723453Y-79006778D01*
X149654509Y-79173224D01*
X149554417Y-79323022D01*
X149427022Y-79450417D01*
X149277224Y-79550509D01*
X149110778Y-79619453D01*
X148934082Y-79654600D01*
X148753918Y-79654600D01*
X148577222Y-79619453D01*
X148410776Y-79550509D01*
X148260978Y-79450417D01*
X148133583Y-79323022D01*
X148033491Y-79173224D01*
X147964547Y-79006778D01*
X147929400Y-78830082D01*
X147929400Y-78649918D01*
X147964547Y-78473222D01*
X148033491Y-78306776D01*
X148133583Y-78156978D01*
X148260978Y-78029583D01*
X148410776Y-77929491D01*
X148577222Y-77860547D01*
X148753918Y-77825400D01*
X148934082Y-77825400D01*
X149110778Y-77860547D01*
G37*
G36*
X146570778Y-77860547D02*
G01*
X146737224Y-77929491D01*
X146887022Y-78029583D01*
X147014417Y-78156978D01*
X147114509Y-78306776D01*
X147183453Y-78473222D01*
X147218600Y-78649918D01*
X147218600Y-78830082D01*
X147183453Y-79006778D01*
X147114509Y-79173224D01*
X147014417Y-79323022D01*
X146887022Y-79450417D01*
X146737224Y-79550509D01*
X146570778Y-79619453D01*
X146394082Y-79654600D01*
X146213918Y-79654600D01*
X146037222Y-79619453D01*
X145870776Y-79550509D01*
X145720978Y-79450417D01*
X145593583Y-79323022D01*
X145493491Y-79173224D01*
X145424547Y-79006778D01*
X145389400Y-78830082D01*
X145389400Y-78649918D01*
X145424547Y-78473222D01*
X145493491Y-78306776D01*
X145593583Y-78156978D01*
X145720978Y-78029583D01*
X145870776Y-77929491D01*
X146037222Y-77860547D01*
X146213918Y-77825400D01*
X146394082Y-77825400D01*
X146570778Y-77860547D01*
G37*
G36*
X140150468Y-77993565D02*
G01*
X140189138Y-78005296D01*
X140224777Y-78024346D01*
X140256017Y-78049983D01*
X140281654Y-78081223D01*
X140300704Y-78116862D01*
X140312435Y-78155532D01*
X140317000Y-78201888D01*
X140317000Y-79278112D01*
X140312435Y-79324468D01*
X140300704Y-79363138D01*
X140281654Y-79398777D01*
X140256017Y-79430017D01*
X140224777Y-79455654D01*
X140189138Y-79474704D01*
X140150468Y-79486435D01*
X140104112Y-79491000D01*
X139452888Y-79491000D01*
X139406532Y-79486435D01*
X139367862Y-79474704D01*
X139332223Y-79455654D01*
X139300983Y-79430017D01*
X139275346Y-79398777D01*
X139256296Y-79363138D01*
X139244565Y-79324468D01*
X139240000Y-79278112D01*
X139240000Y-78201888D01*
X139244565Y-78155532D01*
X139256296Y-78116862D01*
X139275346Y-78081223D01*
X139300983Y-78049983D01*
X139332223Y-78024346D01*
X139367862Y-78005296D01*
X139406532Y-77993565D01*
X139452888Y-77989000D01*
X140104112Y-77989000D01*
X140150468Y-77993565D01*
G37*
G36*
X142025468Y-77993565D02*
G01*
X142064138Y-78005296D01*
X142099777Y-78024346D01*
X142131017Y-78049983D01*
X142156654Y-78081223D01*
X142175704Y-78116862D01*
X142187435Y-78155532D01*
X142192000Y-78201888D01*
X142192000Y-79278112D01*
X142187435Y-79324468D01*
X142175704Y-79363138D01*
X142156654Y-79398777D01*
X142131017Y-79430017D01*
X142099777Y-79455654D01*
X142064138Y-79474704D01*
X142025468Y-79486435D01*
X141979112Y-79491000D01*
X141327888Y-79491000D01*
X141281532Y-79486435D01*
X141242862Y-79474704D01*
X141207223Y-79455654D01*
X141175983Y-79430017D01*
X141150346Y-79398777D01*
X141131296Y-79363138D01*
X141119565Y-79324468D01*
X141115000Y-79278112D01*
X141115000Y-78201888D01*
X141119565Y-78155532D01*
X141131296Y-78116862D01*
X141150346Y-78081223D01*
X141175983Y-78049983D01*
X141207223Y-78024346D01*
X141242862Y-78005296D01*
X141281532Y-77993565D01*
X141327888Y-77989000D01*
X141979112Y-77989000D01*
X142025468Y-77993565D01*
G37*
G36*
X152017591Y-78027085D02*
G01*
X152051569Y-78037393D01*
X152082890Y-78054134D01*
X152110339Y-78076661D01*
X152132866Y-78104110D01*
X152149607Y-78135431D01*
X152159915Y-78169409D01*
X152164000Y-78210890D01*
X152164000Y-78812110D01*
X152159915Y-78853591D01*
X152149607Y-78887569D01*
X152132866Y-78918890D01*
X152110339Y-78946339D01*
X152082890Y-78968866D01*
X152051569Y-78985607D01*
X152017591Y-78995915D01*
X151976110Y-79000000D01*
X151299890Y-79000000D01*
X151258409Y-78995915D01*
X151224431Y-78985607D01*
X151193110Y-78968866D01*
X151165661Y-78946339D01*
X151143134Y-78918890D01*
X151126393Y-78887569D01*
X151116085Y-78853591D01*
X151112000Y-78812110D01*
X151112000Y-78210890D01*
X151116085Y-78169409D01*
X151126393Y-78135431D01*
X151143134Y-78104110D01*
X151165661Y-78076661D01*
X151193110Y-78054134D01*
X151224431Y-78037393D01*
X151258409Y-78027085D01*
X151299890Y-78023000D01*
X151976110Y-78023000D01*
X152017591Y-78027085D01*
G37*
G36*
X144415000Y-78607000D02*
G01*
X143113000Y-78607000D01*
X143113000Y-77605000D01*
X144415000Y-77605000D01*
X144415000Y-78607000D01*
G37*
G36*
X134644855Y-76203140D02*
G01*
X134708618Y-76209420D01*
X134799404Y-76236960D01*
X134831336Y-76246646D01*
X134944425Y-76307094D01*
X135043554Y-76388446D01*
X135124906Y-76487575D01*
X135185354Y-76600664D01*
X135222909Y-76724468D01*
X135227251Y-76746291D01*
X135232000Y-76757755D01*
X135232000Y-76812886D01*
X135232602Y-76825138D01*
X135235149Y-76851000D01*
X135232602Y-76876862D01*
X135232000Y-76889114D01*
X135232000Y-78467000D01*
X133230000Y-78467000D01*
X133230000Y-76889114D01*
X133229398Y-76876862D01*
X133226851Y-76851000D01*
X133229398Y-76825138D01*
X133230000Y-76812886D01*
X133230000Y-76758992D01*
X133230618Y-76757836D01*
X133238437Y-76726624D01*
X133276646Y-76600664D01*
X133337094Y-76487575D01*
X133418446Y-76388446D01*
X133517575Y-76307094D01*
X133630664Y-76246646D01*
X133662596Y-76236960D01*
X133753382Y-76209420D01*
X133817145Y-76203140D01*
X133849026Y-76200000D01*
X134612974Y-76200000D01*
X134644855Y-76203140D01*
G37*
G36*
X164270529Y-76223398D02*
G01*
X164445079Y-76276348D01*
X164605947Y-76362333D01*
X164746949Y-76478051D01*
X164862667Y-76619053D01*
X164948652Y-76779921D01*
X165001602Y-76954471D01*
X165019480Y-77136000D01*
X165001602Y-77317529D01*
X164948652Y-77492079D01*
X164862667Y-77652947D01*
X164746949Y-77793949D01*
X164605947Y-77909667D01*
X164445079Y-77995652D01*
X164270529Y-78048602D01*
X164134490Y-78062000D01*
X162293510Y-78062000D01*
X162157471Y-78048602D01*
X161982921Y-77995652D01*
X161822053Y-77909667D01*
X161681051Y-77793949D01*
X161565333Y-77652947D01*
X161479348Y-77492079D01*
X161426398Y-77317529D01*
X161408520Y-77136000D01*
X161426398Y-76954471D01*
X161479348Y-76779921D01*
X161565333Y-76619053D01*
X161681051Y-76478051D01*
X161822053Y-76362333D01*
X161982921Y-76276348D01*
X162157471Y-76223398D01*
X162293510Y-76210000D01*
X164134490Y-76210000D01*
X164270529Y-76223398D01*
G37*
G36*
X152017591Y-76452085D02*
G01*
X152051569Y-76462393D01*
X152082890Y-76479134D01*
X152110339Y-76501661D01*
X152132866Y-76529110D01*
X152149607Y-76560431D01*
X152159915Y-76594409D01*
X152164000Y-76635890D01*
X152164000Y-77237110D01*
X152159915Y-77278591D01*
X152149607Y-77312569D01*
X152132866Y-77343890D01*
X152110339Y-77371339D01*
X152082890Y-77393866D01*
X152051569Y-77410607D01*
X152017591Y-77420915D01*
X151976110Y-77425000D01*
X151299890Y-77425000D01*
X151258409Y-77420915D01*
X151224431Y-77410607D01*
X151193110Y-77393866D01*
X151165661Y-77371339D01*
X151143134Y-77343890D01*
X151126393Y-77312569D01*
X151116085Y-77278591D01*
X151112000Y-77237110D01*
X151112000Y-76635890D01*
X151116085Y-76594409D01*
X151126393Y-76560431D01*
X151143134Y-76529110D01*
X151165661Y-76501661D01*
X151193110Y-76479134D01*
X151224431Y-76462393D01*
X151258409Y-76452085D01*
X151299890Y-76448000D01*
X151976110Y-76448000D01*
X152017591Y-76452085D01*
G37*
G36*
X157619000Y-77253000D02*
G01*
X155817000Y-77253000D01*
X155817000Y-75451000D01*
X157619000Y-75451000D01*
X157619000Y-77253000D01*
G37*
G36*
X147218600Y-77114600D02*
G01*
X145389400Y-77114600D01*
X145389400Y-75285400D01*
X147218600Y-75285400D01*
X147218600Y-77114600D01*
G37*
G36*
X149110778Y-75320547D02*
G01*
X149277224Y-75389491D01*
X149427022Y-75489583D01*
X149554417Y-75616978D01*
X149654509Y-75766776D01*
X149723453Y-75933222D01*
X149758600Y-76109918D01*
X149758600Y-76290082D01*
X149723453Y-76466778D01*
X149654509Y-76633224D01*
X149554417Y-76783022D01*
X149427022Y-76910417D01*
X149277224Y-77010509D01*
X149110778Y-77079453D01*
X148934082Y-77114600D01*
X148753918Y-77114600D01*
X148577222Y-77079453D01*
X148410776Y-77010509D01*
X148260978Y-76910417D01*
X148133583Y-76783022D01*
X148033491Y-76633224D01*
X147964547Y-76466778D01*
X147929400Y-76290082D01*
X147929400Y-76109918D01*
X147964547Y-75933222D01*
X148033491Y-75766776D01*
X148133583Y-75616978D01*
X148260978Y-75489583D01*
X148410776Y-75389491D01*
X148577222Y-75320547D01*
X148753918Y-75285400D01*
X148934082Y-75285400D01*
X149110778Y-75320547D01*
G37*
G36*
X142125000Y-76847000D02*
G01*
X140323000Y-76847000D01*
X140323000Y-75045000D01*
X142125000Y-75045000D01*
X142125000Y-76847000D01*
G37*
G36*
X136677938Y-75323716D02*
G01*
X136698557Y-75329971D01*
X136717553Y-75340124D01*
X136734208Y-75353792D01*
X136747876Y-75370447D01*
X136758029Y-75389443D01*
X136764284Y-75410062D01*
X136767000Y-75437640D01*
X136767000Y-75946360D01*
X136764284Y-75973938D01*
X136758029Y-75994557D01*
X136747876Y-76013553D01*
X136734208Y-76030208D01*
X136717553Y-76043876D01*
X136698557Y-76054029D01*
X136677938Y-76060284D01*
X136650360Y-76063000D01*
X136191640Y-76063000D01*
X136164062Y-76060284D01*
X136143443Y-76054029D01*
X136124447Y-76043876D01*
X136107792Y-76030208D01*
X136094124Y-76013553D01*
X136083971Y-75994557D01*
X136077716Y-75973938D01*
X136075000Y-75946360D01*
X136075000Y-75437640D01*
X136077716Y-75410062D01*
X136083971Y-75389443D01*
X136094124Y-75370447D01*
X136107792Y-75353792D01*
X136124447Y-75340124D01*
X136143443Y-75329971D01*
X136164062Y-75323716D01*
X136191640Y-75321000D01*
X136650360Y-75321000D01*
X136677938Y-75323716D01*
G37*
G36*
X137647938Y-75323716D02*
G01*
X137668557Y-75329971D01*
X137687553Y-75340124D01*
X137704208Y-75353792D01*
X137717876Y-75370447D01*
X137728029Y-75389443D01*
X137734284Y-75410062D01*
X137737000Y-75437640D01*
X137737000Y-75946360D01*
X137734284Y-75973938D01*
X137728029Y-75994557D01*
X137717876Y-76013553D01*
X137704208Y-76030208D01*
X137687553Y-76043876D01*
X137668557Y-76054029D01*
X137647938Y-76060284D01*
X137620360Y-76063000D01*
X137161640Y-76063000D01*
X137134062Y-76060284D01*
X137113443Y-76054029D01*
X137094447Y-76043876D01*
X137077792Y-76030208D01*
X137064124Y-76013553D01*
X137053971Y-75994557D01*
X137047716Y-75973938D01*
X137045000Y-75946360D01*
X137045000Y-75437640D01*
X137047716Y-75410062D01*
X137053971Y-75389443D01*
X137064124Y-75370447D01*
X137077792Y-75353792D01*
X137094447Y-75340124D01*
X137113443Y-75329971D01*
X137134062Y-75323716D01*
X137161640Y-75321000D01*
X137620360Y-75321000D01*
X137647938Y-75323716D01*
G37*
G36*
X152017591Y-74725085D02*
G01*
X152051569Y-74735393D01*
X152082890Y-74752134D01*
X152110339Y-74774661D01*
X152132866Y-74802110D01*
X152149607Y-74833431D01*
X152159915Y-74867409D01*
X152164000Y-74908890D01*
X152164000Y-75510110D01*
X152159915Y-75551591D01*
X152149607Y-75585569D01*
X152132866Y-75616890D01*
X152110339Y-75644339D01*
X152082890Y-75666866D01*
X152051569Y-75683607D01*
X152017591Y-75693915D01*
X151976110Y-75698000D01*
X151299890Y-75698000D01*
X151258409Y-75693915D01*
X151224431Y-75683607D01*
X151193110Y-75666866D01*
X151165661Y-75644339D01*
X151143134Y-75616890D01*
X151126393Y-75585569D01*
X151116085Y-75551591D01*
X151112000Y-75510110D01*
X151112000Y-74908890D01*
X151116085Y-74867409D01*
X151126393Y-74833431D01*
X151143134Y-74802110D01*
X151165661Y-74774661D01*
X151193110Y-74752134D01*
X151224431Y-74735393D01*
X151258409Y-74725085D01*
X151299890Y-74721000D01*
X151976110Y-74721000D01*
X152017591Y-74725085D01*
G37*
G36*
X164270529Y-73723398D02*
G01*
X164445079Y-73776348D01*
X164605947Y-73862333D01*
X164746949Y-73978051D01*
X164862667Y-74119053D01*
X164948652Y-74279921D01*
X165001602Y-74454471D01*
X165019480Y-74636000D01*
X165001602Y-74817529D01*
X164948652Y-74992079D01*
X164862667Y-75152947D01*
X164746949Y-75293949D01*
X164605947Y-75409667D01*
X164445079Y-75495652D01*
X164270529Y-75548602D01*
X164134490Y-75562000D01*
X162293510Y-75562000D01*
X162157471Y-75548602D01*
X161982921Y-75495652D01*
X161822053Y-75409667D01*
X161681051Y-75293949D01*
X161565333Y-75152947D01*
X161479348Y-74992079D01*
X161426398Y-74817529D01*
X161408520Y-74636000D01*
X161426398Y-74454471D01*
X161479348Y-74279921D01*
X161565333Y-74119053D01*
X161681051Y-73978051D01*
X161822053Y-73862333D01*
X161982921Y-73776348D01*
X162157471Y-73723398D01*
X162293510Y-73710000D01*
X164134490Y-73710000D01*
X164270529Y-73723398D01*
G37*
G36*
X135107938Y-74307716D02*
G01*
X135128557Y-74313971D01*
X135147553Y-74324124D01*
X135164208Y-74337792D01*
X135177876Y-74354447D01*
X135188029Y-74373443D01*
X135194284Y-74394062D01*
X135197000Y-74421640D01*
X135197000Y-74930360D01*
X135194284Y-74957938D01*
X135188029Y-74978557D01*
X135177876Y-74997553D01*
X135164208Y-75014208D01*
X135147553Y-75027876D01*
X135128557Y-75038029D01*
X135107938Y-75044284D01*
X135080360Y-75047000D01*
X134621640Y-75047000D01*
X134594062Y-75044284D01*
X134573443Y-75038029D01*
X134554447Y-75027876D01*
X134537792Y-75014208D01*
X134524124Y-74997553D01*
X134513971Y-74978557D01*
X134507716Y-74957938D01*
X134505000Y-74930360D01*
X134505000Y-74421640D01*
X134507716Y-74394062D01*
X134513971Y-74373443D01*
X134524124Y-74354447D01*
X134537792Y-74337792D01*
X134554447Y-74324124D01*
X134573443Y-74313971D01*
X134594062Y-74307716D01*
X134621640Y-74305000D01*
X135080360Y-74305000D01*
X135107938Y-74307716D01*
G37*
G36*
X134137938Y-74307716D02*
G01*
X134158557Y-74313971D01*
X134177553Y-74324124D01*
X134194208Y-74337792D01*
X134207876Y-74354447D01*
X134218029Y-74373443D01*
X134224284Y-74394062D01*
X134227000Y-74421640D01*
X134227000Y-74930360D01*
X134224284Y-74957938D01*
X134218029Y-74978557D01*
X134207876Y-74997553D01*
X134194208Y-75014208D01*
X134177553Y-75027876D01*
X134158557Y-75038029D01*
X134137938Y-75044284D01*
X134110360Y-75047000D01*
X133651640Y-75047000D01*
X133624062Y-75044284D01*
X133603443Y-75038029D01*
X133584447Y-75027876D01*
X133567792Y-75014208D01*
X133554124Y-74997553D01*
X133543971Y-74978557D01*
X133537716Y-74957938D01*
X133535000Y-74930360D01*
X133535000Y-74421640D01*
X133537716Y-74394062D01*
X133543971Y-74373443D01*
X133554124Y-74354447D01*
X133567792Y-74337792D01*
X133584447Y-74324124D01*
X133603443Y-74313971D01*
X133624062Y-74307716D01*
X133651640Y-74305000D01*
X134110360Y-74305000D01*
X134137938Y-74307716D01*
G37*
G36*
X159819000Y-74253000D02*
G01*
X158217000Y-74253000D01*
X158217000Y-72151000D01*
X159819000Y-72151000D01*
X159819000Y-74253000D01*
G37*
G36*
X157519000Y-74253000D02*
G01*
X155917000Y-74253000D01*
X155917000Y-72151000D01*
X157519000Y-72151000D01*
X157519000Y-74253000D01*
G37*
G36*
X155219000Y-74253000D02*
G01*
X153617000Y-74253000D01*
X153617000Y-72151000D01*
X155219000Y-72151000D01*
X155219000Y-74253000D01*
G37*
G36*
X148400811Y-71676271D02*
G01*
X148436603Y-71687129D01*
X148469595Y-71704763D01*
X148498508Y-71728492D01*
X148522237Y-71757405D01*
X148539871Y-71790397D01*
X148550729Y-71826189D01*
X148555000Y-71869555D01*
X148555000Y-73926445D01*
X148550729Y-73969811D01*
X148539871Y-74005603D01*
X148522237Y-74038595D01*
X148498508Y-74067508D01*
X148469595Y-74091237D01*
X148436603Y-74108871D01*
X148400811Y-74119729D01*
X148357445Y-74124000D01*
X147325555Y-74124000D01*
X147282189Y-74119729D01*
X147246397Y-74108871D01*
X147213405Y-74091237D01*
X147184492Y-74067508D01*
X147160763Y-74038595D01*
X147143129Y-74005603D01*
X147132271Y-73969811D01*
X147128000Y-73926445D01*
X147128000Y-71869555D01*
X147132271Y-71826189D01*
X147143129Y-71790397D01*
X147160763Y-71757405D01*
X147184492Y-71728492D01*
X147213405Y-71704763D01*
X147246397Y-71687129D01*
X147282189Y-71676271D01*
X147325555Y-71672000D01*
X148357445Y-71672000D01*
X148400811Y-71676271D01*
G37*
G36*
X145325811Y-71676271D02*
G01*
X145361603Y-71687129D01*
X145394595Y-71704763D01*
X145423508Y-71728492D01*
X145447237Y-71757405D01*
X145464871Y-71790397D01*
X145475729Y-71826189D01*
X145480000Y-71869555D01*
X145480000Y-73926445D01*
X145475729Y-73969811D01*
X145464871Y-74005603D01*
X145447237Y-74038595D01*
X145423508Y-74067508D01*
X145394595Y-74091237D01*
X145361603Y-74108871D01*
X145325811Y-74119729D01*
X145282445Y-74124000D01*
X144250555Y-74124000D01*
X144207189Y-74119729D01*
X144171397Y-74108871D01*
X144138405Y-74091237D01*
X144109492Y-74067508D01*
X144085763Y-74038595D01*
X144068129Y-74005603D01*
X144057271Y-73969811D01*
X144053000Y-73926445D01*
X144053000Y-71869555D01*
X144057271Y-71826189D01*
X144068129Y-71790397D01*
X144085763Y-71757405D01*
X144109492Y-71728492D01*
X144138405Y-71704763D01*
X144171397Y-71687129D01*
X144207189Y-71676271D01*
X144250555Y-71672000D01*
X145282445Y-71672000D01*
X145325811Y-71676271D01*
G37*
G36*
X152017591Y-73150085D02*
G01*
X152051569Y-73160393D01*
X152082890Y-73177134D01*
X152110339Y-73199661D01*
X152132866Y-73227110D01*
X152149607Y-73258431D01*
X152159915Y-73292409D01*
X152164000Y-73333890D01*
X152164000Y-73935110D01*
X152159915Y-73976591D01*
X152149607Y-74010569D01*
X152132866Y-74041890D01*
X152110339Y-74069339D01*
X152082890Y-74091866D01*
X152051569Y-74108607D01*
X152017591Y-74118915D01*
X151976110Y-74123000D01*
X151299890Y-74123000D01*
X151258409Y-74118915D01*
X151224431Y-74108607D01*
X151193110Y-74091866D01*
X151165661Y-74069339D01*
X151143134Y-74041890D01*
X151126393Y-74010569D01*
X151116085Y-73976591D01*
X151112000Y-73935110D01*
X151112000Y-73333890D01*
X151116085Y-73292409D01*
X151126393Y-73258431D01*
X151143134Y-73227110D01*
X151165661Y-73199661D01*
X151193110Y-73177134D01*
X151224431Y-73160393D01*
X151258409Y-73150085D01*
X151299890Y-73146000D01*
X151976110Y-73146000D01*
X152017591Y-73150085D01*
G37*
G36*
X169521000Y-73937000D02*
G01*
X166919000Y-73937000D01*
X166919000Y-70335000D01*
X169521000Y-70335000D01*
X169521000Y-73937000D01*
G37*
G36*
X137758536Y-68752800D02*
G01*
X137789738Y-68762265D01*
X137818486Y-68777631D01*
X137843687Y-68798313D01*
X137864369Y-68823514D01*
X137879735Y-68852262D01*
X137889200Y-68883464D01*
X137893000Y-68922046D01*
X137893000Y-70777954D01*
X137889200Y-70816536D01*
X137879735Y-70847738D01*
X137864369Y-70876486D01*
X137843687Y-70901687D01*
X137818486Y-70922369D01*
X137789738Y-70937735D01*
X137758536Y-70947200D01*
X137719954Y-70951000D01*
X133464046Y-70951000D01*
X133425464Y-70947200D01*
X133394262Y-70937735D01*
X133365514Y-70922369D01*
X133340313Y-70901687D01*
X133319631Y-70876486D01*
X133304265Y-70847738D01*
X133294800Y-70816536D01*
X133291000Y-70777954D01*
X133291000Y-68922046D01*
X133294800Y-68883464D01*
X133304265Y-68852262D01*
X133319631Y-68823514D01*
X133340313Y-68798313D01*
X133365514Y-68777631D01*
X133394262Y-68762265D01*
X133425464Y-68752800D01*
X133464046Y-68749000D01*
X137719954Y-68749000D01*
X137758536Y-68752800D01*
G37*
G36*
X144958536Y-68752800D02*
G01*
X144989738Y-68762265D01*
X145018486Y-68777631D01*
X145043687Y-68798313D01*
X145064369Y-68823514D01*
X145079735Y-68852262D01*
X145089200Y-68883464D01*
X145093000Y-68922046D01*
X145093000Y-70777954D01*
X145089200Y-70816536D01*
X145079735Y-70847738D01*
X145064369Y-70876486D01*
X145043687Y-70901687D01*
X145018486Y-70922369D01*
X144989738Y-70937735D01*
X144958536Y-70947200D01*
X144919954Y-70951000D01*
X140664046Y-70951000D01*
X140625464Y-70947200D01*
X140594262Y-70937735D01*
X140565514Y-70922369D01*
X140540313Y-70901687D01*
X140519631Y-70876486D01*
X140504265Y-70847738D01*
X140494800Y-70816536D01*
X140491000Y-70777954D01*
X140491000Y-68922046D01*
X140494800Y-68883464D01*
X140504265Y-68852262D01*
X140519631Y-68823514D01*
X140540313Y-68798313D01*
X140565514Y-68777631D01*
X140594262Y-68762265D01*
X140625464Y-68752800D01*
X140664046Y-68749000D01*
X144919954Y-68749000D01*
X144958536Y-68752800D01*
G37*
G36*
X155688995Y-70776996D02*
G01*
X153886997Y-70776996D01*
X153886997Y-69674996D01*
X155688995Y-69674996D01*
X155688995Y-70776996D01*
G37*
G36*
X149388998Y-70776996D02*
G01*
X147587000Y-70776996D01*
X147587000Y-69674996D01*
X149388998Y-69674996D01*
X149388998Y-70776996D01*
G37*
G36*
X158889000Y-70751000D02*
G01*
X157087000Y-70751000D01*
X157087000Y-68949000D01*
X158889000Y-68949000D01*
X158889000Y-70751000D01*
G37*
G36*
X164270529Y-68723398D02*
G01*
X164445079Y-68776348D01*
X164605947Y-68862333D01*
X164746949Y-68978051D01*
X164862667Y-69119053D01*
X164948652Y-69279921D01*
X165001602Y-69454471D01*
X165019480Y-69636000D01*
X165001602Y-69817529D01*
X164948652Y-69992079D01*
X164862667Y-70152947D01*
X164746949Y-70293949D01*
X164605947Y-70409667D01*
X164445079Y-70495652D01*
X164270529Y-70548602D01*
X164134490Y-70562000D01*
X162293510Y-70562000D01*
X162157471Y-70548602D01*
X161982921Y-70495652D01*
X161822053Y-70409667D01*
X161681051Y-70293949D01*
X161565333Y-70152947D01*
X161479348Y-69992079D01*
X161426398Y-69817529D01*
X161408520Y-69636000D01*
X161426398Y-69454471D01*
X161479348Y-69279921D01*
X161565333Y-69119053D01*
X161681051Y-68978051D01*
X161822053Y-68862333D01*
X161982921Y-68776348D01*
X162157471Y-68723398D01*
X162293510Y-68710000D01*
X164134490Y-68710000D01*
X164270529Y-68723398D01*
G37*
G36*
X158101512Y-66413927D02*
G01*
X158250812Y-66443624D01*
X158414784Y-66511544D01*
X158562354Y-66610147D01*
X158687853Y-66735646D01*
X158786456Y-66883216D01*
X158854376Y-67047188D01*
X158889000Y-67221259D01*
X158889000Y-67398741D01*
X158854376Y-67572812D01*
X158786456Y-67736784D01*
X158687853Y-67884354D01*
X158562354Y-68009853D01*
X158414784Y-68108456D01*
X158250812Y-68176376D01*
X158101512Y-68206073D01*
X158076742Y-68211000D01*
X157899258Y-68211000D01*
X157874488Y-68206073D01*
X157725188Y-68176376D01*
X157561216Y-68108456D01*
X157413646Y-68009853D01*
X157288147Y-67884354D01*
X157189544Y-67736784D01*
X157121624Y-67572812D01*
X157087000Y-67398741D01*
X157087000Y-67221259D01*
X157121624Y-67047188D01*
X157189544Y-66883216D01*
X157288147Y-66735646D01*
X157413646Y-66610147D01*
X157561216Y-66511544D01*
X157725188Y-66443624D01*
X157874488Y-66413927D01*
X157899258Y-66409000D01*
X158076742Y-66409000D01*
X158101512Y-66413927D01*
G37*
G36*
X164270529Y-66223398D02*
G01*
X164445079Y-66276348D01*
X164605947Y-66362333D01*
X164746949Y-66478051D01*
X164862667Y-66619053D01*
X164948652Y-66779921D01*
X165001602Y-66954471D01*
X165019480Y-67136000D01*
X165001602Y-67317529D01*
X164948652Y-67492079D01*
X164862667Y-67652947D01*
X164746949Y-67793949D01*
X164605947Y-67909667D01*
X164445079Y-67995652D01*
X164270529Y-68048602D01*
X164134490Y-68062000D01*
X162293510Y-68062000D01*
X162157471Y-68048602D01*
X161982921Y-67995652D01*
X161822053Y-67909667D01*
X161681051Y-67793949D01*
X161565333Y-67652947D01*
X161479348Y-67492079D01*
X161426398Y-67317529D01*
X161408520Y-67136000D01*
X161426398Y-66954471D01*
X161479348Y-66779921D01*
X161565333Y-66619053D01*
X161681051Y-66478051D01*
X161822053Y-66362333D01*
X161982921Y-66276348D01*
X162157471Y-66223398D01*
X162293510Y-66210000D01*
X164134490Y-66210000D01*
X164270529Y-66223398D01*
G37*
G36*
X146443000Y-67957000D02*
G01*
X144641000Y-67957000D01*
X144641000Y-66155000D01*
X146443000Y-66155000D01*
X146443000Y-67957000D01*
G37*
G36*
X149388998Y-66976999D02*
G01*
X147587000Y-66976999D01*
X147587000Y-65874999D01*
X149388998Y-65874999D01*
X149388998Y-66976999D01*
G37*
G36*
X155688995Y-66976999D02*
G01*
X153886997Y-66976999D01*
X153886997Y-65874999D01*
X155688995Y-65874999D01*
X155688995Y-66976999D01*
G37*
M02*
