G04 #@! TF.GenerationSoftware,KiCad,Pcbnew,5.1.6+dfsg1-1*
G04 #@! TF.CreationDate,2021-03-01T10:48:13-07:00*
G04 #@! TF.ProjectId,CurrentSensorV1,43757272-656e-4745-9365-6e736f725631,rev?*
G04 #@! TF.SameCoordinates,Original*
G04 #@! TF.FileFunction,Soldermask,Bot*
G04 #@! TF.FilePolarity,Negative*
%FSLAX46Y46*%
G04 Gerber Fmt 4.6, Leading zero omitted, Abs format (unit mm)*
G04 Created by KiCad (PCBNEW 5.1.6+dfsg1-1) date 2021-03-01 10:48:13*
%MOMM*%
%LPD*%
G01*
G04 APERTURE LIST*
%ADD10C,0.350000*%
G04 APERTURE END LIST*
D10*
G36*
X164270529Y-89431398D02*
G01*
X164445079Y-89484348D01*
X164605947Y-89570333D01*
X164746949Y-89686051D01*
X164862667Y-89827053D01*
X164948652Y-89987921D01*
X165001602Y-90162471D01*
X165019480Y-90344000D01*
X165001602Y-90525529D01*
X164948652Y-90700079D01*
X164862667Y-90860947D01*
X164746949Y-91001949D01*
X164605947Y-91117667D01*
X164445079Y-91203652D01*
X164270529Y-91256602D01*
X164134490Y-91270000D01*
X162293510Y-91270000D01*
X162157471Y-91256602D01*
X161982921Y-91203652D01*
X161822053Y-91117667D01*
X161681051Y-91001949D01*
X161565333Y-90860947D01*
X161479348Y-90700079D01*
X161426398Y-90525529D01*
X161408520Y-90344000D01*
X161426398Y-90162471D01*
X161479348Y-89987921D01*
X161565333Y-89827053D01*
X161681051Y-89686051D01*
X161822053Y-89570333D01*
X161982921Y-89484348D01*
X162157471Y-89431398D01*
X162293510Y-89418000D01*
X164134490Y-89418000D01*
X164270529Y-89431398D01*
G37*
G36*
X159371512Y-89019927D02*
G01*
X159520812Y-89049624D01*
X159684784Y-89117544D01*
X159832354Y-89216147D01*
X159957853Y-89341646D01*
X160056456Y-89489216D01*
X160124376Y-89653188D01*
X160159000Y-89827259D01*
X160159000Y-90004741D01*
X160124376Y-90178812D01*
X160056456Y-90342784D01*
X159957853Y-90490354D01*
X159832354Y-90615853D01*
X159684784Y-90714456D01*
X159520812Y-90782376D01*
X159371512Y-90812073D01*
X159346742Y-90817000D01*
X159169258Y-90817000D01*
X159144488Y-90812073D01*
X158995188Y-90782376D01*
X158831216Y-90714456D01*
X158683646Y-90615853D01*
X158558147Y-90490354D01*
X158459544Y-90342784D01*
X158391624Y-90178812D01*
X158357000Y-90004741D01*
X158357000Y-89827259D01*
X158391624Y-89653188D01*
X158459544Y-89489216D01*
X158558147Y-89341646D01*
X158683646Y-89216147D01*
X158831216Y-89117544D01*
X158995188Y-89049624D01*
X159144488Y-89019927D01*
X159169258Y-89015000D01*
X159346742Y-89015000D01*
X159371512Y-89019927D01*
G37*
G36*
X156857000Y-90309000D02*
G01*
X155055000Y-90309000D01*
X155055000Y-88507000D01*
X156857000Y-88507000D01*
X156857000Y-90309000D01*
G37*
G36*
X153529512Y-88511927D02*
G01*
X153678812Y-88541624D01*
X153842784Y-88609544D01*
X153990354Y-88708147D01*
X154115853Y-88833646D01*
X154214456Y-88981216D01*
X154282376Y-89145188D01*
X154317000Y-89319259D01*
X154317000Y-89496741D01*
X154282376Y-89670812D01*
X154214456Y-89834784D01*
X154115853Y-89982354D01*
X153990354Y-90107853D01*
X153842784Y-90206456D01*
X153678812Y-90274376D01*
X153529512Y-90304073D01*
X153504742Y-90309000D01*
X153327258Y-90309000D01*
X153302488Y-90304073D01*
X153153188Y-90274376D01*
X152989216Y-90206456D01*
X152841646Y-90107853D01*
X152716147Y-89982354D01*
X152617544Y-89834784D01*
X152549624Y-89670812D01*
X152515000Y-89496741D01*
X152515000Y-89319259D01*
X152549624Y-89145188D01*
X152617544Y-88981216D01*
X152716147Y-88833646D01*
X152841646Y-88708147D01*
X152989216Y-88609544D01*
X153153188Y-88541624D01*
X153302488Y-88511927D01*
X153327258Y-88507000D01*
X153504742Y-88507000D01*
X153529512Y-88511927D01*
G37*
G36*
X150989512Y-88511927D02*
G01*
X151138812Y-88541624D01*
X151302784Y-88609544D01*
X151450354Y-88708147D01*
X151575853Y-88833646D01*
X151674456Y-88981216D01*
X151742376Y-89145188D01*
X151777000Y-89319259D01*
X151777000Y-89496741D01*
X151742376Y-89670812D01*
X151674456Y-89834784D01*
X151575853Y-89982354D01*
X151450354Y-90107853D01*
X151302784Y-90206456D01*
X151138812Y-90274376D01*
X150989512Y-90304073D01*
X150964742Y-90309000D01*
X150787258Y-90309000D01*
X150762488Y-90304073D01*
X150613188Y-90274376D01*
X150449216Y-90206456D01*
X150301646Y-90107853D01*
X150176147Y-89982354D01*
X150077544Y-89834784D01*
X150009624Y-89670812D01*
X149975000Y-89496741D01*
X149975000Y-89319259D01*
X150009624Y-89145188D01*
X150077544Y-88981216D01*
X150176147Y-88833646D01*
X150301646Y-88708147D01*
X150449216Y-88609544D01*
X150613188Y-88541624D01*
X150762488Y-88511927D01*
X150787258Y-88507000D01*
X150964742Y-88507000D01*
X150989512Y-88511927D01*
G37*
G36*
X148449512Y-88511927D02*
G01*
X148598812Y-88541624D01*
X148762784Y-88609544D01*
X148910354Y-88708147D01*
X149035853Y-88833646D01*
X149134456Y-88981216D01*
X149202376Y-89145188D01*
X149237000Y-89319259D01*
X149237000Y-89496741D01*
X149202376Y-89670812D01*
X149134456Y-89834784D01*
X149035853Y-89982354D01*
X148910354Y-90107853D01*
X148762784Y-90206456D01*
X148598812Y-90274376D01*
X148449512Y-90304073D01*
X148424742Y-90309000D01*
X148247258Y-90309000D01*
X148222488Y-90304073D01*
X148073188Y-90274376D01*
X147909216Y-90206456D01*
X147761646Y-90107853D01*
X147636147Y-89982354D01*
X147537544Y-89834784D01*
X147469624Y-89670812D01*
X147435000Y-89496741D01*
X147435000Y-89319259D01*
X147469624Y-89145188D01*
X147537544Y-88981216D01*
X147636147Y-88833646D01*
X147761646Y-88708147D01*
X147909216Y-88609544D01*
X148073188Y-88541624D01*
X148222488Y-88511927D01*
X148247258Y-88507000D01*
X148424742Y-88507000D01*
X148449512Y-88511927D01*
G37*
G36*
X145909512Y-88511927D02*
G01*
X146058812Y-88541624D01*
X146222784Y-88609544D01*
X146370354Y-88708147D01*
X146495853Y-88833646D01*
X146594456Y-88981216D01*
X146662376Y-89145188D01*
X146697000Y-89319259D01*
X146697000Y-89496741D01*
X146662376Y-89670812D01*
X146594456Y-89834784D01*
X146495853Y-89982354D01*
X146370354Y-90107853D01*
X146222784Y-90206456D01*
X146058812Y-90274376D01*
X145909512Y-90304073D01*
X145884742Y-90309000D01*
X145707258Y-90309000D01*
X145682488Y-90304073D01*
X145533188Y-90274376D01*
X145369216Y-90206456D01*
X145221646Y-90107853D01*
X145096147Y-89982354D01*
X144997544Y-89834784D01*
X144929624Y-89670812D01*
X144895000Y-89496741D01*
X144895000Y-89319259D01*
X144929624Y-89145188D01*
X144997544Y-88981216D01*
X145096147Y-88833646D01*
X145221646Y-88708147D01*
X145369216Y-88609544D01*
X145533188Y-88541624D01*
X145682488Y-88511927D01*
X145707258Y-88507000D01*
X145884742Y-88507000D01*
X145909512Y-88511927D01*
G37*
G36*
X143369512Y-88511927D02*
G01*
X143518812Y-88541624D01*
X143682784Y-88609544D01*
X143830354Y-88708147D01*
X143955853Y-88833646D01*
X144054456Y-88981216D01*
X144122376Y-89145188D01*
X144157000Y-89319259D01*
X144157000Y-89496741D01*
X144122376Y-89670812D01*
X144054456Y-89834784D01*
X143955853Y-89982354D01*
X143830354Y-90107853D01*
X143682784Y-90206456D01*
X143518812Y-90274376D01*
X143369512Y-90304073D01*
X143344742Y-90309000D01*
X143167258Y-90309000D01*
X143142488Y-90304073D01*
X142993188Y-90274376D01*
X142829216Y-90206456D01*
X142681646Y-90107853D01*
X142556147Y-89982354D01*
X142457544Y-89834784D01*
X142389624Y-89670812D01*
X142355000Y-89496741D01*
X142355000Y-89319259D01*
X142389624Y-89145188D01*
X142457544Y-88981216D01*
X142556147Y-88833646D01*
X142681646Y-88708147D01*
X142829216Y-88609544D01*
X142993188Y-88541624D01*
X143142488Y-88511927D01*
X143167258Y-88507000D01*
X143344742Y-88507000D01*
X143369512Y-88511927D01*
G37*
G36*
X164270529Y-86931398D02*
G01*
X164445079Y-86984348D01*
X164605947Y-87070333D01*
X164746949Y-87186051D01*
X164862667Y-87327053D01*
X164948652Y-87487921D01*
X165001602Y-87662471D01*
X165019480Y-87844000D01*
X165001602Y-88025529D01*
X164948652Y-88200079D01*
X164862667Y-88360947D01*
X164746949Y-88501949D01*
X164605947Y-88617667D01*
X164445079Y-88703652D01*
X164270529Y-88756602D01*
X164134490Y-88770000D01*
X162293510Y-88770000D01*
X162157471Y-88756602D01*
X161982921Y-88703652D01*
X161822053Y-88617667D01*
X161681051Y-88501949D01*
X161565333Y-88360947D01*
X161479348Y-88200079D01*
X161426398Y-88025529D01*
X161408520Y-87844000D01*
X161426398Y-87662471D01*
X161479348Y-87487921D01*
X161565333Y-87327053D01*
X161681051Y-87186051D01*
X161822053Y-87070333D01*
X161982921Y-86984348D01*
X162157471Y-86931398D01*
X162293510Y-86918000D01*
X164134490Y-86918000D01*
X164270529Y-86931398D01*
G37*
G36*
X160159000Y-88277000D02*
G01*
X158357000Y-88277000D01*
X158357000Y-86475000D01*
X160159000Y-86475000D01*
X160159000Y-88277000D01*
G37*
G36*
X169521000Y-87145000D02*
G01*
X166919000Y-87145000D01*
X166919000Y-83543000D01*
X169521000Y-83543000D01*
X169521000Y-87145000D01*
G37*
G36*
X134644855Y-84553140D02*
G01*
X134708618Y-84559420D01*
X134799404Y-84586960D01*
X134831336Y-84596646D01*
X134944425Y-84657094D01*
X135043554Y-84738446D01*
X135124906Y-84837575D01*
X135185354Y-84950664D01*
X135185355Y-84950668D01*
X135222580Y-85073382D01*
X135235149Y-85201000D01*
X135222580Y-85328618D01*
X135195040Y-85419404D01*
X135185354Y-85451336D01*
X135124906Y-85564425D01*
X135043554Y-85663554D01*
X134944425Y-85744906D01*
X134831336Y-85805354D01*
X134799404Y-85815040D01*
X134708618Y-85842580D01*
X134644855Y-85848860D01*
X134612974Y-85852000D01*
X133849026Y-85852000D01*
X133817145Y-85848860D01*
X133753382Y-85842580D01*
X133662596Y-85815040D01*
X133630664Y-85805354D01*
X133517575Y-85744906D01*
X133418446Y-85663554D01*
X133337094Y-85564425D01*
X133276646Y-85451336D01*
X133266960Y-85419404D01*
X133239420Y-85328618D01*
X133226851Y-85201000D01*
X133239420Y-85073382D01*
X133276645Y-84950668D01*
X133276646Y-84950664D01*
X133337094Y-84837575D01*
X133418446Y-84738446D01*
X133517575Y-84657094D01*
X133630664Y-84596646D01*
X133662596Y-84586960D01*
X133753382Y-84559420D01*
X133817145Y-84553140D01*
X133849026Y-84550000D01*
X134612974Y-84550000D01*
X134644855Y-84553140D01*
G37*
G36*
X146570778Y-82940547D02*
G01*
X146737224Y-83009491D01*
X146887022Y-83109583D01*
X147014417Y-83236978D01*
X147114509Y-83386776D01*
X147183453Y-83553222D01*
X147218600Y-83729918D01*
X147218600Y-83910082D01*
X147183453Y-84086778D01*
X147114509Y-84253224D01*
X147014417Y-84403022D01*
X146887022Y-84530417D01*
X146737224Y-84630509D01*
X146570778Y-84699453D01*
X146394082Y-84734600D01*
X146213918Y-84734600D01*
X146037222Y-84699453D01*
X145870776Y-84630509D01*
X145720978Y-84530417D01*
X145593583Y-84403022D01*
X145493491Y-84253224D01*
X145424547Y-84086778D01*
X145389400Y-83910082D01*
X145389400Y-83729918D01*
X145424547Y-83553222D01*
X145493491Y-83386776D01*
X145593583Y-83236978D01*
X145720978Y-83109583D01*
X145870776Y-83009491D01*
X146037222Y-82940547D01*
X146213918Y-82905400D01*
X146394082Y-82905400D01*
X146570778Y-82940547D01*
G37*
G36*
X149110778Y-82940547D02*
G01*
X149277224Y-83009491D01*
X149427022Y-83109583D01*
X149554417Y-83236978D01*
X149654509Y-83386776D01*
X149723453Y-83553222D01*
X149758600Y-83729918D01*
X149758600Y-83910082D01*
X149723453Y-84086778D01*
X149654509Y-84253224D01*
X149554417Y-84403022D01*
X149427022Y-84530417D01*
X149277224Y-84630509D01*
X149110778Y-84699453D01*
X148934082Y-84734600D01*
X148753918Y-84734600D01*
X148577222Y-84699453D01*
X148410776Y-84630509D01*
X148260978Y-84530417D01*
X148133583Y-84403022D01*
X148033491Y-84253224D01*
X147964547Y-84086778D01*
X147929400Y-83910082D01*
X147929400Y-83729918D01*
X147964547Y-83553222D01*
X148033491Y-83386776D01*
X148133583Y-83236978D01*
X148260978Y-83109583D01*
X148410776Y-83009491D01*
X148577222Y-82940547D01*
X148753918Y-82905400D01*
X148934082Y-82905400D01*
X149110778Y-82940547D01*
G37*
G36*
X137443916Y-82683334D02*
G01*
X137552492Y-82716271D01*
X137552495Y-82716272D01*
X137588601Y-82735571D01*
X137652557Y-82769756D01*
X137740264Y-82841736D01*
X137812244Y-82929443D01*
X137846429Y-82993399D01*
X137865728Y-83029505D01*
X137865729Y-83029508D01*
X137898666Y-83138084D01*
X137909787Y-83251000D01*
X137898666Y-83363916D01*
X137865729Y-83472492D01*
X137865728Y-83472495D01*
X137849984Y-83501949D01*
X137812244Y-83572557D01*
X137740264Y-83660264D01*
X137652557Y-83732244D01*
X137588601Y-83766429D01*
X137552495Y-83785728D01*
X137552492Y-83785729D01*
X137443916Y-83818666D01*
X137359298Y-83827000D01*
X137102702Y-83827000D01*
X137018084Y-83818666D01*
X136909508Y-83785729D01*
X136909505Y-83785728D01*
X136873399Y-83766429D01*
X136809443Y-83732244D01*
X136721736Y-83660264D01*
X136649756Y-83572557D01*
X136612016Y-83501949D01*
X136596272Y-83472495D01*
X136596271Y-83472492D01*
X136563334Y-83363916D01*
X136552213Y-83251000D01*
X136563334Y-83138084D01*
X136596271Y-83029508D01*
X136596272Y-83029505D01*
X136615571Y-82993399D01*
X136649756Y-82929443D01*
X136721736Y-82841736D01*
X136809443Y-82769756D01*
X136873399Y-82735571D01*
X136909505Y-82716272D01*
X136909508Y-82716271D01*
X137018084Y-82683334D01*
X137102702Y-82675000D01*
X137359298Y-82675000D01*
X137443916Y-82683334D01*
G37*
G36*
X164270529Y-81931398D02*
G01*
X164445079Y-81984348D01*
X164605947Y-82070333D01*
X164746949Y-82186051D01*
X164862667Y-82327053D01*
X164948652Y-82487921D01*
X165001602Y-82662471D01*
X165019480Y-82844000D01*
X165001602Y-83025529D01*
X164948652Y-83200079D01*
X164862667Y-83360947D01*
X164746949Y-83501949D01*
X164605947Y-83617667D01*
X164445079Y-83703652D01*
X164270529Y-83756602D01*
X164134490Y-83770000D01*
X162293510Y-83770000D01*
X162157471Y-83756602D01*
X161982921Y-83703652D01*
X161822053Y-83617667D01*
X161681051Y-83501949D01*
X161565333Y-83360947D01*
X161479348Y-83200079D01*
X161426398Y-83025529D01*
X161408520Y-82844000D01*
X161426398Y-82662471D01*
X161479348Y-82487921D01*
X161565333Y-82327053D01*
X161681051Y-82186051D01*
X161822053Y-82070333D01*
X161982921Y-81984348D01*
X162157471Y-81931398D01*
X162293510Y-81918000D01*
X164134490Y-81918000D01*
X164270529Y-81931398D01*
G37*
G36*
X146570778Y-80400547D02*
G01*
X146737224Y-80469491D01*
X146887022Y-80569583D01*
X147014417Y-80696978D01*
X147114509Y-80846776D01*
X147183453Y-81013222D01*
X147218600Y-81189918D01*
X147218600Y-81370082D01*
X147183453Y-81546778D01*
X147114509Y-81713224D01*
X147014417Y-81863022D01*
X146887022Y-81990417D01*
X146737224Y-82090509D01*
X146570778Y-82159453D01*
X146394082Y-82194600D01*
X146213918Y-82194600D01*
X146037222Y-82159453D01*
X145870776Y-82090509D01*
X145720978Y-81990417D01*
X145593583Y-81863022D01*
X145493491Y-81713224D01*
X145424547Y-81546778D01*
X145389400Y-81370082D01*
X145389400Y-81189918D01*
X145424547Y-81013222D01*
X145493491Y-80846776D01*
X145593583Y-80696978D01*
X145720978Y-80569583D01*
X145870776Y-80469491D01*
X146037222Y-80400547D01*
X146213918Y-80365400D01*
X146394082Y-80365400D01*
X146570778Y-80400547D01*
G37*
G36*
X149110778Y-80400547D02*
G01*
X149277224Y-80469491D01*
X149427022Y-80569583D01*
X149554417Y-80696978D01*
X149654509Y-80846776D01*
X149723453Y-81013222D01*
X149758600Y-81189918D01*
X149758600Y-81370082D01*
X149723453Y-81546778D01*
X149654509Y-81713224D01*
X149554417Y-81863022D01*
X149427022Y-81990417D01*
X149277224Y-82090509D01*
X149110778Y-82159453D01*
X148934082Y-82194600D01*
X148753918Y-82194600D01*
X148577222Y-82159453D01*
X148410776Y-82090509D01*
X148260978Y-81990417D01*
X148133583Y-81863022D01*
X148033491Y-81713224D01*
X147964547Y-81546778D01*
X147929400Y-81370082D01*
X147929400Y-81189918D01*
X147964547Y-81013222D01*
X148033491Y-80846776D01*
X148133583Y-80696978D01*
X148260978Y-80569583D01*
X148410776Y-80469491D01*
X148577222Y-80400547D01*
X148753918Y-80365400D01*
X148934082Y-80365400D01*
X149110778Y-80400547D01*
G37*
G36*
X164270529Y-79431398D02*
G01*
X164445079Y-79484348D01*
X164605947Y-79570333D01*
X164746949Y-79686051D01*
X164862667Y-79827053D01*
X164948652Y-79987921D01*
X165001602Y-80162471D01*
X165019480Y-80344000D01*
X165001602Y-80525529D01*
X164948652Y-80700079D01*
X164862667Y-80860947D01*
X164746949Y-81001949D01*
X164605947Y-81117667D01*
X164445079Y-81203652D01*
X164270529Y-81256602D01*
X164134490Y-81270000D01*
X162293510Y-81270000D01*
X162157471Y-81256602D01*
X161982921Y-81203652D01*
X161822053Y-81117667D01*
X161681051Y-81001949D01*
X161565333Y-80860947D01*
X161479348Y-80700079D01*
X161426398Y-80525529D01*
X161408520Y-80344000D01*
X161426398Y-80162471D01*
X161479348Y-79987921D01*
X161565333Y-79827053D01*
X161681051Y-79686051D01*
X161822053Y-79570333D01*
X161982921Y-79484348D01*
X162157471Y-79431398D01*
X162293510Y-79418000D01*
X164134490Y-79418000D01*
X164270529Y-79431398D01*
G37*
G36*
X149110778Y-77860547D02*
G01*
X149277224Y-77929491D01*
X149427022Y-78029583D01*
X149554417Y-78156978D01*
X149654509Y-78306776D01*
X149723453Y-78473222D01*
X149758600Y-78649918D01*
X149758600Y-78830082D01*
X149723453Y-79006778D01*
X149654509Y-79173224D01*
X149554417Y-79323022D01*
X149427022Y-79450417D01*
X149277224Y-79550509D01*
X149110778Y-79619453D01*
X148934082Y-79654600D01*
X148753918Y-79654600D01*
X148577222Y-79619453D01*
X148410776Y-79550509D01*
X148260978Y-79450417D01*
X148133583Y-79323022D01*
X148033491Y-79173224D01*
X147964547Y-79006778D01*
X147929400Y-78830082D01*
X147929400Y-78649918D01*
X147964547Y-78473222D01*
X148033491Y-78306776D01*
X148133583Y-78156978D01*
X148260978Y-78029583D01*
X148410776Y-77929491D01*
X148577222Y-77860547D01*
X148753918Y-77825400D01*
X148934082Y-77825400D01*
X149110778Y-77860547D01*
G37*
G36*
X146570778Y-77860547D02*
G01*
X146737224Y-77929491D01*
X146887022Y-78029583D01*
X147014417Y-78156978D01*
X147114509Y-78306776D01*
X147183453Y-78473222D01*
X147218600Y-78649918D01*
X147218600Y-78830082D01*
X147183453Y-79006778D01*
X147114509Y-79173224D01*
X147014417Y-79323022D01*
X146887022Y-79450417D01*
X146737224Y-79550509D01*
X146570778Y-79619453D01*
X146394082Y-79654600D01*
X146213918Y-79654600D01*
X146037222Y-79619453D01*
X145870776Y-79550509D01*
X145720978Y-79450417D01*
X145593583Y-79323022D01*
X145493491Y-79173224D01*
X145424547Y-79006778D01*
X145389400Y-78830082D01*
X145389400Y-78649918D01*
X145424547Y-78473222D01*
X145493491Y-78306776D01*
X145593583Y-78156978D01*
X145720978Y-78029583D01*
X145870776Y-77929491D01*
X146037222Y-77860547D01*
X146213918Y-77825400D01*
X146394082Y-77825400D01*
X146570778Y-77860547D01*
G37*
G36*
X137443916Y-78233334D02*
G01*
X137552492Y-78266271D01*
X137552495Y-78266272D01*
X137588601Y-78285571D01*
X137652557Y-78319756D01*
X137740264Y-78391736D01*
X137812244Y-78479443D01*
X137846429Y-78543399D01*
X137865728Y-78579505D01*
X137865729Y-78579508D01*
X137898666Y-78688084D01*
X137909787Y-78801000D01*
X137898666Y-78913916D01*
X137865729Y-79022492D01*
X137865728Y-79022495D01*
X137846429Y-79058601D01*
X137812244Y-79122557D01*
X137740264Y-79210264D01*
X137652557Y-79282244D01*
X137588601Y-79316429D01*
X137552495Y-79335728D01*
X137552492Y-79335729D01*
X137443916Y-79368666D01*
X137359298Y-79377000D01*
X137102702Y-79377000D01*
X137018084Y-79368666D01*
X136909508Y-79335729D01*
X136909505Y-79335728D01*
X136873399Y-79316429D01*
X136809443Y-79282244D01*
X136721736Y-79210264D01*
X136649756Y-79122557D01*
X136615571Y-79058601D01*
X136596272Y-79022495D01*
X136596271Y-79022492D01*
X136563334Y-78913916D01*
X136552213Y-78801000D01*
X136563334Y-78688084D01*
X136596271Y-78579508D01*
X136596272Y-78579505D01*
X136615571Y-78543399D01*
X136649756Y-78479443D01*
X136721736Y-78391736D01*
X136809443Y-78319756D01*
X136873399Y-78285571D01*
X136909505Y-78266272D01*
X136909508Y-78266271D01*
X137018084Y-78233334D01*
X137102702Y-78225000D01*
X137359298Y-78225000D01*
X137443916Y-78233334D01*
G37*
G36*
X164270529Y-76223398D02*
G01*
X164445079Y-76276348D01*
X164605947Y-76362333D01*
X164746949Y-76478051D01*
X164862667Y-76619053D01*
X164948652Y-76779921D01*
X165001602Y-76954471D01*
X165019480Y-77136000D01*
X165001602Y-77317529D01*
X164948652Y-77492079D01*
X164862667Y-77652947D01*
X164746949Y-77793949D01*
X164605947Y-77909667D01*
X164445079Y-77995652D01*
X164270529Y-78048602D01*
X164134490Y-78062000D01*
X162293510Y-78062000D01*
X162157471Y-78048602D01*
X161982921Y-77995652D01*
X161822053Y-77909667D01*
X161681051Y-77793949D01*
X161565333Y-77652947D01*
X161479348Y-77492079D01*
X161426398Y-77317529D01*
X161408520Y-77136000D01*
X161426398Y-76954471D01*
X161479348Y-76779921D01*
X161565333Y-76619053D01*
X161681051Y-76478051D01*
X161822053Y-76362333D01*
X161982921Y-76276348D01*
X162157471Y-76223398D01*
X162293510Y-76210000D01*
X164134490Y-76210000D01*
X164270529Y-76223398D01*
G37*
G36*
X134644855Y-76203140D02*
G01*
X134708618Y-76209420D01*
X134799404Y-76236960D01*
X134831336Y-76246646D01*
X134944425Y-76307094D01*
X135043554Y-76388446D01*
X135124906Y-76487575D01*
X135185354Y-76600664D01*
X135185355Y-76600668D01*
X135222580Y-76723382D01*
X135235149Y-76851000D01*
X135222580Y-76978618D01*
X135212906Y-77010508D01*
X135185354Y-77101336D01*
X135124906Y-77214425D01*
X135043554Y-77313554D01*
X134944425Y-77394906D01*
X134831336Y-77455354D01*
X134799404Y-77465040D01*
X134708618Y-77492580D01*
X134644855Y-77498860D01*
X134612974Y-77502000D01*
X133849026Y-77502000D01*
X133817145Y-77498860D01*
X133753382Y-77492580D01*
X133662596Y-77465040D01*
X133630664Y-77455354D01*
X133517575Y-77394906D01*
X133418446Y-77313554D01*
X133337094Y-77214425D01*
X133276646Y-77101336D01*
X133249094Y-77010508D01*
X133239420Y-76978618D01*
X133226851Y-76851000D01*
X133239420Y-76723382D01*
X133276645Y-76600668D01*
X133276646Y-76600664D01*
X133337094Y-76487575D01*
X133418446Y-76388446D01*
X133517575Y-76307094D01*
X133630664Y-76246646D01*
X133662596Y-76236960D01*
X133753382Y-76209420D01*
X133817145Y-76203140D01*
X133849026Y-76200000D01*
X134612974Y-76200000D01*
X134644855Y-76203140D01*
G37*
G36*
X157619000Y-77253000D02*
G01*
X155817000Y-77253000D01*
X155817000Y-75451000D01*
X157619000Y-75451000D01*
X157619000Y-77253000D01*
G37*
G36*
X147218600Y-77114600D02*
G01*
X145389400Y-77114600D01*
X145389400Y-75285400D01*
X147218600Y-75285400D01*
X147218600Y-77114600D01*
G37*
G36*
X149110778Y-75320547D02*
G01*
X149277224Y-75389491D01*
X149427022Y-75489583D01*
X149554417Y-75616978D01*
X149654509Y-75766776D01*
X149723453Y-75933222D01*
X149758600Y-76109918D01*
X149758600Y-76290082D01*
X149723453Y-76466778D01*
X149654509Y-76633224D01*
X149554417Y-76783022D01*
X149427022Y-76910417D01*
X149277224Y-77010509D01*
X149110778Y-77079453D01*
X148934082Y-77114600D01*
X148753918Y-77114600D01*
X148577222Y-77079453D01*
X148410776Y-77010509D01*
X148260978Y-76910417D01*
X148133583Y-76783022D01*
X148033491Y-76633224D01*
X147964547Y-76466778D01*
X147929400Y-76290082D01*
X147929400Y-76109918D01*
X147964547Y-75933222D01*
X148033491Y-75766776D01*
X148133583Y-75616978D01*
X148260978Y-75489583D01*
X148410776Y-75389491D01*
X148577222Y-75320547D01*
X148753918Y-75285400D01*
X148934082Y-75285400D01*
X149110778Y-75320547D01*
G37*
G36*
X142125000Y-76847000D02*
G01*
X140323000Y-76847000D01*
X140323000Y-75045000D01*
X142125000Y-75045000D01*
X142125000Y-76847000D01*
G37*
G36*
X164270529Y-73723398D02*
G01*
X164445079Y-73776348D01*
X164605947Y-73862333D01*
X164746949Y-73978051D01*
X164862667Y-74119053D01*
X164948652Y-74279921D01*
X165001602Y-74454471D01*
X165019480Y-74636000D01*
X165001602Y-74817529D01*
X164948652Y-74992079D01*
X164862667Y-75152947D01*
X164746949Y-75293949D01*
X164605947Y-75409667D01*
X164445079Y-75495652D01*
X164270529Y-75548602D01*
X164134490Y-75562000D01*
X162293510Y-75562000D01*
X162157471Y-75548602D01*
X161982921Y-75495652D01*
X161822053Y-75409667D01*
X161681051Y-75293949D01*
X161565333Y-75152947D01*
X161479348Y-74992079D01*
X161426398Y-74817529D01*
X161408520Y-74636000D01*
X161426398Y-74454471D01*
X161479348Y-74279921D01*
X161565333Y-74119053D01*
X161681051Y-73978051D01*
X161822053Y-73862333D01*
X161982921Y-73776348D01*
X162157471Y-73723398D01*
X162293510Y-73710000D01*
X164134490Y-73710000D01*
X164270529Y-73723398D01*
G37*
G36*
X169521000Y-73937000D02*
G01*
X166919000Y-73937000D01*
X166919000Y-70335000D01*
X169521000Y-70335000D01*
X169521000Y-73937000D01*
G37*
G36*
X158889000Y-70751000D02*
G01*
X157087000Y-70751000D01*
X157087000Y-68949000D01*
X158889000Y-68949000D01*
X158889000Y-70751000D01*
G37*
G36*
X164270529Y-68723398D02*
G01*
X164445079Y-68776348D01*
X164605947Y-68862333D01*
X164746949Y-68978051D01*
X164862667Y-69119053D01*
X164948652Y-69279921D01*
X165001602Y-69454471D01*
X165019480Y-69636000D01*
X165001602Y-69817529D01*
X164948652Y-69992079D01*
X164862667Y-70152947D01*
X164746949Y-70293949D01*
X164605947Y-70409667D01*
X164445079Y-70495652D01*
X164270529Y-70548602D01*
X164134490Y-70562000D01*
X162293510Y-70562000D01*
X162157471Y-70548602D01*
X161982921Y-70495652D01*
X161822053Y-70409667D01*
X161681051Y-70293949D01*
X161565333Y-70152947D01*
X161479348Y-69992079D01*
X161426398Y-69817529D01*
X161408520Y-69636000D01*
X161426398Y-69454471D01*
X161479348Y-69279921D01*
X161565333Y-69119053D01*
X161681051Y-68978051D01*
X161822053Y-68862333D01*
X161982921Y-68776348D01*
X162157471Y-68723398D01*
X162293510Y-68710000D01*
X164134490Y-68710000D01*
X164270529Y-68723398D01*
G37*
G36*
X158101512Y-66413927D02*
G01*
X158250812Y-66443624D01*
X158414784Y-66511544D01*
X158562354Y-66610147D01*
X158687853Y-66735646D01*
X158786456Y-66883216D01*
X158854376Y-67047188D01*
X158889000Y-67221259D01*
X158889000Y-67398741D01*
X158854376Y-67572812D01*
X158786456Y-67736784D01*
X158687853Y-67884354D01*
X158562354Y-68009853D01*
X158414784Y-68108456D01*
X158250812Y-68176376D01*
X158101512Y-68206073D01*
X158076742Y-68211000D01*
X157899258Y-68211000D01*
X157874488Y-68206073D01*
X157725188Y-68176376D01*
X157561216Y-68108456D01*
X157413646Y-68009853D01*
X157288147Y-67884354D01*
X157189544Y-67736784D01*
X157121624Y-67572812D01*
X157087000Y-67398741D01*
X157087000Y-67221259D01*
X157121624Y-67047188D01*
X157189544Y-66883216D01*
X157288147Y-66735646D01*
X157413646Y-66610147D01*
X157561216Y-66511544D01*
X157725188Y-66443624D01*
X157874488Y-66413927D01*
X157899258Y-66409000D01*
X158076742Y-66409000D01*
X158101512Y-66413927D01*
G37*
G36*
X164270529Y-66223398D02*
G01*
X164445079Y-66276348D01*
X164605947Y-66362333D01*
X164746949Y-66478051D01*
X164862667Y-66619053D01*
X164948652Y-66779921D01*
X165001602Y-66954471D01*
X165019480Y-67136000D01*
X165001602Y-67317529D01*
X164948652Y-67492079D01*
X164862667Y-67652947D01*
X164746949Y-67793949D01*
X164605947Y-67909667D01*
X164445079Y-67995652D01*
X164270529Y-68048602D01*
X164134490Y-68062000D01*
X162293510Y-68062000D01*
X162157471Y-68048602D01*
X161982921Y-67995652D01*
X161822053Y-67909667D01*
X161681051Y-67793949D01*
X161565333Y-67652947D01*
X161479348Y-67492079D01*
X161426398Y-67317529D01*
X161408520Y-67136000D01*
X161426398Y-66954471D01*
X161479348Y-66779921D01*
X161565333Y-66619053D01*
X161681051Y-66478051D01*
X161822053Y-66362333D01*
X161982921Y-66276348D01*
X162157471Y-66223398D01*
X162293510Y-66210000D01*
X164134490Y-66210000D01*
X164270529Y-66223398D01*
G37*
G36*
X146443000Y-67957000D02*
G01*
X144641000Y-67957000D01*
X144641000Y-66155000D01*
X146443000Y-66155000D01*
X146443000Y-67957000D01*
G37*
M02*
