M48
; DRILL file {KiCad 5.1.6+dfsg1-1} date Mon Mar  1 10:48:13 2021
; FORMAT={-:-/ absolute / metric / decimal}
; #@! TF.CreationDate,2021-03-01T10:48:13-07:00
; #@! TF.GenerationSoftware,Kicad,Pcbnew,5.1.6+dfsg1-1
FMAT,2
METRIC
T1C0.400
T2C0.600
T3C0.650
T4C1.000
T5C1.016
T6C1.200
%
G90
G05
T1
X138.938Y-75.946
X139.778Y-81.026
X141.986Y-86.868
X142.792Y-69.806
X151.384Y-83.058
X152.908Y-78.232
X154.418Y-73.202
X154.788Y-66.426
X156.21Y-81.534
X156.765Y-82.366
T4
X156.718Y-76.352
X159.258Y-87.376
X159.258Y-89.916
X143.256Y-89.408
X145.796Y-89.408
X148.336Y-89.408
X150.876Y-89.408
X153.416Y-89.408
X155.956Y-89.408
X157.988Y-67.31
X157.988Y-69.85
X141.224Y-75.946
X145.542Y-67.056
T5
X146.304Y-76.2
X146.304Y-78.74
X146.304Y-81.28
X146.304Y-83.82
X148.844Y-76.2
X148.844Y-78.74
X148.844Y-81.28
X148.844Y-83.82
T6
X163.214Y-80.344
X163.214Y-82.844
X163.214Y-87.844
X163.214Y-90.344
X168.22Y-85.344
X163.214Y-67.136
X163.214Y-69.636
X163.214Y-74.636
X163.214Y-77.136
X168.22Y-72.136
T2
X134.581Y-76.851G85X133.881Y-76.851
G05
X134.581Y-85.201G85X133.881Y-85.201
G05
T3
X137.331Y-78.801G85X137.131Y-78.801
G05
X137.331Y-83.251G85X137.131Y-83.251
G05
T0
M30
