G04 #@! TF.GenerationSoftware,KiCad,Pcbnew,5.1.6+dfsg1-1*
G04 #@! TF.CreationDate,2021-03-01T10:48:13-07:00*
G04 #@! TF.ProjectId,CurrentSensorV1,43757272-656e-4745-9365-6e736f725631,rev?*
G04 #@! TF.SameCoordinates,Original*
G04 #@! TF.FileFunction,Paste,Top*
G04 #@! TF.FilePolarity,Positive*
%FSLAX46Y46*%
G04 Gerber Fmt 4.6, Leading zero omitted, Abs format (unit mm)*
G04 Created by KiCad (PCBNEW 5.1.6+dfsg1-1) date 2021-03-01 10:48:13*
%MOMM*%
%LPD*%
G01*
G04 APERTURE LIST*
%ADD10R,0.100000X0.500000*%
%ADD11R,1.900000X1.260000*%
%ADD12R,1.900000X1.800000*%
%ADD13R,1.778000X0.400050*%
%ADD14R,1.200000X0.900000*%
%ADD15R,1.699999X1.000001*%
%ADD16R,1.500000X2.000000*%
%ADD17R,3.800000X2.000000*%
G04 APERTURE END LIST*
D10*
G04 #@! TO.C,J1*
X133331000Y-77136000D03*
X135131000Y-77136000D03*
D11*
X134231000Y-77786000D03*
D10*
X133331000Y-84926000D03*
D12*
X134231000Y-82301000D03*
D13*
X137109200Y-79726000D03*
X137109200Y-82326000D03*
D12*
X134231000Y-79751000D03*
D11*
X134231000Y-84266000D03*
D10*
X135131000Y-84916000D03*
G04 #@! TD*
G04 #@! TO.C,C4*
G36*
G01*
X140542000Y-70650000D02*
X140542000Y-69050000D01*
G75*
G02*
X140792000Y-68800000I250000J0D01*
G01*
X144792000Y-68800000D01*
G75*
G02*
X145042000Y-69050000I0J-250000D01*
G01*
X145042000Y-70650000D01*
G75*
G02*
X144792000Y-70900000I-250000J0D01*
G01*
X140792000Y-70900000D01*
G75*
G02*
X140542000Y-70650000I0J250000D01*
G01*
G37*
G36*
G01*
X133342000Y-70650000D02*
X133342000Y-69050000D01*
G75*
G02*
X133592000Y-68800000I250000J0D01*
G01*
X137592000Y-68800000D01*
G75*
G02*
X137842000Y-69050000I0J-250000D01*
G01*
X137842000Y-70650000D01*
G75*
G02*
X137592000Y-70900000I-250000J0D01*
G01*
X133592000Y-70900000D01*
G75*
G02*
X133342000Y-70650000I0J250000D01*
G01*
G37*
G04 #@! TD*
D14*
G04 #@! TO.C,D1*
X143764000Y-81406000D03*
X143764000Y-78106000D03*
G04 #@! TD*
D15*
G04 #@! TO.C,FLASH1*
X154787996Y-66425999D03*
X148487999Y-66425999D03*
X154787996Y-70225996D03*
X148487999Y-70225996D03*
G04 #@! TD*
D16*
G04 #@! TO.C,U3*
X159018000Y-73202000D03*
X154418000Y-73202000D03*
X156718000Y-73202000D03*
D17*
X156718000Y-79502000D03*
G04 #@! TD*
G04 #@! TO.C,U1*
G36*
G01*
X155243000Y-83983000D02*
X155243000Y-84133000D01*
G75*
G02*
X155168000Y-84208000I-75000J0D01*
G01*
X153868000Y-84208000D01*
G75*
G02*
X153793000Y-84133000I0J75000D01*
G01*
X153793000Y-83983000D01*
G75*
G02*
X153868000Y-83908000I75000J0D01*
G01*
X155168000Y-83908000D01*
G75*
G02*
X155243000Y-83983000I0J-75000D01*
G01*
G37*
G36*
G01*
X155243000Y-83483000D02*
X155243000Y-83633000D01*
G75*
G02*
X155168000Y-83708000I-75000J0D01*
G01*
X153868000Y-83708000D01*
G75*
G02*
X153793000Y-83633000I0J75000D01*
G01*
X153793000Y-83483000D01*
G75*
G02*
X153868000Y-83408000I75000J0D01*
G01*
X155168000Y-83408000D01*
G75*
G02*
X155243000Y-83483000I0J-75000D01*
G01*
G37*
G36*
G01*
X155243000Y-82983000D02*
X155243000Y-83133000D01*
G75*
G02*
X155168000Y-83208000I-75000J0D01*
G01*
X153868000Y-83208000D01*
G75*
G02*
X153793000Y-83133000I0J75000D01*
G01*
X153793000Y-82983000D01*
G75*
G02*
X153868000Y-82908000I75000J0D01*
G01*
X155168000Y-82908000D01*
G75*
G02*
X155243000Y-82983000I0J-75000D01*
G01*
G37*
G36*
G01*
X155243000Y-82483000D02*
X155243000Y-82633000D01*
G75*
G02*
X155168000Y-82708000I-75000J0D01*
G01*
X153868000Y-82708000D01*
G75*
G02*
X153793000Y-82633000I0J75000D01*
G01*
X153793000Y-82483000D01*
G75*
G02*
X153868000Y-82408000I75000J0D01*
G01*
X155168000Y-82408000D01*
G75*
G02*
X155243000Y-82483000I0J-75000D01*
G01*
G37*
G36*
G01*
X155243000Y-81983000D02*
X155243000Y-82133000D01*
G75*
G02*
X155168000Y-82208000I-75000J0D01*
G01*
X153868000Y-82208000D01*
G75*
G02*
X153793000Y-82133000I0J75000D01*
G01*
X153793000Y-81983000D01*
G75*
G02*
X153868000Y-81908000I75000J0D01*
G01*
X155168000Y-81908000D01*
G75*
G02*
X155243000Y-81983000I0J-75000D01*
G01*
G37*
G36*
G01*
X159643000Y-81983000D02*
X159643000Y-82133000D01*
G75*
G02*
X159568000Y-82208000I-75000J0D01*
G01*
X158268000Y-82208000D01*
G75*
G02*
X158193000Y-82133000I0J75000D01*
G01*
X158193000Y-81983000D01*
G75*
G02*
X158268000Y-81908000I75000J0D01*
G01*
X159568000Y-81908000D01*
G75*
G02*
X159643000Y-81983000I0J-75000D01*
G01*
G37*
G36*
G01*
X159643000Y-82483000D02*
X159643000Y-82633000D01*
G75*
G02*
X159568000Y-82708000I-75000J0D01*
G01*
X158268000Y-82708000D01*
G75*
G02*
X158193000Y-82633000I0J75000D01*
G01*
X158193000Y-82483000D01*
G75*
G02*
X158268000Y-82408000I75000J0D01*
G01*
X159568000Y-82408000D01*
G75*
G02*
X159643000Y-82483000I0J-75000D01*
G01*
G37*
G36*
G01*
X159643000Y-82983000D02*
X159643000Y-83133000D01*
G75*
G02*
X159568000Y-83208000I-75000J0D01*
G01*
X158268000Y-83208000D01*
G75*
G02*
X158193000Y-83133000I0J75000D01*
G01*
X158193000Y-82983000D01*
G75*
G02*
X158268000Y-82908000I75000J0D01*
G01*
X159568000Y-82908000D01*
G75*
G02*
X159643000Y-82983000I0J-75000D01*
G01*
G37*
G36*
G01*
X159643000Y-83483000D02*
X159643000Y-83633000D01*
G75*
G02*
X159568000Y-83708000I-75000J0D01*
G01*
X158268000Y-83708000D01*
G75*
G02*
X158193000Y-83633000I0J75000D01*
G01*
X158193000Y-83483000D01*
G75*
G02*
X158268000Y-83408000I75000J0D01*
G01*
X159568000Y-83408000D01*
G75*
G02*
X159643000Y-83483000I0J-75000D01*
G01*
G37*
G36*
G01*
X159643000Y-83983000D02*
X159643000Y-84133000D01*
G75*
G02*
X159568000Y-84208000I-75000J0D01*
G01*
X158268000Y-84208000D01*
G75*
G02*
X158193000Y-84133000I0J75000D01*
G01*
X158193000Y-83983000D01*
G75*
G02*
X158268000Y-83908000I75000J0D01*
G01*
X159568000Y-83908000D01*
G75*
G02*
X159643000Y-83983000I0J-75000D01*
G01*
G37*
G04 #@! TD*
G04 #@! TO.C,R6*
G36*
G01*
X144020250Y-84740000D02*
X143507750Y-84740000D01*
G75*
G02*
X143289000Y-84521250I0J218750D01*
G01*
X143289000Y-84083750D01*
G75*
G02*
X143507750Y-83865000I218750J0D01*
G01*
X144020250Y-83865000D01*
G75*
G02*
X144239000Y-84083750I0J-218750D01*
G01*
X144239000Y-84521250D01*
G75*
G02*
X144020250Y-84740000I-218750J0D01*
G01*
G37*
G36*
G01*
X144020250Y-86315000D02*
X143507750Y-86315000D01*
G75*
G02*
X143289000Y-86096250I0J218750D01*
G01*
X143289000Y-85658750D01*
G75*
G02*
X143507750Y-85440000I218750J0D01*
G01*
X144020250Y-85440000D01*
G75*
G02*
X144239000Y-85658750I0J-218750D01*
G01*
X144239000Y-86096250D01*
G75*
G02*
X144020250Y-86315000I-218750J0D01*
G01*
G37*
G04 #@! TD*
G04 #@! TO.C,R5*
G36*
G01*
X140210250Y-83470000D02*
X139697750Y-83470000D01*
G75*
G02*
X139479000Y-83251250I0J218750D01*
G01*
X139479000Y-82813750D01*
G75*
G02*
X139697750Y-82595000I218750J0D01*
G01*
X140210250Y-82595000D01*
G75*
G02*
X140429000Y-82813750I0J-218750D01*
G01*
X140429000Y-83251250D01*
G75*
G02*
X140210250Y-83470000I-218750J0D01*
G01*
G37*
G36*
G01*
X140210250Y-85045000D02*
X139697750Y-85045000D01*
G75*
G02*
X139479000Y-84826250I0J218750D01*
G01*
X139479000Y-84388750D01*
G75*
G02*
X139697750Y-84170000I218750J0D01*
G01*
X140210250Y-84170000D01*
G75*
G02*
X140429000Y-84388750I0J-218750D01*
G01*
X140429000Y-84826250D01*
G75*
G02*
X140210250Y-85045000I-218750J0D01*
G01*
G37*
G04 #@! TD*
G04 #@! TO.C,R3*
G36*
G01*
X155061500Y-86108250D02*
X155061500Y-85595750D01*
G75*
G02*
X155280250Y-85377000I218750J0D01*
G01*
X155717750Y-85377000D01*
G75*
G02*
X155936500Y-85595750I0J-218750D01*
G01*
X155936500Y-86108250D01*
G75*
G02*
X155717750Y-86327000I-218750J0D01*
G01*
X155280250Y-86327000D01*
G75*
G02*
X155061500Y-86108250I0J218750D01*
G01*
G37*
G36*
G01*
X153486500Y-86108250D02*
X153486500Y-85595750D01*
G75*
G02*
X153705250Y-85377000I218750J0D01*
G01*
X154142750Y-85377000D01*
G75*
G02*
X154361500Y-85595750I0J-218750D01*
G01*
X154361500Y-86108250D01*
G75*
G02*
X154142750Y-86327000I-218750J0D01*
G01*
X153705250Y-86327000D01*
G75*
G02*
X153486500Y-86108250I0J218750D01*
G01*
G37*
G04 #@! TD*
G04 #@! TO.C,R2*
G36*
G01*
X151381750Y-78074000D02*
X151894250Y-78074000D01*
G75*
G02*
X152113000Y-78292750I0J-218750D01*
G01*
X152113000Y-78730250D01*
G75*
G02*
X151894250Y-78949000I-218750J0D01*
G01*
X151381750Y-78949000D01*
G75*
G02*
X151163000Y-78730250I0J218750D01*
G01*
X151163000Y-78292750D01*
G75*
G02*
X151381750Y-78074000I218750J0D01*
G01*
G37*
G36*
G01*
X151381750Y-76499000D02*
X151894250Y-76499000D01*
G75*
G02*
X152113000Y-76717750I0J-218750D01*
G01*
X152113000Y-77155250D01*
G75*
G02*
X151894250Y-77374000I-218750J0D01*
G01*
X151381750Y-77374000D01*
G75*
G02*
X151163000Y-77155250I0J218750D01*
G01*
X151163000Y-76717750D01*
G75*
G02*
X151381750Y-76499000I218750J0D01*
G01*
G37*
G04 #@! TD*
G04 #@! TO.C,R1*
G36*
G01*
X151894250Y-74072000D02*
X151381750Y-74072000D01*
G75*
G02*
X151163000Y-73853250I0J218750D01*
G01*
X151163000Y-73415750D01*
G75*
G02*
X151381750Y-73197000I218750J0D01*
G01*
X151894250Y-73197000D01*
G75*
G02*
X152113000Y-73415750I0J-218750D01*
G01*
X152113000Y-73853250D01*
G75*
G02*
X151894250Y-74072000I-218750J0D01*
G01*
G37*
G36*
G01*
X151894250Y-75647000D02*
X151381750Y-75647000D01*
G75*
G02*
X151163000Y-75428250I0J218750D01*
G01*
X151163000Y-74990750D01*
G75*
G02*
X151381750Y-74772000I218750J0D01*
G01*
X151894250Y-74772000D01*
G75*
G02*
X152113000Y-74990750I0J-218750D01*
G01*
X152113000Y-75428250D01*
G75*
G02*
X151894250Y-75647000I-218750J0D01*
G01*
G37*
G04 #@! TD*
G04 #@! TO.C,FB2*
G36*
G01*
X140266000Y-78283750D02*
X140266000Y-79196250D01*
G75*
G02*
X140022250Y-79440000I-243750J0D01*
G01*
X139534750Y-79440000D01*
G75*
G02*
X139291000Y-79196250I0J243750D01*
G01*
X139291000Y-78283750D01*
G75*
G02*
X139534750Y-78040000I243750J0D01*
G01*
X140022250Y-78040000D01*
G75*
G02*
X140266000Y-78283750I0J-243750D01*
G01*
G37*
G36*
G01*
X142141000Y-78283750D02*
X142141000Y-79196250D01*
G75*
G02*
X141897250Y-79440000I-243750J0D01*
G01*
X141409750Y-79440000D01*
G75*
G02*
X141166000Y-79196250I0J243750D01*
G01*
X141166000Y-78283750D01*
G75*
G02*
X141409750Y-78040000I243750J0D01*
G01*
X141897250Y-78040000D01*
G75*
G02*
X142141000Y-78283750I0J-243750D01*
G01*
G37*
G04 #@! TD*
G04 #@! TO.C,FB1*
G36*
G01*
X140266000Y-80569750D02*
X140266000Y-81482250D01*
G75*
G02*
X140022250Y-81726000I-243750J0D01*
G01*
X139534750Y-81726000D01*
G75*
G02*
X139291000Y-81482250I0J243750D01*
G01*
X139291000Y-80569750D01*
G75*
G02*
X139534750Y-80326000I243750J0D01*
G01*
X140022250Y-80326000D01*
G75*
G02*
X140266000Y-80569750I0J-243750D01*
G01*
G37*
G36*
G01*
X142141000Y-80569750D02*
X142141000Y-81482250D01*
G75*
G02*
X141897250Y-81726000I-243750J0D01*
G01*
X141409750Y-81726000D01*
G75*
G02*
X141166000Y-81482250I0J243750D01*
G01*
X141166000Y-80569750D01*
G75*
G02*
X141409750Y-80326000I243750J0D01*
G01*
X141897250Y-80326000D01*
G75*
G02*
X142141000Y-80569750I0J-243750D01*
G01*
G37*
G04 #@! TD*
G04 #@! TO.C,C6*
G36*
G01*
X141729750Y-85440000D02*
X142242250Y-85440000D01*
G75*
G02*
X142461000Y-85658750I0J-218750D01*
G01*
X142461000Y-86096250D01*
G75*
G02*
X142242250Y-86315000I-218750J0D01*
G01*
X141729750Y-86315000D01*
G75*
G02*
X141511000Y-86096250I0J218750D01*
G01*
X141511000Y-85658750D01*
G75*
G02*
X141729750Y-85440000I218750J0D01*
G01*
G37*
G36*
G01*
X141729750Y-83865000D02*
X142242250Y-83865000D01*
G75*
G02*
X142461000Y-84083750I0J-218750D01*
G01*
X142461000Y-84521250D01*
G75*
G02*
X142242250Y-84740000I-218750J0D01*
G01*
X141729750Y-84740000D01*
G75*
G02*
X141511000Y-84521250I0J218750D01*
G01*
X141511000Y-84083750D01*
G75*
G02*
X141729750Y-83865000I218750J0D01*
G01*
G37*
G04 #@! TD*
G04 #@! TO.C,C5*
G36*
G01*
X136716000Y-75519500D02*
X136716000Y-75864500D01*
G75*
G02*
X136568500Y-76012000I-147500J0D01*
G01*
X136273500Y-76012000D01*
G75*
G02*
X136126000Y-75864500I0J147500D01*
G01*
X136126000Y-75519500D01*
G75*
G02*
X136273500Y-75372000I147500J0D01*
G01*
X136568500Y-75372000D01*
G75*
G02*
X136716000Y-75519500I0J-147500D01*
G01*
G37*
G36*
G01*
X137686000Y-75519500D02*
X137686000Y-75864500D01*
G75*
G02*
X137538500Y-76012000I-147500J0D01*
G01*
X137243500Y-76012000D01*
G75*
G02*
X137096000Y-75864500I0J147500D01*
G01*
X137096000Y-75519500D01*
G75*
G02*
X137243500Y-75372000I147500J0D01*
G01*
X137538500Y-75372000D01*
G75*
G02*
X137686000Y-75519500I0J-147500D01*
G01*
G37*
G04 #@! TD*
G04 #@! TO.C,C3*
G36*
G01*
X134556000Y-74848500D02*
X134556000Y-74503500D01*
G75*
G02*
X134703500Y-74356000I147500J0D01*
G01*
X134998500Y-74356000D01*
G75*
G02*
X135146000Y-74503500I0J-147500D01*
G01*
X135146000Y-74848500D01*
G75*
G02*
X134998500Y-74996000I-147500J0D01*
G01*
X134703500Y-74996000D01*
G75*
G02*
X134556000Y-74848500I0J147500D01*
G01*
G37*
G36*
G01*
X133586000Y-74848500D02*
X133586000Y-74503500D01*
G75*
G02*
X133733500Y-74356000I147500J0D01*
G01*
X134028500Y-74356000D01*
G75*
G02*
X134176000Y-74503500I0J-147500D01*
G01*
X134176000Y-74848500D01*
G75*
G02*
X134028500Y-74996000I-147500J0D01*
G01*
X133733500Y-74996000D01*
G75*
G02*
X133586000Y-74848500I0J147500D01*
G01*
G37*
G04 #@! TD*
G04 #@! TO.C,C2*
G36*
G01*
X147179000Y-73823001D02*
X147179000Y-71972999D01*
G75*
G02*
X147428999Y-71723000I249999J0D01*
G01*
X148254001Y-71723000D01*
G75*
G02*
X148504000Y-71972999I0J-249999D01*
G01*
X148504000Y-73823001D01*
G75*
G02*
X148254001Y-74073000I-249999J0D01*
G01*
X147428999Y-74073000D01*
G75*
G02*
X147179000Y-73823001I0J249999D01*
G01*
G37*
G36*
G01*
X144104000Y-73823001D02*
X144104000Y-71972999D01*
G75*
G02*
X144353999Y-71723000I249999J0D01*
G01*
X145179001Y-71723000D01*
G75*
G02*
X145429000Y-71972999I0J-249999D01*
G01*
X145429000Y-73823001D01*
G75*
G02*
X145179001Y-74073000I-249999J0D01*
G01*
X144353999Y-74073000D01*
G75*
G02*
X144104000Y-73823001I0J249999D01*
G01*
G37*
G04 #@! TD*
G04 #@! TO.C,C1*
G36*
G01*
X142176000Y-82976500D02*
X142176000Y-82631500D01*
G75*
G02*
X142323500Y-82484000I147500J0D01*
G01*
X142618500Y-82484000D01*
G75*
G02*
X142766000Y-82631500I0J-147500D01*
G01*
X142766000Y-82976500D01*
G75*
G02*
X142618500Y-83124000I-147500J0D01*
G01*
X142323500Y-83124000D01*
G75*
G02*
X142176000Y-82976500I0J147500D01*
G01*
G37*
G36*
G01*
X141206000Y-82976500D02*
X141206000Y-82631500D01*
G75*
G02*
X141353500Y-82484000I147500J0D01*
G01*
X141648500Y-82484000D01*
G75*
G02*
X141796000Y-82631500I0J-147500D01*
G01*
X141796000Y-82976500D01*
G75*
G02*
X141648500Y-83124000I-147500J0D01*
G01*
X141353500Y-83124000D01*
G75*
G02*
X141206000Y-82976500I0J147500D01*
G01*
G37*
G04 #@! TD*
D15*
G04 #@! TO.C,RST1*
X140309996Y-87253999D03*
X134009999Y-87253999D03*
X140309996Y-91053996D03*
X134009999Y-91053996D03*
G04 #@! TD*
M02*
