G04 #@! TF.GenerationSoftware,KiCad,Pcbnew,5.1.6+dfsg1-1*
G04 #@! TF.CreationDate,2021-03-01T10:48:13-07:00*
G04 #@! TF.ProjectId,CurrentSensorV1,43757272-656e-4745-9365-6e736f725631,rev?*
G04 #@! TF.SameCoordinates,Original*
G04 #@! TF.FileFunction,Copper,L1,Top*
G04 #@! TF.FilePolarity,Positive*
%FSLAX46Y46*%
G04 Gerber Fmt 4.6, Leading zero omitted, Abs format (unit mm)*
G04 Created by KiCad (PCBNEW 5.1.6+dfsg1-1) date 2021-03-01 10:48:13*
%MOMM*%
%LPD*%
G01*
G04 APERTURE LIST*
G04 #@! TA.AperFunction,ComponentPad*
%ADD10O,1.250000X1.050000*%
G04 #@! TD*
G04 #@! TA.AperFunction,SMDPad,CuDef*
%ADD11R,0.100000X0.500000*%
G04 #@! TD*
G04 #@! TA.AperFunction,ComponentPad*
%ADD12O,1.900000X1.200000*%
G04 #@! TD*
G04 #@! TA.AperFunction,SMDPad,CuDef*
%ADD13R,1.900000X1.260000*%
G04 #@! TD*
G04 #@! TA.AperFunction,SMDPad,CuDef*
%ADD14R,1.900000X1.800000*%
G04 #@! TD*
G04 #@! TA.AperFunction,SMDPad,CuDef*
%ADD15R,1.778000X0.400050*%
G04 #@! TD*
G04 #@! TA.AperFunction,ComponentPad*
%ADD16O,1.700000X1.700000*%
G04 #@! TD*
G04 #@! TA.AperFunction,ComponentPad*
%ADD17R,1.700000X1.700000*%
G04 #@! TD*
G04 #@! TA.AperFunction,ComponentPad*
%ADD18O,1.727200X1.727200*%
G04 #@! TD*
G04 #@! TA.AperFunction,ComponentPad*
%ADD19R,1.727200X1.727200*%
G04 #@! TD*
G04 #@! TA.AperFunction,ComponentPad*
%ADD20O,3.500000X1.750000*%
G04 #@! TD*
G04 #@! TA.AperFunction,ComponentPad*
%ADD21R,2.500000X3.500000*%
G04 #@! TD*
G04 #@! TA.AperFunction,SMDPad,CuDef*
%ADD22R,1.200000X0.900000*%
G04 #@! TD*
G04 #@! TA.AperFunction,SMDPad,CuDef*
%ADD23R,1.699999X1.000001*%
G04 #@! TD*
G04 #@! TA.AperFunction,SMDPad,CuDef*
%ADD24R,1.500000X2.000000*%
G04 #@! TD*
G04 #@! TA.AperFunction,SMDPad,CuDef*
%ADD25R,3.800000X2.000000*%
G04 #@! TD*
G04 #@! TA.AperFunction,ViaPad*
%ADD26C,0.800000*%
G04 #@! TD*
G04 #@! TA.AperFunction,Conductor*
%ADD27C,0.400000*%
G04 #@! TD*
G04 #@! TA.AperFunction,Conductor*
%ADD28C,0.250000*%
G04 #@! TD*
G04 #@! TA.AperFunction,Conductor*
%ADD29C,0.254000*%
G04 #@! TD*
G04 APERTURE END LIST*
D10*
G04 #@! TO.P,J1,SH*
G04 #@! TO.N,N/C*
X137231000Y-78801000D03*
D11*
X133331000Y-77136000D03*
X135131000Y-77136000D03*
D12*
X134231000Y-76851000D03*
D13*
X134231000Y-77786000D03*
D11*
X133331000Y-84926000D03*
D14*
X134231000Y-82301000D03*
D15*
G04 #@! TO.P,J1,1*
G04 #@! TO.N,VBUS*
X137109200Y-79726000D03*
G04 #@! TO.P,J1,5*
G04 #@! TO.N,ADDR*
X137109200Y-82326000D03*
D14*
G04 #@! TO.P,J1,SH*
G04 #@! TO.N,N/C*
X134231000Y-79751000D03*
D12*
X134231000Y-85201000D03*
D13*
X134231000Y-84266000D03*
D11*
X135131000Y-84916000D03*
D10*
X137231000Y-83251000D03*
G04 #@! TD*
G04 #@! TO.P,C4,2*
G04 #@! TO.N,ADDR*
G04 #@! TA.AperFunction,SMDPad,CuDef*
G36*
G01*
X140542000Y-70650000D02*
X140542000Y-69050000D01*
G75*
G02*
X140792000Y-68800000I250000J0D01*
G01*
X144792000Y-68800000D01*
G75*
G02*
X145042000Y-69050000I0J-250000D01*
G01*
X145042000Y-70650000D01*
G75*
G02*
X144792000Y-70900000I-250000J0D01*
G01*
X140792000Y-70900000D01*
G75*
G02*
X140542000Y-70650000I0J250000D01*
G01*
G37*
G04 #@! TD.AperFunction*
G04 #@! TO.P,C4,1*
G04 #@! TO.N,+3V3*
G04 #@! TA.AperFunction,SMDPad,CuDef*
G36*
G01*
X133342000Y-70650000D02*
X133342000Y-69050000D01*
G75*
G02*
X133592000Y-68800000I250000J0D01*
G01*
X137592000Y-68800000D01*
G75*
G02*
X137842000Y-69050000I0J-250000D01*
G01*
X137842000Y-70650000D01*
G75*
G02*
X137592000Y-70900000I-250000J0D01*
G01*
X133592000Y-70900000D01*
G75*
G02*
X133342000Y-70650000I0J250000D01*
G01*
G37*
G04 #@! TD.AperFunction*
G04 #@! TD*
D16*
G04 #@! TO.P,J6,2*
G04 #@! TO.N,AIN0*
X159258000Y-89916000D03*
D17*
G04 #@! TO.P,J6,1*
G04 #@! TO.N,AIN1*
X159258000Y-87376000D03*
G04 #@! TD*
D18*
G04 #@! TO.P,U2,8*
G04 #@! TO.N,FTDI_TX*
X148844000Y-83820000D03*
G04 #@! TO.P,U2,7*
G04 #@! TO.N,+3V3*
X146304000Y-83820000D03*
G04 #@! TO.P,U2,6*
G04 #@! TO.N,SDA*
X148844000Y-81280000D03*
G04 #@! TO.P,U2,5*
G04 #@! TO.N,RST*
X146304000Y-81280000D03*
G04 #@! TO.P,U2,4*
G04 #@! TO.N,SCL*
X148844000Y-78740000D03*
G04 #@! TO.P,U2,3*
G04 #@! TO.N,+3V3*
X146304000Y-78740000D03*
G04 #@! TO.P,U2,2*
G04 #@! TO.N,ADDR*
X148844000Y-76200000D03*
D19*
G04 #@! TO.P,U2,1*
G04 #@! TO.N,FTDI_RX*
X146304000Y-76200000D03*
G04 #@! TD*
D17*
G04 #@! TO.P,TP2,1*
G04 #@! TO.N,+3V3*
X156718000Y-76352000D03*
G04 #@! TD*
D20*
G04 #@! TO.P,J8,5*
G04 #@! TO.N,N/C*
X163214000Y-69636000D03*
G04 #@! TO.P,J8,4*
X163214000Y-74636000D03*
G04 #@! TO.P,J8,3*
G04 #@! TO.N,AIN3*
X163214000Y-67136000D03*
G04 #@! TO.P,J8,2*
G04 #@! TO.N,Net-(J8-Pad2)*
X163214000Y-77136000D03*
D21*
G04 #@! TO.P,J8,1*
G04 #@! TO.N,AIN2*
X168220000Y-72136000D03*
G04 #@! TD*
D20*
G04 #@! TO.P,J3,5*
G04 #@! TO.N,N/C*
X163214000Y-82844000D03*
G04 #@! TO.P,J3,4*
X163214000Y-87844000D03*
G04 #@! TO.P,J3,3*
G04 #@! TO.N,AIN1*
X163214000Y-80344000D03*
G04 #@! TO.P,J3,2*
G04 #@! TO.N,Net-(J3-Pad2)*
X163214000Y-90344000D03*
D21*
G04 #@! TO.P,J3,1*
G04 #@! TO.N,AIN0*
X168220000Y-85344000D03*
G04 #@! TD*
D22*
G04 #@! TO.P,D1,2*
G04 #@! TO.N,RST*
X143764000Y-81406000D03*
G04 #@! TO.P,D1,1*
G04 #@! TO.N,+3V3*
X143764000Y-78106000D03*
G04 #@! TD*
D23*
G04 #@! TO.P,FLASH1,4*
G04 #@! TO.N,SDA*
X154787996Y-66425999D03*
G04 #@! TO.P,FLASH1,3*
X148487999Y-66425999D03*
G04 #@! TO.P,FLASH1,2*
G04 #@! TO.N,ADDR*
X154787996Y-70225996D03*
G04 #@! TO.P,FLASH1,1*
X148487999Y-70225996D03*
G04 #@! TD*
D24*
G04 #@! TO.P,U3,1*
G04 #@! TO.N,ADDR*
X159018000Y-73202000D03*
G04 #@! TO.P,U3,3*
G04 #@! TO.N,VBUS*
X154418000Y-73202000D03*
G04 #@! TO.P,U3,2*
G04 #@! TO.N,+3V3*
X156718000Y-73202000D03*
D25*
X156718000Y-79502000D03*
G04 #@! TD*
G04 #@! TO.P,U1,10*
G04 #@! TO.N,SCL*
G04 #@! TA.AperFunction,SMDPad,CuDef*
G36*
G01*
X155243000Y-83983000D02*
X155243000Y-84133000D01*
G75*
G02*
X155168000Y-84208000I-75000J0D01*
G01*
X153868000Y-84208000D01*
G75*
G02*
X153793000Y-84133000I0J75000D01*
G01*
X153793000Y-83983000D01*
G75*
G02*
X153868000Y-83908000I75000J0D01*
G01*
X155168000Y-83908000D01*
G75*
G02*
X155243000Y-83983000I0J-75000D01*
G01*
G37*
G04 #@! TD.AperFunction*
G04 #@! TO.P,U1,9*
G04 #@! TO.N,SDA*
G04 #@! TA.AperFunction,SMDPad,CuDef*
G36*
G01*
X155243000Y-83483000D02*
X155243000Y-83633000D01*
G75*
G02*
X155168000Y-83708000I-75000J0D01*
G01*
X153868000Y-83708000D01*
G75*
G02*
X153793000Y-83633000I0J75000D01*
G01*
X153793000Y-83483000D01*
G75*
G02*
X153868000Y-83408000I75000J0D01*
G01*
X155168000Y-83408000D01*
G75*
G02*
X155243000Y-83483000I0J-75000D01*
G01*
G37*
G04 #@! TD.AperFunction*
G04 #@! TO.P,U1,8*
G04 #@! TO.N,+3V3*
G04 #@! TA.AperFunction,SMDPad,CuDef*
G36*
G01*
X155243000Y-82983000D02*
X155243000Y-83133000D01*
G75*
G02*
X155168000Y-83208000I-75000J0D01*
G01*
X153868000Y-83208000D01*
G75*
G02*
X153793000Y-83133000I0J75000D01*
G01*
X153793000Y-82983000D01*
G75*
G02*
X153868000Y-82908000I75000J0D01*
G01*
X155168000Y-82908000D01*
G75*
G02*
X155243000Y-82983000I0J-75000D01*
G01*
G37*
G04 #@! TD.AperFunction*
G04 #@! TO.P,U1,7*
G04 #@! TO.N,AIN3*
G04 #@! TA.AperFunction,SMDPad,CuDef*
G36*
G01*
X155243000Y-82483000D02*
X155243000Y-82633000D01*
G75*
G02*
X155168000Y-82708000I-75000J0D01*
G01*
X153868000Y-82708000D01*
G75*
G02*
X153793000Y-82633000I0J75000D01*
G01*
X153793000Y-82483000D01*
G75*
G02*
X153868000Y-82408000I75000J0D01*
G01*
X155168000Y-82408000D01*
G75*
G02*
X155243000Y-82483000I0J-75000D01*
G01*
G37*
G04 #@! TD.AperFunction*
G04 #@! TO.P,U1,6*
G04 #@! TO.N,AIN2*
G04 #@! TA.AperFunction,SMDPad,CuDef*
G36*
G01*
X155243000Y-81983000D02*
X155243000Y-82133000D01*
G75*
G02*
X155168000Y-82208000I-75000J0D01*
G01*
X153868000Y-82208000D01*
G75*
G02*
X153793000Y-82133000I0J75000D01*
G01*
X153793000Y-81983000D01*
G75*
G02*
X153868000Y-81908000I75000J0D01*
G01*
X155168000Y-81908000D01*
G75*
G02*
X155243000Y-81983000I0J-75000D01*
G01*
G37*
G04 #@! TD.AperFunction*
G04 #@! TO.P,U1,5*
G04 #@! TO.N,AIN1*
G04 #@! TA.AperFunction,SMDPad,CuDef*
G36*
G01*
X159643000Y-81983000D02*
X159643000Y-82133000D01*
G75*
G02*
X159568000Y-82208000I-75000J0D01*
G01*
X158268000Y-82208000D01*
G75*
G02*
X158193000Y-82133000I0J75000D01*
G01*
X158193000Y-81983000D01*
G75*
G02*
X158268000Y-81908000I75000J0D01*
G01*
X159568000Y-81908000D01*
G75*
G02*
X159643000Y-81983000I0J-75000D01*
G01*
G37*
G04 #@! TD.AperFunction*
G04 #@! TO.P,U1,4*
G04 #@! TO.N,AIN0*
G04 #@! TA.AperFunction,SMDPad,CuDef*
G36*
G01*
X159643000Y-82483000D02*
X159643000Y-82633000D01*
G75*
G02*
X159568000Y-82708000I-75000J0D01*
G01*
X158268000Y-82708000D01*
G75*
G02*
X158193000Y-82633000I0J75000D01*
G01*
X158193000Y-82483000D01*
G75*
G02*
X158268000Y-82408000I75000J0D01*
G01*
X159568000Y-82408000D01*
G75*
G02*
X159643000Y-82483000I0J-75000D01*
G01*
G37*
G04 #@! TD.AperFunction*
G04 #@! TO.P,U1,3*
G04 #@! TO.N,ADDR*
G04 #@! TA.AperFunction,SMDPad,CuDef*
G36*
G01*
X159643000Y-82983000D02*
X159643000Y-83133000D01*
G75*
G02*
X159568000Y-83208000I-75000J0D01*
G01*
X158268000Y-83208000D01*
G75*
G02*
X158193000Y-83133000I0J75000D01*
G01*
X158193000Y-82983000D01*
G75*
G02*
X158268000Y-82908000I75000J0D01*
G01*
X159568000Y-82908000D01*
G75*
G02*
X159643000Y-82983000I0J-75000D01*
G01*
G37*
G04 #@! TD.AperFunction*
G04 #@! TO.P,U1,2*
G04 #@! TO.N,/ALERT*
G04 #@! TA.AperFunction,SMDPad,CuDef*
G36*
G01*
X159643000Y-83483000D02*
X159643000Y-83633000D01*
G75*
G02*
X159568000Y-83708000I-75000J0D01*
G01*
X158268000Y-83708000D01*
G75*
G02*
X158193000Y-83633000I0J75000D01*
G01*
X158193000Y-83483000D01*
G75*
G02*
X158268000Y-83408000I75000J0D01*
G01*
X159568000Y-83408000D01*
G75*
G02*
X159643000Y-83483000I0J-75000D01*
G01*
G37*
G04 #@! TD.AperFunction*
G04 #@! TO.P,U1,1*
G04 #@! TO.N,ADDR*
G04 #@! TA.AperFunction,SMDPad,CuDef*
G36*
G01*
X159643000Y-83983000D02*
X159643000Y-84133000D01*
G75*
G02*
X159568000Y-84208000I-75000J0D01*
G01*
X158268000Y-84208000D01*
G75*
G02*
X158193000Y-84133000I0J75000D01*
G01*
X158193000Y-83983000D01*
G75*
G02*
X158268000Y-83908000I75000J0D01*
G01*
X159568000Y-83908000D01*
G75*
G02*
X159643000Y-83983000I0J-75000D01*
G01*
G37*
G04 #@! TD.AperFunction*
G04 #@! TD*
D17*
G04 #@! TO.P,TP3,1*
G04 #@! TO.N,ADDR*
X145542000Y-67056000D03*
G04 #@! TD*
G04 #@! TO.P,R6,2*
G04 #@! TO.N,RST*
G04 #@! TA.AperFunction,SMDPad,CuDef*
G36*
G01*
X144020250Y-84740000D02*
X143507750Y-84740000D01*
G75*
G02*
X143289000Y-84521250I0J218750D01*
G01*
X143289000Y-84083750D01*
G75*
G02*
X143507750Y-83865000I218750J0D01*
G01*
X144020250Y-83865000D01*
G75*
G02*
X144239000Y-84083750I0J-218750D01*
G01*
X144239000Y-84521250D01*
G75*
G02*
X144020250Y-84740000I-218750J0D01*
G01*
G37*
G04 #@! TD.AperFunction*
G04 #@! TO.P,R6,1*
G04 #@! TO.N,+3V3*
G04 #@! TA.AperFunction,SMDPad,CuDef*
G36*
G01*
X144020250Y-86315000D02*
X143507750Y-86315000D01*
G75*
G02*
X143289000Y-86096250I0J218750D01*
G01*
X143289000Y-85658750D01*
G75*
G02*
X143507750Y-85440000I218750J0D01*
G01*
X144020250Y-85440000D01*
G75*
G02*
X144239000Y-85658750I0J-218750D01*
G01*
X144239000Y-86096250D01*
G75*
G02*
X144020250Y-86315000I-218750J0D01*
G01*
G37*
G04 #@! TD.AperFunction*
G04 #@! TD*
G04 #@! TO.P,R5,2*
G04 #@! TO.N,Net-(C6-Pad2)*
G04 #@! TA.AperFunction,SMDPad,CuDef*
G36*
G01*
X140210250Y-83470000D02*
X139697750Y-83470000D01*
G75*
G02*
X139479000Y-83251250I0J218750D01*
G01*
X139479000Y-82813750D01*
G75*
G02*
X139697750Y-82595000I218750J0D01*
G01*
X140210250Y-82595000D01*
G75*
G02*
X140429000Y-82813750I0J-218750D01*
G01*
X140429000Y-83251250D01*
G75*
G02*
X140210250Y-83470000I-218750J0D01*
G01*
G37*
G04 #@! TD.AperFunction*
G04 #@! TO.P,R5,1*
G04 #@! TO.N,ADDR*
G04 #@! TA.AperFunction,SMDPad,CuDef*
G36*
G01*
X140210250Y-85045000D02*
X139697750Y-85045000D01*
G75*
G02*
X139479000Y-84826250I0J218750D01*
G01*
X139479000Y-84388750D01*
G75*
G02*
X139697750Y-84170000I218750J0D01*
G01*
X140210250Y-84170000D01*
G75*
G02*
X140429000Y-84388750I0J-218750D01*
G01*
X140429000Y-84826250D01*
G75*
G02*
X140210250Y-85045000I-218750J0D01*
G01*
G37*
G04 #@! TD.AperFunction*
G04 #@! TD*
G04 #@! TO.P,R3,2*
G04 #@! TO.N,/ALERT*
G04 #@! TA.AperFunction,SMDPad,CuDef*
G36*
G01*
X155061500Y-86108250D02*
X155061500Y-85595750D01*
G75*
G02*
X155280250Y-85377000I218750J0D01*
G01*
X155717750Y-85377000D01*
G75*
G02*
X155936500Y-85595750I0J-218750D01*
G01*
X155936500Y-86108250D01*
G75*
G02*
X155717750Y-86327000I-218750J0D01*
G01*
X155280250Y-86327000D01*
G75*
G02*
X155061500Y-86108250I0J218750D01*
G01*
G37*
G04 #@! TD.AperFunction*
G04 #@! TO.P,R3,1*
G04 #@! TO.N,ADDR*
G04 #@! TA.AperFunction,SMDPad,CuDef*
G36*
G01*
X153486500Y-86108250D02*
X153486500Y-85595750D01*
G75*
G02*
X153705250Y-85377000I218750J0D01*
G01*
X154142750Y-85377000D01*
G75*
G02*
X154361500Y-85595750I0J-218750D01*
G01*
X154361500Y-86108250D01*
G75*
G02*
X154142750Y-86327000I-218750J0D01*
G01*
X153705250Y-86327000D01*
G75*
G02*
X153486500Y-86108250I0J218750D01*
G01*
G37*
G04 #@! TD.AperFunction*
G04 #@! TD*
G04 #@! TO.P,R2,2*
G04 #@! TO.N,SDA*
G04 #@! TA.AperFunction,SMDPad,CuDef*
G36*
G01*
X151381750Y-78074000D02*
X151894250Y-78074000D01*
G75*
G02*
X152113000Y-78292750I0J-218750D01*
G01*
X152113000Y-78730250D01*
G75*
G02*
X151894250Y-78949000I-218750J0D01*
G01*
X151381750Y-78949000D01*
G75*
G02*
X151163000Y-78730250I0J218750D01*
G01*
X151163000Y-78292750D01*
G75*
G02*
X151381750Y-78074000I218750J0D01*
G01*
G37*
G04 #@! TD.AperFunction*
G04 #@! TO.P,R2,1*
G04 #@! TO.N,+3V3*
G04 #@! TA.AperFunction,SMDPad,CuDef*
G36*
G01*
X151381750Y-76499000D02*
X151894250Y-76499000D01*
G75*
G02*
X152113000Y-76717750I0J-218750D01*
G01*
X152113000Y-77155250D01*
G75*
G02*
X151894250Y-77374000I-218750J0D01*
G01*
X151381750Y-77374000D01*
G75*
G02*
X151163000Y-77155250I0J218750D01*
G01*
X151163000Y-76717750D01*
G75*
G02*
X151381750Y-76499000I218750J0D01*
G01*
G37*
G04 #@! TD.AperFunction*
G04 #@! TD*
G04 #@! TO.P,R1,2*
G04 #@! TO.N,SCL*
G04 #@! TA.AperFunction,SMDPad,CuDef*
G36*
G01*
X151894250Y-74072000D02*
X151381750Y-74072000D01*
G75*
G02*
X151163000Y-73853250I0J218750D01*
G01*
X151163000Y-73415750D01*
G75*
G02*
X151381750Y-73197000I218750J0D01*
G01*
X151894250Y-73197000D01*
G75*
G02*
X152113000Y-73415750I0J-218750D01*
G01*
X152113000Y-73853250D01*
G75*
G02*
X151894250Y-74072000I-218750J0D01*
G01*
G37*
G04 #@! TD.AperFunction*
G04 #@! TO.P,R1,1*
G04 #@! TO.N,+3V3*
G04 #@! TA.AperFunction,SMDPad,CuDef*
G36*
G01*
X151894250Y-75647000D02*
X151381750Y-75647000D01*
G75*
G02*
X151163000Y-75428250I0J218750D01*
G01*
X151163000Y-74990750D01*
G75*
G02*
X151381750Y-74772000I218750J0D01*
G01*
X151894250Y-74772000D01*
G75*
G02*
X152113000Y-74990750I0J-218750D01*
G01*
X152113000Y-75428250D01*
G75*
G02*
X151894250Y-75647000I-218750J0D01*
G01*
G37*
G04 #@! TD.AperFunction*
G04 #@! TD*
G04 #@! TO.P,FB2,2*
G04 #@! TO.N,VBUS*
G04 #@! TA.AperFunction,SMDPad,CuDef*
G36*
G01*
X140266000Y-78283750D02*
X140266000Y-79196250D01*
G75*
G02*
X140022250Y-79440000I-243750J0D01*
G01*
X139534750Y-79440000D01*
G75*
G02*
X139291000Y-79196250I0J243750D01*
G01*
X139291000Y-78283750D01*
G75*
G02*
X139534750Y-78040000I243750J0D01*
G01*
X140022250Y-78040000D01*
G75*
G02*
X140266000Y-78283750I0J-243750D01*
G01*
G37*
G04 #@! TD.AperFunction*
G04 #@! TO.P,FB2,1*
G04 #@! TO.N,Net-(C1-Pad1)*
G04 #@! TA.AperFunction,SMDPad,CuDef*
G36*
G01*
X142141000Y-78283750D02*
X142141000Y-79196250D01*
G75*
G02*
X141897250Y-79440000I-243750J0D01*
G01*
X141409750Y-79440000D01*
G75*
G02*
X141166000Y-79196250I0J243750D01*
G01*
X141166000Y-78283750D01*
G75*
G02*
X141409750Y-78040000I243750J0D01*
G01*
X141897250Y-78040000D01*
G75*
G02*
X142141000Y-78283750I0J-243750D01*
G01*
G37*
G04 #@! TD.AperFunction*
G04 #@! TD*
G04 #@! TO.P,FB1,2*
G04 #@! TO.N,ADDR*
G04 #@! TA.AperFunction,SMDPad,CuDef*
G36*
G01*
X140266000Y-80569750D02*
X140266000Y-81482250D01*
G75*
G02*
X140022250Y-81726000I-243750J0D01*
G01*
X139534750Y-81726000D01*
G75*
G02*
X139291000Y-81482250I0J243750D01*
G01*
X139291000Y-80569750D01*
G75*
G02*
X139534750Y-80326000I243750J0D01*
G01*
X140022250Y-80326000D01*
G75*
G02*
X140266000Y-80569750I0J-243750D01*
G01*
G37*
G04 #@! TD.AperFunction*
G04 #@! TO.P,FB1,1*
G04 #@! TO.N,Net-(C1-Pad2)*
G04 #@! TA.AperFunction,SMDPad,CuDef*
G36*
G01*
X142141000Y-80569750D02*
X142141000Y-81482250D01*
G75*
G02*
X141897250Y-81726000I-243750J0D01*
G01*
X141409750Y-81726000D01*
G75*
G02*
X141166000Y-81482250I0J243750D01*
G01*
X141166000Y-80569750D01*
G75*
G02*
X141409750Y-80326000I243750J0D01*
G01*
X141897250Y-80326000D01*
G75*
G02*
X142141000Y-80569750I0J-243750D01*
G01*
G37*
G04 #@! TD.AperFunction*
G04 #@! TD*
G04 #@! TO.P,C6,2*
G04 #@! TO.N,Net-(C6-Pad2)*
G04 #@! TA.AperFunction,SMDPad,CuDef*
G36*
G01*
X141729750Y-85440000D02*
X142242250Y-85440000D01*
G75*
G02*
X142461000Y-85658750I0J-218750D01*
G01*
X142461000Y-86096250D01*
G75*
G02*
X142242250Y-86315000I-218750J0D01*
G01*
X141729750Y-86315000D01*
G75*
G02*
X141511000Y-86096250I0J218750D01*
G01*
X141511000Y-85658750D01*
G75*
G02*
X141729750Y-85440000I218750J0D01*
G01*
G37*
G04 #@! TD.AperFunction*
G04 #@! TO.P,C6,1*
G04 #@! TO.N,RST*
G04 #@! TA.AperFunction,SMDPad,CuDef*
G36*
G01*
X141729750Y-83865000D02*
X142242250Y-83865000D01*
G75*
G02*
X142461000Y-84083750I0J-218750D01*
G01*
X142461000Y-84521250D01*
G75*
G02*
X142242250Y-84740000I-218750J0D01*
G01*
X141729750Y-84740000D01*
G75*
G02*
X141511000Y-84521250I0J218750D01*
G01*
X141511000Y-84083750D01*
G75*
G02*
X141729750Y-83865000I218750J0D01*
G01*
G37*
G04 #@! TD.AperFunction*
G04 #@! TD*
G04 #@! TO.P,C5,2*
G04 #@! TO.N,+3V3*
G04 #@! TA.AperFunction,SMDPad,CuDef*
G36*
G01*
X136716000Y-75519500D02*
X136716000Y-75864500D01*
G75*
G02*
X136568500Y-76012000I-147500J0D01*
G01*
X136273500Y-76012000D01*
G75*
G02*
X136126000Y-75864500I0J147500D01*
G01*
X136126000Y-75519500D01*
G75*
G02*
X136273500Y-75372000I147500J0D01*
G01*
X136568500Y-75372000D01*
G75*
G02*
X136716000Y-75519500I0J-147500D01*
G01*
G37*
G04 #@! TD.AperFunction*
G04 #@! TO.P,C5,1*
G04 #@! TO.N,ADDR*
G04 #@! TA.AperFunction,SMDPad,CuDef*
G36*
G01*
X137686000Y-75519500D02*
X137686000Y-75864500D01*
G75*
G02*
X137538500Y-76012000I-147500J0D01*
G01*
X137243500Y-76012000D01*
G75*
G02*
X137096000Y-75864500I0J147500D01*
G01*
X137096000Y-75519500D01*
G75*
G02*
X137243500Y-75372000I147500J0D01*
G01*
X137538500Y-75372000D01*
G75*
G02*
X137686000Y-75519500I0J-147500D01*
G01*
G37*
G04 #@! TD.AperFunction*
G04 #@! TD*
G04 #@! TO.P,C3,2*
G04 #@! TO.N,ADDR*
G04 #@! TA.AperFunction,SMDPad,CuDef*
G36*
G01*
X134556000Y-74848500D02*
X134556000Y-74503500D01*
G75*
G02*
X134703500Y-74356000I147500J0D01*
G01*
X134998500Y-74356000D01*
G75*
G02*
X135146000Y-74503500I0J-147500D01*
G01*
X135146000Y-74848500D01*
G75*
G02*
X134998500Y-74996000I-147500J0D01*
G01*
X134703500Y-74996000D01*
G75*
G02*
X134556000Y-74848500I0J147500D01*
G01*
G37*
G04 #@! TD.AperFunction*
G04 #@! TO.P,C3,1*
G04 #@! TO.N,+3V3*
G04 #@! TA.AperFunction,SMDPad,CuDef*
G36*
G01*
X133586000Y-74848500D02*
X133586000Y-74503500D01*
G75*
G02*
X133733500Y-74356000I147500J0D01*
G01*
X134028500Y-74356000D01*
G75*
G02*
X134176000Y-74503500I0J-147500D01*
G01*
X134176000Y-74848500D01*
G75*
G02*
X134028500Y-74996000I-147500J0D01*
G01*
X133733500Y-74996000D01*
G75*
G02*
X133586000Y-74848500I0J147500D01*
G01*
G37*
G04 #@! TD.AperFunction*
G04 #@! TD*
G04 #@! TO.P,C2,2*
G04 #@! TO.N,ADDR*
G04 #@! TA.AperFunction,SMDPad,CuDef*
G36*
G01*
X147179000Y-73823001D02*
X147179000Y-71972999D01*
G75*
G02*
X147428999Y-71723000I249999J0D01*
G01*
X148254001Y-71723000D01*
G75*
G02*
X148504000Y-71972999I0J-249999D01*
G01*
X148504000Y-73823001D01*
G75*
G02*
X148254001Y-74073000I-249999J0D01*
G01*
X147428999Y-74073000D01*
G75*
G02*
X147179000Y-73823001I0J249999D01*
G01*
G37*
G04 #@! TD.AperFunction*
G04 #@! TO.P,C2,1*
G04 #@! TO.N,+3V3*
G04 #@! TA.AperFunction,SMDPad,CuDef*
G36*
G01*
X144104000Y-73823001D02*
X144104000Y-71972999D01*
G75*
G02*
X144353999Y-71723000I249999J0D01*
G01*
X145179001Y-71723000D01*
G75*
G02*
X145429000Y-71972999I0J-249999D01*
G01*
X145429000Y-73823001D01*
G75*
G02*
X145179001Y-74073000I-249999J0D01*
G01*
X144353999Y-74073000D01*
G75*
G02*
X144104000Y-73823001I0J249999D01*
G01*
G37*
G04 #@! TD.AperFunction*
G04 #@! TD*
G04 #@! TO.P,C1,2*
G04 #@! TO.N,Net-(C1-Pad2)*
G04 #@! TA.AperFunction,SMDPad,CuDef*
G36*
G01*
X142176000Y-82976500D02*
X142176000Y-82631500D01*
G75*
G02*
X142323500Y-82484000I147500J0D01*
G01*
X142618500Y-82484000D01*
G75*
G02*
X142766000Y-82631500I0J-147500D01*
G01*
X142766000Y-82976500D01*
G75*
G02*
X142618500Y-83124000I-147500J0D01*
G01*
X142323500Y-83124000D01*
G75*
G02*
X142176000Y-82976500I0J147500D01*
G01*
G37*
G04 #@! TD.AperFunction*
G04 #@! TO.P,C1,1*
G04 #@! TO.N,Net-(C1-Pad1)*
G04 #@! TA.AperFunction,SMDPad,CuDef*
G36*
G01*
X141206000Y-82976500D02*
X141206000Y-82631500D01*
G75*
G02*
X141353500Y-82484000I147500J0D01*
G01*
X141648500Y-82484000D01*
G75*
G02*
X141796000Y-82631500I0J-147500D01*
G01*
X141796000Y-82976500D01*
G75*
G02*
X141648500Y-83124000I-147500J0D01*
G01*
X141353500Y-83124000D01*
G75*
G02*
X141206000Y-82976500I0J147500D01*
G01*
G37*
G04 #@! TD.AperFunction*
G04 #@! TD*
G04 #@! TO.P,TP1,1*
G04 #@! TO.N,VBUS*
X141224000Y-75946000D03*
G04 #@! TD*
D23*
G04 #@! TO.P,RST1,4*
G04 #@! TO.N,ADDR*
X140309996Y-87253999D03*
G04 #@! TO.P,RST1,3*
X134009999Y-87253999D03*
G04 #@! TO.P,RST1,2*
G04 #@! TO.N,RST*
X140309996Y-91053996D03*
G04 #@! TO.P,RST1,1*
X134009999Y-91053996D03*
G04 #@! TD*
D16*
G04 #@! TO.P,J7,2*
G04 #@! TO.N,AIN2*
X157988000Y-67310000D03*
D17*
G04 #@! TO.P,J7,1*
G04 #@! TO.N,AIN3*
X157988000Y-69850000D03*
G04 #@! TD*
D16*
G04 #@! TO.P,J2,6*
G04 #@! TO.N,ADDR*
X143256000Y-89408000D03*
G04 #@! TO.P,J2,5*
G04 #@! TO.N,Net-(J2-Pad5)*
X145796000Y-89408000D03*
G04 #@! TO.P,J2,4*
G04 #@! TO.N,+3V3*
X148336000Y-89408000D03*
G04 #@! TO.P,J2,3*
G04 #@! TO.N,FTDI_TX*
X150876000Y-89408000D03*
G04 #@! TO.P,J2,2*
G04 #@! TO.N,FTDI_RX*
X153416000Y-89408000D03*
D17*
G04 #@! TO.P,J2,1*
G04 #@! TO.N,Net-(C6-Pad2)*
X155956000Y-89408000D03*
G04 #@! TD*
D26*
G04 #@! TO.N,VBUS*
X154418000Y-73202000D03*
G04 #@! TO.N,SCL*
X151384000Y-83058000D03*
G04 #@! TO.N,SDA*
X152908000Y-78232000D03*
X154787996Y-66425999D03*
G04 #@! TO.N,ADDR*
X142792000Y-69806000D03*
X138938000Y-75946000D03*
X139778500Y-81026000D03*
G04 #@! TO.N,Net-(C6-Pad2)*
X141986000Y-86868000D03*
G04 #@! TO.N,AIN2*
X156210000Y-81534000D03*
G04 #@! TO.N,AIN3*
X156764701Y-82366051D03*
G04 #@! TD*
D27*
G04 #@! TO.N,+3V3*
X145821500Y-83820000D02*
X146304000Y-83820000D01*
X143764000Y-85877500D02*
X145821500Y-83820000D01*
X136343001Y-70601001D02*
X135592000Y-69850000D01*
X135105000Y-70337000D02*
X135592000Y-69850000D01*
X145670000Y-78106000D02*
X146304000Y-78740000D01*
X143764000Y-78106000D02*
X145670000Y-78106000D01*
X147567601Y-82556399D02*
X146304000Y-83820000D01*
X147567601Y-80003601D02*
X147567601Y-82556399D01*
X146304000Y-78740000D02*
X147567601Y-80003601D01*
X143764000Y-73900500D02*
X144766500Y-72898000D01*
X143764000Y-78106000D02*
X143764000Y-73900500D01*
X151638000Y-75209500D02*
X151638000Y-76936500D01*
D28*
X150837990Y-77736510D02*
X151638000Y-76936500D01*
X150837990Y-78524010D02*
X150837990Y-77736510D01*
X149358399Y-80003601D02*
X150837990Y-78524010D01*
X147567601Y-80003601D02*
X149358399Y-80003601D01*
D27*
X156133500Y-76936500D02*
X156718000Y-76352000D01*
X151638000Y-76936500D02*
X156133500Y-76936500D01*
X156718000Y-76352000D02*
X156718000Y-73202000D01*
X156718000Y-79502000D02*
X156718000Y-76352000D01*
D28*
X154518000Y-83058000D02*
X155308702Y-83058000D01*
X154568000Y-79502000D02*
X156718000Y-79502000D01*
X153467990Y-80602010D02*
X154568000Y-79502000D01*
X153467990Y-82798692D02*
X153467990Y-80602010D01*
X153727298Y-83058000D02*
X153467990Y-82798692D01*
X154518000Y-83058000D02*
X153727298Y-83058000D01*
D27*
X145061246Y-68399990D02*
X137042010Y-68399990D01*
X145442010Y-68780754D02*
X145061246Y-68399990D01*
X145442010Y-72222490D02*
X145442010Y-68780754D01*
X137042010Y-68399990D02*
X135592000Y-69850000D01*
X144766500Y-72898000D02*
X145442010Y-72222490D01*
X133881000Y-74800298D02*
X133881000Y-74676000D01*
X134772702Y-75692000D02*
X133881000Y-74800298D01*
X136421000Y-75692000D02*
X134772702Y-75692000D01*
X133881000Y-71561000D02*
X135592000Y-69850000D01*
X133881000Y-74676000D02*
X133881000Y-71561000D01*
G04 #@! TO.N,VBUS*
X139778500Y-77391500D02*
X141224000Y-75946000D01*
X139778500Y-78740000D02*
X139778500Y-77391500D01*
D28*
X139778500Y-78740000D02*
X138692499Y-79826001D01*
D27*
X138792500Y-79726000D02*
X139778500Y-78740000D01*
X137109200Y-79726000D02*
X138792500Y-79726000D01*
G04 #@! TO.N,SCL*
X150107601Y-77476399D02*
X150107601Y-75164899D01*
X150107601Y-75164899D02*
X151638000Y-73634500D01*
X148844000Y-78740000D02*
X150107601Y-77476399D01*
D28*
X152384000Y-84058000D02*
X151384000Y-83058000D01*
X154518000Y-84058000D02*
X152384000Y-84058000D01*
D27*
G04 #@! TO.N,SDA*
X148487999Y-66425999D02*
X154787996Y-66425999D01*
X148869500Y-81280000D02*
X151638000Y-78511500D01*
X148844000Y-81280000D02*
X148869500Y-81280000D01*
D28*
X150679002Y-81280000D02*
X148844000Y-81280000D01*
X152957002Y-83558000D02*
X150679002Y-81280000D01*
X154518000Y-83558000D02*
X152957002Y-83558000D01*
D27*
X152628500Y-78511500D02*
X152908000Y-78232000D01*
X151638000Y-78511500D02*
X152628500Y-78511500D01*
G04 #@! TO.N,Net-(C1-Pad2)*
X142471000Y-81843500D02*
X141653500Y-81026000D01*
X142471000Y-82804000D02*
X142471000Y-81843500D01*
G04 #@! TO.N,Net-(C1-Pad1)*
X140765990Y-79627510D02*
X141653500Y-78740000D01*
X140765990Y-82068990D02*
X140765990Y-79627510D01*
X141501000Y-82804000D02*
X140765990Y-82068990D01*
G04 #@! TO.N,ADDR*
X140310001Y-87254004D02*
X140310001Y-87224001D01*
X134009999Y-87253999D02*
X140309996Y-87253999D01*
X140309996Y-84963496D02*
X139954000Y-84607500D01*
X140309996Y-87253999D02*
X140309996Y-84963496D01*
X147841500Y-75197500D02*
X148844000Y-76200000D01*
X147841500Y-72898000D02*
X147841500Y-75197500D01*
X144793500Y-69850000D02*
X142792000Y-69850000D01*
X147841500Y-70872495D02*
X148487999Y-70225996D01*
X147841500Y-72898000D02*
X147841500Y-70872495D01*
X148487999Y-70225996D02*
X154787996Y-70225996D01*
D28*
X158918000Y-84058000D02*
X157988000Y-84988000D01*
X154788000Y-84988000D02*
X153924000Y-85852000D01*
X157988000Y-84988000D02*
X154788000Y-84988000D01*
X159018000Y-80667298D02*
X159018000Y-73202000D01*
X157867990Y-81817308D02*
X159018000Y-80667298D01*
X158277298Y-84208000D02*
X157867990Y-83798692D01*
X158768000Y-84208000D02*
X158277298Y-84208000D01*
X158918000Y-84058000D02*
X158768000Y-84208000D01*
D27*
X156363999Y-71801999D02*
X154787996Y-70225996D01*
X157867999Y-71801999D02*
X156363999Y-71801999D01*
X159018000Y-72952000D02*
X157867999Y-71801999D01*
X159018000Y-73202000D02*
X159018000Y-72952000D01*
X137391000Y-75251000D02*
X137391000Y-75692000D01*
X142792000Y-69850000D02*
X137391000Y-75251000D01*
X136816000Y-74676000D02*
X134851000Y-74676000D01*
X137391000Y-75251000D02*
X136816000Y-74676000D01*
X148487999Y-70001999D02*
X145542000Y-67056000D01*
X148487999Y-70225996D02*
X148487999Y-70001999D01*
X142792000Y-69850000D02*
X142792000Y-69806000D01*
X139078990Y-83732490D02*
X139954000Y-84607500D01*
X139778500Y-81026000D02*
X139078990Y-81725510D01*
X139078990Y-82663010D02*
X139078990Y-83732490D01*
X152165999Y-87610001D02*
X153924000Y-85852000D01*
X152165999Y-89968003D02*
X152165999Y-87610001D01*
X151476001Y-90658001D02*
X152165999Y-89968003D01*
X144506001Y-90658001D02*
X151476001Y-90658001D01*
X143256000Y-89408000D02*
X144506001Y-90658001D01*
D28*
X158918000Y-83058000D02*
X157988000Y-83058000D01*
X157988000Y-83058000D02*
X157867990Y-82937990D01*
X157867990Y-82937990D02*
X157867990Y-81817308D01*
X157867990Y-83798692D02*
X157867990Y-82937990D01*
D27*
X139078990Y-81725510D02*
X139078990Y-82409010D01*
X139078990Y-82409010D02*
X139078990Y-82663010D01*
D28*
X138684000Y-75692000D02*
X138938000Y-75946000D01*
X137391000Y-75692000D02*
X138684000Y-75692000D01*
D27*
X138478500Y-82326000D02*
X139078990Y-81725510D01*
X137109200Y-82326000D02*
X138478500Y-82326000D01*
G04 #@! TO.N,Net-(C6-Pad2)*
X141110990Y-84189490D02*
X139954000Y-83032500D01*
X141110990Y-85002490D02*
X141110990Y-84189490D01*
X141986000Y-85877500D02*
X141110990Y-85002490D01*
X141986000Y-85877500D02*
X141986000Y-86868000D01*
G04 #@! TO.N,RST*
X143764000Y-83820000D02*
X146304000Y-81280000D01*
X143764000Y-84302500D02*
X143764000Y-83820000D01*
X143764000Y-84302500D02*
X143764000Y-81406000D01*
X142888990Y-85205490D02*
X141986000Y-84302500D01*
X142888990Y-87575002D02*
X142888990Y-85205490D01*
X140309996Y-90153996D02*
X142888990Y-87575002D01*
X140309996Y-91053996D02*
X140309996Y-90153996D01*
X142888990Y-85177510D02*
X143764000Y-84302500D01*
X142888990Y-85205490D02*
X142888990Y-85177510D01*
G04 #@! TO.N,FTDI_TX*
X150876000Y-89408000D02*
X150876000Y-87884000D01*
X148844000Y-85852000D02*
X148844000Y-83820000D01*
X150876000Y-87884000D02*
X148844000Y-85852000D01*
D28*
G04 #@! TO.N,AIN1*
X158918000Y-82058000D02*
X159020000Y-82058000D01*
X160734000Y-80344000D02*
X163214000Y-80344000D01*
X159020000Y-82058000D02*
X160734000Y-80344000D01*
X158082999Y-90480001D02*
X159147008Y-91544010D01*
X159258000Y-87376000D02*
X158082999Y-88551001D01*
X158082999Y-88551001D02*
X158082999Y-90480001D01*
X159147008Y-91544010D02*
X165604992Y-91544010D01*
X165604992Y-91544010D02*
X169795001Y-87354001D01*
X169795001Y-87354001D02*
X169795001Y-83333999D01*
X169795001Y-83333999D02*
X166805002Y-80344000D01*
X166805002Y-80344000D02*
X163214000Y-80344000D01*
D27*
G04 #@! TO.N,AIN2*
X168220000Y-72136000D02*
X168220000Y-69463864D01*
D28*
X155686000Y-82058000D02*
X156210000Y-81534000D01*
X154518000Y-82058000D02*
X155686000Y-82058000D01*
D27*
X168220000Y-69463864D02*
X164617126Y-65860990D01*
X164617126Y-65860990D02*
X159437010Y-65860990D01*
X159437010Y-65860990D02*
X157988000Y-67310000D01*
D28*
G04 #@! TO.N,AIN3*
X156572752Y-82558000D02*
X154518000Y-82558000D01*
X156764701Y-82366051D02*
X156572752Y-82558000D01*
D27*
X160702000Y-67136000D02*
X163214000Y-67136000D01*
X157988000Y-69850000D02*
X160702000Y-67136000D01*
D28*
G04 #@! TO.N,/ALERT*
X159708702Y-83558000D02*
X158918000Y-83558000D01*
X159968010Y-83817308D02*
X159708702Y-83558000D01*
X158414702Y-85852000D02*
X159968010Y-84298692D01*
X159968010Y-84298692D02*
X159968010Y-83817308D01*
X155499000Y-85852000D02*
X158414702Y-85852000D01*
G04 #@! TO.N,AIN0*
X158918000Y-82558000D02*
X160355930Y-82558000D01*
X160355930Y-82558000D02*
X163141930Y-85344000D01*
X163141930Y-85344000D02*
X168220000Y-85344000D01*
X159258000Y-89916000D02*
X160129990Y-89044010D01*
X160129990Y-89044010D02*
X166519990Y-89044010D01*
X166519990Y-89044010D02*
X168220000Y-87344000D01*
X168220000Y-87344000D02*
X168220000Y-85344000D01*
G04 #@! TD*
D29*
G04 #@! TO.N,ADDR*
G36*
X138839815Y-82177185D02*
G01*
X138936506Y-82256537D01*
X139016755Y-82299432D01*
X138985329Y-82337725D01*
X138906150Y-82485858D01*
X138857392Y-82646592D01*
X138840928Y-82813750D01*
X138840928Y-83251250D01*
X138857392Y-83418408D01*
X138906150Y-83579142D01*
X138985329Y-83727275D01*
X139003100Y-83748930D01*
X138948463Y-83815506D01*
X138889498Y-83925820D01*
X138853188Y-84045518D01*
X138840928Y-84170000D01*
X138844000Y-84321750D01*
X139002750Y-84480500D01*
X139827000Y-84480500D01*
X139827000Y-84460500D01*
X140081000Y-84460500D01*
X140081000Y-84480500D01*
X140101000Y-84480500D01*
X140101000Y-84734500D01*
X140081000Y-84734500D01*
X140081000Y-85521250D01*
X140239750Y-85680000D01*
X140429000Y-85683072D01*
X140553482Y-85670812D01*
X140587980Y-85660347D01*
X140872928Y-85945295D01*
X140872928Y-86096250D01*
X140875019Y-86117479D01*
X140595746Y-86118999D01*
X140436996Y-86277749D01*
X140436996Y-87126999D01*
X140456996Y-87126999D01*
X140456996Y-87380999D01*
X140436996Y-87380999D01*
X140436996Y-88230249D01*
X140595746Y-88388999D01*
X140892510Y-88390615D01*
X139748570Y-89534555D01*
X139716706Y-89560705D01*
X139690558Y-89592567D01*
X139612360Y-89687851D01*
X139534824Y-89832910D01*
X139509642Y-89915924D01*
X139459997Y-89915924D01*
X139335515Y-89928184D01*
X139215817Y-89964494D01*
X139105503Y-90023459D01*
X139008812Y-90102811D01*
X138929460Y-90199502D01*
X138870495Y-90309816D01*
X138834185Y-90429514D01*
X138821925Y-90553996D01*
X138821925Y-91288000D01*
X135498070Y-91288000D01*
X135498070Y-90553996D01*
X135485810Y-90429514D01*
X135449500Y-90309816D01*
X135390535Y-90199502D01*
X135311183Y-90102811D01*
X135214492Y-90023459D01*
X135104178Y-89964494D01*
X134984480Y-89928184D01*
X134859998Y-89915924D01*
X133502000Y-89915924D01*
X133502000Y-88390209D01*
X133724249Y-88388999D01*
X133882999Y-88230249D01*
X133882999Y-87380999D01*
X134136999Y-87380999D01*
X134136999Y-88230249D01*
X134295749Y-88388999D01*
X134859998Y-88392071D01*
X134984480Y-88379811D01*
X135104178Y-88343501D01*
X135214492Y-88284536D01*
X135311183Y-88205184D01*
X135390535Y-88108493D01*
X135449500Y-87998179D01*
X135485810Y-87878481D01*
X135498070Y-87753999D01*
X138821925Y-87753999D01*
X138834185Y-87878481D01*
X138870495Y-87998179D01*
X138929460Y-88108493D01*
X139008812Y-88205184D01*
X139105503Y-88284536D01*
X139215817Y-88343501D01*
X139335515Y-88379811D01*
X139459997Y-88392071D01*
X140024246Y-88388999D01*
X140182996Y-88230249D01*
X140182996Y-87380999D01*
X138983747Y-87380999D01*
X138824997Y-87539749D01*
X138821925Y-87753999D01*
X135498070Y-87753999D01*
X135494998Y-87539749D01*
X135336248Y-87380999D01*
X134136999Y-87380999D01*
X133882999Y-87380999D01*
X133862999Y-87380999D01*
X133862999Y-87126999D01*
X133882999Y-87126999D01*
X133882999Y-86277749D01*
X134136999Y-86277749D01*
X134136999Y-87126999D01*
X135336248Y-87126999D01*
X135494998Y-86968249D01*
X135498070Y-86753999D01*
X138821925Y-86753999D01*
X138824997Y-86968249D01*
X138983747Y-87126999D01*
X140182996Y-87126999D01*
X140182996Y-86277749D01*
X140024246Y-86118999D01*
X139459997Y-86115927D01*
X139335515Y-86128187D01*
X139215817Y-86164497D01*
X139105503Y-86223462D01*
X139008812Y-86302814D01*
X138929460Y-86399505D01*
X138870495Y-86509819D01*
X138834185Y-86629517D01*
X138821925Y-86753999D01*
X135498070Y-86753999D01*
X135485810Y-86629517D01*
X135449500Y-86509819D01*
X135390535Y-86399505D01*
X135311183Y-86302814D01*
X135214492Y-86223462D01*
X135104178Y-86164497D01*
X134984480Y-86128187D01*
X134859998Y-86115927D01*
X134295749Y-86118999D01*
X134136999Y-86277749D01*
X133882999Y-86277749D01*
X133724249Y-86118999D01*
X133502000Y-86117789D01*
X133502000Y-85533196D01*
X133780652Y-85682139D01*
X134135976Y-85789925D01*
X134412903Y-85817200D01*
X135098097Y-85817200D01*
X135375024Y-85789925D01*
X135730348Y-85682139D01*
X135951971Y-85563679D01*
X135974963Y-85606694D01*
X136054315Y-85703385D01*
X136151006Y-85782737D01*
X136261320Y-85841702D01*
X136381018Y-85878012D01*
X136505500Y-85890272D01*
X138105500Y-85890272D01*
X138229982Y-85878012D01*
X138349680Y-85841702D01*
X138459994Y-85782737D01*
X138556685Y-85703385D01*
X138636037Y-85606694D01*
X138695002Y-85496380D01*
X138731312Y-85376682D01*
X138743572Y-85252200D01*
X138743572Y-85045000D01*
X138840928Y-85045000D01*
X138853188Y-85169482D01*
X138889498Y-85289180D01*
X138948463Y-85399494D01*
X139027815Y-85496185D01*
X139124506Y-85575537D01*
X139234820Y-85634502D01*
X139354518Y-85670812D01*
X139479000Y-85683072D01*
X139668250Y-85680000D01*
X139827000Y-85521250D01*
X139827000Y-84734500D01*
X139002750Y-84734500D01*
X138844000Y-84893250D01*
X138840928Y-85045000D01*
X138743572Y-85045000D01*
X138743572Y-83152200D01*
X138731312Y-83027718D01*
X138700030Y-82924596D01*
X138730949Y-82887994D01*
X138791474Y-82778528D01*
X138829480Y-82659358D01*
X138840500Y-82557750D01*
X138681750Y-82399000D01*
X138569178Y-82399000D01*
X138656685Y-82327185D01*
X138736037Y-82230494D01*
X138772532Y-82162218D01*
X138802741Y-82132009D01*
X138839815Y-82177185D01*
G37*
X138839815Y-82177185D02*
X138936506Y-82256537D01*
X139016755Y-82299432D01*
X138985329Y-82337725D01*
X138906150Y-82485858D01*
X138857392Y-82646592D01*
X138840928Y-82813750D01*
X138840928Y-83251250D01*
X138857392Y-83418408D01*
X138906150Y-83579142D01*
X138985329Y-83727275D01*
X139003100Y-83748930D01*
X138948463Y-83815506D01*
X138889498Y-83925820D01*
X138853188Y-84045518D01*
X138840928Y-84170000D01*
X138844000Y-84321750D01*
X139002750Y-84480500D01*
X139827000Y-84480500D01*
X139827000Y-84460500D01*
X140081000Y-84460500D01*
X140081000Y-84480500D01*
X140101000Y-84480500D01*
X140101000Y-84734500D01*
X140081000Y-84734500D01*
X140081000Y-85521250D01*
X140239750Y-85680000D01*
X140429000Y-85683072D01*
X140553482Y-85670812D01*
X140587980Y-85660347D01*
X140872928Y-85945295D01*
X140872928Y-86096250D01*
X140875019Y-86117479D01*
X140595746Y-86118999D01*
X140436996Y-86277749D01*
X140436996Y-87126999D01*
X140456996Y-87126999D01*
X140456996Y-87380999D01*
X140436996Y-87380999D01*
X140436996Y-88230249D01*
X140595746Y-88388999D01*
X140892510Y-88390615D01*
X139748570Y-89534555D01*
X139716706Y-89560705D01*
X139690558Y-89592567D01*
X139612360Y-89687851D01*
X139534824Y-89832910D01*
X139509642Y-89915924D01*
X139459997Y-89915924D01*
X139335515Y-89928184D01*
X139215817Y-89964494D01*
X139105503Y-90023459D01*
X139008812Y-90102811D01*
X138929460Y-90199502D01*
X138870495Y-90309816D01*
X138834185Y-90429514D01*
X138821925Y-90553996D01*
X138821925Y-91288000D01*
X135498070Y-91288000D01*
X135498070Y-90553996D01*
X135485810Y-90429514D01*
X135449500Y-90309816D01*
X135390535Y-90199502D01*
X135311183Y-90102811D01*
X135214492Y-90023459D01*
X135104178Y-89964494D01*
X134984480Y-89928184D01*
X134859998Y-89915924D01*
X133502000Y-89915924D01*
X133502000Y-88390209D01*
X133724249Y-88388999D01*
X133882999Y-88230249D01*
X133882999Y-87380999D01*
X134136999Y-87380999D01*
X134136999Y-88230249D01*
X134295749Y-88388999D01*
X134859998Y-88392071D01*
X134984480Y-88379811D01*
X135104178Y-88343501D01*
X135214492Y-88284536D01*
X135311183Y-88205184D01*
X135390535Y-88108493D01*
X135449500Y-87998179D01*
X135485810Y-87878481D01*
X135498070Y-87753999D01*
X138821925Y-87753999D01*
X138834185Y-87878481D01*
X138870495Y-87998179D01*
X138929460Y-88108493D01*
X139008812Y-88205184D01*
X139105503Y-88284536D01*
X139215817Y-88343501D01*
X139335515Y-88379811D01*
X139459997Y-88392071D01*
X140024246Y-88388999D01*
X140182996Y-88230249D01*
X140182996Y-87380999D01*
X138983747Y-87380999D01*
X138824997Y-87539749D01*
X138821925Y-87753999D01*
X135498070Y-87753999D01*
X135494998Y-87539749D01*
X135336248Y-87380999D01*
X134136999Y-87380999D01*
X133882999Y-87380999D01*
X133862999Y-87380999D01*
X133862999Y-87126999D01*
X133882999Y-87126999D01*
X133882999Y-86277749D01*
X134136999Y-86277749D01*
X134136999Y-87126999D01*
X135336248Y-87126999D01*
X135494998Y-86968249D01*
X135498070Y-86753999D01*
X138821925Y-86753999D01*
X138824997Y-86968249D01*
X138983747Y-87126999D01*
X140182996Y-87126999D01*
X140182996Y-86277749D01*
X140024246Y-86118999D01*
X139459997Y-86115927D01*
X139335515Y-86128187D01*
X139215817Y-86164497D01*
X139105503Y-86223462D01*
X139008812Y-86302814D01*
X138929460Y-86399505D01*
X138870495Y-86509819D01*
X138834185Y-86629517D01*
X138821925Y-86753999D01*
X135498070Y-86753999D01*
X135485810Y-86629517D01*
X135449500Y-86509819D01*
X135390535Y-86399505D01*
X135311183Y-86302814D01*
X135214492Y-86223462D01*
X135104178Y-86164497D01*
X134984480Y-86128187D01*
X134859998Y-86115927D01*
X134295749Y-86118999D01*
X134136999Y-86277749D01*
X133882999Y-86277749D01*
X133724249Y-86118999D01*
X133502000Y-86117789D01*
X133502000Y-85533196D01*
X133780652Y-85682139D01*
X134135976Y-85789925D01*
X134412903Y-85817200D01*
X135098097Y-85817200D01*
X135375024Y-85789925D01*
X135730348Y-85682139D01*
X135951971Y-85563679D01*
X135974963Y-85606694D01*
X136054315Y-85703385D01*
X136151006Y-85782737D01*
X136261320Y-85841702D01*
X136381018Y-85878012D01*
X136505500Y-85890272D01*
X138105500Y-85890272D01*
X138229982Y-85878012D01*
X138349680Y-85841702D01*
X138459994Y-85782737D01*
X138556685Y-85703385D01*
X138636037Y-85606694D01*
X138695002Y-85496380D01*
X138731312Y-85376682D01*
X138743572Y-85252200D01*
X138743572Y-85045000D01*
X138840928Y-85045000D01*
X138853188Y-85169482D01*
X138889498Y-85289180D01*
X138948463Y-85399494D01*
X139027815Y-85496185D01*
X139124506Y-85575537D01*
X139234820Y-85634502D01*
X139354518Y-85670812D01*
X139479000Y-85683072D01*
X139668250Y-85680000D01*
X139827000Y-85521250D01*
X139827000Y-84734500D01*
X139002750Y-84734500D01*
X138844000Y-84893250D01*
X138840928Y-85045000D01*
X138743572Y-85045000D01*
X138743572Y-83152200D01*
X138731312Y-83027718D01*
X138700030Y-82924596D01*
X138730949Y-82887994D01*
X138791474Y-82778528D01*
X138829480Y-82659358D01*
X138840500Y-82557750D01*
X138681750Y-82399000D01*
X138569178Y-82399000D01*
X138656685Y-82327185D01*
X138736037Y-82230494D01*
X138772532Y-82162218D01*
X138802741Y-82132009D01*
X138839815Y-82177185D01*
G36*
X143383000Y-89281000D02*
G01*
X143403000Y-89281000D01*
X143403000Y-89535000D01*
X143383000Y-89535000D01*
X143383000Y-90728155D01*
X143612890Y-90849476D01*
X143760099Y-90804825D01*
X144022920Y-90679641D01*
X144256269Y-90505588D01*
X144451178Y-90289355D01*
X144520805Y-90172466D01*
X144642525Y-90354632D01*
X144849368Y-90561475D01*
X145092589Y-90723990D01*
X145362842Y-90835932D01*
X145649740Y-90893000D01*
X145942260Y-90893000D01*
X146229158Y-90835932D01*
X146499411Y-90723990D01*
X146742632Y-90561475D01*
X146949475Y-90354632D01*
X147066000Y-90180240D01*
X147182525Y-90354632D01*
X147389368Y-90561475D01*
X147632589Y-90723990D01*
X147902842Y-90835932D01*
X148189740Y-90893000D01*
X148482260Y-90893000D01*
X148769158Y-90835932D01*
X149039411Y-90723990D01*
X149282632Y-90561475D01*
X149489475Y-90354632D01*
X149606000Y-90180240D01*
X149722525Y-90354632D01*
X149929368Y-90561475D01*
X150172589Y-90723990D01*
X150442842Y-90835932D01*
X150729740Y-90893000D01*
X151022260Y-90893000D01*
X151309158Y-90835932D01*
X151579411Y-90723990D01*
X151822632Y-90561475D01*
X152029475Y-90354632D01*
X152146000Y-90180240D01*
X152262525Y-90354632D01*
X152469368Y-90561475D01*
X152712589Y-90723990D01*
X152982842Y-90835932D01*
X153269740Y-90893000D01*
X153562260Y-90893000D01*
X153849158Y-90835932D01*
X154119411Y-90723990D01*
X154362632Y-90561475D01*
X154494487Y-90429620D01*
X154516498Y-90502180D01*
X154575463Y-90612494D01*
X154654815Y-90709185D01*
X154751506Y-90788537D01*
X154861820Y-90847502D01*
X154981518Y-90883812D01*
X155106000Y-90896072D01*
X156806000Y-90896072D01*
X156930482Y-90883812D01*
X157050180Y-90847502D01*
X157160494Y-90788537D01*
X157257185Y-90709185D01*
X157332819Y-90617025D01*
X157333997Y-90628987D01*
X157344922Y-90665002D01*
X157377453Y-90772247D01*
X157448025Y-90904277D01*
X157519200Y-90991003D01*
X157542999Y-91020002D01*
X157571997Y-91043800D01*
X157816197Y-91288000D01*
X141798067Y-91288000D01*
X141798067Y-90553996D01*
X141785807Y-90429514D01*
X141749497Y-90309816D01*
X141690532Y-90199502D01*
X141611180Y-90102811D01*
X141573210Y-90071650D01*
X141831657Y-89813203D01*
X141911843Y-90039252D01*
X142060822Y-90289355D01*
X142255731Y-90505588D01*
X142489080Y-90679641D01*
X142751901Y-90804825D01*
X142899110Y-90849476D01*
X143129000Y-90728155D01*
X143129000Y-89535000D01*
X143109000Y-89535000D01*
X143109000Y-89281000D01*
X143129000Y-89281000D01*
X143129000Y-89261000D01*
X143383000Y-89261000D01*
X143383000Y-89281000D01*
G37*
X143383000Y-89281000D02*
X143403000Y-89281000D01*
X143403000Y-89535000D01*
X143383000Y-89535000D01*
X143383000Y-90728155D01*
X143612890Y-90849476D01*
X143760099Y-90804825D01*
X144022920Y-90679641D01*
X144256269Y-90505588D01*
X144451178Y-90289355D01*
X144520805Y-90172466D01*
X144642525Y-90354632D01*
X144849368Y-90561475D01*
X145092589Y-90723990D01*
X145362842Y-90835932D01*
X145649740Y-90893000D01*
X145942260Y-90893000D01*
X146229158Y-90835932D01*
X146499411Y-90723990D01*
X146742632Y-90561475D01*
X146949475Y-90354632D01*
X147066000Y-90180240D01*
X147182525Y-90354632D01*
X147389368Y-90561475D01*
X147632589Y-90723990D01*
X147902842Y-90835932D01*
X148189740Y-90893000D01*
X148482260Y-90893000D01*
X148769158Y-90835932D01*
X149039411Y-90723990D01*
X149282632Y-90561475D01*
X149489475Y-90354632D01*
X149606000Y-90180240D01*
X149722525Y-90354632D01*
X149929368Y-90561475D01*
X150172589Y-90723990D01*
X150442842Y-90835932D01*
X150729740Y-90893000D01*
X151022260Y-90893000D01*
X151309158Y-90835932D01*
X151579411Y-90723990D01*
X151822632Y-90561475D01*
X152029475Y-90354632D01*
X152146000Y-90180240D01*
X152262525Y-90354632D01*
X152469368Y-90561475D01*
X152712589Y-90723990D01*
X152982842Y-90835932D01*
X153269740Y-90893000D01*
X153562260Y-90893000D01*
X153849158Y-90835932D01*
X154119411Y-90723990D01*
X154362632Y-90561475D01*
X154494487Y-90429620D01*
X154516498Y-90502180D01*
X154575463Y-90612494D01*
X154654815Y-90709185D01*
X154751506Y-90788537D01*
X154861820Y-90847502D01*
X154981518Y-90883812D01*
X155106000Y-90896072D01*
X156806000Y-90896072D01*
X156930482Y-90883812D01*
X157050180Y-90847502D01*
X157160494Y-90788537D01*
X157257185Y-90709185D01*
X157332819Y-90617025D01*
X157333997Y-90628987D01*
X157344922Y-90665002D01*
X157377453Y-90772247D01*
X157448025Y-90904277D01*
X157519200Y-90991003D01*
X157542999Y-91020002D01*
X157571997Y-91043800D01*
X157816197Y-91288000D01*
X141798067Y-91288000D01*
X141798067Y-90553996D01*
X141785807Y-90429514D01*
X141749497Y-90309816D01*
X141690532Y-90199502D01*
X141611180Y-90102811D01*
X141573210Y-90071650D01*
X141831657Y-89813203D01*
X141911843Y-90039252D01*
X142060822Y-90289355D01*
X142255731Y-90505588D01*
X142489080Y-90679641D01*
X142751901Y-90804825D01*
X142899110Y-90849476D01*
X143129000Y-90728155D01*
X143129000Y-89535000D01*
X143109000Y-89535000D01*
X143109000Y-89281000D01*
X143129000Y-89281000D01*
X143129000Y-89261000D01*
X143383000Y-89261000D01*
X143383000Y-89281000D01*
G36*
X150651245Y-82327044D02*
G01*
X150580063Y-82398226D01*
X150466795Y-82567744D01*
X150388774Y-82756102D01*
X150349000Y-82956061D01*
X150349000Y-83159939D01*
X150388774Y-83359898D01*
X150466795Y-83548256D01*
X150580063Y-83717774D01*
X150724226Y-83861937D01*
X150893744Y-83975205D01*
X151082102Y-84053226D01*
X151282061Y-84093000D01*
X151344199Y-84093000D01*
X151820201Y-84569003D01*
X151843999Y-84598001D01*
X151872997Y-84621799D01*
X151959724Y-84692974D01*
X152091753Y-84763546D01*
X152235014Y-84807003D01*
X152384000Y-84821677D01*
X152421333Y-84818000D01*
X153185256Y-84818000D01*
X153132006Y-84846463D01*
X153035315Y-84925815D01*
X152955963Y-85022506D01*
X152896998Y-85132820D01*
X152860688Y-85252518D01*
X152848428Y-85377000D01*
X152851500Y-85566250D01*
X153010250Y-85725000D01*
X153797000Y-85725000D01*
X153797000Y-85705000D01*
X154051000Y-85705000D01*
X154051000Y-85725000D01*
X154071000Y-85725000D01*
X154071000Y-85979000D01*
X154051000Y-85979000D01*
X154051000Y-86803250D01*
X154209750Y-86962000D01*
X154361500Y-86965072D01*
X154485982Y-86952812D01*
X154605680Y-86916502D01*
X154715994Y-86857537D01*
X154782570Y-86802900D01*
X154804225Y-86820671D01*
X154952358Y-86899850D01*
X155113092Y-86948608D01*
X155280250Y-86965072D01*
X155717750Y-86965072D01*
X155884908Y-86948608D01*
X156045642Y-86899850D01*
X156193775Y-86820671D01*
X156323615Y-86714115D01*
X156407418Y-86612000D01*
X157769928Y-86612000D01*
X157769928Y-87789271D01*
X157572002Y-87987197D01*
X157542998Y-88011000D01*
X157503157Y-88059547D01*
X157448025Y-88126725D01*
X157394961Y-88226000D01*
X157377453Y-88258755D01*
X157373331Y-88272342D01*
X157336537Y-88203506D01*
X157257185Y-88106815D01*
X157160494Y-88027463D01*
X157050180Y-87968498D01*
X156930482Y-87932188D01*
X156806000Y-87919928D01*
X155106000Y-87919928D01*
X154981518Y-87932188D01*
X154861820Y-87968498D01*
X154751506Y-88027463D01*
X154654815Y-88106815D01*
X154575463Y-88203506D01*
X154516498Y-88313820D01*
X154494487Y-88386380D01*
X154362632Y-88254525D01*
X154119411Y-88092010D01*
X153849158Y-87980068D01*
X153562260Y-87923000D01*
X153269740Y-87923000D01*
X152982842Y-87980068D01*
X152712589Y-88092010D01*
X152469368Y-88254525D01*
X152262525Y-88461368D01*
X152146000Y-88635760D01*
X152029475Y-88461368D01*
X151822632Y-88254525D01*
X151711000Y-88179935D01*
X151711000Y-87925018D01*
X151715040Y-87884000D01*
X151706964Y-87801998D01*
X151698918Y-87720311D01*
X151651172Y-87562913D01*
X151573636Y-87417854D01*
X151539288Y-87376001D01*
X151495439Y-87322570D01*
X151495437Y-87322568D01*
X151469291Y-87290709D01*
X151437432Y-87264563D01*
X150499868Y-86327000D01*
X152848428Y-86327000D01*
X152860688Y-86451482D01*
X152896998Y-86571180D01*
X152955963Y-86681494D01*
X153035315Y-86778185D01*
X153132006Y-86857537D01*
X153242320Y-86916502D01*
X153362018Y-86952812D01*
X153486500Y-86965072D01*
X153638250Y-86962000D01*
X153797000Y-86803250D01*
X153797000Y-85979000D01*
X153010250Y-85979000D01*
X152851500Y-86137750D01*
X152848428Y-86327000D01*
X150499868Y-86327000D01*
X149679000Y-85506133D01*
X149679000Y-85064422D01*
X149799302Y-84984039D01*
X150008039Y-84775302D01*
X150172042Y-84529853D01*
X150285010Y-84257125D01*
X150342600Y-83967599D01*
X150342600Y-83672401D01*
X150285010Y-83382875D01*
X150172042Y-83110147D01*
X150008039Y-82864698D01*
X149799302Y-82655961D01*
X149640719Y-82550000D01*
X149799302Y-82444039D01*
X150008039Y-82235302D01*
X150138535Y-82040000D01*
X150364201Y-82040000D01*
X150651245Y-82327044D01*
G37*
X150651245Y-82327044D02*
X150580063Y-82398226D01*
X150466795Y-82567744D01*
X150388774Y-82756102D01*
X150349000Y-82956061D01*
X150349000Y-83159939D01*
X150388774Y-83359898D01*
X150466795Y-83548256D01*
X150580063Y-83717774D01*
X150724226Y-83861937D01*
X150893744Y-83975205D01*
X151082102Y-84053226D01*
X151282061Y-84093000D01*
X151344199Y-84093000D01*
X151820201Y-84569003D01*
X151843999Y-84598001D01*
X151872997Y-84621799D01*
X151959724Y-84692974D01*
X152091753Y-84763546D01*
X152235014Y-84807003D01*
X152384000Y-84821677D01*
X152421333Y-84818000D01*
X153185256Y-84818000D01*
X153132006Y-84846463D01*
X153035315Y-84925815D01*
X152955963Y-85022506D01*
X152896998Y-85132820D01*
X152860688Y-85252518D01*
X152848428Y-85377000D01*
X152851500Y-85566250D01*
X153010250Y-85725000D01*
X153797000Y-85725000D01*
X153797000Y-85705000D01*
X154051000Y-85705000D01*
X154051000Y-85725000D01*
X154071000Y-85725000D01*
X154071000Y-85979000D01*
X154051000Y-85979000D01*
X154051000Y-86803250D01*
X154209750Y-86962000D01*
X154361500Y-86965072D01*
X154485982Y-86952812D01*
X154605680Y-86916502D01*
X154715994Y-86857537D01*
X154782570Y-86802900D01*
X154804225Y-86820671D01*
X154952358Y-86899850D01*
X155113092Y-86948608D01*
X155280250Y-86965072D01*
X155717750Y-86965072D01*
X155884908Y-86948608D01*
X156045642Y-86899850D01*
X156193775Y-86820671D01*
X156323615Y-86714115D01*
X156407418Y-86612000D01*
X157769928Y-86612000D01*
X157769928Y-87789271D01*
X157572002Y-87987197D01*
X157542998Y-88011000D01*
X157503157Y-88059547D01*
X157448025Y-88126725D01*
X157394961Y-88226000D01*
X157377453Y-88258755D01*
X157373331Y-88272342D01*
X157336537Y-88203506D01*
X157257185Y-88106815D01*
X157160494Y-88027463D01*
X157050180Y-87968498D01*
X156930482Y-87932188D01*
X156806000Y-87919928D01*
X155106000Y-87919928D01*
X154981518Y-87932188D01*
X154861820Y-87968498D01*
X154751506Y-88027463D01*
X154654815Y-88106815D01*
X154575463Y-88203506D01*
X154516498Y-88313820D01*
X154494487Y-88386380D01*
X154362632Y-88254525D01*
X154119411Y-88092010D01*
X153849158Y-87980068D01*
X153562260Y-87923000D01*
X153269740Y-87923000D01*
X152982842Y-87980068D01*
X152712589Y-88092010D01*
X152469368Y-88254525D01*
X152262525Y-88461368D01*
X152146000Y-88635760D01*
X152029475Y-88461368D01*
X151822632Y-88254525D01*
X151711000Y-88179935D01*
X151711000Y-87925018D01*
X151715040Y-87884000D01*
X151706964Y-87801998D01*
X151698918Y-87720311D01*
X151651172Y-87562913D01*
X151573636Y-87417854D01*
X151539288Y-87376001D01*
X151495439Y-87322570D01*
X151495437Y-87322568D01*
X151469291Y-87290709D01*
X151437432Y-87264563D01*
X150499868Y-86327000D01*
X152848428Y-86327000D01*
X152860688Y-86451482D01*
X152896998Y-86571180D01*
X152955963Y-86681494D01*
X153035315Y-86778185D01*
X153132006Y-86857537D01*
X153242320Y-86916502D01*
X153362018Y-86952812D01*
X153486500Y-86965072D01*
X153638250Y-86962000D01*
X153797000Y-86803250D01*
X153797000Y-85979000D01*
X153010250Y-85979000D01*
X152851500Y-86137750D01*
X152848428Y-86327000D01*
X150499868Y-86327000D01*
X149679000Y-85506133D01*
X149679000Y-85064422D01*
X149799302Y-84984039D01*
X150008039Y-84775302D01*
X150172042Y-84529853D01*
X150285010Y-84257125D01*
X150342600Y-83967599D01*
X150342600Y-83672401D01*
X150285010Y-83382875D01*
X150172042Y-83110147D01*
X150008039Y-82864698D01*
X149799302Y-82655961D01*
X149640719Y-82550000D01*
X149799302Y-82444039D01*
X150008039Y-82235302D01*
X150138535Y-82040000D01*
X150364201Y-82040000D01*
X150651245Y-82327044D01*
G36*
X157633982Y-82952232D02*
G01*
X157675102Y-83029162D01*
X157698769Y-83058000D01*
X157675102Y-83086838D01*
X157633982Y-83163768D01*
X157558000Y-83239750D01*
X157569156Y-83341996D01*
X157569180Y-83342071D01*
X157568629Y-83343887D01*
X157554928Y-83483000D01*
X157554928Y-83633000D01*
X157568629Y-83772113D01*
X157569180Y-83773929D01*
X157569156Y-83774004D01*
X157558000Y-83876250D01*
X157633982Y-83952232D01*
X157675102Y-84029162D01*
X157717645Y-84081000D01*
X157716750Y-84081000D01*
X157558000Y-84239750D01*
X157569156Y-84341996D01*
X157607285Y-84461127D01*
X157667922Y-84570531D01*
X157748737Y-84666003D01*
X157846625Y-84743874D01*
X157957825Y-84801151D01*
X158078061Y-84835634D01*
X158202715Y-84845998D01*
X158346909Y-84844992D01*
X158099901Y-85092000D01*
X156407418Y-85092000D01*
X156323615Y-84989885D01*
X156193775Y-84883329D01*
X156045642Y-84804150D01*
X155884908Y-84755392D01*
X155717750Y-84738928D01*
X155539785Y-84738928D01*
X155564162Y-84725898D01*
X155672218Y-84637218D01*
X155760898Y-84529162D01*
X155826793Y-84405881D01*
X155867371Y-84272113D01*
X155881072Y-84133000D01*
X155881072Y-83983000D01*
X155867371Y-83843887D01*
X155856485Y-83808000D01*
X155867371Y-83772113D01*
X155881072Y-83633000D01*
X155881072Y-83558559D01*
X155943676Y-83482276D01*
X156014248Y-83350247D01*
X156024030Y-83318000D01*
X156358324Y-83318000D01*
X156462803Y-83361277D01*
X156662762Y-83401051D01*
X156866640Y-83401051D01*
X157066599Y-83361277D01*
X157254957Y-83283256D01*
X157424475Y-83169988D01*
X157568638Y-83025825D01*
X157624288Y-82942538D01*
X157633982Y-82952232D01*
G37*
X157633982Y-82952232D02*
X157675102Y-83029162D01*
X157698769Y-83058000D01*
X157675102Y-83086838D01*
X157633982Y-83163768D01*
X157558000Y-83239750D01*
X157569156Y-83341996D01*
X157569180Y-83342071D01*
X157568629Y-83343887D01*
X157554928Y-83483000D01*
X157554928Y-83633000D01*
X157568629Y-83772113D01*
X157569180Y-83773929D01*
X157569156Y-83774004D01*
X157558000Y-83876250D01*
X157633982Y-83952232D01*
X157675102Y-84029162D01*
X157717645Y-84081000D01*
X157716750Y-84081000D01*
X157558000Y-84239750D01*
X157569156Y-84341996D01*
X157607285Y-84461127D01*
X157667922Y-84570531D01*
X157748737Y-84666003D01*
X157846625Y-84743874D01*
X157957825Y-84801151D01*
X158078061Y-84835634D01*
X158202715Y-84845998D01*
X158346909Y-84844992D01*
X158099901Y-85092000D01*
X156407418Y-85092000D01*
X156323615Y-84989885D01*
X156193775Y-84883329D01*
X156045642Y-84804150D01*
X155884908Y-84755392D01*
X155717750Y-84738928D01*
X155539785Y-84738928D01*
X155564162Y-84725898D01*
X155672218Y-84637218D01*
X155760898Y-84529162D01*
X155826793Y-84405881D01*
X155867371Y-84272113D01*
X155881072Y-84133000D01*
X155881072Y-83983000D01*
X155867371Y-83843887D01*
X155856485Y-83808000D01*
X155867371Y-83772113D01*
X155881072Y-83633000D01*
X155881072Y-83558559D01*
X155943676Y-83482276D01*
X156014248Y-83350247D01*
X156024030Y-83318000D01*
X156358324Y-83318000D01*
X156462803Y-83361277D01*
X156662762Y-83401051D01*
X156866640Y-83401051D01*
X157066599Y-83361277D01*
X157254957Y-83283256D01*
X157424475Y-83169988D01*
X157568638Y-83025825D01*
X157624288Y-82942538D01*
X157633982Y-82952232D01*
G36*
X154804225Y-84883329D02*
G01*
X154782570Y-84901100D01*
X154715994Y-84846463D01*
X154715263Y-84846072D01*
X154873928Y-84846072D01*
X154804225Y-84883329D01*
G37*
X154804225Y-84883329D02*
X154782570Y-84901100D01*
X154715994Y-84846463D01*
X154715263Y-84846072D01*
X154873928Y-84846072D01*
X154804225Y-84883329D01*
G36*
X157284589Y-65994010D02*
G01*
X157041368Y-66156525D01*
X156834525Y-66363368D01*
X156672010Y-66606589D01*
X156560068Y-66876842D01*
X156503000Y-67163740D01*
X156503000Y-67456260D01*
X156560068Y-67743158D01*
X156672010Y-68013411D01*
X156834525Y-68256632D01*
X156966380Y-68388487D01*
X156893820Y-68410498D01*
X156783506Y-68469463D01*
X156686815Y-68548815D01*
X156607463Y-68645506D01*
X156548498Y-68755820D01*
X156512188Y-68875518D01*
X156499928Y-69000000D01*
X156499928Y-70700000D01*
X156512188Y-70824482D01*
X156548498Y-70944180D01*
X156607463Y-71054494D01*
X156686815Y-71151185D01*
X156783506Y-71230537D01*
X156893820Y-71289502D01*
X157013518Y-71325812D01*
X157138000Y-71338072D01*
X158838000Y-71338072D01*
X158962482Y-71325812D01*
X159082180Y-71289502D01*
X159192494Y-71230537D01*
X159289185Y-71151185D01*
X159368537Y-71054494D01*
X159427502Y-70944180D01*
X159463812Y-70824482D01*
X159476072Y-70700000D01*
X159476072Y-69542796D01*
X161047869Y-67971000D01*
X161073146Y-67971000D01*
X161077406Y-67978970D01*
X161266103Y-68208897D01*
X161481903Y-68386000D01*
X161266103Y-68563103D01*
X161077406Y-68793030D01*
X160937192Y-69055352D01*
X160850849Y-69339988D01*
X160821694Y-69636000D01*
X160850849Y-69932012D01*
X160937192Y-70216648D01*
X161077406Y-70478970D01*
X161266103Y-70708897D01*
X161496030Y-70897594D01*
X161758352Y-71037808D01*
X162042988Y-71124151D01*
X162264822Y-71146000D01*
X164163178Y-71146000D01*
X164385012Y-71124151D01*
X164669648Y-71037808D01*
X164931970Y-70897594D01*
X165161897Y-70708897D01*
X165350594Y-70478970D01*
X165490808Y-70216648D01*
X165577151Y-69932012D01*
X165606306Y-69636000D01*
X165577151Y-69339988D01*
X165490808Y-69055352D01*
X165350594Y-68793030D01*
X165161897Y-68563103D01*
X164946097Y-68386000D01*
X165161897Y-68208897D01*
X165350594Y-67978970D01*
X165421529Y-67846260D01*
X167323196Y-69747928D01*
X166970000Y-69747928D01*
X166845518Y-69760188D01*
X166725820Y-69796498D01*
X166615506Y-69855463D01*
X166518815Y-69934815D01*
X166439463Y-70031506D01*
X166380498Y-70141820D01*
X166344188Y-70261518D01*
X166331928Y-70386000D01*
X166331928Y-73886000D01*
X166344188Y-74010482D01*
X166380498Y-74130180D01*
X166439463Y-74240494D01*
X166518815Y-74337185D01*
X166615506Y-74416537D01*
X166725820Y-74475502D01*
X166845518Y-74511812D01*
X166970000Y-74524072D01*
X169470000Y-74524072D01*
X169520001Y-74519148D01*
X169520000Y-81984197D01*
X167368806Y-79833003D01*
X167345003Y-79803999D01*
X167229278Y-79709026D01*
X167097249Y-79638454D01*
X166953988Y-79594997D01*
X166842335Y-79584000D01*
X166842324Y-79584000D01*
X166805002Y-79580324D01*
X166767680Y-79584000D01*
X165394942Y-79584000D01*
X165350594Y-79501030D01*
X165161897Y-79271103D01*
X164931970Y-79082406D01*
X164669648Y-78942192D01*
X164385012Y-78855849D01*
X164163178Y-78834000D01*
X162264822Y-78834000D01*
X162042988Y-78855849D01*
X161758352Y-78942192D01*
X161496030Y-79082406D01*
X161266103Y-79271103D01*
X161077406Y-79501030D01*
X161033058Y-79584000D01*
X160771322Y-79584000D01*
X160733999Y-79580324D01*
X160696676Y-79584000D01*
X160696667Y-79584000D01*
X160585014Y-79594997D01*
X160441753Y-79638454D01*
X160309723Y-79709026D01*
X160226083Y-79777668D01*
X160193999Y-79803999D01*
X160170201Y-79832997D01*
X159150641Y-80852557D01*
X159207502Y-80746180D01*
X159243812Y-80626482D01*
X159256072Y-80502000D01*
X159256072Y-78502000D01*
X159243812Y-78377518D01*
X159207502Y-78257820D01*
X159148537Y-78147506D01*
X159069185Y-78050815D01*
X158972494Y-77971463D01*
X158862180Y-77912498D01*
X158742482Y-77876188D01*
X158618000Y-77863928D01*
X157553000Y-77863928D01*
X157553000Y-77840072D01*
X157568000Y-77840072D01*
X157692482Y-77827812D01*
X157812180Y-77791502D01*
X157922494Y-77732537D01*
X158019185Y-77653185D01*
X158098537Y-77556494D01*
X158157502Y-77446180D01*
X158193812Y-77326482D01*
X158206072Y-77202000D01*
X158206072Y-75502000D01*
X158193812Y-75377518D01*
X158157502Y-75257820D01*
X158098537Y-75147506D01*
X158019185Y-75050815D01*
X157922494Y-74971463D01*
X157812180Y-74912498D01*
X157692482Y-74876188D01*
X157568000Y-74863928D01*
X157553000Y-74863928D01*
X157553000Y-74831701D01*
X157592482Y-74827812D01*
X157712180Y-74791502D01*
X157822494Y-74732537D01*
X157868000Y-74695191D01*
X157913506Y-74732537D01*
X158023820Y-74791502D01*
X158143518Y-74827812D01*
X158268000Y-74840072D01*
X158732250Y-74837000D01*
X158891000Y-74678250D01*
X158891000Y-73329000D01*
X159145000Y-73329000D01*
X159145000Y-74678250D01*
X159303750Y-74837000D01*
X159768000Y-74840072D01*
X159892482Y-74827812D01*
X160012180Y-74791502D01*
X160122494Y-74732537D01*
X160219185Y-74653185D01*
X160233288Y-74636000D01*
X160821694Y-74636000D01*
X160850849Y-74932012D01*
X160937192Y-75216648D01*
X161077406Y-75478970D01*
X161266103Y-75708897D01*
X161481903Y-75886000D01*
X161266103Y-76063103D01*
X161077406Y-76293030D01*
X160937192Y-76555352D01*
X160850849Y-76839988D01*
X160821694Y-77136000D01*
X160850849Y-77432012D01*
X160937192Y-77716648D01*
X161077406Y-77978970D01*
X161266103Y-78208897D01*
X161496030Y-78397594D01*
X161758352Y-78537808D01*
X162042988Y-78624151D01*
X162264822Y-78646000D01*
X164163178Y-78646000D01*
X164385012Y-78624151D01*
X164669648Y-78537808D01*
X164931970Y-78397594D01*
X165161897Y-78208897D01*
X165350594Y-77978970D01*
X165490808Y-77716648D01*
X165577151Y-77432012D01*
X165606306Y-77136000D01*
X165577151Y-76839988D01*
X165490808Y-76555352D01*
X165350594Y-76293030D01*
X165161897Y-76063103D01*
X164946097Y-75886000D01*
X165161897Y-75708897D01*
X165350594Y-75478970D01*
X165490808Y-75216648D01*
X165577151Y-74932012D01*
X165606306Y-74636000D01*
X165577151Y-74339988D01*
X165490808Y-74055352D01*
X165350594Y-73793030D01*
X165161897Y-73563103D01*
X164931970Y-73374406D01*
X164669648Y-73234192D01*
X164385012Y-73147849D01*
X164163178Y-73126000D01*
X162264822Y-73126000D01*
X162042988Y-73147849D01*
X161758352Y-73234192D01*
X161496030Y-73374406D01*
X161266103Y-73563103D01*
X161077406Y-73793030D01*
X160937192Y-74055352D01*
X160850849Y-74339988D01*
X160821694Y-74636000D01*
X160233288Y-74636000D01*
X160298537Y-74556494D01*
X160357502Y-74446180D01*
X160393812Y-74326482D01*
X160406072Y-74202000D01*
X160403000Y-73487750D01*
X160244250Y-73329000D01*
X159145000Y-73329000D01*
X158891000Y-73329000D01*
X158871000Y-73329000D01*
X158871000Y-73075000D01*
X158891000Y-73075000D01*
X158891000Y-71725750D01*
X159145000Y-71725750D01*
X159145000Y-73075000D01*
X160244250Y-73075000D01*
X160403000Y-72916250D01*
X160406072Y-72202000D01*
X160393812Y-72077518D01*
X160357502Y-71957820D01*
X160298537Y-71847506D01*
X160219185Y-71750815D01*
X160122494Y-71671463D01*
X160012180Y-71612498D01*
X159892482Y-71576188D01*
X159768000Y-71563928D01*
X159303750Y-71567000D01*
X159145000Y-71725750D01*
X158891000Y-71725750D01*
X158732250Y-71567000D01*
X158268000Y-71563928D01*
X158143518Y-71576188D01*
X158023820Y-71612498D01*
X157913506Y-71671463D01*
X157868000Y-71708809D01*
X157822494Y-71671463D01*
X157712180Y-71612498D01*
X157592482Y-71576188D01*
X157468000Y-71563928D01*
X155968000Y-71563928D01*
X155843518Y-71576188D01*
X155723820Y-71612498D01*
X155613506Y-71671463D01*
X155568000Y-71708809D01*
X155522494Y-71671463D01*
X155412180Y-71612498D01*
X155292482Y-71576188D01*
X155168000Y-71563928D01*
X153668000Y-71563928D01*
X153543518Y-71576188D01*
X153423820Y-71612498D01*
X153313506Y-71671463D01*
X153216815Y-71750815D01*
X153137463Y-71847506D01*
X153078498Y-71957820D01*
X153042188Y-72077518D01*
X153029928Y-72202000D01*
X153029928Y-74202000D01*
X153042188Y-74326482D01*
X153078498Y-74446180D01*
X153137463Y-74556494D01*
X153216815Y-74653185D01*
X153313506Y-74732537D01*
X153423820Y-74791502D01*
X153543518Y-74827812D01*
X153668000Y-74840072D01*
X155168000Y-74840072D01*
X155292482Y-74827812D01*
X155412180Y-74791502D01*
X155522494Y-74732537D01*
X155568000Y-74695191D01*
X155613506Y-74732537D01*
X155723820Y-74791502D01*
X155843518Y-74827812D01*
X155883000Y-74831701D01*
X155883000Y-74863928D01*
X155868000Y-74863928D01*
X155743518Y-74876188D01*
X155623820Y-74912498D01*
X155513506Y-74971463D01*
X155416815Y-75050815D01*
X155337463Y-75147506D01*
X155278498Y-75257820D01*
X155242188Y-75377518D01*
X155229928Y-75502000D01*
X155229928Y-76101500D01*
X152487461Y-76101500D01*
X152473000Y-76089632D01*
X152473000Y-76056368D01*
X152500115Y-76034115D01*
X152606671Y-75904275D01*
X152685850Y-75756142D01*
X152734608Y-75595408D01*
X152751072Y-75428250D01*
X152751072Y-74990750D01*
X152734608Y-74823592D01*
X152685850Y-74662858D01*
X152606671Y-74514725D01*
X152530574Y-74422000D01*
X152606671Y-74329275D01*
X152685850Y-74181142D01*
X152734608Y-74020408D01*
X152751072Y-73853250D01*
X152751072Y-73415750D01*
X152734608Y-73248592D01*
X152685850Y-73087858D01*
X152606671Y-72939725D01*
X152500115Y-72809885D01*
X152370275Y-72703329D01*
X152222142Y-72624150D01*
X152061408Y-72575392D01*
X151894250Y-72558928D01*
X151381750Y-72558928D01*
X151214592Y-72575392D01*
X151053858Y-72624150D01*
X150905725Y-72703329D01*
X150775885Y-72809885D01*
X150669329Y-72939725D01*
X150590150Y-73087858D01*
X150541392Y-73248592D01*
X150524928Y-73415750D01*
X150524928Y-73566704D01*
X149546175Y-74545458D01*
X149514311Y-74571608D01*
X149455334Y-74643472D01*
X149409965Y-74698754D01*
X149356247Y-74799254D01*
X149203027Y-74745037D01*
X148971000Y-74865536D01*
X148971000Y-76073000D01*
X148991000Y-76073000D01*
X148991000Y-76327000D01*
X148971000Y-76327000D01*
X148971000Y-76347000D01*
X148717000Y-76347000D01*
X148717000Y-76327000D01*
X148697000Y-76327000D01*
X148697000Y-76073000D01*
X148717000Y-76073000D01*
X148717000Y-74865536D01*
X148484973Y-74745037D01*
X148208022Y-74843036D01*
X147955512Y-74993183D01*
X147776053Y-75154692D01*
X147757102Y-75092220D01*
X147698137Y-74981906D01*
X147618785Y-74885215D01*
X147522094Y-74805863D01*
X147411780Y-74746898D01*
X147292082Y-74710588D01*
X147287974Y-74710183D01*
X147555750Y-74708000D01*
X147714500Y-74549250D01*
X147714500Y-73025000D01*
X147968500Y-73025000D01*
X147968500Y-74549250D01*
X148127250Y-74708000D01*
X148504000Y-74711072D01*
X148628482Y-74698812D01*
X148748180Y-74662502D01*
X148858494Y-74603537D01*
X148955185Y-74524185D01*
X149034537Y-74427494D01*
X149093502Y-74317180D01*
X149129812Y-74197482D01*
X149142072Y-74073000D01*
X149139000Y-73183750D01*
X148980250Y-73025000D01*
X147968500Y-73025000D01*
X147714500Y-73025000D01*
X146702750Y-73025000D01*
X146544000Y-73183750D01*
X146540928Y-74073000D01*
X146553188Y-74197482D01*
X146589498Y-74317180D01*
X146648463Y-74427494D01*
X146727815Y-74524185D01*
X146824506Y-74603537D01*
X146934820Y-74662502D01*
X147052922Y-74698328D01*
X145440400Y-74698328D01*
X145315918Y-74710588D01*
X145196220Y-74746898D01*
X145085906Y-74805863D01*
X144989215Y-74885215D01*
X144909863Y-74981906D01*
X144850898Y-75092220D01*
X144814588Y-75211918D01*
X144802328Y-75336400D01*
X144802328Y-77063600D01*
X144814588Y-77188082D01*
X144822290Y-77213473D01*
X144815185Y-77204815D01*
X144718494Y-77125463D01*
X144608180Y-77066498D01*
X144599000Y-77063713D01*
X144599000Y-74711072D01*
X145179001Y-74711072D01*
X145352255Y-74694008D01*
X145518851Y-74643472D01*
X145672387Y-74561405D01*
X145806962Y-74450962D01*
X145917405Y-74316387D01*
X145999472Y-74162851D01*
X146050008Y-73996255D01*
X146067072Y-73823001D01*
X146067072Y-72777068D01*
X146139646Y-72688636D01*
X146217182Y-72543577D01*
X146264928Y-72386179D01*
X146277010Y-72263509D01*
X146277010Y-72263499D01*
X146281049Y-72222491D01*
X146277010Y-72181483D01*
X146277010Y-71723000D01*
X146540928Y-71723000D01*
X146544000Y-72612250D01*
X146702750Y-72771000D01*
X147714500Y-72771000D01*
X147714500Y-72751000D01*
X147968500Y-72751000D01*
X147968500Y-72771000D01*
X148980250Y-72771000D01*
X149139000Y-72612250D01*
X149142072Y-71723000D01*
X149129812Y-71598518D01*
X149093502Y-71478820D01*
X149034537Y-71368506D01*
X149029517Y-71362389D01*
X149337998Y-71364068D01*
X149462480Y-71351808D01*
X149582178Y-71315498D01*
X149692492Y-71256533D01*
X149789183Y-71177181D01*
X149868535Y-71080490D01*
X149927500Y-70970176D01*
X149963810Y-70850478D01*
X149976070Y-70725996D01*
X153299925Y-70725996D01*
X153312185Y-70850478D01*
X153348495Y-70970176D01*
X153407460Y-71080490D01*
X153486812Y-71177181D01*
X153583503Y-71256533D01*
X153693817Y-71315498D01*
X153813515Y-71351808D01*
X153937997Y-71364068D01*
X154502246Y-71360996D01*
X154660996Y-71202246D01*
X154660996Y-70352996D01*
X154914996Y-70352996D01*
X154914996Y-71202246D01*
X155073746Y-71360996D01*
X155637995Y-71364068D01*
X155762477Y-71351808D01*
X155882175Y-71315498D01*
X155992489Y-71256533D01*
X156089180Y-71177181D01*
X156168532Y-71080490D01*
X156227497Y-70970176D01*
X156263807Y-70850478D01*
X156276067Y-70725996D01*
X156272995Y-70511746D01*
X156114245Y-70352996D01*
X154914996Y-70352996D01*
X154660996Y-70352996D01*
X153461747Y-70352996D01*
X153302997Y-70511746D01*
X153299925Y-70725996D01*
X149976070Y-70725996D01*
X149972998Y-70511746D01*
X149814248Y-70352996D01*
X148614999Y-70352996D01*
X148614999Y-70372996D01*
X148360999Y-70372996D01*
X148360999Y-70352996D01*
X147161750Y-70352996D01*
X147003000Y-70511746D01*
X146999928Y-70725996D01*
X147012188Y-70850478D01*
X147048498Y-70970176D01*
X147107463Y-71080490D01*
X147116183Y-71091115D01*
X147054518Y-71097188D01*
X146934820Y-71133498D01*
X146824506Y-71192463D01*
X146727815Y-71271815D01*
X146648463Y-71368506D01*
X146589498Y-71478820D01*
X146553188Y-71598518D01*
X146540928Y-71723000D01*
X146277010Y-71723000D01*
X146277010Y-69725996D01*
X146999928Y-69725996D01*
X147003000Y-69940246D01*
X147161750Y-70098996D01*
X148360999Y-70098996D01*
X148360999Y-69249746D01*
X148614999Y-69249746D01*
X148614999Y-70098996D01*
X149814248Y-70098996D01*
X149972998Y-69940246D01*
X149976070Y-69725996D01*
X153299925Y-69725996D01*
X153302997Y-69940246D01*
X153461747Y-70098996D01*
X154660996Y-70098996D01*
X154660996Y-69249746D01*
X154914996Y-69249746D01*
X154914996Y-70098996D01*
X156114245Y-70098996D01*
X156272995Y-69940246D01*
X156276067Y-69725996D01*
X156263807Y-69601514D01*
X156227497Y-69481816D01*
X156168532Y-69371502D01*
X156089180Y-69274811D01*
X155992489Y-69195459D01*
X155882175Y-69136494D01*
X155762477Y-69100184D01*
X155637995Y-69087924D01*
X155073746Y-69090996D01*
X154914996Y-69249746D01*
X154660996Y-69249746D01*
X154502246Y-69090996D01*
X153937997Y-69087924D01*
X153813515Y-69100184D01*
X153693817Y-69136494D01*
X153583503Y-69195459D01*
X153486812Y-69274811D01*
X153407460Y-69371502D01*
X153348495Y-69481816D01*
X153312185Y-69601514D01*
X153299925Y-69725996D01*
X149976070Y-69725996D01*
X149963810Y-69601514D01*
X149927500Y-69481816D01*
X149868535Y-69371502D01*
X149789183Y-69274811D01*
X149692492Y-69195459D01*
X149582178Y-69136494D01*
X149462480Y-69100184D01*
X149337998Y-69087924D01*
X148773749Y-69090996D01*
X148614999Y-69249746D01*
X148360999Y-69249746D01*
X148202249Y-69090996D01*
X147638000Y-69087924D01*
X147513518Y-69100184D01*
X147393820Y-69136494D01*
X147283506Y-69195459D01*
X147186815Y-69274811D01*
X147107463Y-69371502D01*
X147048498Y-69481816D01*
X147012188Y-69601514D01*
X146999928Y-69725996D01*
X146277010Y-69725996D01*
X146277010Y-68821772D01*
X146281050Y-68780754D01*
X146264928Y-68617066D01*
X146248734Y-68563679D01*
X146242539Y-68543258D01*
X146392000Y-68544072D01*
X146516482Y-68531812D01*
X146636180Y-68495502D01*
X146746494Y-68436537D01*
X146843185Y-68357185D01*
X146922537Y-68260494D01*
X146981502Y-68150180D01*
X147017812Y-68030482D01*
X147030072Y-67906000D01*
X147027000Y-67341750D01*
X146868252Y-67183002D01*
X147027000Y-67183002D01*
X147027000Y-67099310D01*
X147048498Y-67170179D01*
X147107463Y-67280493D01*
X147186815Y-67377184D01*
X147283506Y-67456536D01*
X147393820Y-67515501D01*
X147513518Y-67551811D01*
X147638000Y-67564071D01*
X149337998Y-67564071D01*
X149462480Y-67551811D01*
X149582178Y-67515501D01*
X149692492Y-67456536D01*
X149789183Y-67377184D01*
X149868535Y-67280493D01*
X149878955Y-67260999D01*
X153397040Y-67260999D01*
X153407460Y-67280493D01*
X153486812Y-67377184D01*
X153583503Y-67456536D01*
X153693817Y-67515501D01*
X153813515Y-67551811D01*
X153937997Y-67564071D01*
X155637995Y-67564071D01*
X155762477Y-67551811D01*
X155882175Y-67515501D01*
X155992489Y-67456536D01*
X156089180Y-67377184D01*
X156168532Y-67280493D01*
X156227497Y-67170179D01*
X156263807Y-67050481D01*
X156276067Y-66925999D01*
X156276067Y-65938000D01*
X157419810Y-65938000D01*
X157284589Y-65994010D01*
G37*
X157284589Y-65994010D02*
X157041368Y-66156525D01*
X156834525Y-66363368D01*
X156672010Y-66606589D01*
X156560068Y-66876842D01*
X156503000Y-67163740D01*
X156503000Y-67456260D01*
X156560068Y-67743158D01*
X156672010Y-68013411D01*
X156834525Y-68256632D01*
X156966380Y-68388487D01*
X156893820Y-68410498D01*
X156783506Y-68469463D01*
X156686815Y-68548815D01*
X156607463Y-68645506D01*
X156548498Y-68755820D01*
X156512188Y-68875518D01*
X156499928Y-69000000D01*
X156499928Y-70700000D01*
X156512188Y-70824482D01*
X156548498Y-70944180D01*
X156607463Y-71054494D01*
X156686815Y-71151185D01*
X156783506Y-71230537D01*
X156893820Y-71289502D01*
X157013518Y-71325812D01*
X157138000Y-71338072D01*
X158838000Y-71338072D01*
X158962482Y-71325812D01*
X159082180Y-71289502D01*
X159192494Y-71230537D01*
X159289185Y-71151185D01*
X159368537Y-71054494D01*
X159427502Y-70944180D01*
X159463812Y-70824482D01*
X159476072Y-70700000D01*
X159476072Y-69542796D01*
X161047869Y-67971000D01*
X161073146Y-67971000D01*
X161077406Y-67978970D01*
X161266103Y-68208897D01*
X161481903Y-68386000D01*
X161266103Y-68563103D01*
X161077406Y-68793030D01*
X160937192Y-69055352D01*
X160850849Y-69339988D01*
X160821694Y-69636000D01*
X160850849Y-69932012D01*
X160937192Y-70216648D01*
X161077406Y-70478970D01*
X161266103Y-70708897D01*
X161496030Y-70897594D01*
X161758352Y-71037808D01*
X162042988Y-71124151D01*
X162264822Y-71146000D01*
X164163178Y-71146000D01*
X164385012Y-71124151D01*
X164669648Y-71037808D01*
X164931970Y-70897594D01*
X165161897Y-70708897D01*
X165350594Y-70478970D01*
X165490808Y-70216648D01*
X165577151Y-69932012D01*
X165606306Y-69636000D01*
X165577151Y-69339988D01*
X165490808Y-69055352D01*
X165350594Y-68793030D01*
X165161897Y-68563103D01*
X164946097Y-68386000D01*
X165161897Y-68208897D01*
X165350594Y-67978970D01*
X165421529Y-67846260D01*
X167323196Y-69747928D01*
X166970000Y-69747928D01*
X166845518Y-69760188D01*
X166725820Y-69796498D01*
X166615506Y-69855463D01*
X166518815Y-69934815D01*
X166439463Y-70031506D01*
X166380498Y-70141820D01*
X166344188Y-70261518D01*
X166331928Y-70386000D01*
X166331928Y-73886000D01*
X166344188Y-74010482D01*
X166380498Y-74130180D01*
X166439463Y-74240494D01*
X166518815Y-74337185D01*
X166615506Y-74416537D01*
X166725820Y-74475502D01*
X166845518Y-74511812D01*
X166970000Y-74524072D01*
X169470000Y-74524072D01*
X169520001Y-74519148D01*
X169520000Y-81984197D01*
X167368806Y-79833003D01*
X167345003Y-79803999D01*
X167229278Y-79709026D01*
X167097249Y-79638454D01*
X166953988Y-79594997D01*
X166842335Y-79584000D01*
X166842324Y-79584000D01*
X166805002Y-79580324D01*
X166767680Y-79584000D01*
X165394942Y-79584000D01*
X165350594Y-79501030D01*
X165161897Y-79271103D01*
X164931970Y-79082406D01*
X164669648Y-78942192D01*
X164385012Y-78855849D01*
X164163178Y-78834000D01*
X162264822Y-78834000D01*
X162042988Y-78855849D01*
X161758352Y-78942192D01*
X161496030Y-79082406D01*
X161266103Y-79271103D01*
X161077406Y-79501030D01*
X161033058Y-79584000D01*
X160771322Y-79584000D01*
X160733999Y-79580324D01*
X160696676Y-79584000D01*
X160696667Y-79584000D01*
X160585014Y-79594997D01*
X160441753Y-79638454D01*
X160309723Y-79709026D01*
X160226083Y-79777668D01*
X160193999Y-79803999D01*
X160170201Y-79832997D01*
X159150641Y-80852557D01*
X159207502Y-80746180D01*
X159243812Y-80626482D01*
X159256072Y-80502000D01*
X159256072Y-78502000D01*
X159243812Y-78377518D01*
X159207502Y-78257820D01*
X159148537Y-78147506D01*
X159069185Y-78050815D01*
X158972494Y-77971463D01*
X158862180Y-77912498D01*
X158742482Y-77876188D01*
X158618000Y-77863928D01*
X157553000Y-77863928D01*
X157553000Y-77840072D01*
X157568000Y-77840072D01*
X157692482Y-77827812D01*
X157812180Y-77791502D01*
X157922494Y-77732537D01*
X158019185Y-77653185D01*
X158098537Y-77556494D01*
X158157502Y-77446180D01*
X158193812Y-77326482D01*
X158206072Y-77202000D01*
X158206072Y-75502000D01*
X158193812Y-75377518D01*
X158157502Y-75257820D01*
X158098537Y-75147506D01*
X158019185Y-75050815D01*
X157922494Y-74971463D01*
X157812180Y-74912498D01*
X157692482Y-74876188D01*
X157568000Y-74863928D01*
X157553000Y-74863928D01*
X157553000Y-74831701D01*
X157592482Y-74827812D01*
X157712180Y-74791502D01*
X157822494Y-74732537D01*
X157868000Y-74695191D01*
X157913506Y-74732537D01*
X158023820Y-74791502D01*
X158143518Y-74827812D01*
X158268000Y-74840072D01*
X158732250Y-74837000D01*
X158891000Y-74678250D01*
X158891000Y-73329000D01*
X159145000Y-73329000D01*
X159145000Y-74678250D01*
X159303750Y-74837000D01*
X159768000Y-74840072D01*
X159892482Y-74827812D01*
X160012180Y-74791502D01*
X160122494Y-74732537D01*
X160219185Y-74653185D01*
X160233288Y-74636000D01*
X160821694Y-74636000D01*
X160850849Y-74932012D01*
X160937192Y-75216648D01*
X161077406Y-75478970D01*
X161266103Y-75708897D01*
X161481903Y-75886000D01*
X161266103Y-76063103D01*
X161077406Y-76293030D01*
X160937192Y-76555352D01*
X160850849Y-76839988D01*
X160821694Y-77136000D01*
X160850849Y-77432012D01*
X160937192Y-77716648D01*
X161077406Y-77978970D01*
X161266103Y-78208897D01*
X161496030Y-78397594D01*
X161758352Y-78537808D01*
X162042988Y-78624151D01*
X162264822Y-78646000D01*
X164163178Y-78646000D01*
X164385012Y-78624151D01*
X164669648Y-78537808D01*
X164931970Y-78397594D01*
X165161897Y-78208897D01*
X165350594Y-77978970D01*
X165490808Y-77716648D01*
X165577151Y-77432012D01*
X165606306Y-77136000D01*
X165577151Y-76839988D01*
X165490808Y-76555352D01*
X165350594Y-76293030D01*
X165161897Y-76063103D01*
X164946097Y-75886000D01*
X165161897Y-75708897D01*
X165350594Y-75478970D01*
X165490808Y-75216648D01*
X165577151Y-74932012D01*
X165606306Y-74636000D01*
X165577151Y-74339988D01*
X165490808Y-74055352D01*
X165350594Y-73793030D01*
X165161897Y-73563103D01*
X164931970Y-73374406D01*
X164669648Y-73234192D01*
X164385012Y-73147849D01*
X164163178Y-73126000D01*
X162264822Y-73126000D01*
X162042988Y-73147849D01*
X161758352Y-73234192D01*
X161496030Y-73374406D01*
X161266103Y-73563103D01*
X161077406Y-73793030D01*
X160937192Y-74055352D01*
X160850849Y-74339988D01*
X160821694Y-74636000D01*
X160233288Y-74636000D01*
X160298537Y-74556494D01*
X160357502Y-74446180D01*
X160393812Y-74326482D01*
X160406072Y-74202000D01*
X160403000Y-73487750D01*
X160244250Y-73329000D01*
X159145000Y-73329000D01*
X158891000Y-73329000D01*
X158871000Y-73329000D01*
X158871000Y-73075000D01*
X158891000Y-73075000D01*
X158891000Y-71725750D01*
X159145000Y-71725750D01*
X159145000Y-73075000D01*
X160244250Y-73075000D01*
X160403000Y-72916250D01*
X160406072Y-72202000D01*
X160393812Y-72077518D01*
X160357502Y-71957820D01*
X160298537Y-71847506D01*
X160219185Y-71750815D01*
X160122494Y-71671463D01*
X160012180Y-71612498D01*
X159892482Y-71576188D01*
X159768000Y-71563928D01*
X159303750Y-71567000D01*
X159145000Y-71725750D01*
X158891000Y-71725750D01*
X158732250Y-71567000D01*
X158268000Y-71563928D01*
X158143518Y-71576188D01*
X158023820Y-71612498D01*
X157913506Y-71671463D01*
X157868000Y-71708809D01*
X157822494Y-71671463D01*
X157712180Y-71612498D01*
X157592482Y-71576188D01*
X157468000Y-71563928D01*
X155968000Y-71563928D01*
X155843518Y-71576188D01*
X155723820Y-71612498D01*
X155613506Y-71671463D01*
X155568000Y-71708809D01*
X155522494Y-71671463D01*
X155412180Y-71612498D01*
X155292482Y-71576188D01*
X155168000Y-71563928D01*
X153668000Y-71563928D01*
X153543518Y-71576188D01*
X153423820Y-71612498D01*
X153313506Y-71671463D01*
X153216815Y-71750815D01*
X153137463Y-71847506D01*
X153078498Y-71957820D01*
X153042188Y-72077518D01*
X153029928Y-72202000D01*
X153029928Y-74202000D01*
X153042188Y-74326482D01*
X153078498Y-74446180D01*
X153137463Y-74556494D01*
X153216815Y-74653185D01*
X153313506Y-74732537D01*
X153423820Y-74791502D01*
X153543518Y-74827812D01*
X153668000Y-74840072D01*
X155168000Y-74840072D01*
X155292482Y-74827812D01*
X155412180Y-74791502D01*
X155522494Y-74732537D01*
X155568000Y-74695191D01*
X155613506Y-74732537D01*
X155723820Y-74791502D01*
X155843518Y-74827812D01*
X155883000Y-74831701D01*
X155883000Y-74863928D01*
X155868000Y-74863928D01*
X155743518Y-74876188D01*
X155623820Y-74912498D01*
X155513506Y-74971463D01*
X155416815Y-75050815D01*
X155337463Y-75147506D01*
X155278498Y-75257820D01*
X155242188Y-75377518D01*
X155229928Y-75502000D01*
X155229928Y-76101500D01*
X152487461Y-76101500D01*
X152473000Y-76089632D01*
X152473000Y-76056368D01*
X152500115Y-76034115D01*
X152606671Y-75904275D01*
X152685850Y-75756142D01*
X152734608Y-75595408D01*
X152751072Y-75428250D01*
X152751072Y-74990750D01*
X152734608Y-74823592D01*
X152685850Y-74662858D01*
X152606671Y-74514725D01*
X152530574Y-74422000D01*
X152606671Y-74329275D01*
X152685850Y-74181142D01*
X152734608Y-74020408D01*
X152751072Y-73853250D01*
X152751072Y-73415750D01*
X152734608Y-73248592D01*
X152685850Y-73087858D01*
X152606671Y-72939725D01*
X152500115Y-72809885D01*
X152370275Y-72703329D01*
X152222142Y-72624150D01*
X152061408Y-72575392D01*
X151894250Y-72558928D01*
X151381750Y-72558928D01*
X151214592Y-72575392D01*
X151053858Y-72624150D01*
X150905725Y-72703329D01*
X150775885Y-72809885D01*
X150669329Y-72939725D01*
X150590150Y-73087858D01*
X150541392Y-73248592D01*
X150524928Y-73415750D01*
X150524928Y-73566704D01*
X149546175Y-74545458D01*
X149514311Y-74571608D01*
X149455334Y-74643472D01*
X149409965Y-74698754D01*
X149356247Y-74799254D01*
X149203027Y-74745037D01*
X148971000Y-74865536D01*
X148971000Y-76073000D01*
X148991000Y-76073000D01*
X148991000Y-76327000D01*
X148971000Y-76327000D01*
X148971000Y-76347000D01*
X148717000Y-76347000D01*
X148717000Y-76327000D01*
X148697000Y-76327000D01*
X148697000Y-76073000D01*
X148717000Y-76073000D01*
X148717000Y-74865536D01*
X148484973Y-74745037D01*
X148208022Y-74843036D01*
X147955512Y-74993183D01*
X147776053Y-75154692D01*
X147757102Y-75092220D01*
X147698137Y-74981906D01*
X147618785Y-74885215D01*
X147522094Y-74805863D01*
X147411780Y-74746898D01*
X147292082Y-74710588D01*
X147287974Y-74710183D01*
X147555750Y-74708000D01*
X147714500Y-74549250D01*
X147714500Y-73025000D01*
X147968500Y-73025000D01*
X147968500Y-74549250D01*
X148127250Y-74708000D01*
X148504000Y-74711072D01*
X148628482Y-74698812D01*
X148748180Y-74662502D01*
X148858494Y-74603537D01*
X148955185Y-74524185D01*
X149034537Y-74427494D01*
X149093502Y-74317180D01*
X149129812Y-74197482D01*
X149142072Y-74073000D01*
X149139000Y-73183750D01*
X148980250Y-73025000D01*
X147968500Y-73025000D01*
X147714500Y-73025000D01*
X146702750Y-73025000D01*
X146544000Y-73183750D01*
X146540928Y-74073000D01*
X146553188Y-74197482D01*
X146589498Y-74317180D01*
X146648463Y-74427494D01*
X146727815Y-74524185D01*
X146824506Y-74603537D01*
X146934820Y-74662502D01*
X147052922Y-74698328D01*
X145440400Y-74698328D01*
X145315918Y-74710588D01*
X145196220Y-74746898D01*
X145085906Y-74805863D01*
X144989215Y-74885215D01*
X144909863Y-74981906D01*
X144850898Y-75092220D01*
X144814588Y-75211918D01*
X144802328Y-75336400D01*
X144802328Y-77063600D01*
X144814588Y-77188082D01*
X144822290Y-77213473D01*
X144815185Y-77204815D01*
X144718494Y-77125463D01*
X144608180Y-77066498D01*
X144599000Y-77063713D01*
X144599000Y-74711072D01*
X145179001Y-74711072D01*
X145352255Y-74694008D01*
X145518851Y-74643472D01*
X145672387Y-74561405D01*
X145806962Y-74450962D01*
X145917405Y-74316387D01*
X145999472Y-74162851D01*
X146050008Y-73996255D01*
X146067072Y-73823001D01*
X146067072Y-72777068D01*
X146139646Y-72688636D01*
X146217182Y-72543577D01*
X146264928Y-72386179D01*
X146277010Y-72263509D01*
X146277010Y-72263499D01*
X146281049Y-72222491D01*
X146277010Y-72181483D01*
X146277010Y-71723000D01*
X146540928Y-71723000D01*
X146544000Y-72612250D01*
X146702750Y-72771000D01*
X147714500Y-72771000D01*
X147714500Y-72751000D01*
X147968500Y-72751000D01*
X147968500Y-72771000D01*
X148980250Y-72771000D01*
X149139000Y-72612250D01*
X149142072Y-71723000D01*
X149129812Y-71598518D01*
X149093502Y-71478820D01*
X149034537Y-71368506D01*
X149029517Y-71362389D01*
X149337998Y-71364068D01*
X149462480Y-71351808D01*
X149582178Y-71315498D01*
X149692492Y-71256533D01*
X149789183Y-71177181D01*
X149868535Y-71080490D01*
X149927500Y-70970176D01*
X149963810Y-70850478D01*
X149976070Y-70725996D01*
X153299925Y-70725996D01*
X153312185Y-70850478D01*
X153348495Y-70970176D01*
X153407460Y-71080490D01*
X153486812Y-71177181D01*
X153583503Y-71256533D01*
X153693817Y-71315498D01*
X153813515Y-71351808D01*
X153937997Y-71364068D01*
X154502246Y-71360996D01*
X154660996Y-71202246D01*
X154660996Y-70352996D01*
X154914996Y-70352996D01*
X154914996Y-71202246D01*
X155073746Y-71360996D01*
X155637995Y-71364068D01*
X155762477Y-71351808D01*
X155882175Y-71315498D01*
X155992489Y-71256533D01*
X156089180Y-71177181D01*
X156168532Y-71080490D01*
X156227497Y-70970176D01*
X156263807Y-70850478D01*
X156276067Y-70725996D01*
X156272995Y-70511746D01*
X156114245Y-70352996D01*
X154914996Y-70352996D01*
X154660996Y-70352996D01*
X153461747Y-70352996D01*
X153302997Y-70511746D01*
X153299925Y-70725996D01*
X149976070Y-70725996D01*
X149972998Y-70511746D01*
X149814248Y-70352996D01*
X148614999Y-70352996D01*
X148614999Y-70372996D01*
X148360999Y-70372996D01*
X148360999Y-70352996D01*
X147161750Y-70352996D01*
X147003000Y-70511746D01*
X146999928Y-70725996D01*
X147012188Y-70850478D01*
X147048498Y-70970176D01*
X147107463Y-71080490D01*
X147116183Y-71091115D01*
X147054518Y-71097188D01*
X146934820Y-71133498D01*
X146824506Y-71192463D01*
X146727815Y-71271815D01*
X146648463Y-71368506D01*
X146589498Y-71478820D01*
X146553188Y-71598518D01*
X146540928Y-71723000D01*
X146277010Y-71723000D01*
X146277010Y-69725996D01*
X146999928Y-69725996D01*
X147003000Y-69940246D01*
X147161750Y-70098996D01*
X148360999Y-70098996D01*
X148360999Y-69249746D01*
X148614999Y-69249746D01*
X148614999Y-70098996D01*
X149814248Y-70098996D01*
X149972998Y-69940246D01*
X149976070Y-69725996D01*
X153299925Y-69725996D01*
X153302997Y-69940246D01*
X153461747Y-70098996D01*
X154660996Y-70098996D01*
X154660996Y-69249746D01*
X154914996Y-69249746D01*
X154914996Y-70098996D01*
X156114245Y-70098996D01*
X156272995Y-69940246D01*
X156276067Y-69725996D01*
X156263807Y-69601514D01*
X156227497Y-69481816D01*
X156168532Y-69371502D01*
X156089180Y-69274811D01*
X155992489Y-69195459D01*
X155882175Y-69136494D01*
X155762477Y-69100184D01*
X155637995Y-69087924D01*
X155073746Y-69090996D01*
X154914996Y-69249746D01*
X154660996Y-69249746D01*
X154502246Y-69090996D01*
X153937997Y-69087924D01*
X153813515Y-69100184D01*
X153693817Y-69136494D01*
X153583503Y-69195459D01*
X153486812Y-69274811D01*
X153407460Y-69371502D01*
X153348495Y-69481816D01*
X153312185Y-69601514D01*
X153299925Y-69725996D01*
X149976070Y-69725996D01*
X149963810Y-69601514D01*
X149927500Y-69481816D01*
X149868535Y-69371502D01*
X149789183Y-69274811D01*
X149692492Y-69195459D01*
X149582178Y-69136494D01*
X149462480Y-69100184D01*
X149337998Y-69087924D01*
X148773749Y-69090996D01*
X148614999Y-69249746D01*
X148360999Y-69249746D01*
X148202249Y-69090996D01*
X147638000Y-69087924D01*
X147513518Y-69100184D01*
X147393820Y-69136494D01*
X147283506Y-69195459D01*
X147186815Y-69274811D01*
X147107463Y-69371502D01*
X147048498Y-69481816D01*
X147012188Y-69601514D01*
X146999928Y-69725996D01*
X146277010Y-69725996D01*
X146277010Y-68821772D01*
X146281050Y-68780754D01*
X146264928Y-68617066D01*
X146248734Y-68563679D01*
X146242539Y-68543258D01*
X146392000Y-68544072D01*
X146516482Y-68531812D01*
X146636180Y-68495502D01*
X146746494Y-68436537D01*
X146843185Y-68357185D01*
X146922537Y-68260494D01*
X146981502Y-68150180D01*
X147017812Y-68030482D01*
X147030072Y-67906000D01*
X147027000Y-67341750D01*
X146868252Y-67183002D01*
X147027000Y-67183002D01*
X147027000Y-67099310D01*
X147048498Y-67170179D01*
X147107463Y-67280493D01*
X147186815Y-67377184D01*
X147283506Y-67456536D01*
X147393820Y-67515501D01*
X147513518Y-67551811D01*
X147638000Y-67564071D01*
X149337998Y-67564071D01*
X149462480Y-67551811D01*
X149582178Y-67515501D01*
X149692492Y-67456536D01*
X149789183Y-67377184D01*
X149868535Y-67280493D01*
X149878955Y-67260999D01*
X153397040Y-67260999D01*
X153407460Y-67280493D01*
X153486812Y-67377184D01*
X153583503Y-67456536D01*
X153693817Y-67515501D01*
X153813515Y-67551811D01*
X153937997Y-67564071D01*
X155637995Y-67564071D01*
X155762477Y-67551811D01*
X155882175Y-67515501D01*
X155992489Y-67456536D01*
X156089180Y-67377184D01*
X156168532Y-67280493D01*
X156227497Y-67170179D01*
X156263807Y-67050481D01*
X156276067Y-66925999D01*
X156276067Y-65938000D01*
X157419810Y-65938000D01*
X157284589Y-65994010D01*
G36*
X139905500Y-80899000D02*
G01*
X139925500Y-80899000D01*
X139925500Y-81153000D01*
X139905500Y-81153000D01*
X139905500Y-81173000D01*
X139651500Y-81173000D01*
X139651500Y-81153000D01*
X139631500Y-81153000D01*
X139631500Y-80899000D01*
X139651500Y-80899000D01*
X139651500Y-80879000D01*
X139905500Y-80879000D01*
X139905500Y-80899000D01*
G37*
X139905500Y-80899000D02*
X139925500Y-80899000D01*
X139925500Y-81153000D01*
X139905500Y-81153000D01*
X139905500Y-81173000D01*
X139651500Y-81173000D01*
X139651500Y-81153000D01*
X139631500Y-81153000D01*
X139631500Y-80899000D01*
X139651500Y-80899000D01*
X139651500Y-80879000D01*
X139905500Y-80879000D01*
X139905500Y-80899000D01*
G36*
X139907000Y-69564250D02*
G01*
X140065750Y-69723000D01*
X142665000Y-69723000D01*
X142665000Y-69703000D01*
X142919000Y-69703000D01*
X142919000Y-69723000D01*
X142939000Y-69723000D01*
X142939000Y-69977000D01*
X142919000Y-69977000D01*
X142919000Y-71376250D01*
X143077750Y-71535000D01*
X143585565Y-71535794D01*
X143533528Y-71633149D01*
X143482992Y-71799745D01*
X143465928Y-71972999D01*
X143465928Y-73017705D01*
X143202574Y-73281059D01*
X143170710Y-73307209D01*
X143144562Y-73339071D01*
X143066364Y-73434355D01*
X142988828Y-73579414D01*
X142941082Y-73736812D01*
X142924960Y-73900500D01*
X142929001Y-73941528D01*
X142929000Y-77063713D01*
X142919820Y-77066498D01*
X142809506Y-77125463D01*
X142712815Y-77204815D01*
X142633463Y-77301506D01*
X142574498Y-77411820D01*
X142538188Y-77531518D01*
X142525928Y-77656000D01*
X142525928Y-77666466D01*
X142520792Y-77660208D01*
X142387164Y-77550542D01*
X142234709Y-77469053D01*
X142108267Y-77430697D01*
X142198482Y-77421812D01*
X142318180Y-77385502D01*
X142428494Y-77326537D01*
X142525185Y-77247185D01*
X142604537Y-77150494D01*
X142663502Y-77040180D01*
X142699812Y-76920482D01*
X142712072Y-76796000D01*
X142712072Y-75096000D01*
X142699812Y-74971518D01*
X142663502Y-74851820D01*
X142604537Y-74741506D01*
X142525185Y-74644815D01*
X142428494Y-74565463D01*
X142318180Y-74506498D01*
X142198482Y-74470188D01*
X142074000Y-74457928D01*
X140374000Y-74457928D01*
X140249518Y-74470188D01*
X140129820Y-74506498D01*
X140019506Y-74565463D01*
X139922815Y-74644815D01*
X139843463Y-74741506D01*
X139784498Y-74851820D01*
X139748188Y-74971518D01*
X139735928Y-75096000D01*
X139735928Y-76253204D01*
X139217074Y-76772059D01*
X139185210Y-76798209D01*
X139115535Y-76883108D01*
X139080864Y-76925355D01*
X139003328Y-77070414D01*
X138955582Y-77227812D01*
X138939460Y-77391500D01*
X138943501Y-77432528D01*
X138943501Y-77633706D01*
X138911208Y-77660208D01*
X138801542Y-77793836D01*
X138743572Y-77902290D01*
X138743572Y-76952200D01*
X138731312Y-76827718D01*
X138695002Y-76708020D01*
X138636037Y-76597706D01*
X138556685Y-76501015D01*
X138459994Y-76421663D01*
X138349680Y-76362698D01*
X138236859Y-76328474D01*
X138275502Y-76256180D01*
X138311812Y-76136482D01*
X138324072Y-76012000D01*
X138321000Y-75977750D01*
X138162250Y-75819000D01*
X137518000Y-75819000D01*
X137518000Y-75839000D01*
X137354072Y-75839000D01*
X137354072Y-75519500D01*
X137338977Y-75366243D01*
X137294274Y-75218875D01*
X137264000Y-75162237D01*
X137264000Y-74895750D01*
X137518000Y-74895750D01*
X137518000Y-75565000D01*
X138162250Y-75565000D01*
X138321000Y-75406250D01*
X138324072Y-75372000D01*
X138311812Y-75247518D01*
X138275502Y-75127820D01*
X138216537Y-75017506D01*
X138137185Y-74920815D01*
X138040494Y-74841463D01*
X137930180Y-74782498D01*
X137810482Y-74746188D01*
X137686000Y-74733928D01*
X137676750Y-74737000D01*
X137518000Y-74895750D01*
X137264000Y-74895750D01*
X137105250Y-74737000D01*
X137096000Y-74733928D01*
X136971518Y-74746188D01*
X136851820Y-74782498D01*
X136844684Y-74786312D01*
X136721757Y-74749023D01*
X136568500Y-74733928D01*
X136273500Y-74733928D01*
X136120243Y-74749023D01*
X135972875Y-74793726D01*
X135854498Y-74857000D01*
X135676250Y-74857000D01*
X135622250Y-74803000D01*
X135064570Y-74803000D01*
X134814072Y-74552503D01*
X134814072Y-74503500D01*
X134798977Y-74350243D01*
X134754274Y-74202875D01*
X134724000Y-74146237D01*
X134724000Y-73879750D01*
X134978000Y-73879750D01*
X134978000Y-74549000D01*
X135622250Y-74549000D01*
X135781000Y-74390250D01*
X135784072Y-74356000D01*
X135771812Y-74231518D01*
X135735502Y-74111820D01*
X135676537Y-74001506D01*
X135597185Y-73904815D01*
X135500494Y-73825463D01*
X135390180Y-73766498D01*
X135270482Y-73730188D01*
X135146000Y-73717928D01*
X135136750Y-73721000D01*
X134978000Y-73879750D01*
X134724000Y-73879750D01*
X134716000Y-73871750D01*
X134716000Y-71906867D01*
X135084795Y-71538072D01*
X137592000Y-71538072D01*
X137765254Y-71521008D01*
X137931850Y-71470472D01*
X138085386Y-71388405D01*
X138219962Y-71277962D01*
X138330405Y-71143386D01*
X138412472Y-70989850D01*
X138439727Y-70900000D01*
X139903928Y-70900000D01*
X139916188Y-71024482D01*
X139952498Y-71144180D01*
X140011463Y-71254494D01*
X140090815Y-71351185D01*
X140187506Y-71430537D01*
X140297820Y-71489502D01*
X140417518Y-71525812D01*
X140542000Y-71538072D01*
X142506250Y-71535000D01*
X142665000Y-71376250D01*
X142665000Y-69977000D01*
X140065750Y-69977000D01*
X139907000Y-70135750D01*
X139903928Y-70900000D01*
X138439727Y-70900000D01*
X138463008Y-70823254D01*
X138480072Y-70650000D01*
X138480072Y-69234990D01*
X139905676Y-69234990D01*
X139907000Y-69564250D01*
G37*
X139907000Y-69564250D02*
X140065750Y-69723000D01*
X142665000Y-69723000D01*
X142665000Y-69703000D01*
X142919000Y-69703000D01*
X142919000Y-69723000D01*
X142939000Y-69723000D01*
X142939000Y-69977000D01*
X142919000Y-69977000D01*
X142919000Y-71376250D01*
X143077750Y-71535000D01*
X143585565Y-71535794D01*
X143533528Y-71633149D01*
X143482992Y-71799745D01*
X143465928Y-71972999D01*
X143465928Y-73017705D01*
X143202574Y-73281059D01*
X143170710Y-73307209D01*
X143144562Y-73339071D01*
X143066364Y-73434355D01*
X142988828Y-73579414D01*
X142941082Y-73736812D01*
X142924960Y-73900500D01*
X142929001Y-73941528D01*
X142929000Y-77063713D01*
X142919820Y-77066498D01*
X142809506Y-77125463D01*
X142712815Y-77204815D01*
X142633463Y-77301506D01*
X142574498Y-77411820D01*
X142538188Y-77531518D01*
X142525928Y-77656000D01*
X142525928Y-77666466D01*
X142520792Y-77660208D01*
X142387164Y-77550542D01*
X142234709Y-77469053D01*
X142108267Y-77430697D01*
X142198482Y-77421812D01*
X142318180Y-77385502D01*
X142428494Y-77326537D01*
X142525185Y-77247185D01*
X142604537Y-77150494D01*
X142663502Y-77040180D01*
X142699812Y-76920482D01*
X142712072Y-76796000D01*
X142712072Y-75096000D01*
X142699812Y-74971518D01*
X142663502Y-74851820D01*
X142604537Y-74741506D01*
X142525185Y-74644815D01*
X142428494Y-74565463D01*
X142318180Y-74506498D01*
X142198482Y-74470188D01*
X142074000Y-74457928D01*
X140374000Y-74457928D01*
X140249518Y-74470188D01*
X140129820Y-74506498D01*
X140019506Y-74565463D01*
X139922815Y-74644815D01*
X139843463Y-74741506D01*
X139784498Y-74851820D01*
X139748188Y-74971518D01*
X139735928Y-75096000D01*
X139735928Y-76253204D01*
X139217074Y-76772059D01*
X139185210Y-76798209D01*
X139115535Y-76883108D01*
X139080864Y-76925355D01*
X139003328Y-77070414D01*
X138955582Y-77227812D01*
X138939460Y-77391500D01*
X138943501Y-77432528D01*
X138943501Y-77633706D01*
X138911208Y-77660208D01*
X138801542Y-77793836D01*
X138743572Y-77902290D01*
X138743572Y-76952200D01*
X138731312Y-76827718D01*
X138695002Y-76708020D01*
X138636037Y-76597706D01*
X138556685Y-76501015D01*
X138459994Y-76421663D01*
X138349680Y-76362698D01*
X138236859Y-76328474D01*
X138275502Y-76256180D01*
X138311812Y-76136482D01*
X138324072Y-76012000D01*
X138321000Y-75977750D01*
X138162250Y-75819000D01*
X137518000Y-75819000D01*
X137518000Y-75839000D01*
X137354072Y-75839000D01*
X137354072Y-75519500D01*
X137338977Y-75366243D01*
X137294274Y-75218875D01*
X137264000Y-75162237D01*
X137264000Y-74895750D01*
X137518000Y-74895750D01*
X137518000Y-75565000D01*
X138162250Y-75565000D01*
X138321000Y-75406250D01*
X138324072Y-75372000D01*
X138311812Y-75247518D01*
X138275502Y-75127820D01*
X138216537Y-75017506D01*
X138137185Y-74920815D01*
X138040494Y-74841463D01*
X137930180Y-74782498D01*
X137810482Y-74746188D01*
X137686000Y-74733928D01*
X137676750Y-74737000D01*
X137518000Y-74895750D01*
X137264000Y-74895750D01*
X137105250Y-74737000D01*
X137096000Y-74733928D01*
X136971518Y-74746188D01*
X136851820Y-74782498D01*
X136844684Y-74786312D01*
X136721757Y-74749023D01*
X136568500Y-74733928D01*
X136273500Y-74733928D01*
X136120243Y-74749023D01*
X135972875Y-74793726D01*
X135854498Y-74857000D01*
X135676250Y-74857000D01*
X135622250Y-74803000D01*
X135064570Y-74803000D01*
X134814072Y-74552503D01*
X134814072Y-74503500D01*
X134798977Y-74350243D01*
X134754274Y-74202875D01*
X134724000Y-74146237D01*
X134724000Y-73879750D01*
X134978000Y-73879750D01*
X134978000Y-74549000D01*
X135622250Y-74549000D01*
X135781000Y-74390250D01*
X135784072Y-74356000D01*
X135771812Y-74231518D01*
X135735502Y-74111820D01*
X135676537Y-74001506D01*
X135597185Y-73904815D01*
X135500494Y-73825463D01*
X135390180Y-73766498D01*
X135270482Y-73730188D01*
X135146000Y-73717928D01*
X135136750Y-73721000D01*
X134978000Y-73879750D01*
X134724000Y-73879750D01*
X134716000Y-73871750D01*
X134716000Y-71906867D01*
X135084795Y-71538072D01*
X137592000Y-71538072D01*
X137765254Y-71521008D01*
X137931850Y-71470472D01*
X138085386Y-71388405D01*
X138219962Y-71277962D01*
X138330405Y-71143386D01*
X138412472Y-70989850D01*
X138439727Y-70900000D01*
X139903928Y-70900000D01*
X139916188Y-71024482D01*
X139952498Y-71144180D01*
X140011463Y-71254494D01*
X140090815Y-71351185D01*
X140187506Y-71430537D01*
X140297820Y-71489502D01*
X140417518Y-71525812D01*
X140542000Y-71538072D01*
X142506250Y-71535000D01*
X142665000Y-71376250D01*
X142665000Y-69977000D01*
X140065750Y-69977000D01*
X139907000Y-70135750D01*
X139903928Y-70900000D01*
X138439727Y-70900000D01*
X138463008Y-70823254D01*
X138480072Y-70650000D01*
X138480072Y-69234990D01*
X139905676Y-69234990D01*
X139907000Y-69564250D01*
G36*
X144102498Y-65961820D02*
G01*
X144066188Y-66081518D01*
X144053928Y-66206000D01*
X144057000Y-66770250D01*
X144215750Y-66929000D01*
X145415000Y-66929000D01*
X145415000Y-66909000D01*
X145669000Y-66909000D01*
X145669000Y-66929000D01*
X145689000Y-66929000D01*
X145689000Y-67183000D01*
X145669000Y-67183000D01*
X145669000Y-67203000D01*
X145415000Y-67203000D01*
X145415000Y-67183000D01*
X144215750Y-67183000D01*
X144057000Y-67341750D01*
X144055785Y-67564990D01*
X137083028Y-67564990D01*
X137042010Y-67560950D01*
X137000991Y-67564990D01*
X136878321Y-67577072D01*
X136720923Y-67624818D01*
X136575864Y-67702354D01*
X136448719Y-67806699D01*
X136422573Y-67838558D01*
X136099204Y-68161928D01*
X133592000Y-68161928D01*
X133502000Y-68170792D01*
X133502000Y-65938000D01*
X144115230Y-65938000D01*
X144102498Y-65961820D01*
G37*
X144102498Y-65961820D02*
X144066188Y-66081518D01*
X144053928Y-66206000D01*
X144057000Y-66770250D01*
X144215750Y-66929000D01*
X145415000Y-66929000D01*
X145415000Y-66909000D01*
X145669000Y-66909000D01*
X145669000Y-66929000D01*
X145689000Y-66929000D01*
X145689000Y-67183000D01*
X145669000Y-67183000D01*
X145669000Y-67203000D01*
X145415000Y-67203000D01*
X145415000Y-67183000D01*
X144215750Y-67183000D01*
X144057000Y-67341750D01*
X144055785Y-67564990D01*
X137083028Y-67564990D01*
X137042010Y-67560950D01*
X137000991Y-67564990D01*
X136878321Y-67577072D01*
X136720923Y-67624818D01*
X136575864Y-67702354D01*
X136448719Y-67806699D01*
X136422573Y-67838558D01*
X136099204Y-68161928D01*
X133592000Y-68161928D01*
X133502000Y-68170792D01*
X133502000Y-65938000D01*
X144115230Y-65938000D01*
X144102498Y-65961820D01*
G04 #@! TD*
M02*
