G04 #@! TF.GenerationSoftware,KiCad,Pcbnew,5.1.6+dfsg1-1*
G04 #@! TF.CreationDate,2021-03-01T10:48:13-07:00*
G04 #@! TF.ProjectId,CurrentSensorV1,43757272-656e-4745-9365-6e736f725631,rev?*
G04 #@! TF.SameCoordinates,Original*
G04 #@! TF.FileFunction,Legend,Top*
G04 #@! TF.FilePolarity,Positive*
%FSLAX46Y46*%
G04 Gerber Fmt 4.6, Leading zero omitted, Abs format (unit mm)*
G04 Created by KiCad (PCBNEW 5.1.6+dfsg1-1) date 2021-03-01 10:48:13*
%MOMM*%
%LPD*%
G01*
G04 APERTURE LIST*
%ADD10C,0.120000*%
%ADD11C,0.100000*%
%ADD12C,0.152400*%
%ADD13C,0.254000*%
%ADD14C,0.150000*%
%ADD15C,0.249999*%
G04 APERTURE END LIST*
D10*
X147574000Y-72644000D02*
X147574000Y-74676000D01*
X147574000Y-72644000D02*
X147574000Y-86868000D01*
X153162000Y-74676000D02*
X148082000Y-74676000D01*
X153162000Y-84836000D02*
X153162000Y-74676000D01*
X148082000Y-84836000D02*
X153162000Y-84836000D01*
X148082000Y-74676000D02*
X148082000Y-84836000D01*
D11*
G04 #@! TO.C,J1*
X137528300Y-79425800D02*
X138018800Y-79425800D01*
X138099800Y-79425800D02*
X138099800Y-79725800D01*
X137506000Y-79426000D02*
X136306000Y-79426000D01*
X132106000Y-85226000D02*
X132606000Y-85226000D01*
X132106000Y-84726000D02*
X132106000Y-85226000D01*
X132106000Y-76826000D02*
X132606000Y-76826000D01*
X132106000Y-76826000D02*
X132106000Y-77326000D01*
X137356000Y-76826000D02*
X136856000Y-76826000D01*
X137356000Y-77326000D02*
X137356000Y-76826000D01*
X137356000Y-85226000D02*
X136856000Y-85226000D01*
X137356000Y-85226000D02*
X137356000Y-84726000D01*
D10*
G04 #@! TO.C,C4*
X134932000Y-73045563D02*
X135996437Y-74110000D01*
X134932000Y-66654437D02*
X135996437Y-65590000D01*
X134932000Y-66654437D02*
X134932000Y-68540000D01*
X134932000Y-73045563D02*
X134932000Y-71160000D01*
X135996437Y-74110000D02*
X143452000Y-74110000D01*
X135996437Y-65590000D02*
X143452000Y-65590000D01*
X143452000Y-65590000D02*
X143452000Y-68540000D01*
X143452000Y-74110000D02*
X143452000Y-71160000D01*
G04 #@! TO.C,J6*
X157928000Y-86046000D02*
X159258000Y-86046000D01*
X157928000Y-87376000D02*
X157928000Y-86046000D01*
X157928000Y-88646000D02*
X160588000Y-88646000D01*
X160588000Y-88646000D02*
X160588000Y-91246000D01*
X157928000Y-88646000D02*
X157928000Y-91246000D01*
X157928000Y-91246000D02*
X160588000Y-91246000D01*
D12*
G04 #@! TO.C,U2*
X150114000Y-74930000D02*
X147574000Y-74930000D01*
X150114000Y-85090000D02*
X150114000Y-74930000D01*
X145034000Y-85090000D02*
X150114000Y-85090000D01*
X145034000Y-77470000D02*
X145034000Y-85090000D01*
X145034000Y-74930000D02*
X145034000Y-77470000D01*
X147574000Y-74930000D02*
X145034000Y-74930000D01*
D13*
X144526000Y-87122000D02*
X144526000Y-72898000D01*
X169164000Y-87122000D02*
X144526000Y-87122000D01*
X169164000Y-72898000D02*
X169164000Y-87122000D01*
X144526000Y-72898000D02*
X169164000Y-72898000D01*
D10*
G04 #@! TO.C,TP2*
X156718000Y-75022000D02*
X158048000Y-75022000D01*
X158048000Y-75022000D02*
X158048000Y-76352000D01*
X158048000Y-77562000D02*
X158048000Y-77682000D01*
X155388000Y-77562000D02*
X155388000Y-77682000D01*
X155388000Y-77682000D02*
X158048000Y-77682000D01*
D14*
G04 #@! TO.C,J8*
X160528000Y-78232000D02*
X160528000Y-66040000D01*
X172720000Y-78232000D02*
X160528000Y-78232000D01*
X160528000Y-66040000D02*
X172720000Y-66040000D01*
X174752000Y-69596000D02*
X174752000Y-74676000D01*
X173228000Y-77216000D02*
X172720000Y-77216000D01*
X173228000Y-67056000D02*
X173228000Y-77216000D01*
X172974000Y-67056000D02*
X173228000Y-67056000D01*
X172720000Y-67056000D02*
X172974000Y-67056000D01*
X173990000Y-69596000D02*
X173990000Y-74676000D01*
X173228000Y-74676000D02*
X174752000Y-74676000D01*
X174752000Y-69596000D02*
X173228000Y-69596000D01*
X172720000Y-78232000D02*
X172720000Y-77216000D01*
X172720000Y-67056000D02*
X172720000Y-66040000D01*
X168148000Y-75946000D02*
X168148000Y-73914000D01*
X171704000Y-75946000D02*
X168148000Y-75946000D01*
X171704000Y-68326000D02*
X171704000Y-75946000D01*
X168148000Y-68326000D02*
X171704000Y-68326000D01*
X168148000Y-70358000D02*
X168148000Y-68326000D01*
G04 #@! TO.C,J3*
X160528000Y-91440000D02*
X160528000Y-79248000D01*
X172720000Y-91440000D02*
X160528000Y-91440000D01*
X160528000Y-79248000D02*
X172720000Y-79248000D01*
X174752000Y-82804000D02*
X174752000Y-87884000D01*
X173228000Y-90424000D02*
X172720000Y-90424000D01*
X173228000Y-80264000D02*
X173228000Y-90424000D01*
X172974000Y-80264000D02*
X173228000Y-80264000D01*
X172720000Y-80264000D02*
X172974000Y-80264000D01*
X173990000Y-82804000D02*
X173990000Y-87884000D01*
X173228000Y-87884000D02*
X174752000Y-87884000D01*
X174752000Y-82804000D02*
X173228000Y-82804000D01*
X172720000Y-91440000D02*
X172720000Y-90424000D01*
X172720000Y-80264000D02*
X172720000Y-79248000D01*
X168148000Y-89154000D02*
X168148000Y-87122000D01*
X171704000Y-89154000D02*
X168148000Y-89154000D01*
X171704000Y-81534000D02*
X171704000Y-89154000D01*
X168148000Y-81534000D02*
X171704000Y-81534000D01*
X168148000Y-83566000D02*
X168148000Y-81534000D01*
D10*
G04 #@! TO.C,D1*
X144764000Y-77506000D02*
X144764000Y-81406000D01*
X142764000Y-77506000D02*
X142764000Y-81406000D01*
X144764000Y-77506000D02*
X142764000Y-77506000D01*
D14*
G04 #@! TO.C,FLASH1*
X150637997Y-70825998D02*
X149737999Y-69925997D01*
X152637998Y-70825998D02*
X153537996Y-69925997D01*
X153537996Y-66725998D02*
X152637998Y-65825997D01*
X149737999Y-66725998D02*
X150637997Y-65825997D01*
X149137997Y-69325998D02*
X149137997Y-67325997D01*
X152637998Y-65825997D02*
X150637997Y-65825997D01*
X152637998Y-70825998D02*
X150637997Y-70825998D01*
X154137998Y-69325998D02*
X154137998Y-67325997D01*
D15*
X148613000Y-71275997D02*
G75*
G03*
X148613000Y-71275997I-125001J0D01*
G01*
D10*
G04 #@! TO.C,U3*
X160128000Y-72252000D02*
X160128000Y-78262000D01*
X153308000Y-74502000D02*
X153308000Y-78262000D01*
X160128000Y-78262000D02*
X158868000Y-78262000D01*
X153308000Y-78262000D02*
X154568000Y-78262000D01*
G04 #@! TO.C,U1*
X156718000Y-84668000D02*
X159643000Y-84668000D01*
X156718000Y-84668000D02*
X155218000Y-84668000D01*
X156718000Y-81448000D02*
X158218000Y-81448000D01*
X156718000Y-81448000D02*
X155218000Y-81448000D01*
G04 #@! TO.C,TP3*
X145542000Y-65726000D02*
X146872000Y-65726000D01*
X146872000Y-65726000D02*
X146872000Y-67056000D01*
X146872000Y-68266000D02*
X146872000Y-68386000D01*
X144212000Y-68266000D02*
X144212000Y-68386000D01*
X144212000Y-68386000D02*
X146872000Y-68386000D01*
G04 #@! TO.C,R6*
X144274000Y-85252779D02*
X144274000Y-84927221D01*
X143254000Y-85252779D02*
X143254000Y-84927221D01*
G04 #@! TO.C,R5*
X140464000Y-83982779D02*
X140464000Y-83657221D01*
X139444000Y-83982779D02*
X139444000Y-83657221D01*
G04 #@! TO.C,R3*
X154548721Y-86362000D02*
X154874279Y-86362000D01*
X154548721Y-85342000D02*
X154874279Y-85342000D01*
G04 #@! TO.C,R2*
X151128000Y-77561221D02*
X151128000Y-77886779D01*
X152148000Y-77561221D02*
X152148000Y-77886779D01*
G04 #@! TO.C,R1*
X152148000Y-74584779D02*
X152148000Y-74259221D01*
X151128000Y-74584779D02*
X151128000Y-74259221D01*
G04 #@! TO.C,FB2*
X140974578Y-78030000D02*
X140457422Y-78030000D01*
X140974578Y-79450000D02*
X140457422Y-79450000D01*
G04 #@! TO.C,FB1*
X140974578Y-80316000D02*
X140457422Y-80316000D01*
X140974578Y-81736000D02*
X140457422Y-81736000D01*
G04 #@! TO.C,C6*
X141476000Y-84927221D02*
X141476000Y-85252779D01*
X142496000Y-84927221D02*
X142496000Y-85252779D01*
G04 #@! TO.C,C2*
X143844000Y-74408000D02*
X148054000Y-74408000D01*
X143844000Y-71388000D02*
X143844000Y-74408000D01*
X148054000Y-71388000D02*
X143844000Y-71388000D01*
G04 #@! TO.C,TP1*
X141224000Y-74616000D02*
X142554000Y-74616000D01*
X142554000Y-74616000D02*
X142554000Y-75946000D01*
X142554000Y-77156000D02*
X142554000Y-77276000D01*
X139894000Y-77156000D02*
X139894000Y-77276000D01*
X139894000Y-77276000D02*
X142554000Y-77276000D01*
D14*
G04 #@! TO.C,RST1*
X136159997Y-91653998D02*
X135259999Y-90753997D01*
X138159998Y-91653998D02*
X139059996Y-90753997D01*
X139059996Y-87553998D02*
X138159998Y-86653997D01*
X135259999Y-87553998D02*
X136159997Y-86653997D01*
X134659997Y-90153998D02*
X134659997Y-88153997D01*
X138159998Y-86653997D02*
X136159997Y-86653997D01*
X138159998Y-91653998D02*
X136159997Y-91653998D01*
X139659998Y-90153998D02*
X139659998Y-88153997D01*
D15*
X134135000Y-92103997D02*
G75*
G03*
X134135000Y-92103997I-125001J0D01*
G01*
D10*
G04 #@! TO.C,J7*
X159318000Y-71180000D02*
X157988000Y-71180000D01*
X159318000Y-69850000D02*
X159318000Y-71180000D01*
X159318000Y-68580000D02*
X156658000Y-68580000D01*
X156658000Y-68580000D02*
X156658000Y-65980000D01*
X159318000Y-68580000D02*
X159318000Y-65980000D01*
X159318000Y-65980000D02*
X156658000Y-65980000D01*
G04 #@! TO.C,J2*
X157286000Y-88078000D02*
X157286000Y-89408000D01*
X155956000Y-88078000D02*
X157286000Y-88078000D01*
X154686000Y-88078000D02*
X154686000Y-90738000D01*
X154686000Y-90738000D02*
X141926000Y-90738000D01*
X154686000Y-88078000D02*
X141926000Y-88078000D01*
X141926000Y-88078000D02*
X141926000Y-90738000D01*
G04 #@! TO.C,FLASH1*
D14*
X149766928Y-71556571D02*
X149433595Y-71556571D01*
X149433595Y-72080380D02*
X149433595Y-71080380D01*
X149909785Y-71080380D01*
X150766928Y-72080380D02*
X150290738Y-72080380D01*
X150290738Y-71080380D01*
X151052642Y-71794666D02*
X151528833Y-71794666D01*
X150957404Y-72080380D02*
X151290738Y-71080380D01*
X151624071Y-72080380D01*
X151909785Y-72032761D02*
X152052642Y-72080380D01*
X152290738Y-72080380D01*
X152385976Y-72032761D01*
X152433595Y-71985142D01*
X152481214Y-71889904D01*
X152481214Y-71794666D01*
X152433595Y-71699428D01*
X152385976Y-71651809D01*
X152290738Y-71604190D01*
X152100261Y-71556571D01*
X152005023Y-71508952D01*
X151957404Y-71461333D01*
X151909785Y-71366095D01*
X151909785Y-71270857D01*
X151957404Y-71175619D01*
X152005023Y-71128000D01*
X152100261Y-71080380D01*
X152338357Y-71080380D01*
X152481214Y-71128000D01*
X152909785Y-72080380D02*
X152909785Y-71080380D01*
X152909785Y-71556571D02*
X153481214Y-71556571D01*
X153481214Y-72080380D02*
X153481214Y-71080380D01*
X154481214Y-72080380D02*
X153909785Y-72080380D01*
X154195500Y-72080380D02*
X154195500Y-71080380D01*
X154100261Y-71223238D01*
X154005023Y-71318476D01*
X153909785Y-71366095D01*
G04 #@! TO.C,RST1*
X137305023Y-86558380D02*
X136971690Y-86082190D01*
X136733595Y-86558380D02*
X136733595Y-85558380D01*
X137114547Y-85558380D01*
X137209785Y-85606000D01*
X137257404Y-85653619D01*
X137305023Y-85748857D01*
X137305023Y-85891714D01*
X137257404Y-85986952D01*
X137209785Y-86034571D01*
X137114547Y-86082190D01*
X136733595Y-86082190D01*
X137685976Y-86510761D02*
X137828833Y-86558380D01*
X138066928Y-86558380D01*
X138162166Y-86510761D01*
X138209785Y-86463142D01*
X138257404Y-86367904D01*
X138257404Y-86272666D01*
X138209785Y-86177428D01*
X138162166Y-86129809D01*
X138066928Y-86082190D01*
X137876452Y-86034571D01*
X137781214Y-85986952D01*
X137733595Y-85939333D01*
X137685976Y-85844095D01*
X137685976Y-85748857D01*
X137733595Y-85653619D01*
X137781214Y-85606000D01*
X137876452Y-85558380D01*
X138114547Y-85558380D01*
X138257404Y-85606000D01*
X138543119Y-85558380D02*
X139114547Y-85558380D01*
X138828833Y-86558380D02*
X138828833Y-85558380D01*
X139971690Y-86558380D02*
X139400261Y-86558380D01*
X139685976Y-86558380D02*
X139685976Y-85558380D01*
X139590738Y-85701238D01*
X139495500Y-85796476D01*
X139400261Y-85844095D01*
G04 #@! TO.C,J2*
X153281000Y-91779285D02*
X153031000Y-91422142D01*
X152852428Y-91779285D02*
X152852428Y-91029285D01*
X153138142Y-91029285D01*
X153209571Y-91065000D01*
X153245285Y-91100714D01*
X153281000Y-91172142D01*
X153281000Y-91279285D01*
X153245285Y-91350714D01*
X153209571Y-91386428D01*
X153138142Y-91422142D01*
X152852428Y-91422142D01*
X153531000Y-91029285D02*
X154031000Y-91779285D01*
X154031000Y-91029285D02*
X153531000Y-91779285D01*
X150304571Y-91029285D02*
X150733142Y-91029285D01*
X150518857Y-91779285D02*
X150518857Y-91029285D01*
X150911714Y-91029285D02*
X151411714Y-91779285D01*
X151411714Y-91029285D02*
X150911714Y-91779285D01*
X147477428Y-91029285D02*
X147941714Y-91029285D01*
X147691714Y-91315000D01*
X147798857Y-91315000D01*
X147870285Y-91350714D01*
X147906000Y-91386428D01*
X147941714Y-91457857D01*
X147941714Y-91636428D01*
X147906000Y-91707857D01*
X147870285Y-91743571D01*
X147798857Y-91779285D01*
X147584571Y-91779285D01*
X147513142Y-91743571D01*
X147477428Y-91707857D01*
X148156000Y-91029285D02*
X148406000Y-91779285D01*
X148656000Y-91029285D01*
X148834571Y-91029285D02*
X149298857Y-91029285D01*
X149048857Y-91315000D01*
X149156000Y-91315000D01*
X149227428Y-91350714D01*
X149263142Y-91386428D01*
X149298857Y-91457857D01*
X149298857Y-91636428D01*
X149263142Y-91707857D01*
X149227428Y-91743571D01*
X149156000Y-91779285D01*
X148941714Y-91779285D01*
X148870285Y-91743571D01*
X148834571Y-91707857D01*
X142684571Y-91065000D02*
X142613142Y-91029285D01*
X142506000Y-91029285D01*
X142398857Y-91065000D01*
X142327428Y-91136428D01*
X142291714Y-91207857D01*
X142256000Y-91350714D01*
X142256000Y-91457857D01*
X142291714Y-91600714D01*
X142327428Y-91672142D01*
X142398857Y-91743571D01*
X142506000Y-91779285D01*
X142577428Y-91779285D01*
X142684571Y-91743571D01*
X142720285Y-91707857D01*
X142720285Y-91457857D01*
X142577428Y-91457857D01*
X143041714Y-91779285D02*
X143041714Y-91029285D01*
X143470285Y-91779285D01*
X143470285Y-91029285D01*
X143827428Y-91779285D02*
X143827428Y-91029285D01*
X144006000Y-91029285D01*
X144113142Y-91065000D01*
X144184571Y-91136428D01*
X144220285Y-91207857D01*
X144256000Y-91350714D01*
X144256000Y-91457857D01*
X144220285Y-91600714D01*
X144184571Y-91672142D01*
X144113142Y-91743571D01*
X144006000Y-91779285D01*
X143827428Y-91779285D01*
G04 #@! TD*
M02*
