G04 #@! TF.GenerationSoftware,KiCad,Pcbnew,5.1.6+dfsg1-1*
G04 #@! TF.CreationDate,2021-02-27T20:02:44-07:00*
G04 #@! TF.ProjectId,CurrentSensorV1,43757272-656e-4745-9365-6e736f725631,rev?*
G04 #@! TF.SameCoordinates,Original*
G04 #@! TF.FileFunction,Soldermask,Top*
G04 #@! TF.FilePolarity,Negative*
%FSLAX46Y46*%
G04 Gerber Fmt 4.6, Leading zero omitted, Abs format (unit mm)*
G04 Created by KiCad (PCBNEW 5.1.6+dfsg1-1) date 2021-02-27 20:02:44*
%MOMM*%
%LPD*%
G01*
G04 APERTURE LIST*
%ADD10C,0.100000*%
G04 APERTURE END LIST*
D10*
G36*
X141211000Y-91605001D02*
G01*
X139409002Y-91605001D01*
X139409002Y-90503001D01*
X141211000Y-90503001D01*
X141211000Y-91605001D01*
G37*
G36*
X134911003Y-91605001D02*
G01*
X133109005Y-91605001D01*
X133109005Y-90503001D01*
X134911003Y-90503001D01*
X134911003Y-91605001D01*
G37*
G36*
X168549684Y-89768955D02*
G01*
X168714815Y-89819047D01*
X168866993Y-89900388D01*
X169000383Y-90009857D01*
X169109852Y-90143247D01*
X169191193Y-90295425D01*
X169241285Y-90460556D01*
X169258198Y-90632280D01*
X169241285Y-90804004D01*
X169191193Y-90969135D01*
X169109852Y-91121313D01*
X169000383Y-91254703D01*
X168866993Y-91364172D01*
X168714815Y-91445513D01*
X168549684Y-91495605D01*
X168420992Y-91508280D01*
X167234928Y-91508280D01*
X167106236Y-91495605D01*
X166941105Y-91445513D01*
X166788927Y-91364172D01*
X166655537Y-91254703D01*
X166546068Y-91121313D01*
X166464727Y-90969135D01*
X166414635Y-90804004D01*
X166397722Y-90632280D01*
X166414635Y-90460556D01*
X166464727Y-90295425D01*
X166546068Y-90143247D01*
X166655537Y-90009857D01*
X166788927Y-89900388D01*
X166941105Y-89819047D01*
X167106236Y-89768955D01*
X167234928Y-89756280D01*
X168420992Y-89756280D01*
X168549684Y-89768955D01*
G37*
G36*
X165080044Y-89753715D02*
G01*
X165245175Y-89803807D01*
X165397353Y-89885148D01*
X165530743Y-89994617D01*
X165640212Y-90128007D01*
X165721553Y-90280185D01*
X165771645Y-90445316D01*
X165788558Y-90617040D01*
X165771645Y-90788764D01*
X165721553Y-90953895D01*
X165640212Y-91106073D01*
X165530743Y-91239463D01*
X165397353Y-91348932D01*
X165245175Y-91430273D01*
X165080044Y-91480365D01*
X164951352Y-91493040D01*
X163765288Y-91493040D01*
X163636596Y-91480365D01*
X163471465Y-91430273D01*
X163319287Y-91348932D01*
X163185897Y-91239463D01*
X163076428Y-91106073D01*
X162995087Y-90953895D01*
X162944995Y-90788764D01*
X162928082Y-90617040D01*
X162944995Y-90445316D01*
X162995087Y-90280185D01*
X163076428Y-90128007D01*
X163185897Y-89994617D01*
X163319287Y-89885148D01*
X163471465Y-89803807D01*
X163636596Y-89753715D01*
X163765288Y-89741040D01*
X164951352Y-89741040D01*
X165080044Y-89753715D01*
G37*
G36*
X171770404Y-89753715D02*
G01*
X171935535Y-89803807D01*
X172087713Y-89885148D01*
X172221103Y-89994617D01*
X172330572Y-90128007D01*
X172411913Y-90280185D01*
X172462005Y-90445316D01*
X172478918Y-90617040D01*
X172462005Y-90788764D01*
X172411913Y-90953895D01*
X172330572Y-91106073D01*
X172221103Y-91239463D01*
X172087713Y-91348932D01*
X171935535Y-91430273D01*
X171770404Y-91480365D01*
X171641712Y-91493040D01*
X170455648Y-91493040D01*
X170326956Y-91480365D01*
X170161825Y-91430273D01*
X170009647Y-91348932D01*
X169876257Y-91239463D01*
X169766788Y-91106073D01*
X169685447Y-90953895D01*
X169635355Y-90788764D01*
X169618442Y-90617040D01*
X169635355Y-90445316D01*
X169685447Y-90280185D01*
X169766788Y-90128007D01*
X169876257Y-89994617D01*
X170009647Y-89885148D01*
X170161825Y-89803807D01*
X170326956Y-89753715D01*
X170455648Y-89741040D01*
X171641712Y-89741040D01*
X171770404Y-89753715D01*
G37*
G36*
X148449512Y-88003927D02*
G01*
X148598812Y-88033624D01*
X148762784Y-88101544D01*
X148910354Y-88200147D01*
X149035853Y-88325646D01*
X149134456Y-88473216D01*
X149202376Y-88637188D01*
X149237000Y-88811259D01*
X149237000Y-88988741D01*
X149202376Y-89162812D01*
X149134456Y-89326784D01*
X149035853Y-89474354D01*
X148910354Y-89599853D01*
X148762784Y-89698456D01*
X148598812Y-89766376D01*
X148449512Y-89796073D01*
X148424742Y-89801000D01*
X148247258Y-89801000D01*
X148222488Y-89796073D01*
X148073188Y-89766376D01*
X147909216Y-89698456D01*
X147761646Y-89599853D01*
X147636147Y-89474354D01*
X147537544Y-89326784D01*
X147469624Y-89162812D01*
X147435000Y-88988741D01*
X147435000Y-88811259D01*
X147469624Y-88637188D01*
X147537544Y-88473216D01*
X147636147Y-88325646D01*
X147761646Y-88200147D01*
X147909216Y-88101544D01*
X148073188Y-88033624D01*
X148222488Y-88003927D01*
X148247258Y-87999000D01*
X148424742Y-87999000D01*
X148449512Y-88003927D01*
G37*
G36*
X145909512Y-88003927D02*
G01*
X146058812Y-88033624D01*
X146222784Y-88101544D01*
X146370354Y-88200147D01*
X146495853Y-88325646D01*
X146594456Y-88473216D01*
X146662376Y-88637188D01*
X146697000Y-88811259D01*
X146697000Y-88988741D01*
X146662376Y-89162812D01*
X146594456Y-89326784D01*
X146495853Y-89474354D01*
X146370354Y-89599853D01*
X146222784Y-89698456D01*
X146058812Y-89766376D01*
X145909512Y-89796073D01*
X145884742Y-89801000D01*
X145707258Y-89801000D01*
X145682488Y-89796073D01*
X145533188Y-89766376D01*
X145369216Y-89698456D01*
X145221646Y-89599853D01*
X145096147Y-89474354D01*
X144997544Y-89326784D01*
X144929624Y-89162812D01*
X144895000Y-88988741D01*
X144895000Y-88811259D01*
X144929624Y-88637188D01*
X144997544Y-88473216D01*
X145096147Y-88325646D01*
X145221646Y-88200147D01*
X145369216Y-88101544D01*
X145533188Y-88033624D01*
X145682488Y-88003927D01*
X145707258Y-87999000D01*
X145884742Y-87999000D01*
X145909512Y-88003927D01*
G37*
G36*
X143369512Y-88003927D02*
G01*
X143518812Y-88033624D01*
X143682784Y-88101544D01*
X143830354Y-88200147D01*
X143955853Y-88325646D01*
X144054456Y-88473216D01*
X144122376Y-88637188D01*
X144157000Y-88811259D01*
X144157000Y-88988741D01*
X144122376Y-89162812D01*
X144054456Y-89326784D01*
X143955853Y-89474354D01*
X143830354Y-89599853D01*
X143682784Y-89698456D01*
X143518812Y-89766376D01*
X143369512Y-89796073D01*
X143344742Y-89801000D01*
X143167258Y-89801000D01*
X143142488Y-89796073D01*
X142993188Y-89766376D01*
X142829216Y-89698456D01*
X142681646Y-89599853D01*
X142556147Y-89474354D01*
X142457544Y-89326784D01*
X142389624Y-89162812D01*
X142355000Y-88988741D01*
X142355000Y-88811259D01*
X142389624Y-88637188D01*
X142457544Y-88473216D01*
X142556147Y-88325646D01*
X142681646Y-88200147D01*
X142829216Y-88101544D01*
X142993188Y-88033624D01*
X143142488Y-88003927D01*
X143167258Y-87999000D01*
X143344742Y-87999000D01*
X143369512Y-88003927D01*
G37*
G36*
X160667000Y-89801000D02*
G01*
X158865000Y-89801000D01*
X158865000Y-87999000D01*
X160667000Y-87999000D01*
X160667000Y-89801000D01*
G37*
G36*
X150989512Y-88003927D02*
G01*
X151138812Y-88033624D01*
X151302784Y-88101544D01*
X151450354Y-88200147D01*
X151575853Y-88325646D01*
X151674456Y-88473216D01*
X151742376Y-88637188D01*
X151777000Y-88811259D01*
X151777000Y-88988741D01*
X151742376Y-89162812D01*
X151674456Y-89326784D01*
X151575853Y-89474354D01*
X151450354Y-89599853D01*
X151302784Y-89698456D01*
X151138812Y-89766376D01*
X150989512Y-89796073D01*
X150964742Y-89801000D01*
X150787258Y-89801000D01*
X150762488Y-89796073D01*
X150613188Y-89766376D01*
X150449216Y-89698456D01*
X150301646Y-89599853D01*
X150176147Y-89474354D01*
X150077544Y-89326784D01*
X150009624Y-89162812D01*
X149975000Y-88988741D01*
X149975000Y-88811259D01*
X150009624Y-88637188D01*
X150077544Y-88473216D01*
X150176147Y-88325646D01*
X150301646Y-88200147D01*
X150449216Y-88101544D01*
X150613188Y-88033624D01*
X150762488Y-88003927D01*
X150787258Y-87999000D01*
X150964742Y-87999000D01*
X150989512Y-88003927D01*
G37*
G36*
X153529512Y-88003927D02*
G01*
X153678812Y-88033624D01*
X153842784Y-88101544D01*
X153990354Y-88200147D01*
X154115853Y-88325646D01*
X154214456Y-88473216D01*
X154282376Y-88637188D01*
X154317000Y-88811259D01*
X154317000Y-88988741D01*
X154282376Y-89162812D01*
X154214456Y-89326784D01*
X154115853Y-89474354D01*
X153990354Y-89599853D01*
X153842784Y-89698456D01*
X153678812Y-89766376D01*
X153529512Y-89796073D01*
X153504742Y-89801000D01*
X153327258Y-89801000D01*
X153302488Y-89796073D01*
X153153188Y-89766376D01*
X152989216Y-89698456D01*
X152841646Y-89599853D01*
X152716147Y-89474354D01*
X152617544Y-89326784D01*
X152549624Y-89162812D01*
X152515000Y-88988741D01*
X152515000Y-88811259D01*
X152549624Y-88637188D01*
X152617544Y-88473216D01*
X152716147Y-88325646D01*
X152841646Y-88200147D01*
X152989216Y-88101544D01*
X153153188Y-88033624D01*
X153302488Y-88003927D01*
X153327258Y-87999000D01*
X153504742Y-87999000D01*
X153529512Y-88003927D01*
G37*
G36*
X156857000Y-89801000D02*
G01*
X155055000Y-89801000D01*
X155055000Y-87999000D01*
X156857000Y-87999000D01*
X156857000Y-89801000D01*
G37*
G36*
X170659284Y-86477149D02*
G01*
X170850553Y-86556375D01*
X170850555Y-86556376D01*
X171022693Y-86671395D01*
X171169085Y-86817787D01*
X171246973Y-86934354D01*
X171284105Y-86989927D01*
X171363331Y-87181196D01*
X171403720Y-87384244D01*
X171403720Y-87591276D01*
X171363331Y-87794324D01*
X171290417Y-87970355D01*
X171284104Y-87985595D01*
X171169085Y-88157733D01*
X171022693Y-88304125D01*
X170850555Y-88419144D01*
X170850554Y-88419145D01*
X170850553Y-88419145D01*
X170659284Y-88498371D01*
X170456236Y-88538760D01*
X170249204Y-88538760D01*
X170046156Y-88498371D01*
X169854887Y-88419145D01*
X169854886Y-88419145D01*
X169854885Y-88419144D01*
X169682747Y-88304125D01*
X169536355Y-88157733D01*
X169421336Y-87985595D01*
X169415023Y-87970355D01*
X169342109Y-87794324D01*
X169301720Y-87591276D01*
X169301720Y-87384244D01*
X169342109Y-87181196D01*
X169421335Y-86989927D01*
X169458468Y-86934354D01*
X169536355Y-86817787D01*
X169682747Y-86671395D01*
X169854885Y-86556376D01*
X169854887Y-86556375D01*
X170046156Y-86477149D01*
X170249204Y-86436760D01*
X170456236Y-86436760D01*
X170659284Y-86477149D01*
G37*
G36*
X164649644Y-86461909D02*
G01*
X164840913Y-86541135D01*
X164840915Y-86541136D01*
X165013053Y-86656155D01*
X165159445Y-86802547D01*
X165247516Y-86934354D01*
X165274465Y-86974687D01*
X165353691Y-87165956D01*
X165394080Y-87369004D01*
X165394080Y-87576036D01*
X165353691Y-87779084D01*
X165274465Y-87970353D01*
X165274464Y-87970355D01*
X165159445Y-88142493D01*
X165013053Y-88288885D01*
X164840915Y-88403904D01*
X164840914Y-88403905D01*
X164840913Y-88403905D01*
X164649644Y-88483131D01*
X164446596Y-88523520D01*
X164239564Y-88523520D01*
X164036516Y-88483131D01*
X163845247Y-88403905D01*
X163845246Y-88403905D01*
X163845245Y-88403904D01*
X163673107Y-88288885D01*
X163526715Y-88142493D01*
X163411696Y-87970355D01*
X163411695Y-87970353D01*
X163332469Y-87779084D01*
X163292080Y-87576036D01*
X163292080Y-87369004D01*
X163332469Y-87165956D01*
X163411695Y-86974687D01*
X163438645Y-86934354D01*
X163526715Y-86802547D01*
X163673107Y-86656155D01*
X163845245Y-86541136D01*
X163845247Y-86541135D01*
X164036516Y-86461909D01*
X164239564Y-86421520D01*
X164446596Y-86421520D01*
X164649644Y-86461909D01*
G37*
G36*
X141211000Y-87805004D02*
G01*
X139409002Y-87805004D01*
X139409002Y-86703004D01*
X141211000Y-86703004D01*
X141211000Y-87805004D01*
G37*
G36*
X134911003Y-87805004D02*
G01*
X133109005Y-87805004D01*
X133109005Y-86703004D01*
X134911003Y-86703004D01*
X134911003Y-87805004D01*
G37*
G36*
X159879512Y-85463927D02*
G01*
X160028812Y-85493624D01*
X160192784Y-85561544D01*
X160340354Y-85660147D01*
X160465853Y-85785646D01*
X160564456Y-85933216D01*
X160632376Y-86097188D01*
X160667000Y-86271259D01*
X160667000Y-86448741D01*
X160632376Y-86622812D01*
X160564456Y-86786784D01*
X160465853Y-86934354D01*
X160340354Y-87059853D01*
X160192784Y-87158456D01*
X160028812Y-87226376D01*
X159879512Y-87256073D01*
X159854742Y-87261000D01*
X159677258Y-87261000D01*
X159652488Y-87256073D01*
X159503188Y-87226376D01*
X159339216Y-87158456D01*
X159191646Y-87059853D01*
X159066147Y-86934354D01*
X158967544Y-86786784D01*
X158899624Y-86622812D01*
X158865000Y-86448741D01*
X158865000Y-86271259D01*
X158899624Y-86097188D01*
X158967544Y-85933216D01*
X159066147Y-85785646D01*
X159191646Y-85660147D01*
X159339216Y-85561544D01*
X159503188Y-85493624D01*
X159652488Y-85463927D01*
X159677258Y-85459000D01*
X159854742Y-85459000D01*
X159879512Y-85463927D01*
G37*
G36*
X171770404Y-83474835D02*
G01*
X171875142Y-83506607D01*
X171932048Y-83523869D01*
X171935535Y-83524927D01*
X172087713Y-83606268D01*
X172221103Y-83715737D01*
X172330572Y-83849127D01*
X172411913Y-84001305D01*
X172462005Y-84166436D01*
X172478918Y-84338160D01*
X172462005Y-84509884D01*
X172411913Y-84675015D01*
X172330572Y-84827193D01*
X172221103Y-84960583D01*
X172087713Y-85070052D01*
X171935535Y-85151393D01*
X171770404Y-85201485D01*
X171641712Y-85214160D01*
X170455648Y-85214160D01*
X170326956Y-85201485D01*
X170161825Y-85151393D01*
X170009647Y-85070052D01*
X169876257Y-84960583D01*
X169766788Y-84827193D01*
X169685447Y-84675015D01*
X169635355Y-84509884D01*
X169618442Y-84338160D01*
X169635355Y-84166436D01*
X169685447Y-84001305D01*
X169766788Y-83849127D01*
X169876257Y-83715737D01*
X170009647Y-83606268D01*
X170161825Y-83524927D01*
X170165313Y-83523869D01*
X170222218Y-83506607D01*
X170326956Y-83474835D01*
X170455648Y-83462160D01*
X171641712Y-83462160D01*
X171770404Y-83474835D01*
G37*
G36*
X165049564Y-83449435D02*
G01*
X165214695Y-83499527D01*
X165366873Y-83580868D01*
X165500263Y-83690337D01*
X165609732Y-83823727D01*
X165691073Y-83975905D01*
X165741165Y-84141036D01*
X165758078Y-84312760D01*
X165741165Y-84484484D01*
X165691073Y-84649615D01*
X165609732Y-84801793D01*
X165500263Y-84935183D01*
X165366873Y-85044652D01*
X165214695Y-85125993D01*
X165049564Y-85176085D01*
X164920872Y-85188760D01*
X163734808Y-85188760D01*
X163606116Y-85176085D01*
X163440985Y-85125993D01*
X163288807Y-85044652D01*
X163155417Y-84935183D01*
X163045948Y-84801793D01*
X162964607Y-84649615D01*
X162914515Y-84484484D01*
X162897602Y-84312760D01*
X162914515Y-84141036D01*
X162964607Y-83975905D01*
X163045948Y-83823727D01*
X163155417Y-83690337D01*
X163288807Y-83580868D01*
X163440985Y-83499527D01*
X163606116Y-83449435D01*
X163734808Y-83436760D01*
X164920872Y-83436760D01*
X165049564Y-83449435D01*
G37*
G36*
X146683591Y-84123085D02*
G01*
X146717569Y-84133393D01*
X146748890Y-84150134D01*
X146776339Y-84172661D01*
X146798866Y-84200110D01*
X146815607Y-84231431D01*
X146825915Y-84265409D01*
X146830000Y-84306890D01*
X146830000Y-84908110D01*
X146825915Y-84949591D01*
X146815607Y-84983569D01*
X146798866Y-85014890D01*
X146776339Y-85042339D01*
X146748890Y-85064866D01*
X146717569Y-85081607D01*
X146683591Y-85091915D01*
X146642110Y-85096000D01*
X145965890Y-85096000D01*
X145924409Y-85091915D01*
X145890431Y-85081607D01*
X145859110Y-85064866D01*
X145831661Y-85042339D01*
X145809134Y-85014890D01*
X145792393Y-84983569D01*
X145782085Y-84949591D01*
X145778000Y-84908110D01*
X145778000Y-84306890D01*
X145782085Y-84265409D01*
X145792393Y-84231431D01*
X145809134Y-84200110D01*
X145831661Y-84172661D01*
X145859110Y-84150134D01*
X145890431Y-84133393D01*
X145924409Y-84123085D01*
X145965890Y-84119000D01*
X146642110Y-84119000D01*
X146683591Y-84123085D01*
G37*
G36*
X144397591Y-84123085D02*
G01*
X144431569Y-84133393D01*
X144462890Y-84150134D01*
X144490339Y-84172661D01*
X144512866Y-84200110D01*
X144529607Y-84231431D01*
X144539915Y-84265409D01*
X144544000Y-84306890D01*
X144544000Y-84908110D01*
X144539915Y-84949591D01*
X144529607Y-84983569D01*
X144512866Y-85014890D01*
X144490339Y-85042339D01*
X144462890Y-85064866D01*
X144431569Y-85081607D01*
X144397591Y-85091915D01*
X144356110Y-85096000D01*
X143679890Y-85096000D01*
X143638409Y-85091915D01*
X143604431Y-85081607D01*
X143573110Y-85064866D01*
X143545661Y-85042339D01*
X143523134Y-85014890D01*
X143506393Y-84983569D01*
X143496085Y-84949591D01*
X143492000Y-84908110D01*
X143492000Y-84306890D01*
X143496085Y-84265409D01*
X143506393Y-84231431D01*
X143523134Y-84200110D01*
X143545661Y-84172661D01*
X143573110Y-84150134D01*
X143604431Y-84133393D01*
X143638409Y-84123085D01*
X143679890Y-84119000D01*
X144356110Y-84119000D01*
X144397591Y-84123085D01*
G37*
G36*
X141857591Y-84123085D02*
G01*
X141891569Y-84133393D01*
X141922890Y-84150134D01*
X141950339Y-84172661D01*
X141972866Y-84200110D01*
X141989607Y-84231431D01*
X141999915Y-84265409D01*
X142004000Y-84306890D01*
X142004000Y-84908110D01*
X141999915Y-84949591D01*
X141989607Y-84983569D01*
X141972866Y-85014890D01*
X141950339Y-85042339D01*
X141922890Y-85064866D01*
X141891569Y-85081607D01*
X141857591Y-85091915D01*
X141816110Y-85096000D01*
X141139890Y-85096000D01*
X141098409Y-85091915D01*
X141064431Y-85081607D01*
X141033110Y-85064866D01*
X141005661Y-85042339D01*
X140983134Y-85014890D01*
X140966393Y-84983569D01*
X140956085Y-84949591D01*
X140952000Y-84908110D01*
X140952000Y-84306890D01*
X140956085Y-84265409D01*
X140966393Y-84231431D01*
X140983134Y-84200110D01*
X141005661Y-84172661D01*
X141033110Y-84150134D01*
X141064431Y-84133393D01*
X141098409Y-84123085D01*
X141139890Y-84119000D01*
X141816110Y-84119000D01*
X141857591Y-84123085D01*
G37*
G36*
X152793000Y-84467000D02*
G01*
X150991000Y-84467000D01*
X150991000Y-82665000D01*
X152793000Y-82665000D01*
X152793000Y-84467000D01*
G37*
G36*
X149465512Y-82669927D02*
G01*
X149614812Y-82699624D01*
X149778784Y-82767544D01*
X149926354Y-82866147D01*
X150051853Y-82991646D01*
X150150456Y-83139216D01*
X150218376Y-83303188D01*
X150253000Y-83477259D01*
X150253000Y-83654741D01*
X150218376Y-83828812D01*
X150150456Y-83992784D01*
X150051853Y-84140354D01*
X149926354Y-84265853D01*
X149778784Y-84364456D01*
X149614812Y-84432376D01*
X149465512Y-84462073D01*
X149440742Y-84467000D01*
X149263258Y-84467000D01*
X149238488Y-84462073D01*
X149089188Y-84432376D01*
X148925216Y-84364456D01*
X148777646Y-84265853D01*
X148652147Y-84140354D01*
X148553544Y-83992784D01*
X148485624Y-83828812D01*
X148451000Y-83654741D01*
X148451000Y-83477259D01*
X148485624Y-83303188D01*
X148553544Y-83139216D01*
X148652147Y-82991646D01*
X148777646Y-82866147D01*
X148925216Y-82767544D01*
X149089188Y-82699624D01*
X149238488Y-82669927D01*
X149263258Y-82665000D01*
X149440742Y-82665000D01*
X149465512Y-82669927D01*
G37*
G36*
X159685000Y-84211000D02*
G01*
X155783000Y-84211000D01*
X155783000Y-82109000D01*
X159685000Y-82109000D01*
X159685000Y-84211000D01*
G37*
G36*
X135994000Y-83384886D02*
G01*
X135994602Y-83397138D01*
X135997149Y-83423000D01*
X135994602Y-83448862D01*
X135994000Y-83461114D01*
X135994000Y-83515008D01*
X135993382Y-83516164D01*
X135985563Y-83547376D01*
X135984580Y-83550616D01*
X135984580Y-83550618D01*
X135975403Y-83580869D01*
X135947354Y-83673336D01*
X135886906Y-83786425D01*
X135805554Y-83885554D01*
X135706425Y-83966906D01*
X135593336Y-84027354D01*
X135561404Y-84037040D01*
X135470618Y-84064580D01*
X135406855Y-84070860D01*
X135374974Y-84074000D01*
X134611026Y-84074000D01*
X134579145Y-84070860D01*
X134515382Y-84064580D01*
X134424596Y-84037040D01*
X134392664Y-84027354D01*
X134279575Y-83966906D01*
X134180446Y-83885554D01*
X134099094Y-83786425D01*
X134038646Y-83673336D01*
X134010597Y-83580869D01*
X134001420Y-83550618D01*
X134001420Y-83550616D01*
X133998162Y-83539876D01*
X133997723Y-83537672D01*
X133992000Y-83523869D01*
X133992000Y-83461114D01*
X133991398Y-83448862D01*
X133988851Y-83423000D01*
X133991398Y-83397138D01*
X133992000Y-83384886D01*
X133992000Y-81807000D01*
X135994000Y-81807000D01*
X135994000Y-83384886D01*
G37*
G36*
X144397591Y-82548085D02*
G01*
X144431569Y-82558393D01*
X144462890Y-82575134D01*
X144490339Y-82597661D01*
X144512866Y-82625110D01*
X144529607Y-82656431D01*
X144539915Y-82690409D01*
X144544000Y-82731890D01*
X144544000Y-83333110D01*
X144539915Y-83374591D01*
X144529607Y-83408569D01*
X144512866Y-83439890D01*
X144490339Y-83467339D01*
X144462890Y-83489866D01*
X144431569Y-83506607D01*
X144397591Y-83516915D01*
X144356110Y-83521000D01*
X143679890Y-83521000D01*
X143638409Y-83516915D01*
X143604431Y-83506607D01*
X143573110Y-83489866D01*
X143545661Y-83467339D01*
X143523134Y-83439890D01*
X143506393Y-83408569D01*
X143496085Y-83374591D01*
X143492000Y-83333110D01*
X143492000Y-82731890D01*
X143496085Y-82690409D01*
X143506393Y-82656431D01*
X143523134Y-82625110D01*
X143545661Y-82597661D01*
X143573110Y-82575134D01*
X143604431Y-82558393D01*
X143638409Y-82548085D01*
X143679890Y-82544000D01*
X144356110Y-82544000D01*
X144397591Y-82548085D01*
G37*
G36*
X141857591Y-82548085D02*
G01*
X141891569Y-82558393D01*
X141922890Y-82575134D01*
X141950339Y-82597661D01*
X141972866Y-82625110D01*
X141989607Y-82656431D01*
X141999915Y-82690409D01*
X142004000Y-82731890D01*
X142004000Y-83333110D01*
X141999915Y-83374591D01*
X141989607Y-83408569D01*
X141972866Y-83439890D01*
X141950339Y-83467339D01*
X141922890Y-83489866D01*
X141891569Y-83506607D01*
X141857591Y-83516915D01*
X141816110Y-83521000D01*
X141139890Y-83521000D01*
X141098409Y-83516915D01*
X141064431Y-83506607D01*
X141033110Y-83489866D01*
X141005661Y-83467339D01*
X140983134Y-83439890D01*
X140966393Y-83408569D01*
X140956085Y-83374591D01*
X140952000Y-83333110D01*
X140952000Y-82731890D01*
X140956085Y-82690409D01*
X140966393Y-82656431D01*
X140983134Y-82625110D01*
X141005661Y-82597661D01*
X141033110Y-82575134D01*
X141064431Y-82558393D01*
X141098409Y-82548085D01*
X141139890Y-82544000D01*
X141816110Y-82544000D01*
X141857591Y-82548085D01*
G37*
G36*
X146683591Y-82548085D02*
G01*
X146717569Y-82558393D01*
X146748890Y-82575134D01*
X146776339Y-82597661D01*
X146798866Y-82625110D01*
X146815607Y-82656431D01*
X146825915Y-82690409D01*
X146830000Y-82731890D01*
X146830000Y-83333110D01*
X146825915Y-83374591D01*
X146815607Y-83408569D01*
X146798866Y-83439890D01*
X146776339Y-83467339D01*
X146748890Y-83489866D01*
X146717569Y-83506607D01*
X146683591Y-83516915D01*
X146642110Y-83521000D01*
X145965890Y-83521000D01*
X145924409Y-83516915D01*
X145890431Y-83506607D01*
X145859110Y-83489866D01*
X145831661Y-83467339D01*
X145809134Y-83439890D01*
X145792393Y-83408569D01*
X145782085Y-83374591D01*
X145778000Y-83333110D01*
X145778000Y-82731890D01*
X145782085Y-82690409D01*
X145792393Y-82656431D01*
X145809134Y-82625110D01*
X145831661Y-82597661D01*
X145859110Y-82575134D01*
X145890431Y-82558393D01*
X145924409Y-82548085D01*
X145965890Y-82544000D01*
X146642110Y-82544000D01*
X146683591Y-82548085D01*
G37*
G36*
X172833591Y-81012085D02*
G01*
X172867569Y-81022393D01*
X172898890Y-81039134D01*
X172926339Y-81061661D01*
X172948866Y-81089110D01*
X172965607Y-81120431D01*
X172975915Y-81154409D01*
X172980000Y-81195890D01*
X172980000Y-81872110D01*
X172975915Y-81913591D01*
X172965607Y-81947569D01*
X172948866Y-81978890D01*
X172926339Y-82006339D01*
X172898890Y-82028866D01*
X172867569Y-82045607D01*
X172833591Y-82055915D01*
X172792110Y-82060000D01*
X172190890Y-82060000D01*
X172149409Y-82055915D01*
X172115431Y-82045607D01*
X172084110Y-82028866D01*
X172056661Y-82006339D01*
X172034134Y-81978890D01*
X172017393Y-81947569D01*
X172007085Y-81913591D01*
X172003000Y-81872110D01*
X172003000Y-81195890D01*
X172007085Y-81154409D01*
X172017393Y-81120431D01*
X172034134Y-81089110D01*
X172056661Y-81061661D01*
X172084110Y-81039134D01*
X172115431Y-81022393D01*
X172149409Y-81012085D01*
X172190890Y-81008000D01*
X172792110Y-81008000D01*
X172833591Y-81012085D01*
G37*
G36*
X171258591Y-81012085D02*
G01*
X171292569Y-81022393D01*
X171323890Y-81039134D01*
X171351339Y-81061661D01*
X171373866Y-81089110D01*
X171390607Y-81120431D01*
X171400915Y-81154409D01*
X171405000Y-81195890D01*
X171405000Y-81872110D01*
X171400915Y-81913591D01*
X171390607Y-81947569D01*
X171373866Y-81978890D01*
X171351339Y-82006339D01*
X171323890Y-82028866D01*
X171292569Y-82045607D01*
X171258591Y-82055915D01*
X171217110Y-82060000D01*
X170615890Y-82060000D01*
X170574409Y-82055915D01*
X170540431Y-82045607D01*
X170509110Y-82028866D01*
X170481661Y-82006339D01*
X170459134Y-81978890D01*
X170442393Y-81947569D01*
X170432085Y-81913591D01*
X170428000Y-81872110D01*
X170428000Y-81195890D01*
X170432085Y-81154409D01*
X170442393Y-81120431D01*
X170459134Y-81089110D01*
X170481661Y-81061661D01*
X170509110Y-81039134D01*
X170540431Y-81022393D01*
X170574409Y-81012085D01*
X170615890Y-81008000D01*
X171217110Y-81008000D01*
X171258591Y-81012085D01*
G37*
G36*
X138811200Y-80799025D02*
G01*
X138529061Y-80799025D01*
X138504675Y-80801427D01*
X138481226Y-80808540D01*
X138459615Y-80820091D01*
X138440673Y-80835636D01*
X138425128Y-80854578D01*
X138413577Y-80876189D01*
X138406464Y-80899638D01*
X138404062Y-80924024D01*
X138406464Y-80948410D01*
X138413577Y-80971859D01*
X138425128Y-80993470D01*
X138449759Y-81020646D01*
X138502264Y-81063736D01*
X138574244Y-81151443D01*
X138598001Y-81195890D01*
X138627728Y-81251505D01*
X138627729Y-81251508D01*
X138660666Y-81360084D01*
X138671787Y-81473000D01*
X138660666Y-81585916D01*
X138641487Y-81649138D01*
X138627728Y-81694495D01*
X138608429Y-81730601D01*
X138574244Y-81794557D01*
X138502264Y-81882264D01*
X138414557Y-81954244D01*
X138350601Y-81988429D01*
X138314495Y-82007728D01*
X138314492Y-82007729D01*
X138205916Y-82040666D01*
X138121298Y-82049000D01*
X137864702Y-82049000D01*
X137780084Y-82040666D01*
X137671508Y-82007729D01*
X137671505Y-82007728D01*
X137635399Y-81988429D01*
X137571443Y-81954244D01*
X137483736Y-81882264D01*
X137411756Y-81794557D01*
X137377571Y-81730601D01*
X137358272Y-81694495D01*
X137344513Y-81649138D01*
X137325334Y-81585916D01*
X137314213Y-81473000D01*
X137325334Y-81360084D01*
X137358271Y-81251508D01*
X137358272Y-81251505D01*
X137387999Y-81195890D01*
X137411756Y-81151443D01*
X137483736Y-81063736D01*
X137536242Y-81020645D01*
X137553565Y-81003322D01*
X137567178Y-80982948D01*
X137576556Y-80960309D01*
X137581336Y-80936276D01*
X137581336Y-80911772D01*
X137576556Y-80887739D01*
X137567178Y-80865100D01*
X137553564Y-80844725D01*
X137536237Y-80827398D01*
X137515863Y-80813785D01*
X137493224Y-80804407D01*
X137456939Y-80799025D01*
X136931200Y-80799025D01*
X136931200Y-80296975D01*
X138811200Y-80296975D01*
X138811200Y-80799025D01*
G37*
G36*
X152005512Y-80129927D02*
G01*
X152154812Y-80159624D01*
X152318784Y-80227544D01*
X152466354Y-80326147D01*
X152591853Y-80451646D01*
X152690456Y-80599216D01*
X152758376Y-80763188D01*
X152783150Y-80887739D01*
X152792805Y-80936276D01*
X152793000Y-80937259D01*
X152793000Y-81114741D01*
X152758376Y-81288812D01*
X152690456Y-81452784D01*
X152591853Y-81600354D01*
X152466354Y-81725853D01*
X152318784Y-81824456D01*
X152154812Y-81892376D01*
X152005512Y-81922073D01*
X151980742Y-81927000D01*
X151803258Y-81927000D01*
X151778488Y-81922073D01*
X151629188Y-81892376D01*
X151465216Y-81824456D01*
X151317646Y-81725853D01*
X151192147Y-81600354D01*
X151093544Y-81452784D01*
X151025624Y-81288812D01*
X150991000Y-81114741D01*
X150991000Y-80937259D01*
X150991196Y-80936276D01*
X151000850Y-80887739D01*
X151025624Y-80763188D01*
X151093544Y-80599216D01*
X151192147Y-80451646D01*
X151317646Y-80326147D01*
X151465216Y-80227544D01*
X151629188Y-80159624D01*
X151778488Y-80129927D01*
X151803258Y-80125000D01*
X151980742Y-80125000D01*
X152005512Y-80129927D01*
G37*
G36*
X149465512Y-80129927D02*
G01*
X149614812Y-80159624D01*
X149778784Y-80227544D01*
X149926354Y-80326147D01*
X150051853Y-80451646D01*
X150150456Y-80599216D01*
X150218376Y-80763188D01*
X150243150Y-80887739D01*
X150252805Y-80936276D01*
X150253000Y-80937259D01*
X150253000Y-81114741D01*
X150218376Y-81288812D01*
X150150456Y-81452784D01*
X150051853Y-81600354D01*
X149926354Y-81725853D01*
X149778784Y-81824456D01*
X149614812Y-81892376D01*
X149465512Y-81922073D01*
X149440742Y-81927000D01*
X149263258Y-81927000D01*
X149238488Y-81922073D01*
X149089188Y-81892376D01*
X148925216Y-81824456D01*
X148777646Y-81725853D01*
X148652147Y-81600354D01*
X148553544Y-81452784D01*
X148485624Y-81288812D01*
X148451000Y-81114741D01*
X148451000Y-80937259D01*
X148451196Y-80936276D01*
X148460850Y-80887739D01*
X148485624Y-80763188D01*
X148553544Y-80599216D01*
X148652147Y-80451646D01*
X148777646Y-80326147D01*
X148925216Y-80227544D01*
X149089188Y-80159624D01*
X149238488Y-80129927D01*
X149263258Y-80125000D01*
X149440742Y-80125000D01*
X149465512Y-80129927D01*
G37*
G36*
X146701000Y-81907000D02*
G01*
X145399000Y-81907000D01*
X145399000Y-80905000D01*
X146701000Y-80905000D01*
X146701000Y-81907000D01*
G37*
G36*
X142454968Y-80279565D02*
G01*
X142493638Y-80291296D01*
X142529277Y-80310346D01*
X142560517Y-80335983D01*
X142586154Y-80367223D01*
X142605204Y-80402862D01*
X142616935Y-80441532D01*
X142621500Y-80487888D01*
X142621500Y-81564112D01*
X142616935Y-81610468D01*
X142605204Y-81649138D01*
X142586154Y-81684777D01*
X142560517Y-81716017D01*
X142529277Y-81741654D01*
X142493638Y-81760704D01*
X142454968Y-81772435D01*
X142408612Y-81777000D01*
X141757388Y-81777000D01*
X141711032Y-81772435D01*
X141672362Y-81760704D01*
X141636723Y-81741654D01*
X141605483Y-81716017D01*
X141579846Y-81684777D01*
X141560796Y-81649138D01*
X141549065Y-81610468D01*
X141544500Y-81564112D01*
X141544500Y-80487888D01*
X141549065Y-80441532D01*
X141560796Y-80402862D01*
X141579846Y-80367223D01*
X141605483Y-80335983D01*
X141636723Y-80310346D01*
X141672362Y-80291296D01*
X141711032Y-80279565D01*
X141757388Y-80275000D01*
X142408612Y-80275000D01*
X142454968Y-80279565D01*
G37*
G36*
X140579968Y-80279565D02*
G01*
X140618638Y-80291296D01*
X140654277Y-80310346D01*
X140685517Y-80335983D01*
X140711154Y-80367223D01*
X140730204Y-80402862D01*
X140741935Y-80441532D01*
X140746500Y-80487888D01*
X140746500Y-81564112D01*
X140741935Y-81610468D01*
X140730204Y-81649138D01*
X140711154Y-81684777D01*
X140685517Y-81716017D01*
X140654277Y-81741654D01*
X140618638Y-81760704D01*
X140579968Y-81772435D01*
X140533612Y-81777000D01*
X139882388Y-81777000D01*
X139836032Y-81772435D01*
X139797362Y-81760704D01*
X139761723Y-81741654D01*
X139730483Y-81716017D01*
X139704846Y-81684777D01*
X139685796Y-81649138D01*
X139674065Y-81610468D01*
X139669500Y-81564112D01*
X139669500Y-80487888D01*
X139674065Y-80441532D01*
X139685796Y-80402862D01*
X139704846Y-80367223D01*
X139730483Y-80335983D01*
X139761723Y-80310346D01*
X139797362Y-80291296D01*
X139836032Y-80279565D01*
X139882388Y-80275000D01*
X140533612Y-80275000D01*
X140579968Y-80279565D01*
G37*
G36*
X135994000Y-81474000D02*
G01*
X133992000Y-81474000D01*
X133992000Y-79572000D01*
X135994000Y-79572000D01*
X135994000Y-81474000D01*
G37*
G36*
X164705591Y-80250085D02*
G01*
X164739569Y-80260393D01*
X164770890Y-80277134D01*
X164798339Y-80299661D01*
X164820866Y-80327110D01*
X164837607Y-80358431D01*
X164847915Y-80392409D01*
X164852000Y-80433890D01*
X164852000Y-81110110D01*
X164847915Y-81151591D01*
X164837607Y-81185569D01*
X164820866Y-81216890D01*
X164798339Y-81244339D01*
X164770890Y-81266866D01*
X164739569Y-81283607D01*
X164705591Y-81293915D01*
X164664110Y-81298000D01*
X164062890Y-81298000D01*
X164021409Y-81293915D01*
X163987431Y-81283607D01*
X163956110Y-81266866D01*
X163928661Y-81244339D01*
X163906134Y-81216890D01*
X163889393Y-81185569D01*
X163879085Y-81151591D01*
X163875000Y-81110110D01*
X163875000Y-80433890D01*
X163879085Y-80392409D01*
X163889393Y-80358431D01*
X163906134Y-80327110D01*
X163928661Y-80299661D01*
X163956110Y-80277134D01*
X163987431Y-80260393D01*
X164021409Y-80250085D01*
X164062890Y-80246000D01*
X164664110Y-80246000D01*
X164705591Y-80250085D01*
G37*
G36*
X163130591Y-80250085D02*
G01*
X163164569Y-80260393D01*
X163195890Y-80277134D01*
X163223339Y-80299661D01*
X163245866Y-80327110D01*
X163262607Y-80358431D01*
X163272915Y-80392409D01*
X163277000Y-80433890D01*
X163277000Y-81110110D01*
X163272915Y-81151591D01*
X163262607Y-81185569D01*
X163245866Y-81216890D01*
X163223339Y-81244339D01*
X163195890Y-81266866D01*
X163164569Y-81283607D01*
X163130591Y-81293915D01*
X163089110Y-81298000D01*
X162487890Y-81298000D01*
X162446409Y-81293915D01*
X162412431Y-81283607D01*
X162381110Y-81266866D01*
X162353661Y-81244339D01*
X162331134Y-81216890D01*
X162314393Y-81185569D01*
X162304085Y-81151591D01*
X162300000Y-81110110D01*
X162300000Y-80433890D01*
X162304085Y-80392409D01*
X162314393Y-80358431D01*
X162331134Y-80327110D01*
X162353661Y-80299661D01*
X162381110Y-80277134D01*
X162412431Y-80260393D01*
X162446409Y-80250085D01*
X162487890Y-80246000D01*
X163089110Y-80246000D01*
X163130591Y-80250085D01*
G37*
G36*
X158635000Y-80911000D02*
G01*
X156833000Y-80911000D01*
X156833000Y-79109000D01*
X158635000Y-79109000D01*
X158635000Y-80911000D01*
G37*
G36*
X144045938Y-80151716D02*
G01*
X144066557Y-80157971D01*
X144085553Y-80168124D01*
X144102208Y-80181792D01*
X144115876Y-80198447D01*
X144126029Y-80217443D01*
X144132284Y-80238062D01*
X144135000Y-80265640D01*
X144135000Y-80724360D01*
X144132284Y-80751938D01*
X144126029Y-80772557D01*
X144115876Y-80791553D01*
X144102208Y-80808208D01*
X144085553Y-80821876D01*
X144066557Y-80832029D01*
X144045938Y-80838284D01*
X144018360Y-80841000D01*
X143509640Y-80841000D01*
X143482062Y-80838284D01*
X143461443Y-80832029D01*
X143442447Y-80821876D01*
X143425792Y-80808208D01*
X143412124Y-80791553D01*
X143401971Y-80772557D01*
X143395716Y-80751938D01*
X143393000Y-80724360D01*
X143393000Y-80265640D01*
X143395716Y-80238062D01*
X143401971Y-80217443D01*
X143412124Y-80198447D01*
X143425792Y-80181792D01*
X143442447Y-80168124D01*
X143461443Y-80157971D01*
X143482062Y-80151716D01*
X143509640Y-80149000D01*
X144018360Y-80149000D01*
X144045938Y-80151716D01*
G37*
G36*
X167455295Y-77540323D02*
G01*
X167462310Y-77542451D01*
X167468776Y-77545908D01*
X167474442Y-77550558D01*
X167479092Y-77556224D01*
X167482549Y-77562690D01*
X167484677Y-77569705D01*
X167486000Y-77583140D01*
X167486000Y-77896860D01*
X167484677Y-77910295D01*
X167482549Y-77917309D01*
X167475190Y-77931077D01*
X167465813Y-77953716D01*
X167461033Y-77977749D01*
X167461033Y-78002253D01*
X167465814Y-78026286D01*
X167475190Y-78048923D01*
X167482549Y-78062691D01*
X167484677Y-78069705D01*
X167486000Y-78083140D01*
X167486000Y-78396860D01*
X167484677Y-78410295D01*
X167482549Y-78417309D01*
X167475190Y-78431077D01*
X167465813Y-78453716D01*
X167461033Y-78477749D01*
X167461033Y-78502253D01*
X167465814Y-78526286D01*
X167475190Y-78548923D01*
X167482549Y-78562691D01*
X167484677Y-78569705D01*
X167486000Y-78583140D01*
X167486000Y-78896860D01*
X167484677Y-78910295D01*
X167482549Y-78917309D01*
X167475190Y-78931077D01*
X167465813Y-78953716D01*
X167461033Y-78977749D01*
X167461033Y-79002253D01*
X167465814Y-79026286D01*
X167475190Y-79048923D01*
X167482549Y-79062691D01*
X167484677Y-79069705D01*
X167486000Y-79083140D01*
X167486000Y-79396860D01*
X167484677Y-79410295D01*
X167482549Y-79417309D01*
X167475190Y-79431077D01*
X167465813Y-79453716D01*
X167461033Y-79477749D01*
X167461033Y-79502253D01*
X167465814Y-79526286D01*
X167475190Y-79548923D01*
X167482549Y-79562691D01*
X167484677Y-79569705D01*
X167486000Y-79583140D01*
X167486000Y-79896860D01*
X167484677Y-79910295D01*
X167482549Y-79917310D01*
X167479092Y-79923776D01*
X167474442Y-79929442D01*
X167468776Y-79934092D01*
X167462310Y-79937549D01*
X167455295Y-79939677D01*
X167441860Y-79941000D01*
X165978140Y-79941000D01*
X165964705Y-79939677D01*
X165957690Y-79937549D01*
X165951224Y-79934092D01*
X165945558Y-79929442D01*
X165940908Y-79923776D01*
X165937451Y-79917310D01*
X165935323Y-79910295D01*
X165934000Y-79896860D01*
X165934000Y-79583140D01*
X165935323Y-79569705D01*
X165937451Y-79562691D01*
X165944810Y-79548923D01*
X165954187Y-79526284D01*
X165958967Y-79502251D01*
X165958967Y-79477747D01*
X165954186Y-79453714D01*
X165944810Y-79431077D01*
X165937451Y-79417309D01*
X165935323Y-79410295D01*
X165934000Y-79396860D01*
X165934000Y-79083140D01*
X165935323Y-79069705D01*
X165937451Y-79062691D01*
X165944810Y-79048923D01*
X165954187Y-79026284D01*
X165958967Y-79002251D01*
X165958967Y-78977747D01*
X165954186Y-78953714D01*
X165944810Y-78931077D01*
X165937451Y-78917309D01*
X165935323Y-78910295D01*
X165934000Y-78896860D01*
X165934000Y-78583140D01*
X165935323Y-78569705D01*
X165937451Y-78562691D01*
X165944810Y-78548923D01*
X165954187Y-78526284D01*
X165958967Y-78502251D01*
X165958967Y-78477747D01*
X165954186Y-78453714D01*
X165944810Y-78431077D01*
X165937451Y-78417309D01*
X165935323Y-78410295D01*
X165934000Y-78396860D01*
X165934000Y-78083140D01*
X165935323Y-78069705D01*
X165937451Y-78062691D01*
X165944810Y-78048923D01*
X165954187Y-78026284D01*
X165958967Y-78002251D01*
X165958967Y-77977747D01*
X165954186Y-77953714D01*
X165944810Y-77931077D01*
X165937451Y-77917309D01*
X165935323Y-77910295D01*
X165934000Y-77896860D01*
X165934000Y-77583140D01*
X165935323Y-77569705D01*
X165937451Y-77562690D01*
X165940908Y-77556224D01*
X165945558Y-77550558D01*
X165951224Y-77545908D01*
X165957690Y-77542451D01*
X165964705Y-77540323D01*
X165978140Y-77539000D01*
X167441860Y-77539000D01*
X167455295Y-77540323D01*
G37*
G36*
X171855295Y-77540323D02*
G01*
X171862310Y-77542451D01*
X171868776Y-77545908D01*
X171874442Y-77550558D01*
X171879092Y-77556224D01*
X171882549Y-77562690D01*
X171884677Y-77569705D01*
X171886000Y-77583140D01*
X171886000Y-77896860D01*
X171884677Y-77910295D01*
X171882549Y-77917309D01*
X171875190Y-77931077D01*
X171865813Y-77953716D01*
X171861033Y-77977749D01*
X171861033Y-78002253D01*
X171865814Y-78026286D01*
X171875190Y-78048923D01*
X171882549Y-78062691D01*
X171884677Y-78069705D01*
X171886000Y-78083140D01*
X171886000Y-78396860D01*
X171884677Y-78410295D01*
X171882549Y-78417309D01*
X171875190Y-78431077D01*
X171865813Y-78453716D01*
X171861033Y-78477749D01*
X171861033Y-78502253D01*
X171865814Y-78526286D01*
X171875190Y-78548923D01*
X171882549Y-78562691D01*
X171884677Y-78569705D01*
X171886000Y-78583140D01*
X171886000Y-78896860D01*
X171884677Y-78910295D01*
X171882549Y-78917309D01*
X171875190Y-78931077D01*
X171865813Y-78953716D01*
X171861033Y-78977749D01*
X171861033Y-79002253D01*
X171865814Y-79026286D01*
X171875190Y-79048923D01*
X171882549Y-79062691D01*
X171884677Y-79069705D01*
X171886000Y-79083140D01*
X171886000Y-79396860D01*
X171884677Y-79410295D01*
X171882549Y-79417309D01*
X171875190Y-79431077D01*
X171865813Y-79453716D01*
X171861033Y-79477749D01*
X171861033Y-79502253D01*
X171865814Y-79526286D01*
X171875190Y-79548923D01*
X171882549Y-79562691D01*
X171884677Y-79569705D01*
X171886000Y-79583140D01*
X171886000Y-79896860D01*
X171884677Y-79910295D01*
X171882549Y-79917310D01*
X171879092Y-79923776D01*
X171874442Y-79929442D01*
X171868776Y-79934092D01*
X171862310Y-79937549D01*
X171855295Y-79939677D01*
X171841860Y-79941000D01*
X170378140Y-79941000D01*
X170364705Y-79939677D01*
X170357690Y-79937549D01*
X170351224Y-79934092D01*
X170345558Y-79929442D01*
X170340908Y-79923776D01*
X170337451Y-79917310D01*
X170335323Y-79910295D01*
X170334000Y-79896860D01*
X170334000Y-79583140D01*
X170335323Y-79569705D01*
X170337451Y-79562691D01*
X170344810Y-79548923D01*
X170354187Y-79526284D01*
X170358967Y-79502251D01*
X170358967Y-79477747D01*
X170354186Y-79453714D01*
X170344810Y-79431077D01*
X170337451Y-79417309D01*
X170335323Y-79410295D01*
X170334000Y-79396860D01*
X170334000Y-79083140D01*
X170335323Y-79069705D01*
X170337451Y-79062691D01*
X170344810Y-79048923D01*
X170354187Y-79026284D01*
X170358967Y-79002251D01*
X170358967Y-78977747D01*
X170354186Y-78953714D01*
X170344810Y-78931077D01*
X170337451Y-78917309D01*
X170335323Y-78910295D01*
X170334000Y-78896860D01*
X170334000Y-78583140D01*
X170335323Y-78569705D01*
X170337451Y-78562691D01*
X170344810Y-78548923D01*
X170354187Y-78526284D01*
X170358967Y-78502251D01*
X170358967Y-78477747D01*
X170354186Y-78453714D01*
X170344810Y-78431077D01*
X170337451Y-78417309D01*
X170335323Y-78410295D01*
X170334000Y-78396860D01*
X170334000Y-78083140D01*
X170335323Y-78069705D01*
X170337451Y-78062691D01*
X170344810Y-78048923D01*
X170354187Y-78026284D01*
X170358967Y-78002251D01*
X170358967Y-77977747D01*
X170354186Y-77953714D01*
X170344810Y-77931077D01*
X170337451Y-77917309D01*
X170335323Y-77910295D01*
X170334000Y-77896860D01*
X170334000Y-77583140D01*
X170335323Y-77569705D01*
X170337451Y-77562690D01*
X170340908Y-77556224D01*
X170345558Y-77550558D01*
X170351224Y-77545908D01*
X170357690Y-77542451D01*
X170364705Y-77540323D01*
X170378140Y-77539000D01*
X171841860Y-77539000D01*
X171855295Y-77540323D01*
G37*
G36*
X144045938Y-79181716D02*
G01*
X144066557Y-79187971D01*
X144085553Y-79198124D01*
X144102208Y-79211792D01*
X144115876Y-79228447D01*
X144126029Y-79247443D01*
X144132284Y-79268062D01*
X144135000Y-79295640D01*
X144135000Y-79754360D01*
X144132284Y-79781938D01*
X144126029Y-79802557D01*
X144115876Y-79821553D01*
X144102208Y-79838208D01*
X144085553Y-79851876D01*
X144066557Y-79862029D01*
X144045938Y-79868284D01*
X144018360Y-79871000D01*
X143509640Y-79871000D01*
X143482062Y-79868284D01*
X143461443Y-79862029D01*
X143442447Y-79851876D01*
X143425792Y-79838208D01*
X143412124Y-79821553D01*
X143401971Y-79802557D01*
X143395716Y-79781938D01*
X143393000Y-79754360D01*
X143393000Y-79295640D01*
X143395716Y-79268062D01*
X143401971Y-79247443D01*
X143412124Y-79228447D01*
X143425792Y-79211792D01*
X143442447Y-79198124D01*
X143461443Y-79187971D01*
X143482062Y-79181716D01*
X143509640Y-79179000D01*
X144018360Y-79179000D01*
X144045938Y-79181716D01*
G37*
G36*
X140658468Y-77993565D02*
G01*
X140697138Y-78005296D01*
X140732777Y-78024346D01*
X140764017Y-78049983D01*
X140789654Y-78081223D01*
X140808704Y-78116862D01*
X140820435Y-78155532D01*
X140825000Y-78201888D01*
X140825000Y-79278112D01*
X140820435Y-79324468D01*
X140808704Y-79363138D01*
X140789654Y-79398777D01*
X140764017Y-79430017D01*
X140732777Y-79455654D01*
X140697138Y-79474704D01*
X140658468Y-79486435D01*
X140612112Y-79491000D01*
X139960888Y-79491000D01*
X139914532Y-79486435D01*
X139875862Y-79474704D01*
X139840223Y-79455654D01*
X139808983Y-79430017D01*
X139783346Y-79398777D01*
X139764296Y-79363138D01*
X139752565Y-79324468D01*
X139748000Y-79278112D01*
X139748000Y-78201888D01*
X139752565Y-78155532D01*
X139764296Y-78116862D01*
X139783346Y-78081223D01*
X139808983Y-78049983D01*
X139840223Y-78024346D01*
X139875862Y-78005296D01*
X139914532Y-77993565D01*
X139960888Y-77989000D01*
X140612112Y-77989000D01*
X140658468Y-77993565D01*
G37*
G36*
X142533468Y-77993565D02*
G01*
X142572138Y-78005296D01*
X142607777Y-78024346D01*
X142639017Y-78049983D01*
X142664654Y-78081223D01*
X142683704Y-78116862D01*
X142695435Y-78155532D01*
X142700000Y-78201888D01*
X142700000Y-79278112D01*
X142695435Y-79324468D01*
X142683704Y-79363138D01*
X142664654Y-79398777D01*
X142639017Y-79430017D01*
X142607777Y-79455654D01*
X142572138Y-79474704D01*
X142533468Y-79486435D01*
X142487112Y-79491000D01*
X141835888Y-79491000D01*
X141789532Y-79486435D01*
X141750862Y-79474704D01*
X141715223Y-79455654D01*
X141683983Y-79430017D01*
X141658346Y-79398777D01*
X141639296Y-79363138D01*
X141627565Y-79324468D01*
X141623000Y-79278112D01*
X141623000Y-78201888D01*
X141627565Y-78155532D01*
X141639296Y-78116862D01*
X141658346Y-78081223D01*
X141683983Y-78049983D01*
X141715223Y-78024346D01*
X141750862Y-78005296D01*
X141789532Y-77993565D01*
X141835888Y-77989000D01*
X142487112Y-77989000D01*
X142533468Y-77993565D01*
G37*
G36*
X149465512Y-77589927D02*
G01*
X149614812Y-77619624D01*
X149778784Y-77687544D01*
X149926354Y-77786147D01*
X150051853Y-77911646D01*
X150150456Y-78059216D01*
X150218376Y-78223188D01*
X150241710Y-78340500D01*
X150253000Y-78397258D01*
X150253000Y-78574742D01*
X150251225Y-78583665D01*
X150218376Y-78748812D01*
X150150456Y-78912784D01*
X150051853Y-79060354D01*
X149926354Y-79185853D01*
X149778784Y-79284456D01*
X149614812Y-79352376D01*
X149465512Y-79382073D01*
X149440742Y-79387000D01*
X149263258Y-79387000D01*
X149238488Y-79382073D01*
X149089188Y-79352376D01*
X148925216Y-79284456D01*
X148777646Y-79185853D01*
X148652147Y-79060354D01*
X148553544Y-78912784D01*
X148485624Y-78748812D01*
X148452775Y-78583665D01*
X148451000Y-78574742D01*
X148451000Y-78397258D01*
X148462290Y-78340500D01*
X148485624Y-78223188D01*
X148553544Y-78059216D01*
X148652147Y-77911646D01*
X148777646Y-77786147D01*
X148925216Y-77687544D01*
X149089188Y-77619624D01*
X149238488Y-77589927D01*
X149263258Y-77585000D01*
X149440742Y-77585000D01*
X149465512Y-77589927D01*
G37*
G36*
X152005512Y-77589927D02*
G01*
X152154812Y-77619624D01*
X152318784Y-77687544D01*
X152466354Y-77786147D01*
X152591853Y-77911646D01*
X152690456Y-78059216D01*
X152758376Y-78223188D01*
X152781710Y-78340500D01*
X152793000Y-78397258D01*
X152793000Y-78574742D01*
X152791225Y-78583665D01*
X152758376Y-78748812D01*
X152690456Y-78912784D01*
X152591853Y-79060354D01*
X152466354Y-79185853D01*
X152318784Y-79284456D01*
X152154812Y-79352376D01*
X152005512Y-79382073D01*
X151980742Y-79387000D01*
X151803258Y-79387000D01*
X151778488Y-79382073D01*
X151629188Y-79352376D01*
X151465216Y-79284456D01*
X151317646Y-79185853D01*
X151192147Y-79060354D01*
X151093544Y-78912784D01*
X151025624Y-78748812D01*
X150992775Y-78583665D01*
X150991000Y-78574742D01*
X150991000Y-78397258D01*
X151002290Y-78340500D01*
X151025624Y-78223188D01*
X151093544Y-78059216D01*
X151192147Y-77911646D01*
X151317646Y-77786147D01*
X151465216Y-77687544D01*
X151629188Y-77619624D01*
X151778488Y-77589927D01*
X151803258Y-77585000D01*
X151980742Y-77585000D01*
X152005512Y-77589927D01*
G37*
G36*
X135994000Y-78924000D02*
G01*
X133992000Y-78924000D01*
X133992000Y-77022000D01*
X135994000Y-77022000D01*
X135994000Y-78924000D01*
G37*
G36*
X146701000Y-78607000D02*
G01*
X145399000Y-78607000D01*
X145399000Y-77605000D01*
X146701000Y-77605000D01*
X146701000Y-78607000D01*
G37*
G36*
X164705591Y-77456085D02*
G01*
X164739569Y-77466393D01*
X164770890Y-77483134D01*
X164798339Y-77505661D01*
X164820866Y-77533110D01*
X164837607Y-77564431D01*
X164847915Y-77598409D01*
X164852000Y-77639890D01*
X164852000Y-78316110D01*
X164847915Y-78357591D01*
X164837607Y-78391569D01*
X164820866Y-78422890D01*
X164798339Y-78450339D01*
X164770890Y-78472866D01*
X164739569Y-78489607D01*
X164705591Y-78499915D01*
X164664110Y-78504000D01*
X164062890Y-78504000D01*
X164021409Y-78499915D01*
X163987431Y-78489607D01*
X163956110Y-78472866D01*
X163928661Y-78450339D01*
X163906134Y-78422890D01*
X163889393Y-78391569D01*
X163879085Y-78357591D01*
X163875000Y-78316110D01*
X163875000Y-77639890D01*
X163879085Y-77598409D01*
X163889393Y-77564431D01*
X163906134Y-77533110D01*
X163928661Y-77505661D01*
X163956110Y-77483134D01*
X163987431Y-77466393D01*
X164021409Y-77456085D01*
X164062890Y-77452000D01*
X164664110Y-77452000D01*
X164705591Y-77456085D01*
G37*
G36*
X163130591Y-77456085D02*
G01*
X163164569Y-77466393D01*
X163195890Y-77483134D01*
X163223339Y-77505661D01*
X163245866Y-77533110D01*
X163262607Y-77564431D01*
X163272915Y-77598409D01*
X163277000Y-77639890D01*
X163277000Y-78316110D01*
X163272915Y-78357591D01*
X163262607Y-78391569D01*
X163245866Y-78422890D01*
X163223339Y-78450339D01*
X163195890Y-78472866D01*
X163164569Y-78489607D01*
X163130591Y-78499915D01*
X163089110Y-78504000D01*
X162487890Y-78504000D01*
X162446409Y-78499915D01*
X162412431Y-78489607D01*
X162381110Y-78472866D01*
X162353661Y-78450339D01*
X162331134Y-78422890D01*
X162314393Y-78391569D01*
X162304085Y-78357591D01*
X162300000Y-78316110D01*
X162300000Y-77639890D01*
X162304085Y-77598409D01*
X162314393Y-77564431D01*
X162331134Y-77533110D01*
X162353661Y-77505661D01*
X162381110Y-77483134D01*
X162412431Y-77466393D01*
X162446409Y-77456085D01*
X162487890Y-77452000D01*
X163089110Y-77452000D01*
X163130591Y-77456085D01*
G37*
G36*
X138205916Y-76455334D02*
G01*
X138314492Y-76488271D01*
X138314495Y-76488272D01*
X138350601Y-76507571D01*
X138414557Y-76541756D01*
X138502264Y-76613736D01*
X138574244Y-76701443D01*
X138608429Y-76765399D01*
X138627728Y-76801505D01*
X138627729Y-76801508D01*
X138660666Y-76910084D01*
X138671787Y-77023000D01*
X138660666Y-77135916D01*
X138627729Y-77244492D01*
X138627728Y-77244495D01*
X138608429Y-77280601D01*
X138574244Y-77344557D01*
X138502264Y-77432264D01*
X138449758Y-77475355D01*
X138432435Y-77492678D01*
X138418822Y-77513052D01*
X138409444Y-77535691D01*
X138404664Y-77559724D01*
X138404664Y-77584228D01*
X138409444Y-77608261D01*
X138418822Y-77630900D01*
X138432436Y-77651275D01*
X138449763Y-77668602D01*
X138470137Y-77682215D01*
X138492776Y-77691593D01*
X138529061Y-77696975D01*
X138811200Y-77696975D01*
X138811200Y-78199025D01*
X136931200Y-78199025D01*
X136931200Y-77696975D01*
X137456939Y-77696975D01*
X137481325Y-77694573D01*
X137504774Y-77687460D01*
X137526385Y-77675909D01*
X137545327Y-77660364D01*
X137560872Y-77641422D01*
X137572423Y-77619811D01*
X137579536Y-77596362D01*
X137581938Y-77571976D01*
X137579536Y-77547590D01*
X137572423Y-77524141D01*
X137560872Y-77502530D01*
X137536241Y-77475354D01*
X137483736Y-77432264D01*
X137411756Y-77344557D01*
X137377571Y-77280601D01*
X137358272Y-77244495D01*
X137358271Y-77244492D01*
X137325334Y-77135916D01*
X137314213Y-77023000D01*
X137325334Y-76910084D01*
X137358271Y-76801508D01*
X137358272Y-76801505D01*
X137377571Y-76765399D01*
X137411756Y-76701443D01*
X137483736Y-76613736D01*
X137571443Y-76541756D01*
X137635399Y-76507571D01*
X137671505Y-76488272D01*
X137671508Y-76488271D01*
X137780084Y-76455334D01*
X137864702Y-76447000D01*
X138121298Y-76447000D01*
X138205916Y-76455334D01*
G37*
G36*
X160835000Y-77911000D02*
G01*
X159233000Y-77911000D01*
X159233000Y-75809000D01*
X160835000Y-75809000D01*
X160835000Y-77911000D01*
G37*
G36*
X158535000Y-77911000D02*
G01*
X156933000Y-77911000D01*
X156933000Y-75809000D01*
X158535000Y-75809000D01*
X158535000Y-77911000D01*
G37*
G36*
X156235000Y-77911000D02*
G01*
X154633000Y-77911000D01*
X154633000Y-75809000D01*
X156235000Y-75809000D01*
X156235000Y-77911000D01*
G37*
G36*
X146937591Y-75995085D02*
G01*
X146971569Y-76005393D01*
X147002890Y-76022134D01*
X147030339Y-76044661D01*
X147052866Y-76072110D01*
X147069607Y-76103431D01*
X147079915Y-76137409D01*
X147084000Y-76178890D01*
X147084000Y-76780110D01*
X147079915Y-76821591D01*
X147069607Y-76855569D01*
X147052866Y-76886890D01*
X147030339Y-76914339D01*
X147002890Y-76936866D01*
X146971569Y-76953607D01*
X146937591Y-76963915D01*
X146896110Y-76968000D01*
X146219890Y-76968000D01*
X146178409Y-76963915D01*
X146144431Y-76953607D01*
X146113110Y-76936866D01*
X146085661Y-76914339D01*
X146063134Y-76886890D01*
X146046393Y-76855569D01*
X146036085Y-76821591D01*
X146032000Y-76780110D01*
X146032000Y-76178890D01*
X146036085Y-76137409D01*
X146046393Y-76103431D01*
X146063134Y-76072110D01*
X146085661Y-76044661D01*
X146113110Y-76022134D01*
X146144431Y-76005393D01*
X146178409Y-75995085D01*
X146219890Y-75991000D01*
X146896110Y-75991000D01*
X146937591Y-75995085D01*
G37*
G36*
X151991490Y-75047138D02*
G01*
X152154812Y-75079624D01*
X152318784Y-75147544D01*
X152466354Y-75246147D01*
X152591853Y-75371646D01*
X152690456Y-75519216D01*
X152758376Y-75683188D01*
X152793000Y-75857259D01*
X152793000Y-76034741D01*
X152758376Y-76208812D01*
X152690456Y-76372784D01*
X152591853Y-76520354D01*
X152466354Y-76645853D01*
X152318784Y-76744456D01*
X152154812Y-76812376D01*
X152005512Y-76842073D01*
X151980742Y-76847000D01*
X151803258Y-76847000D01*
X151778488Y-76842073D01*
X151629188Y-76812376D01*
X151465216Y-76744456D01*
X151317646Y-76645853D01*
X151192147Y-76520354D01*
X151093544Y-76372784D01*
X151025624Y-76208812D01*
X150991000Y-76034741D01*
X150991000Y-75857259D01*
X151025624Y-75683188D01*
X151093544Y-75519216D01*
X151192147Y-75371646D01*
X151317646Y-75246147D01*
X151465216Y-75147544D01*
X151629188Y-75079624D01*
X151792510Y-75047138D01*
X151803258Y-75045000D01*
X151980742Y-75045000D01*
X151991490Y-75047138D01*
G37*
G36*
X150253000Y-76847000D02*
G01*
X148451000Y-76847000D01*
X148451000Y-75045000D01*
X150253000Y-75045000D01*
X150253000Y-76847000D01*
G37*
G36*
X142125000Y-76847000D02*
G01*
X140323000Y-76847000D01*
X140323000Y-75045000D01*
X142125000Y-75045000D01*
X142125000Y-76847000D01*
G37*
G36*
X135406855Y-74425140D02*
G01*
X135470618Y-74431420D01*
X135555484Y-74457164D01*
X135593336Y-74468646D01*
X135706425Y-74529094D01*
X135805554Y-74610446D01*
X135886906Y-74709575D01*
X135947354Y-74822664D01*
X135947355Y-74822668D01*
X135973165Y-74907751D01*
X135984909Y-74946468D01*
X135989251Y-74968291D01*
X135994000Y-74979755D01*
X135994000Y-75034886D01*
X135994602Y-75047138D01*
X135997149Y-75073000D01*
X135994602Y-75098862D01*
X135994000Y-75111114D01*
X135994000Y-76689000D01*
X133992000Y-76689000D01*
X133992000Y-75111114D01*
X133991398Y-75098862D01*
X133988851Y-75073000D01*
X133991398Y-75047138D01*
X133992000Y-75034886D01*
X133992000Y-74980992D01*
X133992618Y-74979836D01*
X134000437Y-74948624D01*
X134012836Y-74907751D01*
X134038645Y-74822668D01*
X134038646Y-74822664D01*
X134099094Y-74709575D01*
X134180446Y-74610446D01*
X134279575Y-74529094D01*
X134392664Y-74468646D01*
X134430516Y-74457164D01*
X134515382Y-74431420D01*
X134579145Y-74425140D01*
X134611026Y-74422000D01*
X135374974Y-74422000D01*
X135406855Y-74425140D01*
G37*
G36*
X163555938Y-75577716D02*
G01*
X163576557Y-75583971D01*
X163595553Y-75594124D01*
X163612208Y-75607792D01*
X163625876Y-75624447D01*
X163636029Y-75643443D01*
X163642284Y-75664062D01*
X163645000Y-75691640D01*
X163645000Y-76200360D01*
X163642284Y-76227938D01*
X163636029Y-76248557D01*
X163625876Y-76267553D01*
X163612208Y-76284208D01*
X163595553Y-76297876D01*
X163576557Y-76308029D01*
X163555938Y-76314284D01*
X163528360Y-76317000D01*
X163069640Y-76317000D01*
X163042062Y-76314284D01*
X163021443Y-76308029D01*
X163002447Y-76297876D01*
X162985792Y-76284208D01*
X162972124Y-76267553D01*
X162961971Y-76248557D01*
X162955716Y-76227938D01*
X162953000Y-76200360D01*
X162953000Y-75691640D01*
X162955716Y-75664062D01*
X162961971Y-75643443D01*
X162972124Y-75624447D01*
X162985792Y-75607792D01*
X163002447Y-75594124D01*
X163021443Y-75583971D01*
X163042062Y-75577716D01*
X163069640Y-75575000D01*
X163528360Y-75575000D01*
X163555938Y-75577716D01*
G37*
G36*
X162585938Y-75577716D02*
G01*
X162606557Y-75583971D01*
X162625553Y-75594124D01*
X162642208Y-75607792D01*
X162655876Y-75624447D01*
X162666029Y-75643443D01*
X162672284Y-75664062D01*
X162675000Y-75691640D01*
X162675000Y-76200360D01*
X162672284Y-76227938D01*
X162666029Y-76248557D01*
X162655876Y-76267553D01*
X162642208Y-76284208D01*
X162625553Y-76297876D01*
X162606557Y-76308029D01*
X162585938Y-76314284D01*
X162558360Y-76317000D01*
X162099640Y-76317000D01*
X162072062Y-76314284D01*
X162051443Y-76308029D01*
X162032447Y-76297876D01*
X162015792Y-76284208D01*
X162002124Y-76267553D01*
X161991971Y-76248557D01*
X161985716Y-76227938D01*
X161983000Y-76200360D01*
X161983000Y-75691640D01*
X161985716Y-75664062D01*
X161991971Y-75643443D01*
X162002124Y-75624447D01*
X162015792Y-75607792D01*
X162032447Y-75594124D01*
X162051443Y-75583971D01*
X162072062Y-75577716D01*
X162099640Y-75575000D01*
X162558360Y-75575000D01*
X162585938Y-75577716D01*
G37*
G36*
X146937591Y-74420085D02*
G01*
X146971569Y-74430393D01*
X147002890Y-74447134D01*
X147030339Y-74469661D01*
X147052866Y-74497110D01*
X147069607Y-74528431D01*
X147079915Y-74562409D01*
X147084000Y-74603890D01*
X147084000Y-75205110D01*
X147079915Y-75246591D01*
X147069607Y-75280569D01*
X147052866Y-75311890D01*
X147030339Y-75339339D01*
X147002890Y-75361866D01*
X146971569Y-75378607D01*
X146937591Y-75388915D01*
X146896110Y-75393000D01*
X146219890Y-75393000D01*
X146178409Y-75388915D01*
X146144431Y-75378607D01*
X146113110Y-75361866D01*
X146085661Y-75339339D01*
X146063134Y-75311890D01*
X146046393Y-75280569D01*
X146036085Y-75246591D01*
X146032000Y-75205110D01*
X146032000Y-74603890D01*
X146036085Y-74562409D01*
X146046393Y-74528431D01*
X146063134Y-74497110D01*
X146085661Y-74469661D01*
X146113110Y-74447134D01*
X146144431Y-74430393D01*
X146178409Y-74420085D01*
X146219890Y-74416000D01*
X146896110Y-74416000D01*
X146937591Y-74420085D01*
G37*
G36*
X163555938Y-74307716D02*
G01*
X163576557Y-74313971D01*
X163595553Y-74324124D01*
X163612208Y-74337792D01*
X163625876Y-74354447D01*
X163636029Y-74373443D01*
X163642284Y-74394062D01*
X163645000Y-74421640D01*
X163645000Y-74930360D01*
X163642284Y-74957938D01*
X163636029Y-74978557D01*
X163625876Y-74997553D01*
X163612208Y-75014208D01*
X163595553Y-75027876D01*
X163576557Y-75038029D01*
X163555938Y-75044284D01*
X163528360Y-75047000D01*
X163069640Y-75047000D01*
X163042062Y-75044284D01*
X163021443Y-75038029D01*
X163002447Y-75027876D01*
X162985792Y-75014208D01*
X162972124Y-74997553D01*
X162961971Y-74978557D01*
X162955716Y-74957938D01*
X162953000Y-74930360D01*
X162953000Y-74421640D01*
X162955716Y-74394062D01*
X162961971Y-74373443D01*
X162972124Y-74354447D01*
X162985792Y-74337792D01*
X163002447Y-74324124D01*
X163021443Y-74313971D01*
X163042062Y-74307716D01*
X163069640Y-74305000D01*
X163528360Y-74305000D01*
X163555938Y-74307716D01*
G37*
G36*
X162585938Y-74307716D02*
G01*
X162606557Y-74313971D01*
X162625553Y-74324124D01*
X162642208Y-74337792D01*
X162655876Y-74354447D01*
X162666029Y-74373443D01*
X162672284Y-74394062D01*
X162675000Y-74421640D01*
X162675000Y-74930360D01*
X162672284Y-74957938D01*
X162666029Y-74978557D01*
X162655876Y-74997553D01*
X162642208Y-75014208D01*
X162625553Y-75027876D01*
X162606557Y-75038029D01*
X162585938Y-75044284D01*
X162558360Y-75047000D01*
X162099640Y-75047000D01*
X162072062Y-75044284D01*
X162051443Y-75038029D01*
X162032447Y-75027876D01*
X162015792Y-75014208D01*
X162002124Y-74997553D01*
X161991971Y-74978557D01*
X161985716Y-74957938D01*
X161983000Y-74930360D01*
X161983000Y-74421640D01*
X161985716Y-74394062D01*
X161991971Y-74373443D01*
X162002124Y-74354447D01*
X162015792Y-74337792D01*
X162032447Y-74324124D01*
X162051443Y-74313971D01*
X162072062Y-74307716D01*
X162099640Y-74305000D01*
X162558360Y-74305000D01*
X162585938Y-74307716D01*
G37*
G36*
X159576811Y-72184271D02*
G01*
X159612603Y-72195129D01*
X159645595Y-72212763D01*
X159674508Y-72236492D01*
X159698237Y-72265405D01*
X159715871Y-72298397D01*
X159726729Y-72334189D01*
X159731000Y-72377555D01*
X159731000Y-74434445D01*
X159726729Y-74477811D01*
X159715871Y-74513603D01*
X159698237Y-74546595D01*
X159674508Y-74575508D01*
X159645595Y-74599237D01*
X159612603Y-74616871D01*
X159576811Y-74627729D01*
X159533445Y-74632000D01*
X158501555Y-74632000D01*
X158458189Y-74627729D01*
X158422397Y-74616871D01*
X158389405Y-74599237D01*
X158360492Y-74575508D01*
X158336763Y-74546595D01*
X158319129Y-74513603D01*
X158308271Y-74477811D01*
X158304000Y-74434445D01*
X158304000Y-72377555D01*
X158308271Y-72334189D01*
X158319129Y-72298397D01*
X158336763Y-72265405D01*
X158360492Y-72236492D01*
X158389405Y-72212763D01*
X158422397Y-72195129D01*
X158458189Y-72184271D01*
X158501555Y-72180000D01*
X159533445Y-72180000D01*
X159576811Y-72184271D01*
G37*
G36*
X156501811Y-72184271D02*
G01*
X156537603Y-72195129D01*
X156570595Y-72212763D01*
X156599508Y-72236492D01*
X156623237Y-72265405D01*
X156640871Y-72298397D01*
X156651729Y-72334189D01*
X156656000Y-72377555D01*
X156656000Y-74434445D01*
X156651729Y-74477811D01*
X156640871Y-74513603D01*
X156623237Y-74546595D01*
X156599508Y-74575508D01*
X156570595Y-74599237D01*
X156537603Y-74616871D01*
X156501811Y-74627729D01*
X156458445Y-74632000D01*
X155426555Y-74632000D01*
X155383189Y-74627729D01*
X155347397Y-74616871D01*
X155314405Y-74599237D01*
X155285492Y-74575508D01*
X155261763Y-74546595D01*
X155244129Y-74513603D01*
X155233271Y-74477811D01*
X155229000Y-74434445D01*
X155229000Y-72377555D01*
X155233271Y-72334189D01*
X155244129Y-72298397D01*
X155261763Y-72265405D01*
X155285492Y-72236492D01*
X155314405Y-72212763D01*
X155347397Y-72195129D01*
X155383189Y-72184271D01*
X155426555Y-72180000D01*
X156458445Y-72180000D01*
X156501811Y-72184271D01*
G37*
G36*
X168549684Y-71988955D02*
G01*
X168714815Y-72039047D01*
X168866993Y-72120388D01*
X169000383Y-72229857D01*
X169109852Y-72363247D01*
X169191193Y-72515425D01*
X169241285Y-72680556D01*
X169258198Y-72852280D01*
X169241285Y-73024004D01*
X169191193Y-73189135D01*
X169109852Y-73341313D01*
X169000383Y-73474703D01*
X168866993Y-73584172D01*
X168714815Y-73665513D01*
X168549684Y-73715605D01*
X168420992Y-73728280D01*
X167234928Y-73728280D01*
X167106236Y-73715605D01*
X166941105Y-73665513D01*
X166788927Y-73584172D01*
X166655537Y-73474703D01*
X166546068Y-73341313D01*
X166464727Y-73189135D01*
X166414635Y-73024004D01*
X166397722Y-72852280D01*
X166414635Y-72680556D01*
X166464727Y-72515425D01*
X166546068Y-72363247D01*
X166655537Y-72229857D01*
X166788927Y-72120388D01*
X166941105Y-72039047D01*
X167106236Y-71988955D01*
X167234928Y-71976280D01*
X168420992Y-71976280D01*
X168549684Y-71988955D01*
G37*
G36*
X171770404Y-71973715D02*
G01*
X171935535Y-72023807D01*
X172087713Y-72105148D01*
X172221103Y-72214617D01*
X172330572Y-72348007D01*
X172411913Y-72500185D01*
X172462005Y-72665316D01*
X172478918Y-72837040D01*
X172462005Y-73008764D01*
X172411913Y-73173895D01*
X172330572Y-73326073D01*
X172221103Y-73459463D01*
X172087713Y-73568932D01*
X171935535Y-73650273D01*
X171770404Y-73700365D01*
X171641712Y-73713040D01*
X170455648Y-73713040D01*
X170326956Y-73700365D01*
X170161825Y-73650273D01*
X170009647Y-73568932D01*
X169876257Y-73459463D01*
X169766788Y-73326073D01*
X169685447Y-73173895D01*
X169635355Y-73008764D01*
X169618442Y-72837040D01*
X169635355Y-72665316D01*
X169685447Y-72500185D01*
X169766788Y-72348007D01*
X169876257Y-72214617D01*
X170009647Y-72105148D01*
X170161825Y-72023807D01*
X170326956Y-71973715D01*
X170455648Y-71961040D01*
X171641712Y-71961040D01*
X171770404Y-71973715D01*
G37*
G36*
X165080044Y-71973715D02*
G01*
X165245175Y-72023807D01*
X165397353Y-72105148D01*
X165530743Y-72214617D01*
X165640212Y-72348007D01*
X165721553Y-72500185D01*
X165771645Y-72665316D01*
X165788558Y-72837040D01*
X165771645Y-73008764D01*
X165721553Y-73173895D01*
X165640212Y-73326073D01*
X165530743Y-73459463D01*
X165397353Y-73568932D01*
X165245175Y-73650273D01*
X165080044Y-73700365D01*
X164951352Y-73713040D01*
X163765288Y-73713040D01*
X163636596Y-73700365D01*
X163471465Y-73650273D01*
X163319287Y-73568932D01*
X163185897Y-73459463D01*
X163076428Y-73326073D01*
X162995087Y-73173895D01*
X162944995Y-73008764D01*
X162928082Y-72837040D01*
X162944995Y-72665316D01*
X162995087Y-72500185D01*
X163076428Y-72348007D01*
X163185897Y-72214617D01*
X163319287Y-72105148D01*
X163471465Y-72023807D01*
X163636596Y-71973715D01*
X163765288Y-71961040D01*
X164951352Y-71961040D01*
X165080044Y-71973715D01*
G37*
G36*
X151269000Y-72783000D02*
G01*
X149467000Y-72783000D01*
X149467000Y-70981000D01*
X151269000Y-70981000D01*
X151269000Y-72783000D01*
G37*
G36*
X145466536Y-68752800D02*
G01*
X145497738Y-68762265D01*
X145526486Y-68777631D01*
X145551687Y-68798313D01*
X145572369Y-68823514D01*
X145587735Y-68852262D01*
X145597200Y-68883464D01*
X145601000Y-68922046D01*
X145601000Y-70777954D01*
X145597200Y-70816536D01*
X145587735Y-70847738D01*
X145572369Y-70876486D01*
X145551687Y-70901687D01*
X145526486Y-70922369D01*
X145497738Y-70937735D01*
X145466536Y-70947200D01*
X145427954Y-70951000D01*
X141172046Y-70951000D01*
X141133464Y-70947200D01*
X141102262Y-70937735D01*
X141073514Y-70922369D01*
X141048313Y-70901687D01*
X141027631Y-70876486D01*
X141012265Y-70847738D01*
X141002800Y-70816536D01*
X140999000Y-70777954D01*
X140999000Y-68922046D01*
X141002800Y-68883464D01*
X141012265Y-68852262D01*
X141027631Y-68823514D01*
X141048313Y-68798313D01*
X141073514Y-68777631D01*
X141102262Y-68762265D01*
X141133464Y-68752800D01*
X141172046Y-68749000D01*
X145427954Y-68749000D01*
X145466536Y-68752800D01*
G37*
G36*
X138266536Y-68752800D02*
G01*
X138297738Y-68762265D01*
X138326486Y-68777631D01*
X138351687Y-68798313D01*
X138372369Y-68823514D01*
X138387735Y-68852262D01*
X138397200Y-68883464D01*
X138401000Y-68922046D01*
X138401000Y-70777954D01*
X138397200Y-70816536D01*
X138387735Y-70847738D01*
X138372369Y-70876486D01*
X138351687Y-70901687D01*
X138326486Y-70922369D01*
X138297738Y-70937735D01*
X138266536Y-70947200D01*
X138227954Y-70951000D01*
X133972046Y-70951000D01*
X133933464Y-70947200D01*
X133902262Y-70937735D01*
X133873514Y-70922369D01*
X133848313Y-70901687D01*
X133827631Y-70876486D01*
X133812265Y-70847738D01*
X133802800Y-70816536D01*
X133799000Y-70777954D01*
X133799000Y-68922046D01*
X133802800Y-68883464D01*
X133812265Y-68852262D01*
X133827631Y-68823514D01*
X133848313Y-68798313D01*
X133873514Y-68777631D01*
X133902262Y-68762265D01*
X133933464Y-68752800D01*
X133972046Y-68749000D01*
X138227954Y-68749000D01*
X138266536Y-68752800D01*
G37*
G36*
X154418995Y-70776996D02*
G01*
X152616997Y-70776996D01*
X152616997Y-69674996D01*
X154418995Y-69674996D01*
X154418995Y-70776996D01*
G37*
G36*
X148118998Y-70776996D02*
G01*
X146317000Y-70776996D01*
X146317000Y-69674996D01*
X148118998Y-69674996D01*
X148118998Y-70776996D01*
G37*
G36*
X170659284Y-68697149D02*
G01*
X170816488Y-68762265D01*
X170850555Y-68776376D01*
X170852433Y-68777631D01*
X171022693Y-68891395D01*
X171169085Y-69037787D01*
X171284105Y-69209927D01*
X171363331Y-69401196D01*
X171403720Y-69604244D01*
X171403720Y-69811276D01*
X171363331Y-70014324D01*
X171290417Y-70190355D01*
X171284104Y-70205595D01*
X171169085Y-70377733D01*
X171022693Y-70524125D01*
X170850555Y-70639144D01*
X170850554Y-70639145D01*
X170850553Y-70639145D01*
X170659284Y-70718371D01*
X170456236Y-70758760D01*
X170249204Y-70758760D01*
X170046156Y-70718371D01*
X169854887Y-70639145D01*
X169854886Y-70639145D01*
X169854885Y-70639144D01*
X169682747Y-70524125D01*
X169536355Y-70377733D01*
X169421336Y-70205595D01*
X169415023Y-70190355D01*
X169342109Y-70014324D01*
X169301720Y-69811276D01*
X169301720Y-69604244D01*
X169342109Y-69401196D01*
X169421335Y-69209927D01*
X169536355Y-69037787D01*
X169682747Y-68891395D01*
X169853007Y-68777631D01*
X169854885Y-68776376D01*
X169888952Y-68762265D01*
X170046156Y-68697149D01*
X170249204Y-68656760D01*
X170456236Y-68656760D01*
X170659284Y-68697149D01*
G37*
G36*
X160413000Y-70751000D02*
G01*
X158611000Y-70751000D01*
X158611000Y-68949000D01*
X160413000Y-68949000D01*
X160413000Y-70751000D01*
G37*
G36*
X164649644Y-68681909D02*
G01*
X164840913Y-68761135D01*
X164840915Y-68761136D01*
X164977295Y-68852262D01*
X165013053Y-68876155D01*
X165159445Y-69022547D01*
X165274465Y-69194687D01*
X165353691Y-69385956D01*
X165394080Y-69589004D01*
X165394080Y-69796036D01*
X165353691Y-69999084D01*
X165274465Y-70190353D01*
X165274464Y-70190355D01*
X165159445Y-70362493D01*
X165013053Y-70508885D01*
X164840915Y-70623904D01*
X164840914Y-70623905D01*
X164840913Y-70623905D01*
X164649644Y-70703131D01*
X164446596Y-70743520D01*
X164239564Y-70743520D01*
X164036516Y-70703131D01*
X163845247Y-70623905D01*
X163845246Y-70623905D01*
X163845245Y-70623904D01*
X163673107Y-70508885D01*
X163526715Y-70362493D01*
X163411696Y-70190355D01*
X163411695Y-70190353D01*
X163332469Y-69999084D01*
X163292080Y-69796036D01*
X163292080Y-69589004D01*
X163332469Y-69385956D01*
X163411695Y-69194687D01*
X163526715Y-69022547D01*
X163673107Y-68876155D01*
X163708865Y-68852262D01*
X163845245Y-68761136D01*
X163845247Y-68761135D01*
X164036516Y-68681909D01*
X164239564Y-68641520D01*
X164446596Y-68641520D01*
X164649644Y-68681909D01*
G37*
G36*
X159625512Y-66413927D02*
G01*
X159774812Y-66443624D01*
X159938784Y-66511544D01*
X160086354Y-66610147D01*
X160211853Y-66735646D01*
X160310456Y-66883216D01*
X160378376Y-67047188D01*
X160413000Y-67221259D01*
X160413000Y-67398741D01*
X160378376Y-67572812D01*
X160310456Y-67736784D01*
X160211853Y-67884354D01*
X160086354Y-68009853D01*
X159938784Y-68108456D01*
X159774812Y-68176376D01*
X159625512Y-68206073D01*
X159600742Y-68211000D01*
X159423258Y-68211000D01*
X159398488Y-68206073D01*
X159249188Y-68176376D01*
X159085216Y-68108456D01*
X158937646Y-68009853D01*
X158812147Y-67884354D01*
X158713544Y-67736784D01*
X158645624Y-67572812D01*
X158611000Y-67398741D01*
X158611000Y-67221259D01*
X158645624Y-67047188D01*
X158713544Y-66883216D01*
X158812147Y-66735646D01*
X158937646Y-66610147D01*
X159085216Y-66511544D01*
X159249188Y-66443624D01*
X159398488Y-66413927D01*
X159423258Y-66409000D01*
X159600742Y-66409000D01*
X159625512Y-66413927D01*
G37*
G36*
X171770404Y-65694835D02*
G01*
X171935535Y-65744927D01*
X172087713Y-65826268D01*
X172221103Y-65935737D01*
X172330572Y-66069127D01*
X172411913Y-66221305D01*
X172462005Y-66386436D01*
X172478918Y-66558160D01*
X172462005Y-66729884D01*
X172411913Y-66895015D01*
X172330572Y-67047193D01*
X172221103Y-67180583D01*
X172087713Y-67290052D01*
X171935535Y-67371393D01*
X171770404Y-67421485D01*
X171641712Y-67434160D01*
X170455648Y-67434160D01*
X170326956Y-67421485D01*
X170161825Y-67371393D01*
X170009647Y-67290052D01*
X169876257Y-67180583D01*
X169766788Y-67047193D01*
X169685447Y-66895015D01*
X169635355Y-66729884D01*
X169618442Y-66558160D01*
X169635355Y-66386436D01*
X169685447Y-66221305D01*
X169766788Y-66069127D01*
X169876257Y-65935737D01*
X170009647Y-65826268D01*
X170161825Y-65744927D01*
X170326956Y-65694835D01*
X170455648Y-65682160D01*
X171641712Y-65682160D01*
X171770404Y-65694835D01*
G37*
G36*
X165049564Y-65669435D02*
G01*
X165214695Y-65719527D01*
X165366873Y-65800868D01*
X165500263Y-65910337D01*
X165609732Y-66043727D01*
X165691073Y-66195905D01*
X165741165Y-66361036D01*
X165758078Y-66532760D01*
X165741165Y-66704484D01*
X165691073Y-66869615D01*
X165609732Y-67021793D01*
X165500263Y-67155183D01*
X165366873Y-67264652D01*
X165214695Y-67345993D01*
X165049564Y-67396085D01*
X164920872Y-67408760D01*
X163734808Y-67408760D01*
X163606116Y-67396085D01*
X163440985Y-67345993D01*
X163288807Y-67264652D01*
X163155417Y-67155183D01*
X163045948Y-67021793D01*
X162964607Y-66869615D01*
X162914515Y-66704484D01*
X162897602Y-66532760D01*
X162914515Y-66361036D01*
X162964607Y-66195905D01*
X163045948Y-66043727D01*
X163155417Y-65910337D01*
X163288807Y-65800868D01*
X163440985Y-65719527D01*
X163606116Y-65669435D01*
X163734808Y-65656760D01*
X164920872Y-65656760D01*
X165049564Y-65669435D01*
G37*
G36*
X148118998Y-66976999D02*
G01*
X146317000Y-66976999D01*
X146317000Y-65874999D01*
X148118998Y-65874999D01*
X148118998Y-66976999D01*
G37*
G36*
X154418995Y-66976999D02*
G01*
X152616997Y-66976999D01*
X152616997Y-65874999D01*
X154418995Y-65874999D01*
X154418995Y-66976999D01*
G37*
M02*
