G04 #@! TF.GenerationSoftware,KiCad,Pcbnew,5.1.6+dfsg1-1*
G04 #@! TF.CreationDate,2021-02-27T20:02:44-07:00*
G04 #@! TF.ProjectId,CurrentSensorV1,43757272-656e-4745-9365-6e736f725631,rev?*
G04 #@! TF.SameCoordinates,Original*
G04 #@! TF.FileFunction,Paste,Top*
G04 #@! TF.FilePolarity,Positive*
%FSLAX46Y46*%
G04 Gerber Fmt 4.6, Leading zero omitted, Abs format (unit mm)*
G04 Created by KiCad (PCBNEW 5.1.6+dfsg1-1) date 2021-02-27 20:02:44*
%MOMM*%
%LPD*%
G01*
G04 APERTURE LIST*
%ADD10R,1.699999X1.000001*%
%ADD11R,1.500000X2.000000*%
%ADD12R,3.800000X2.000000*%
%ADD13R,1.200000X0.900000*%
%ADD14R,0.100000X0.500000*%
%ADD15R,1.900000X1.260000*%
%ADD16R,1.900000X1.800000*%
%ADD17R,1.778000X0.400050*%
G04 APERTURE END LIST*
D10*
X153517996Y-66425999D03*
X147217999Y-66425999D03*
X153517996Y-70225996D03*
X147217999Y-70225996D03*
D11*
X160034000Y-76860000D03*
X155434000Y-76860000D03*
X157734000Y-76860000D03*
D12*
X157734000Y-83160000D03*
G36*
G01*
X167435000Y-79665000D02*
X167435000Y-79815000D01*
G75*
G02*
X167360000Y-79890000I-75000J0D01*
G01*
X166060000Y-79890000D01*
G75*
G02*
X165985000Y-79815000I0J75000D01*
G01*
X165985000Y-79665000D01*
G75*
G02*
X166060000Y-79590000I75000J0D01*
G01*
X167360000Y-79590000D01*
G75*
G02*
X167435000Y-79665000I0J-75000D01*
G01*
G37*
G36*
G01*
X167435000Y-79165000D02*
X167435000Y-79315000D01*
G75*
G02*
X167360000Y-79390000I-75000J0D01*
G01*
X166060000Y-79390000D01*
G75*
G02*
X165985000Y-79315000I0J75000D01*
G01*
X165985000Y-79165000D01*
G75*
G02*
X166060000Y-79090000I75000J0D01*
G01*
X167360000Y-79090000D01*
G75*
G02*
X167435000Y-79165000I0J-75000D01*
G01*
G37*
G36*
G01*
X167435000Y-78665000D02*
X167435000Y-78815000D01*
G75*
G02*
X167360000Y-78890000I-75000J0D01*
G01*
X166060000Y-78890000D01*
G75*
G02*
X165985000Y-78815000I0J75000D01*
G01*
X165985000Y-78665000D01*
G75*
G02*
X166060000Y-78590000I75000J0D01*
G01*
X167360000Y-78590000D01*
G75*
G02*
X167435000Y-78665000I0J-75000D01*
G01*
G37*
G36*
G01*
X167435000Y-78165000D02*
X167435000Y-78315000D01*
G75*
G02*
X167360000Y-78390000I-75000J0D01*
G01*
X166060000Y-78390000D01*
G75*
G02*
X165985000Y-78315000I0J75000D01*
G01*
X165985000Y-78165000D01*
G75*
G02*
X166060000Y-78090000I75000J0D01*
G01*
X167360000Y-78090000D01*
G75*
G02*
X167435000Y-78165000I0J-75000D01*
G01*
G37*
G36*
G01*
X167435000Y-77665000D02*
X167435000Y-77815000D01*
G75*
G02*
X167360000Y-77890000I-75000J0D01*
G01*
X166060000Y-77890000D01*
G75*
G02*
X165985000Y-77815000I0J75000D01*
G01*
X165985000Y-77665000D01*
G75*
G02*
X166060000Y-77590000I75000J0D01*
G01*
X167360000Y-77590000D01*
G75*
G02*
X167435000Y-77665000I0J-75000D01*
G01*
G37*
G36*
G01*
X171835000Y-77665000D02*
X171835000Y-77815000D01*
G75*
G02*
X171760000Y-77890000I-75000J0D01*
G01*
X170460000Y-77890000D01*
G75*
G02*
X170385000Y-77815000I0J75000D01*
G01*
X170385000Y-77665000D01*
G75*
G02*
X170460000Y-77590000I75000J0D01*
G01*
X171760000Y-77590000D01*
G75*
G02*
X171835000Y-77665000I0J-75000D01*
G01*
G37*
G36*
G01*
X171835000Y-78165000D02*
X171835000Y-78315000D01*
G75*
G02*
X171760000Y-78390000I-75000J0D01*
G01*
X170460000Y-78390000D01*
G75*
G02*
X170385000Y-78315000I0J75000D01*
G01*
X170385000Y-78165000D01*
G75*
G02*
X170460000Y-78090000I75000J0D01*
G01*
X171760000Y-78090000D01*
G75*
G02*
X171835000Y-78165000I0J-75000D01*
G01*
G37*
G36*
G01*
X171835000Y-78665000D02*
X171835000Y-78815000D01*
G75*
G02*
X171760000Y-78890000I-75000J0D01*
G01*
X170460000Y-78890000D01*
G75*
G02*
X170385000Y-78815000I0J75000D01*
G01*
X170385000Y-78665000D01*
G75*
G02*
X170460000Y-78590000I75000J0D01*
G01*
X171760000Y-78590000D01*
G75*
G02*
X171835000Y-78665000I0J-75000D01*
G01*
G37*
G36*
G01*
X171835000Y-79165000D02*
X171835000Y-79315000D01*
G75*
G02*
X171760000Y-79390000I-75000J0D01*
G01*
X170460000Y-79390000D01*
G75*
G02*
X170385000Y-79315000I0J75000D01*
G01*
X170385000Y-79165000D01*
G75*
G02*
X170460000Y-79090000I75000J0D01*
G01*
X171760000Y-79090000D01*
G75*
G02*
X171835000Y-79165000I0J-75000D01*
G01*
G37*
G36*
G01*
X171835000Y-79665000D02*
X171835000Y-79815000D01*
G75*
G02*
X171760000Y-79890000I-75000J0D01*
G01*
X170460000Y-79890000D01*
G75*
G02*
X170385000Y-79815000I0J75000D01*
G01*
X170385000Y-79665000D01*
G75*
G02*
X170460000Y-79590000I75000J0D01*
G01*
X171760000Y-79590000D01*
G75*
G02*
X171835000Y-79665000I0J-75000D01*
G01*
G37*
G36*
G01*
X146301750Y-76042000D02*
X146814250Y-76042000D01*
G75*
G02*
X147033000Y-76260750I0J-218750D01*
G01*
X147033000Y-76698250D01*
G75*
G02*
X146814250Y-76917000I-218750J0D01*
G01*
X146301750Y-76917000D01*
G75*
G02*
X146083000Y-76698250I0J218750D01*
G01*
X146083000Y-76260750D01*
G75*
G02*
X146301750Y-76042000I218750J0D01*
G01*
G37*
G36*
G01*
X146301750Y-74467000D02*
X146814250Y-74467000D01*
G75*
G02*
X147033000Y-74685750I0J-218750D01*
G01*
X147033000Y-75123250D01*
G75*
G02*
X146814250Y-75342000I-218750J0D01*
G01*
X146301750Y-75342000D01*
G75*
G02*
X146083000Y-75123250I0J218750D01*
G01*
X146083000Y-74685750D01*
G75*
G02*
X146301750Y-74467000I218750J0D01*
G01*
G37*
G36*
G01*
X141221750Y-84170000D02*
X141734250Y-84170000D01*
G75*
G02*
X141953000Y-84388750I0J-218750D01*
G01*
X141953000Y-84826250D01*
G75*
G02*
X141734250Y-85045000I-218750J0D01*
G01*
X141221750Y-85045000D01*
G75*
G02*
X141003000Y-84826250I0J218750D01*
G01*
X141003000Y-84388750D01*
G75*
G02*
X141221750Y-84170000I218750J0D01*
G01*
G37*
G36*
G01*
X141221750Y-82595000D02*
X141734250Y-82595000D01*
G75*
G02*
X141953000Y-82813750I0J-218750D01*
G01*
X141953000Y-83251250D01*
G75*
G02*
X141734250Y-83470000I-218750J0D01*
G01*
X141221750Y-83470000D01*
G75*
G02*
X141003000Y-83251250I0J218750D01*
G01*
X141003000Y-82813750D01*
G75*
G02*
X141221750Y-82595000I218750J0D01*
G01*
G37*
G36*
G01*
X143761750Y-84170000D02*
X144274250Y-84170000D01*
G75*
G02*
X144493000Y-84388750I0J-218750D01*
G01*
X144493000Y-84826250D01*
G75*
G02*
X144274250Y-85045000I-218750J0D01*
G01*
X143761750Y-85045000D01*
G75*
G02*
X143543000Y-84826250I0J218750D01*
G01*
X143543000Y-84388750D01*
G75*
G02*
X143761750Y-84170000I218750J0D01*
G01*
G37*
G36*
G01*
X143761750Y-82595000D02*
X144274250Y-82595000D01*
G75*
G02*
X144493000Y-82813750I0J-218750D01*
G01*
X144493000Y-83251250D01*
G75*
G02*
X144274250Y-83470000I-218750J0D01*
G01*
X143761750Y-83470000D01*
G75*
G02*
X143543000Y-83251250I0J218750D01*
G01*
X143543000Y-82813750D01*
G75*
G02*
X143761750Y-82595000I218750J0D01*
G01*
G37*
G36*
G01*
X171354000Y-81277750D02*
X171354000Y-81790250D01*
G75*
G02*
X171135250Y-82009000I-218750J0D01*
G01*
X170697750Y-82009000D01*
G75*
G02*
X170479000Y-81790250I0J218750D01*
G01*
X170479000Y-81277750D01*
G75*
G02*
X170697750Y-81059000I218750J0D01*
G01*
X171135250Y-81059000D01*
G75*
G02*
X171354000Y-81277750I0J-218750D01*
G01*
G37*
G36*
G01*
X172929000Y-81277750D02*
X172929000Y-81790250D01*
G75*
G02*
X172710250Y-82009000I-218750J0D01*
G01*
X172272750Y-82009000D01*
G75*
G02*
X172054000Y-81790250I0J218750D01*
G01*
X172054000Y-81277750D01*
G75*
G02*
X172272750Y-81059000I218750J0D01*
G01*
X172710250Y-81059000D01*
G75*
G02*
X172929000Y-81277750I0J-218750D01*
G01*
G37*
G36*
G01*
X163926000Y-81028250D02*
X163926000Y-80515750D01*
G75*
G02*
X164144750Y-80297000I218750J0D01*
G01*
X164582250Y-80297000D01*
G75*
G02*
X164801000Y-80515750I0J-218750D01*
G01*
X164801000Y-81028250D01*
G75*
G02*
X164582250Y-81247000I-218750J0D01*
G01*
X164144750Y-81247000D01*
G75*
G02*
X163926000Y-81028250I0J218750D01*
G01*
G37*
G36*
G01*
X162351000Y-81028250D02*
X162351000Y-80515750D01*
G75*
G02*
X162569750Y-80297000I218750J0D01*
G01*
X163007250Y-80297000D01*
G75*
G02*
X163226000Y-80515750I0J-218750D01*
G01*
X163226000Y-81028250D01*
G75*
G02*
X163007250Y-81247000I-218750J0D01*
G01*
X162569750Y-81247000D01*
G75*
G02*
X162351000Y-81028250I0J218750D01*
G01*
G37*
G36*
G01*
X163926000Y-78234250D02*
X163926000Y-77721750D01*
G75*
G02*
X164144750Y-77503000I218750J0D01*
G01*
X164582250Y-77503000D01*
G75*
G02*
X164801000Y-77721750I0J-218750D01*
G01*
X164801000Y-78234250D01*
G75*
G02*
X164582250Y-78453000I-218750J0D01*
G01*
X164144750Y-78453000D01*
G75*
G02*
X163926000Y-78234250I0J218750D01*
G01*
G37*
G36*
G01*
X162351000Y-78234250D02*
X162351000Y-77721750D01*
G75*
G02*
X162569750Y-77503000I218750J0D01*
G01*
X163007250Y-77503000D01*
G75*
G02*
X163226000Y-77721750I0J-218750D01*
G01*
X163226000Y-78234250D01*
G75*
G02*
X163007250Y-78453000I-218750J0D01*
G01*
X162569750Y-78453000D01*
G75*
G02*
X162351000Y-78234250I0J218750D01*
G01*
G37*
G36*
G01*
X140774000Y-78283750D02*
X140774000Y-79196250D01*
G75*
G02*
X140530250Y-79440000I-243750J0D01*
G01*
X140042750Y-79440000D01*
G75*
G02*
X139799000Y-79196250I0J243750D01*
G01*
X139799000Y-78283750D01*
G75*
G02*
X140042750Y-78040000I243750J0D01*
G01*
X140530250Y-78040000D01*
G75*
G02*
X140774000Y-78283750I0J-243750D01*
G01*
G37*
G36*
G01*
X142649000Y-78283750D02*
X142649000Y-79196250D01*
G75*
G02*
X142405250Y-79440000I-243750J0D01*
G01*
X141917750Y-79440000D01*
G75*
G02*
X141674000Y-79196250I0J243750D01*
G01*
X141674000Y-78283750D01*
G75*
G02*
X141917750Y-78040000I243750J0D01*
G01*
X142405250Y-78040000D01*
G75*
G02*
X142649000Y-78283750I0J-243750D01*
G01*
G37*
G36*
G01*
X140695500Y-80569750D02*
X140695500Y-81482250D01*
G75*
G02*
X140451750Y-81726000I-243750J0D01*
G01*
X139964250Y-81726000D01*
G75*
G02*
X139720500Y-81482250I0J243750D01*
G01*
X139720500Y-80569750D01*
G75*
G02*
X139964250Y-80326000I243750J0D01*
G01*
X140451750Y-80326000D01*
G75*
G02*
X140695500Y-80569750I0J-243750D01*
G01*
G37*
G36*
G01*
X142570500Y-80569750D02*
X142570500Y-81482250D01*
G75*
G02*
X142326750Y-81726000I-243750J0D01*
G01*
X141839250Y-81726000D01*
G75*
G02*
X141595500Y-81482250I0J243750D01*
G01*
X141595500Y-80569750D01*
G75*
G02*
X141839250Y-80326000I243750J0D01*
G01*
X142326750Y-80326000D01*
G75*
G02*
X142570500Y-80569750I0J-243750D01*
G01*
G37*
D13*
X146050000Y-81406000D03*
X146050000Y-78106000D03*
G36*
G01*
X146047750Y-84170000D02*
X146560250Y-84170000D01*
G75*
G02*
X146779000Y-84388750I0J-218750D01*
G01*
X146779000Y-84826250D01*
G75*
G02*
X146560250Y-85045000I-218750J0D01*
G01*
X146047750Y-85045000D01*
G75*
G02*
X145829000Y-84826250I0J218750D01*
G01*
X145829000Y-84388750D01*
G75*
G02*
X146047750Y-84170000I218750J0D01*
G01*
G37*
G36*
G01*
X146047750Y-82595000D02*
X146560250Y-82595000D01*
G75*
G02*
X146779000Y-82813750I0J-218750D01*
G01*
X146779000Y-83251250D01*
G75*
G02*
X146560250Y-83470000I-218750J0D01*
G01*
X146047750Y-83470000D01*
G75*
G02*
X145829000Y-83251250I0J218750D01*
G01*
X145829000Y-82813750D01*
G75*
G02*
X146047750Y-82595000I218750J0D01*
G01*
G37*
G36*
G01*
X163004000Y-74848500D02*
X163004000Y-74503500D01*
G75*
G02*
X163151500Y-74356000I147500J0D01*
G01*
X163446500Y-74356000D01*
G75*
G02*
X163594000Y-74503500I0J-147500D01*
G01*
X163594000Y-74848500D01*
G75*
G02*
X163446500Y-74996000I-147500J0D01*
G01*
X163151500Y-74996000D01*
G75*
G02*
X163004000Y-74848500I0J147500D01*
G01*
G37*
G36*
G01*
X162034000Y-74848500D02*
X162034000Y-74503500D01*
G75*
G02*
X162181500Y-74356000I147500J0D01*
G01*
X162476500Y-74356000D01*
G75*
G02*
X162624000Y-74503500I0J-147500D01*
G01*
X162624000Y-74848500D01*
G75*
G02*
X162476500Y-74996000I-147500J0D01*
G01*
X162181500Y-74996000D01*
G75*
G02*
X162034000Y-74848500I0J147500D01*
G01*
G37*
G36*
G01*
X141050000Y-70650000D02*
X141050000Y-69050000D01*
G75*
G02*
X141300000Y-68800000I250000J0D01*
G01*
X145300000Y-68800000D01*
G75*
G02*
X145550000Y-69050000I0J-250000D01*
G01*
X145550000Y-70650000D01*
G75*
G02*
X145300000Y-70900000I-250000J0D01*
G01*
X141300000Y-70900000D01*
G75*
G02*
X141050000Y-70650000I0J250000D01*
G01*
G37*
G36*
G01*
X133850000Y-70650000D02*
X133850000Y-69050000D01*
G75*
G02*
X134100000Y-68800000I250000J0D01*
G01*
X138100000Y-68800000D01*
G75*
G02*
X138350000Y-69050000I0J-250000D01*
G01*
X138350000Y-70650000D01*
G75*
G02*
X138100000Y-70900000I-250000J0D01*
G01*
X134100000Y-70900000D01*
G75*
G02*
X133850000Y-70650000I0J250000D01*
G01*
G37*
G36*
G01*
X162624000Y-75773500D02*
X162624000Y-76118500D01*
G75*
G02*
X162476500Y-76266000I-147500J0D01*
G01*
X162181500Y-76266000D01*
G75*
G02*
X162034000Y-76118500I0J147500D01*
G01*
X162034000Y-75773500D01*
G75*
G02*
X162181500Y-75626000I147500J0D01*
G01*
X162476500Y-75626000D01*
G75*
G02*
X162624000Y-75773500I0J-147500D01*
G01*
G37*
G36*
G01*
X163594000Y-75773500D02*
X163594000Y-76118500D01*
G75*
G02*
X163446500Y-76266000I-147500J0D01*
G01*
X163151500Y-76266000D01*
G75*
G02*
X163004000Y-76118500I0J147500D01*
G01*
X163004000Y-75773500D01*
G75*
G02*
X163151500Y-75626000I147500J0D01*
G01*
X163446500Y-75626000D01*
G75*
G02*
X163594000Y-75773500I0J-147500D01*
G01*
G37*
G36*
G01*
X156605000Y-72480999D02*
X156605000Y-74331001D01*
G75*
G02*
X156355001Y-74581000I-249999J0D01*
G01*
X155529999Y-74581000D01*
G75*
G02*
X155280000Y-74331001I0J249999D01*
G01*
X155280000Y-72480999D01*
G75*
G02*
X155529999Y-72231000I249999J0D01*
G01*
X156355001Y-72231000D01*
G75*
G02*
X156605000Y-72480999I0J-249999D01*
G01*
G37*
G36*
G01*
X159680000Y-72480999D02*
X159680000Y-74331001D01*
G75*
G02*
X159430001Y-74581000I-249999J0D01*
G01*
X158604999Y-74581000D01*
G75*
G02*
X158355000Y-74331001I0J249999D01*
G01*
X158355000Y-72480999D01*
G75*
G02*
X158604999Y-72231000I249999J0D01*
G01*
X159430001Y-72231000D01*
G75*
G02*
X159680000Y-72480999I0J-249999D01*
G01*
G37*
G36*
G01*
X143591500Y-80200000D02*
X143936500Y-80200000D01*
G75*
G02*
X144084000Y-80347500I0J-147500D01*
G01*
X144084000Y-80642500D01*
G75*
G02*
X143936500Y-80790000I-147500J0D01*
G01*
X143591500Y-80790000D01*
G75*
G02*
X143444000Y-80642500I0J147500D01*
G01*
X143444000Y-80347500D01*
G75*
G02*
X143591500Y-80200000I147500J0D01*
G01*
G37*
G36*
G01*
X143591500Y-79230000D02*
X143936500Y-79230000D01*
G75*
G02*
X144084000Y-79377500I0J-147500D01*
G01*
X144084000Y-79672500D01*
G75*
G02*
X143936500Y-79820000I-147500J0D01*
G01*
X143591500Y-79820000D01*
G75*
G02*
X143444000Y-79672500I0J147500D01*
G01*
X143444000Y-79377500D01*
G75*
G02*
X143591500Y-79230000I147500J0D01*
G01*
G37*
D14*
X134093000Y-75358000D03*
X135893000Y-75358000D03*
D15*
X134993000Y-76008000D03*
D14*
X134093000Y-83148000D03*
D16*
X134993000Y-80523000D03*
D17*
X137871200Y-77948000D03*
X137871200Y-80548000D03*
D16*
X134993000Y-77973000D03*
D15*
X134993000Y-82488000D03*
D14*
X135893000Y-83138000D03*
D10*
X134010004Y-91054001D03*
X140310001Y-91054001D03*
X134010004Y-87254004D03*
X140310001Y-87254004D03*
M02*
