G04 #@! TF.GenerationSoftware,KiCad,Pcbnew,5.1.6+dfsg1-1*
G04 #@! TF.CreationDate,2021-02-27T20:02:44-07:00*
G04 #@! TF.ProjectId,CurrentSensorV1,43757272-656e-4745-9365-6e736f725631,rev?*
G04 #@! TF.SameCoordinates,Original*
G04 #@! TF.FileFunction,Copper,L2,Bot*
G04 #@! TF.FilePolarity,Positive*
%FSLAX46Y46*%
G04 Gerber Fmt 4.6, Leading zero omitted, Abs format (unit mm)*
G04 Created by KiCad (PCBNEW 5.1.6+dfsg1-1) date 2021-02-27 20:02:44*
%MOMM*%
%LPD*%
G01*
G04 APERTURE LIST*
G04 #@! TA.AperFunction,ComponentPad*
%ADD10O,2.750000X1.650000*%
G04 #@! TD*
G04 #@! TA.AperFunction,ComponentPad*
%ADD11R,1.700000X1.700000*%
G04 #@! TD*
G04 #@! TA.AperFunction,ComponentPad*
%ADD12O,1.250000X1.050000*%
G04 #@! TD*
G04 #@! TA.AperFunction,ComponentPad*
%ADD13O,1.900000X1.200000*%
G04 #@! TD*
G04 #@! TA.AperFunction,ComponentPad*
%ADD14O,1.700000X1.700000*%
G04 #@! TD*
G04 #@! TA.AperFunction,ViaPad*
%ADD15C,0.800000*%
G04 #@! TD*
G04 #@! TA.AperFunction,Conductor*
%ADD16C,0.400000*%
G04 #@! TD*
G04 #@! TA.AperFunction,Conductor*
%ADD17C,0.250000*%
G04 #@! TD*
G04 #@! TA.AperFunction,Conductor*
%ADD18C,0.254000*%
G04 #@! TD*
G04 APERTURE END LIST*
D10*
X164327840Y-66532760D03*
X164358320Y-72837040D03*
X167827960Y-72852280D03*
X171048680Y-66558160D03*
X171048680Y-72837040D03*
X164327840Y-84312760D03*
X164358320Y-90617040D03*
X167827960Y-90632280D03*
X171048680Y-84338160D03*
X171048680Y-90617040D03*
D11*
X150368000Y-71882000D03*
X157734000Y-80010000D03*
D12*
X137993000Y-77023000D03*
D13*
X134993000Y-75073000D03*
X134993000Y-83423000D03*
D12*
X137993000Y-81473000D03*
D11*
X141224000Y-75946000D03*
D14*
X149352000Y-83566000D03*
X149352000Y-81026000D03*
X149352000Y-78486000D03*
D11*
X149352000Y-75946000D03*
D14*
X159512000Y-67310000D03*
D11*
X159512000Y-69850000D03*
D14*
X159766000Y-86360000D03*
D11*
X159766000Y-88900000D03*
D14*
X151892000Y-75946000D03*
X151892000Y-78486000D03*
X151892000Y-81026000D03*
D11*
X151892000Y-83566000D03*
D14*
X143256000Y-88900000D03*
X145796000Y-88900000D03*
X148336000Y-88900000D03*
X150876000Y-88900000D03*
X153416000Y-88900000D03*
D11*
X155956000Y-88900000D03*
D15*
X157734000Y-83160000D03*
X162788500Y-80772000D03*
X164338000Y-76200000D03*
X155434000Y-76860000D03*
X157480000Y-73660000D03*
X164363500Y-80772000D03*
X169418000Y-78994000D03*
X162109686Y-74364314D03*
X160020000Y-76962000D03*
X141372440Y-85852000D03*
X147574000Y-76962000D03*
X171196000Y-77216000D03*
D16*
X156077999Y-84816001D02*
X157734000Y-83160000D01*
X150602001Y-84816001D02*
X156077999Y-84816001D01*
X149352000Y-83566000D02*
X150602001Y-84816001D01*
X148336000Y-84582000D02*
X149352000Y-83566000D01*
X148336000Y-88900000D02*
X148336000Y-84582000D01*
D17*
X164711501Y-81497001D02*
X165088501Y-81120001D01*
X165088501Y-81120001D02*
X165088501Y-76950501D01*
X163513501Y-81497001D02*
X164711501Y-81497001D01*
X165088501Y-76950501D02*
X164338000Y-76200000D01*
X162788500Y-80772000D02*
X163513501Y-81497001D01*
D16*
X155058001Y-77235999D02*
X155434000Y-76860000D01*
X151331997Y-77235999D02*
X155058001Y-77235999D01*
X150641999Y-76546001D02*
X151331997Y-77235999D01*
X150641999Y-74815997D02*
X150641999Y-76546001D01*
X150522001Y-74695999D02*
X150641999Y-74815997D01*
X142474001Y-74695999D02*
X150522001Y-74695999D01*
X141224000Y-75946000D02*
X142474001Y-74695999D01*
X164363500Y-77749500D02*
X164363500Y-80772000D01*
X160274000Y-73660000D02*
X157480000Y-73660000D01*
X164363500Y-77749500D02*
X160274000Y-73660000D01*
D17*
X162486950Y-73987050D02*
X162109686Y-74364314D01*
X164411050Y-73987050D02*
X162486950Y-73987050D01*
X169418000Y-78994000D02*
X164411050Y-73987050D01*
X159004000Y-75946000D02*
X151892000Y-75946000D01*
X160020000Y-76962000D02*
X159004000Y-75946000D01*
X151892000Y-75946000D02*
X155194000Y-72644000D01*
X160389372Y-72644000D02*
X162109686Y-74364314D01*
X155194000Y-72644000D02*
X160389372Y-72644000D01*
D16*
X141372440Y-87016440D02*
X143256000Y-88900000D01*
X141372440Y-85852000D02*
X141372440Y-87016440D01*
X147574000Y-79248000D02*
X149352000Y-81026000D01*
X147574000Y-76962000D02*
X147574000Y-79248000D01*
X149352000Y-76104544D02*
X149352000Y-75946000D01*
X150622000Y-77374544D02*
X149352000Y-76104544D01*
X151291999Y-79736001D02*
X150622000Y-79066002D01*
X152452003Y-79736001D02*
X151291999Y-79736001D01*
X150622000Y-79066002D02*
X150622000Y-77374544D01*
X153976003Y-81260001D02*
X152452003Y-79736001D01*
X157018003Y-81260001D02*
X153976003Y-81260001D01*
X158534001Y-82775999D02*
X157018003Y-81260001D01*
X158534001Y-83781999D02*
X158534001Y-82775999D01*
X153416000Y-88900000D02*
X158534001Y-83781999D01*
X160258030Y-89392030D02*
X159766000Y-88900000D01*
X169823670Y-89392030D02*
X160258030Y-89392030D01*
X171048680Y-90617040D02*
X169823670Y-89392030D01*
D17*
X171048680Y-77363320D02*
X171196000Y-77216000D01*
X171048680Y-84338160D02*
X171048680Y-77363320D01*
D16*
X161274030Y-71612030D02*
X159512000Y-69850000D01*
X169823670Y-71612030D02*
X161274030Y-71612030D01*
X171048680Y-72837040D02*
X169823670Y-71612030D01*
D18*
G36*
X158808589Y-65994010D02*
G01*
X158565368Y-66156525D01*
X158358525Y-66363368D01*
X158196010Y-66606589D01*
X158084068Y-66876842D01*
X158027000Y-67163740D01*
X158027000Y-67456260D01*
X158084068Y-67743158D01*
X158196010Y-68013411D01*
X158358525Y-68256632D01*
X158490380Y-68388487D01*
X158417820Y-68410498D01*
X158307506Y-68469463D01*
X158210815Y-68548815D01*
X158131463Y-68645506D01*
X158072498Y-68755820D01*
X158036188Y-68875518D01*
X158023928Y-69000000D01*
X158023928Y-70700000D01*
X158036188Y-70824482D01*
X158072498Y-70944180D01*
X158131463Y-71054494D01*
X158210815Y-71151185D01*
X158307506Y-71230537D01*
X158417820Y-71289502D01*
X158537518Y-71325812D01*
X158662000Y-71338072D01*
X159819204Y-71338072D01*
X160363958Y-71882827D01*
X160352050Y-71884000D01*
X155231322Y-71884000D01*
X155193999Y-71880324D01*
X155156676Y-71884000D01*
X155156667Y-71884000D01*
X155045014Y-71894997D01*
X154901753Y-71938454D01*
X154769724Y-72009026D01*
X154653999Y-72103999D01*
X154630201Y-72132997D01*
X152258408Y-74504791D01*
X152038260Y-74461000D01*
X151745740Y-74461000D01*
X151458842Y-74518068D01*
X151428063Y-74530817D01*
X151417171Y-74494910D01*
X151339635Y-74349851D01*
X151235290Y-74222706D01*
X151203425Y-74196555D01*
X151141445Y-74134576D01*
X151115292Y-74102708D01*
X150988147Y-73998363D01*
X150843088Y-73920827D01*
X150685690Y-73873081D01*
X150563020Y-73860999D01*
X150563019Y-73860999D01*
X150522001Y-73856959D01*
X150480983Y-73860999D01*
X142515008Y-73860999D01*
X142474000Y-73856960D01*
X142432992Y-73860999D01*
X142432982Y-73860999D01*
X142310312Y-73873081D01*
X142152914Y-73920827D01*
X142007855Y-73998363D01*
X141880710Y-74102708D01*
X141854559Y-74134573D01*
X141531204Y-74457928D01*
X140374000Y-74457928D01*
X140249518Y-74470188D01*
X140129820Y-74506498D01*
X140019506Y-74565463D01*
X139922815Y-74644815D01*
X139843463Y-74741506D01*
X139784498Y-74851820D01*
X139748188Y-74971518D01*
X139735928Y-75096000D01*
X139735928Y-76796000D01*
X139748188Y-76920482D01*
X139784498Y-77040180D01*
X139843463Y-77150494D01*
X139922815Y-77247185D01*
X140019506Y-77326537D01*
X140129820Y-77385502D01*
X140249518Y-77421812D01*
X140374000Y-77434072D01*
X142074000Y-77434072D01*
X142198482Y-77421812D01*
X142318180Y-77385502D01*
X142428494Y-77326537D01*
X142525185Y-77247185D01*
X142604537Y-77150494D01*
X142663502Y-77040180D01*
X142699812Y-76920482D01*
X142712072Y-76796000D01*
X142712072Y-75638796D01*
X142819869Y-75530999D01*
X147863928Y-75530999D01*
X147863928Y-75964393D01*
X147675939Y-75927000D01*
X147472061Y-75927000D01*
X147272102Y-75966774D01*
X147083744Y-76044795D01*
X146914226Y-76158063D01*
X146770063Y-76302226D01*
X146656795Y-76471744D01*
X146578774Y-76660102D01*
X146539000Y-76860061D01*
X146539000Y-77063939D01*
X146578774Y-77263898D01*
X146656795Y-77452256D01*
X146739000Y-77575285D01*
X146739001Y-79206972D01*
X146734960Y-79248000D01*
X146751082Y-79411688D01*
X146798828Y-79569086D01*
X146830839Y-79628974D01*
X146876365Y-79714146D01*
X146980710Y-79841291D01*
X147012574Y-79867441D01*
X147893193Y-80748061D01*
X147867000Y-80879740D01*
X147867000Y-81172260D01*
X147924068Y-81459158D01*
X148036010Y-81729411D01*
X148198525Y-81972632D01*
X148405368Y-82179475D01*
X148587534Y-82301195D01*
X148470645Y-82370822D01*
X148254412Y-82565731D01*
X148080359Y-82799080D01*
X147955175Y-83061901D01*
X147910524Y-83209110D01*
X148031845Y-83439000D01*
X149225000Y-83439000D01*
X149225000Y-83419000D01*
X149479000Y-83419000D01*
X149479000Y-83439000D01*
X149499000Y-83439000D01*
X149499000Y-83693000D01*
X149479000Y-83693000D01*
X149479000Y-84886814D01*
X149708891Y-85007481D01*
X149983252Y-84910157D01*
X150233355Y-84761178D01*
X150429502Y-84584374D01*
X150452498Y-84660180D01*
X150511463Y-84770494D01*
X150590815Y-84867185D01*
X150687506Y-84946537D01*
X150797820Y-85005502D01*
X150917518Y-85041812D01*
X151042000Y-85054072D01*
X152742000Y-85054072D01*
X152866482Y-85041812D01*
X152986180Y-85005502D01*
X153096494Y-84946537D01*
X153193185Y-84867185D01*
X153272537Y-84770494D01*
X153331502Y-84660180D01*
X153367812Y-84540482D01*
X153380072Y-84416000D01*
X153380072Y-82716000D01*
X153367812Y-82591518D01*
X153331502Y-82471820D01*
X153272537Y-82361506D01*
X153193185Y-82264815D01*
X153096494Y-82185463D01*
X152986180Y-82126498D01*
X152913620Y-82104487D01*
X153045475Y-81972632D01*
X153207990Y-81729411D01*
X153224555Y-81689420D01*
X153356562Y-81821427D01*
X153382712Y-81853292D01*
X153509857Y-81957637D01*
X153654916Y-82035173D01*
X153812314Y-82082919D01*
X153934984Y-82095001D01*
X153934994Y-82095001D01*
X153976002Y-82099040D01*
X154017010Y-82095001D01*
X156672136Y-82095001D01*
X157699002Y-83121868D01*
X157699001Y-83436131D01*
X153693940Y-87441193D01*
X153562260Y-87415000D01*
X153269740Y-87415000D01*
X152982842Y-87472068D01*
X152712589Y-87584010D01*
X152469368Y-87746525D01*
X152262525Y-87953368D01*
X152146000Y-88127760D01*
X152029475Y-87953368D01*
X151822632Y-87746525D01*
X151579411Y-87584010D01*
X151309158Y-87472068D01*
X151022260Y-87415000D01*
X150729740Y-87415000D01*
X150442842Y-87472068D01*
X150172589Y-87584010D01*
X149929368Y-87746525D01*
X149722525Y-87953368D01*
X149600805Y-88135534D01*
X149531178Y-88018645D01*
X149336269Y-87802412D01*
X149102920Y-87628359D01*
X148840099Y-87503175D01*
X148692890Y-87458524D01*
X148463000Y-87579845D01*
X148463000Y-88773000D01*
X148483000Y-88773000D01*
X148483000Y-89027000D01*
X148463000Y-89027000D01*
X148463000Y-90220155D01*
X148692890Y-90341476D01*
X148840099Y-90296825D01*
X149102920Y-90171641D01*
X149336269Y-89997588D01*
X149531178Y-89781355D01*
X149600805Y-89664466D01*
X149722525Y-89846632D01*
X149929368Y-90053475D01*
X150172589Y-90215990D01*
X150442842Y-90327932D01*
X150729740Y-90385000D01*
X151022260Y-90385000D01*
X151309158Y-90327932D01*
X151579411Y-90215990D01*
X151822632Y-90053475D01*
X152029475Y-89846632D01*
X152146000Y-89672240D01*
X152262525Y-89846632D01*
X152469368Y-90053475D01*
X152712589Y-90215990D01*
X152982842Y-90327932D01*
X153269740Y-90385000D01*
X153562260Y-90385000D01*
X153849158Y-90327932D01*
X154119411Y-90215990D01*
X154362632Y-90053475D01*
X154494487Y-89921620D01*
X154516498Y-89994180D01*
X154575463Y-90104494D01*
X154654815Y-90201185D01*
X154751506Y-90280537D01*
X154861820Y-90339502D01*
X154981518Y-90375812D01*
X155106000Y-90388072D01*
X156806000Y-90388072D01*
X156930482Y-90375812D01*
X157050180Y-90339502D01*
X157160494Y-90280537D01*
X157257185Y-90201185D01*
X157336537Y-90104494D01*
X157395502Y-89994180D01*
X157431812Y-89874482D01*
X157444072Y-89750000D01*
X157444072Y-88050000D01*
X157431812Y-87925518D01*
X157395502Y-87805820D01*
X157336537Y-87695506D01*
X157257185Y-87598815D01*
X157160494Y-87519463D01*
X157050180Y-87460498D01*
X156930482Y-87424188D01*
X156806000Y-87411928D01*
X156084939Y-87411928D01*
X159095429Y-84401439D01*
X159127292Y-84375290D01*
X159178608Y-84312760D01*
X162310776Y-84312760D01*
X162338965Y-84598970D01*
X162422450Y-84874181D01*
X162558021Y-85127817D01*
X162740469Y-85350131D01*
X162962783Y-85532579D01*
X163216419Y-85668150D01*
X163491630Y-85751635D01*
X163706117Y-85772760D01*
X164949563Y-85772760D01*
X165164050Y-85751635D01*
X165439261Y-85668150D01*
X165692897Y-85532579D01*
X165915211Y-85350131D01*
X166097659Y-85127817D01*
X166233230Y-84874181D01*
X166316715Y-84598970D01*
X166344904Y-84312760D01*
X166316715Y-84026550D01*
X166233230Y-83751339D01*
X166097659Y-83497703D01*
X165915211Y-83275389D01*
X165692897Y-83092941D01*
X165439261Y-82957370D01*
X165164050Y-82873885D01*
X164949563Y-82852760D01*
X163706117Y-82852760D01*
X163491630Y-82873885D01*
X163216419Y-82957370D01*
X162962783Y-83092941D01*
X162740469Y-83275389D01*
X162558021Y-83497703D01*
X162422450Y-83751339D01*
X162338965Y-84026550D01*
X162310776Y-84312760D01*
X159178608Y-84312760D01*
X159231637Y-84248145D01*
X159309173Y-84103086D01*
X159356919Y-83945688D01*
X159369001Y-83823018D01*
X159369001Y-83823008D01*
X159373040Y-83782000D01*
X159369001Y-83740992D01*
X159369001Y-82817017D01*
X159373041Y-82775999D01*
X159356919Y-82612310D01*
X159309173Y-82454912D01*
X159231637Y-82309853D01*
X159153440Y-82214569D01*
X159153438Y-82214567D01*
X159127292Y-82182708D01*
X159095433Y-82156562D01*
X158436137Y-81497267D01*
X158584000Y-81498072D01*
X158708482Y-81485812D01*
X158828180Y-81449502D01*
X158938494Y-81390537D01*
X159035185Y-81311185D01*
X159114537Y-81214494D01*
X159173502Y-81104180D01*
X159209812Y-80984482D01*
X159222072Y-80860000D01*
X159219000Y-80295750D01*
X159060250Y-80137000D01*
X157861000Y-80137000D01*
X157861000Y-80157000D01*
X157607000Y-80157000D01*
X157607000Y-80137000D01*
X156407750Y-80137000D01*
X156249000Y-80295750D01*
X156248296Y-80425001D01*
X154321871Y-80425001D01*
X153159240Y-79262371D01*
X153207990Y-79189411D01*
X153220172Y-79160000D01*
X156245928Y-79160000D01*
X156249000Y-79724250D01*
X156407750Y-79883000D01*
X157607000Y-79883000D01*
X157607000Y-78683750D01*
X157861000Y-78683750D01*
X157861000Y-79883000D01*
X159060250Y-79883000D01*
X159219000Y-79724250D01*
X159222072Y-79160000D01*
X159209812Y-79035518D01*
X159173502Y-78915820D01*
X159114537Y-78805506D01*
X159035185Y-78708815D01*
X158938494Y-78629463D01*
X158828180Y-78570498D01*
X158708482Y-78534188D01*
X158584000Y-78521928D01*
X158019750Y-78525000D01*
X157861000Y-78683750D01*
X157607000Y-78683750D01*
X157448250Y-78525000D01*
X156884000Y-78521928D01*
X156759518Y-78534188D01*
X156639820Y-78570498D01*
X156529506Y-78629463D01*
X156432815Y-78708815D01*
X156353463Y-78805506D01*
X156294498Y-78915820D01*
X156258188Y-79035518D01*
X156245928Y-79160000D01*
X153220172Y-79160000D01*
X153319932Y-78919158D01*
X153377000Y-78632260D01*
X153377000Y-78339740D01*
X153323544Y-78070999D01*
X155016983Y-78070999D01*
X155058001Y-78075039D01*
X155099019Y-78070999D01*
X155099020Y-78070999D01*
X155221690Y-78058917D01*
X155379088Y-78011171D01*
X155524147Y-77933635D01*
X155582512Y-77885736D01*
X155735898Y-77855226D01*
X155924256Y-77777205D01*
X156093774Y-77663937D01*
X156237937Y-77519774D01*
X156351205Y-77350256D01*
X156429226Y-77161898D01*
X156469000Y-76961939D01*
X156469000Y-76758061D01*
X156458645Y-76706000D01*
X158689199Y-76706000D01*
X158985000Y-77001802D01*
X158985000Y-77063939D01*
X159024774Y-77263898D01*
X159102795Y-77452256D01*
X159216063Y-77621774D01*
X159360226Y-77765937D01*
X159529744Y-77879205D01*
X159718102Y-77957226D01*
X159918061Y-77997000D01*
X160121939Y-77997000D01*
X160321898Y-77957226D01*
X160510256Y-77879205D01*
X160679774Y-77765937D01*
X160823937Y-77621774D01*
X160937205Y-77452256D01*
X161015226Y-77263898D01*
X161055000Y-77063939D01*
X161055000Y-76860061D01*
X161015226Y-76660102D01*
X160937205Y-76471744D01*
X160823937Y-76302226D01*
X160679774Y-76158063D01*
X160510256Y-76044795D01*
X160321898Y-75966774D01*
X160121939Y-75927000D01*
X160059802Y-75927000D01*
X159567804Y-75435002D01*
X159544001Y-75405999D01*
X159428276Y-75311026D01*
X159296247Y-75240454D01*
X159152986Y-75196997D01*
X159041333Y-75186000D01*
X159041322Y-75186000D01*
X159004000Y-75182324D01*
X158966678Y-75186000D01*
X153726801Y-75186000D01*
X155508802Y-73404000D01*
X156475644Y-73404000D01*
X156445000Y-73558061D01*
X156445000Y-73761939D01*
X156484774Y-73961898D01*
X156562795Y-74150256D01*
X156676063Y-74319774D01*
X156820226Y-74463937D01*
X156989744Y-74577205D01*
X157178102Y-74655226D01*
X157378061Y-74695000D01*
X157581939Y-74695000D01*
X157781898Y-74655226D01*
X157970256Y-74577205D01*
X158093285Y-74495000D01*
X159928133Y-74495000D01*
X163528500Y-78095368D01*
X163528501Y-80158714D01*
X163446295Y-80281744D01*
X163368274Y-80470102D01*
X163328500Y-80670061D01*
X163328500Y-80873939D01*
X163368274Y-81073898D01*
X163446295Y-81262256D01*
X163559563Y-81431774D01*
X163703726Y-81575937D01*
X163873244Y-81689205D01*
X164061602Y-81767226D01*
X164261561Y-81807000D01*
X164465439Y-81807000D01*
X164665398Y-81767226D01*
X164853756Y-81689205D01*
X165023274Y-81575937D01*
X165167437Y-81431774D01*
X165280705Y-81262256D01*
X165358726Y-81073898D01*
X165398500Y-80873939D01*
X165398500Y-80670061D01*
X165358726Y-80470102D01*
X165280705Y-80281744D01*
X165198500Y-80158715D01*
X165198500Y-77790507D01*
X165202539Y-77749499D01*
X165198500Y-77708491D01*
X165198500Y-77708481D01*
X165186418Y-77585811D01*
X165138672Y-77428413D01*
X165061136Y-77283354D01*
X164956791Y-77156209D01*
X164924928Y-77130060D01*
X162866289Y-75071422D01*
X162913623Y-75024088D01*
X163026891Y-74854570D01*
X163071428Y-74747050D01*
X164096249Y-74747050D01*
X168383000Y-79033802D01*
X168383000Y-79095939D01*
X168422774Y-79295898D01*
X168500795Y-79484256D01*
X168614063Y-79653774D01*
X168758226Y-79797937D01*
X168927744Y-79911205D01*
X169116102Y-79989226D01*
X169316061Y-80029000D01*
X169519939Y-80029000D01*
X169719898Y-79989226D01*
X169908256Y-79911205D01*
X170077774Y-79797937D01*
X170221937Y-79653774D01*
X170288681Y-79553885D01*
X170288680Y-82891779D01*
X170212470Y-82899285D01*
X169937259Y-82982770D01*
X169683623Y-83118341D01*
X169461309Y-83300789D01*
X169278861Y-83523103D01*
X169143290Y-83776739D01*
X169059805Y-84051950D01*
X169031616Y-84338160D01*
X169059805Y-84624370D01*
X169143290Y-84899581D01*
X169278861Y-85153217D01*
X169461309Y-85375531D01*
X169683623Y-85557979D01*
X169937259Y-85693550D01*
X170212470Y-85777035D01*
X170426957Y-85798160D01*
X171670403Y-85798160D01*
X171884890Y-85777035D01*
X172160101Y-85693550D01*
X172413737Y-85557979D01*
X172568000Y-85431379D01*
X172568000Y-89523821D01*
X172413737Y-89397221D01*
X172160101Y-89261650D01*
X171884890Y-89178165D01*
X171670403Y-89157040D01*
X170769548Y-89157040D01*
X170698516Y-89086008D01*
X170829632Y-89059928D01*
X171127183Y-88936678D01*
X171394972Y-88757747D01*
X171622707Y-88530012D01*
X171801638Y-88262223D01*
X171924888Y-87964672D01*
X171987720Y-87648793D01*
X171987720Y-87326727D01*
X171924888Y-87010848D01*
X171801638Y-86713297D01*
X171622707Y-86445508D01*
X171394972Y-86217773D01*
X171127183Y-86038842D01*
X170829632Y-85915592D01*
X170513753Y-85852760D01*
X170191687Y-85852760D01*
X169875808Y-85915592D01*
X169578257Y-86038842D01*
X169310468Y-86217773D01*
X169082733Y-86445508D01*
X168903802Y-86713297D01*
X168780552Y-87010848D01*
X168717720Y-87326727D01*
X168717720Y-87648793D01*
X168780552Y-87964672D01*
X168903802Y-88262223D01*
X169082733Y-88530012D01*
X169109751Y-88557030D01*
X165570809Y-88557030D01*
X165613067Y-88514772D01*
X165791998Y-88246983D01*
X165915248Y-87949432D01*
X165978080Y-87633553D01*
X165978080Y-87311487D01*
X165915248Y-86995608D01*
X165791998Y-86698057D01*
X165613067Y-86430268D01*
X165385332Y-86202533D01*
X165117543Y-86023602D01*
X164819992Y-85900352D01*
X164504113Y-85837520D01*
X164182047Y-85837520D01*
X163866168Y-85900352D01*
X163568617Y-86023602D01*
X163300828Y-86202533D01*
X163073093Y-86430268D01*
X162894162Y-86698057D01*
X162770912Y-86995608D01*
X162708080Y-87311487D01*
X162708080Y-87633553D01*
X162770912Y-87949432D01*
X162894162Y-88246983D01*
X163073093Y-88514772D01*
X163115351Y-88557030D01*
X161254072Y-88557030D01*
X161254072Y-88050000D01*
X161241812Y-87925518D01*
X161205502Y-87805820D01*
X161146537Y-87695506D01*
X161067185Y-87598815D01*
X160970494Y-87519463D01*
X160860180Y-87460498D01*
X160787620Y-87438487D01*
X160919475Y-87306632D01*
X161081990Y-87063411D01*
X161193932Y-86793158D01*
X161251000Y-86506260D01*
X161251000Y-86213740D01*
X161193932Y-85926842D01*
X161081990Y-85656589D01*
X160919475Y-85413368D01*
X160712632Y-85206525D01*
X160469411Y-85044010D01*
X160199158Y-84932068D01*
X159912260Y-84875000D01*
X159619740Y-84875000D01*
X159332842Y-84932068D01*
X159062589Y-85044010D01*
X158819368Y-85206525D01*
X158612525Y-85413368D01*
X158450010Y-85656589D01*
X158338068Y-85926842D01*
X158281000Y-86213740D01*
X158281000Y-86506260D01*
X158338068Y-86793158D01*
X158450010Y-87063411D01*
X158612525Y-87306632D01*
X158744380Y-87438487D01*
X158671820Y-87460498D01*
X158561506Y-87519463D01*
X158464815Y-87598815D01*
X158385463Y-87695506D01*
X158326498Y-87805820D01*
X158290188Y-87925518D01*
X158277928Y-88050000D01*
X158277928Y-89750000D01*
X158290188Y-89874482D01*
X158326498Y-89994180D01*
X158385463Y-90104494D01*
X158464815Y-90201185D01*
X158561506Y-90280537D01*
X158671820Y-90339502D01*
X158791518Y-90375812D01*
X158916000Y-90388072D01*
X160616000Y-90388072D01*
X160740482Y-90375812D01*
X160860180Y-90339502D01*
X160970494Y-90280537D01*
X161035693Y-90227030D01*
X162400933Y-90227030D01*
X162369445Y-90330830D01*
X162341256Y-90617040D01*
X162369445Y-90903250D01*
X162452930Y-91178461D01*
X162511480Y-91288000D01*
X133502000Y-91288000D01*
X133502000Y-85750061D01*
X140337440Y-85750061D01*
X140337440Y-85953939D01*
X140377214Y-86153898D01*
X140455235Y-86342256D01*
X140537441Y-86465286D01*
X140537441Y-86975412D01*
X140533400Y-87016440D01*
X140549522Y-87180128D01*
X140597268Y-87337526D01*
X140669183Y-87472068D01*
X140674805Y-87482586D01*
X140779150Y-87609731D01*
X140811014Y-87635881D01*
X141797193Y-88622060D01*
X141771000Y-88753740D01*
X141771000Y-89046260D01*
X141828068Y-89333158D01*
X141940010Y-89603411D01*
X142102525Y-89846632D01*
X142309368Y-90053475D01*
X142552589Y-90215990D01*
X142822842Y-90327932D01*
X143109740Y-90385000D01*
X143402260Y-90385000D01*
X143689158Y-90327932D01*
X143959411Y-90215990D01*
X144202632Y-90053475D01*
X144409475Y-89846632D01*
X144526000Y-89672240D01*
X144642525Y-89846632D01*
X144849368Y-90053475D01*
X145092589Y-90215990D01*
X145362842Y-90327932D01*
X145649740Y-90385000D01*
X145942260Y-90385000D01*
X146229158Y-90327932D01*
X146499411Y-90215990D01*
X146742632Y-90053475D01*
X146949475Y-89846632D01*
X147071195Y-89664466D01*
X147140822Y-89781355D01*
X147335731Y-89997588D01*
X147569080Y-90171641D01*
X147831901Y-90296825D01*
X147979110Y-90341476D01*
X148209000Y-90220155D01*
X148209000Y-89027000D01*
X148189000Y-89027000D01*
X148189000Y-88773000D01*
X148209000Y-88773000D01*
X148209000Y-87579845D01*
X147979110Y-87458524D01*
X147831901Y-87503175D01*
X147569080Y-87628359D01*
X147335731Y-87802412D01*
X147140822Y-88018645D01*
X147071195Y-88135534D01*
X146949475Y-87953368D01*
X146742632Y-87746525D01*
X146499411Y-87584010D01*
X146229158Y-87472068D01*
X145942260Y-87415000D01*
X145649740Y-87415000D01*
X145362842Y-87472068D01*
X145092589Y-87584010D01*
X144849368Y-87746525D01*
X144642525Y-87953368D01*
X144526000Y-88127760D01*
X144409475Y-87953368D01*
X144202632Y-87746525D01*
X143959411Y-87584010D01*
X143689158Y-87472068D01*
X143402260Y-87415000D01*
X143109740Y-87415000D01*
X142978060Y-87441193D01*
X142207440Y-86670573D01*
X142207440Y-86465285D01*
X142289645Y-86342256D01*
X142367666Y-86153898D01*
X142407440Y-85953939D01*
X142407440Y-85750061D01*
X142367666Y-85550102D01*
X142289645Y-85361744D01*
X142176377Y-85192226D01*
X142032214Y-85048063D01*
X141862696Y-84934795D01*
X141674338Y-84856774D01*
X141474379Y-84817000D01*
X141270501Y-84817000D01*
X141070542Y-84856774D01*
X140882184Y-84934795D01*
X140712666Y-85048063D01*
X140568503Y-85192226D01*
X140455235Y-85361744D01*
X140377214Y-85550102D01*
X140337440Y-85750061D01*
X133502000Y-85750061D01*
X133502000Y-83908211D01*
X133611167Y-84112449D01*
X133765498Y-84300502D01*
X133953551Y-84454833D01*
X134168099Y-84569511D01*
X134400898Y-84640130D01*
X134582335Y-84658000D01*
X135403665Y-84658000D01*
X135585102Y-84640130D01*
X135817901Y-84569511D01*
X136032449Y-84454833D01*
X136220502Y-84300502D01*
X136374833Y-84112449D01*
X136476154Y-83922890D01*
X147910524Y-83922890D01*
X147955175Y-84070099D01*
X148080359Y-84332920D01*
X148254412Y-84566269D01*
X148470645Y-84761178D01*
X148720748Y-84910157D01*
X148995109Y-85007481D01*
X149225000Y-84886814D01*
X149225000Y-83693000D01*
X148031845Y-83693000D01*
X147910524Y-83922890D01*
X136476154Y-83922890D01*
X136489511Y-83897901D01*
X136560130Y-83665102D01*
X136583975Y-83423000D01*
X136560130Y-83180898D01*
X136489511Y-82948099D01*
X136374833Y-82733551D01*
X136220502Y-82545498D01*
X136032449Y-82391167D01*
X135817901Y-82276489D01*
X135585102Y-82205870D01*
X135403665Y-82188000D01*
X134582335Y-82188000D01*
X134400898Y-82205870D01*
X134168099Y-82276489D01*
X133953551Y-82391167D01*
X133765498Y-82545498D01*
X133611167Y-82733551D01*
X133502000Y-82937789D01*
X133502000Y-81473000D01*
X136727388Y-81473000D01*
X136749785Y-81700400D01*
X136816115Y-81919060D01*
X136923829Y-82120579D01*
X137068788Y-82297212D01*
X137245421Y-82442171D01*
X137446940Y-82549885D01*
X137665600Y-82616215D01*
X137836021Y-82633000D01*
X138149979Y-82633000D01*
X138320400Y-82616215D01*
X138539060Y-82549885D01*
X138740579Y-82442171D01*
X138917212Y-82297212D01*
X139062171Y-82120579D01*
X139169885Y-81919060D01*
X139236215Y-81700400D01*
X139258612Y-81473000D01*
X139236215Y-81245600D01*
X139169885Y-81026940D01*
X139062171Y-80825421D01*
X138917212Y-80648788D01*
X138740579Y-80503829D01*
X138539060Y-80396115D01*
X138320400Y-80329785D01*
X138149979Y-80313000D01*
X137836021Y-80313000D01*
X137665600Y-80329785D01*
X137446940Y-80396115D01*
X137245421Y-80503829D01*
X137068788Y-80648788D01*
X136923829Y-80825421D01*
X136816115Y-81026940D01*
X136749785Y-81245600D01*
X136727388Y-81473000D01*
X133502000Y-81473000D01*
X133502000Y-77023000D01*
X136727388Y-77023000D01*
X136749785Y-77250400D01*
X136816115Y-77469060D01*
X136923829Y-77670579D01*
X137068788Y-77847212D01*
X137245421Y-77992171D01*
X137446940Y-78099885D01*
X137665600Y-78166215D01*
X137836021Y-78183000D01*
X138149979Y-78183000D01*
X138320400Y-78166215D01*
X138539060Y-78099885D01*
X138740579Y-77992171D01*
X138917212Y-77847212D01*
X139062171Y-77670579D01*
X139169885Y-77469060D01*
X139236215Y-77250400D01*
X139258612Y-77023000D01*
X139236215Y-76795600D01*
X139169885Y-76576940D01*
X139062171Y-76375421D01*
X138917212Y-76198788D01*
X138740579Y-76053829D01*
X138539060Y-75946115D01*
X138320400Y-75879785D01*
X138149979Y-75863000D01*
X137836021Y-75863000D01*
X137665600Y-75879785D01*
X137446940Y-75946115D01*
X137245421Y-76053829D01*
X137068788Y-76198788D01*
X136923829Y-76375421D01*
X136816115Y-76576940D01*
X136749785Y-76795600D01*
X136727388Y-77023000D01*
X133502000Y-77023000D01*
X133502000Y-75558211D01*
X133611167Y-75762449D01*
X133765498Y-75950502D01*
X133953551Y-76104833D01*
X134168099Y-76219511D01*
X134400898Y-76290130D01*
X134582335Y-76308000D01*
X135403665Y-76308000D01*
X135585102Y-76290130D01*
X135817901Y-76219511D01*
X136032449Y-76104833D01*
X136220502Y-75950502D01*
X136374833Y-75762449D01*
X136489511Y-75547901D01*
X136560130Y-75315102D01*
X136583975Y-75073000D01*
X136560130Y-74830898D01*
X136489511Y-74598099D01*
X136374833Y-74383551D01*
X136220502Y-74195498D01*
X136032449Y-74041167D01*
X135817901Y-73926489D01*
X135585102Y-73855870D01*
X135403665Y-73838000D01*
X134582335Y-73838000D01*
X134400898Y-73855870D01*
X134168099Y-73926489D01*
X133953551Y-74041167D01*
X133765498Y-74195498D01*
X133611167Y-74383551D01*
X133502000Y-74587789D01*
X133502000Y-71032000D01*
X148879928Y-71032000D01*
X148879928Y-72732000D01*
X148892188Y-72856482D01*
X148928498Y-72976180D01*
X148987463Y-73086494D01*
X149066815Y-73183185D01*
X149163506Y-73262537D01*
X149273820Y-73321502D01*
X149393518Y-73357812D01*
X149518000Y-73370072D01*
X151218000Y-73370072D01*
X151342482Y-73357812D01*
X151462180Y-73321502D01*
X151572494Y-73262537D01*
X151669185Y-73183185D01*
X151748537Y-73086494D01*
X151807502Y-72976180D01*
X151843812Y-72856482D01*
X151856072Y-72732000D01*
X151856072Y-71032000D01*
X151843812Y-70907518D01*
X151807502Y-70787820D01*
X151748537Y-70677506D01*
X151669185Y-70580815D01*
X151572494Y-70501463D01*
X151462180Y-70442498D01*
X151342482Y-70406188D01*
X151218000Y-70393928D01*
X149518000Y-70393928D01*
X149393518Y-70406188D01*
X149273820Y-70442498D01*
X149163506Y-70501463D01*
X149066815Y-70580815D01*
X148987463Y-70677506D01*
X148928498Y-70787820D01*
X148892188Y-70907518D01*
X148879928Y-71032000D01*
X133502000Y-71032000D01*
X133502000Y-65938000D01*
X158943810Y-65938000D01*
X158808589Y-65994010D01*
G37*
X158808589Y-65994010D02*
X158565368Y-66156525D01*
X158358525Y-66363368D01*
X158196010Y-66606589D01*
X158084068Y-66876842D01*
X158027000Y-67163740D01*
X158027000Y-67456260D01*
X158084068Y-67743158D01*
X158196010Y-68013411D01*
X158358525Y-68256632D01*
X158490380Y-68388487D01*
X158417820Y-68410498D01*
X158307506Y-68469463D01*
X158210815Y-68548815D01*
X158131463Y-68645506D01*
X158072498Y-68755820D01*
X158036188Y-68875518D01*
X158023928Y-69000000D01*
X158023928Y-70700000D01*
X158036188Y-70824482D01*
X158072498Y-70944180D01*
X158131463Y-71054494D01*
X158210815Y-71151185D01*
X158307506Y-71230537D01*
X158417820Y-71289502D01*
X158537518Y-71325812D01*
X158662000Y-71338072D01*
X159819204Y-71338072D01*
X160363958Y-71882827D01*
X160352050Y-71884000D01*
X155231322Y-71884000D01*
X155193999Y-71880324D01*
X155156676Y-71884000D01*
X155156667Y-71884000D01*
X155045014Y-71894997D01*
X154901753Y-71938454D01*
X154769724Y-72009026D01*
X154653999Y-72103999D01*
X154630201Y-72132997D01*
X152258408Y-74504791D01*
X152038260Y-74461000D01*
X151745740Y-74461000D01*
X151458842Y-74518068D01*
X151428063Y-74530817D01*
X151417171Y-74494910D01*
X151339635Y-74349851D01*
X151235290Y-74222706D01*
X151203425Y-74196555D01*
X151141445Y-74134576D01*
X151115292Y-74102708D01*
X150988147Y-73998363D01*
X150843088Y-73920827D01*
X150685690Y-73873081D01*
X150563020Y-73860999D01*
X150563019Y-73860999D01*
X150522001Y-73856959D01*
X150480983Y-73860999D01*
X142515008Y-73860999D01*
X142474000Y-73856960D01*
X142432992Y-73860999D01*
X142432982Y-73860999D01*
X142310312Y-73873081D01*
X142152914Y-73920827D01*
X142007855Y-73998363D01*
X141880710Y-74102708D01*
X141854559Y-74134573D01*
X141531204Y-74457928D01*
X140374000Y-74457928D01*
X140249518Y-74470188D01*
X140129820Y-74506498D01*
X140019506Y-74565463D01*
X139922815Y-74644815D01*
X139843463Y-74741506D01*
X139784498Y-74851820D01*
X139748188Y-74971518D01*
X139735928Y-75096000D01*
X139735928Y-76796000D01*
X139748188Y-76920482D01*
X139784498Y-77040180D01*
X139843463Y-77150494D01*
X139922815Y-77247185D01*
X140019506Y-77326537D01*
X140129820Y-77385502D01*
X140249518Y-77421812D01*
X140374000Y-77434072D01*
X142074000Y-77434072D01*
X142198482Y-77421812D01*
X142318180Y-77385502D01*
X142428494Y-77326537D01*
X142525185Y-77247185D01*
X142604537Y-77150494D01*
X142663502Y-77040180D01*
X142699812Y-76920482D01*
X142712072Y-76796000D01*
X142712072Y-75638796D01*
X142819869Y-75530999D01*
X147863928Y-75530999D01*
X147863928Y-75964393D01*
X147675939Y-75927000D01*
X147472061Y-75927000D01*
X147272102Y-75966774D01*
X147083744Y-76044795D01*
X146914226Y-76158063D01*
X146770063Y-76302226D01*
X146656795Y-76471744D01*
X146578774Y-76660102D01*
X146539000Y-76860061D01*
X146539000Y-77063939D01*
X146578774Y-77263898D01*
X146656795Y-77452256D01*
X146739000Y-77575285D01*
X146739001Y-79206972D01*
X146734960Y-79248000D01*
X146751082Y-79411688D01*
X146798828Y-79569086D01*
X146830839Y-79628974D01*
X146876365Y-79714146D01*
X146980710Y-79841291D01*
X147012574Y-79867441D01*
X147893193Y-80748061D01*
X147867000Y-80879740D01*
X147867000Y-81172260D01*
X147924068Y-81459158D01*
X148036010Y-81729411D01*
X148198525Y-81972632D01*
X148405368Y-82179475D01*
X148587534Y-82301195D01*
X148470645Y-82370822D01*
X148254412Y-82565731D01*
X148080359Y-82799080D01*
X147955175Y-83061901D01*
X147910524Y-83209110D01*
X148031845Y-83439000D01*
X149225000Y-83439000D01*
X149225000Y-83419000D01*
X149479000Y-83419000D01*
X149479000Y-83439000D01*
X149499000Y-83439000D01*
X149499000Y-83693000D01*
X149479000Y-83693000D01*
X149479000Y-84886814D01*
X149708891Y-85007481D01*
X149983252Y-84910157D01*
X150233355Y-84761178D01*
X150429502Y-84584374D01*
X150452498Y-84660180D01*
X150511463Y-84770494D01*
X150590815Y-84867185D01*
X150687506Y-84946537D01*
X150797820Y-85005502D01*
X150917518Y-85041812D01*
X151042000Y-85054072D01*
X152742000Y-85054072D01*
X152866482Y-85041812D01*
X152986180Y-85005502D01*
X153096494Y-84946537D01*
X153193185Y-84867185D01*
X153272537Y-84770494D01*
X153331502Y-84660180D01*
X153367812Y-84540482D01*
X153380072Y-84416000D01*
X153380072Y-82716000D01*
X153367812Y-82591518D01*
X153331502Y-82471820D01*
X153272537Y-82361506D01*
X153193185Y-82264815D01*
X153096494Y-82185463D01*
X152986180Y-82126498D01*
X152913620Y-82104487D01*
X153045475Y-81972632D01*
X153207990Y-81729411D01*
X153224555Y-81689420D01*
X153356562Y-81821427D01*
X153382712Y-81853292D01*
X153509857Y-81957637D01*
X153654916Y-82035173D01*
X153812314Y-82082919D01*
X153934984Y-82095001D01*
X153934994Y-82095001D01*
X153976002Y-82099040D01*
X154017010Y-82095001D01*
X156672136Y-82095001D01*
X157699002Y-83121868D01*
X157699001Y-83436131D01*
X153693940Y-87441193D01*
X153562260Y-87415000D01*
X153269740Y-87415000D01*
X152982842Y-87472068D01*
X152712589Y-87584010D01*
X152469368Y-87746525D01*
X152262525Y-87953368D01*
X152146000Y-88127760D01*
X152029475Y-87953368D01*
X151822632Y-87746525D01*
X151579411Y-87584010D01*
X151309158Y-87472068D01*
X151022260Y-87415000D01*
X150729740Y-87415000D01*
X150442842Y-87472068D01*
X150172589Y-87584010D01*
X149929368Y-87746525D01*
X149722525Y-87953368D01*
X149600805Y-88135534D01*
X149531178Y-88018645D01*
X149336269Y-87802412D01*
X149102920Y-87628359D01*
X148840099Y-87503175D01*
X148692890Y-87458524D01*
X148463000Y-87579845D01*
X148463000Y-88773000D01*
X148483000Y-88773000D01*
X148483000Y-89027000D01*
X148463000Y-89027000D01*
X148463000Y-90220155D01*
X148692890Y-90341476D01*
X148840099Y-90296825D01*
X149102920Y-90171641D01*
X149336269Y-89997588D01*
X149531178Y-89781355D01*
X149600805Y-89664466D01*
X149722525Y-89846632D01*
X149929368Y-90053475D01*
X150172589Y-90215990D01*
X150442842Y-90327932D01*
X150729740Y-90385000D01*
X151022260Y-90385000D01*
X151309158Y-90327932D01*
X151579411Y-90215990D01*
X151822632Y-90053475D01*
X152029475Y-89846632D01*
X152146000Y-89672240D01*
X152262525Y-89846632D01*
X152469368Y-90053475D01*
X152712589Y-90215990D01*
X152982842Y-90327932D01*
X153269740Y-90385000D01*
X153562260Y-90385000D01*
X153849158Y-90327932D01*
X154119411Y-90215990D01*
X154362632Y-90053475D01*
X154494487Y-89921620D01*
X154516498Y-89994180D01*
X154575463Y-90104494D01*
X154654815Y-90201185D01*
X154751506Y-90280537D01*
X154861820Y-90339502D01*
X154981518Y-90375812D01*
X155106000Y-90388072D01*
X156806000Y-90388072D01*
X156930482Y-90375812D01*
X157050180Y-90339502D01*
X157160494Y-90280537D01*
X157257185Y-90201185D01*
X157336537Y-90104494D01*
X157395502Y-89994180D01*
X157431812Y-89874482D01*
X157444072Y-89750000D01*
X157444072Y-88050000D01*
X157431812Y-87925518D01*
X157395502Y-87805820D01*
X157336537Y-87695506D01*
X157257185Y-87598815D01*
X157160494Y-87519463D01*
X157050180Y-87460498D01*
X156930482Y-87424188D01*
X156806000Y-87411928D01*
X156084939Y-87411928D01*
X159095429Y-84401439D01*
X159127292Y-84375290D01*
X159178608Y-84312760D01*
X162310776Y-84312760D01*
X162338965Y-84598970D01*
X162422450Y-84874181D01*
X162558021Y-85127817D01*
X162740469Y-85350131D01*
X162962783Y-85532579D01*
X163216419Y-85668150D01*
X163491630Y-85751635D01*
X163706117Y-85772760D01*
X164949563Y-85772760D01*
X165164050Y-85751635D01*
X165439261Y-85668150D01*
X165692897Y-85532579D01*
X165915211Y-85350131D01*
X166097659Y-85127817D01*
X166233230Y-84874181D01*
X166316715Y-84598970D01*
X166344904Y-84312760D01*
X166316715Y-84026550D01*
X166233230Y-83751339D01*
X166097659Y-83497703D01*
X165915211Y-83275389D01*
X165692897Y-83092941D01*
X165439261Y-82957370D01*
X165164050Y-82873885D01*
X164949563Y-82852760D01*
X163706117Y-82852760D01*
X163491630Y-82873885D01*
X163216419Y-82957370D01*
X162962783Y-83092941D01*
X162740469Y-83275389D01*
X162558021Y-83497703D01*
X162422450Y-83751339D01*
X162338965Y-84026550D01*
X162310776Y-84312760D01*
X159178608Y-84312760D01*
X159231637Y-84248145D01*
X159309173Y-84103086D01*
X159356919Y-83945688D01*
X159369001Y-83823018D01*
X159369001Y-83823008D01*
X159373040Y-83782000D01*
X159369001Y-83740992D01*
X159369001Y-82817017D01*
X159373041Y-82775999D01*
X159356919Y-82612310D01*
X159309173Y-82454912D01*
X159231637Y-82309853D01*
X159153440Y-82214569D01*
X159153438Y-82214567D01*
X159127292Y-82182708D01*
X159095433Y-82156562D01*
X158436137Y-81497267D01*
X158584000Y-81498072D01*
X158708482Y-81485812D01*
X158828180Y-81449502D01*
X158938494Y-81390537D01*
X159035185Y-81311185D01*
X159114537Y-81214494D01*
X159173502Y-81104180D01*
X159209812Y-80984482D01*
X159222072Y-80860000D01*
X159219000Y-80295750D01*
X159060250Y-80137000D01*
X157861000Y-80137000D01*
X157861000Y-80157000D01*
X157607000Y-80157000D01*
X157607000Y-80137000D01*
X156407750Y-80137000D01*
X156249000Y-80295750D01*
X156248296Y-80425001D01*
X154321871Y-80425001D01*
X153159240Y-79262371D01*
X153207990Y-79189411D01*
X153220172Y-79160000D01*
X156245928Y-79160000D01*
X156249000Y-79724250D01*
X156407750Y-79883000D01*
X157607000Y-79883000D01*
X157607000Y-78683750D01*
X157861000Y-78683750D01*
X157861000Y-79883000D01*
X159060250Y-79883000D01*
X159219000Y-79724250D01*
X159222072Y-79160000D01*
X159209812Y-79035518D01*
X159173502Y-78915820D01*
X159114537Y-78805506D01*
X159035185Y-78708815D01*
X158938494Y-78629463D01*
X158828180Y-78570498D01*
X158708482Y-78534188D01*
X158584000Y-78521928D01*
X158019750Y-78525000D01*
X157861000Y-78683750D01*
X157607000Y-78683750D01*
X157448250Y-78525000D01*
X156884000Y-78521928D01*
X156759518Y-78534188D01*
X156639820Y-78570498D01*
X156529506Y-78629463D01*
X156432815Y-78708815D01*
X156353463Y-78805506D01*
X156294498Y-78915820D01*
X156258188Y-79035518D01*
X156245928Y-79160000D01*
X153220172Y-79160000D01*
X153319932Y-78919158D01*
X153377000Y-78632260D01*
X153377000Y-78339740D01*
X153323544Y-78070999D01*
X155016983Y-78070999D01*
X155058001Y-78075039D01*
X155099019Y-78070999D01*
X155099020Y-78070999D01*
X155221690Y-78058917D01*
X155379088Y-78011171D01*
X155524147Y-77933635D01*
X155582512Y-77885736D01*
X155735898Y-77855226D01*
X155924256Y-77777205D01*
X156093774Y-77663937D01*
X156237937Y-77519774D01*
X156351205Y-77350256D01*
X156429226Y-77161898D01*
X156469000Y-76961939D01*
X156469000Y-76758061D01*
X156458645Y-76706000D01*
X158689199Y-76706000D01*
X158985000Y-77001802D01*
X158985000Y-77063939D01*
X159024774Y-77263898D01*
X159102795Y-77452256D01*
X159216063Y-77621774D01*
X159360226Y-77765937D01*
X159529744Y-77879205D01*
X159718102Y-77957226D01*
X159918061Y-77997000D01*
X160121939Y-77997000D01*
X160321898Y-77957226D01*
X160510256Y-77879205D01*
X160679774Y-77765937D01*
X160823937Y-77621774D01*
X160937205Y-77452256D01*
X161015226Y-77263898D01*
X161055000Y-77063939D01*
X161055000Y-76860061D01*
X161015226Y-76660102D01*
X160937205Y-76471744D01*
X160823937Y-76302226D01*
X160679774Y-76158063D01*
X160510256Y-76044795D01*
X160321898Y-75966774D01*
X160121939Y-75927000D01*
X160059802Y-75927000D01*
X159567804Y-75435002D01*
X159544001Y-75405999D01*
X159428276Y-75311026D01*
X159296247Y-75240454D01*
X159152986Y-75196997D01*
X159041333Y-75186000D01*
X159041322Y-75186000D01*
X159004000Y-75182324D01*
X158966678Y-75186000D01*
X153726801Y-75186000D01*
X155508802Y-73404000D01*
X156475644Y-73404000D01*
X156445000Y-73558061D01*
X156445000Y-73761939D01*
X156484774Y-73961898D01*
X156562795Y-74150256D01*
X156676063Y-74319774D01*
X156820226Y-74463937D01*
X156989744Y-74577205D01*
X157178102Y-74655226D01*
X157378061Y-74695000D01*
X157581939Y-74695000D01*
X157781898Y-74655226D01*
X157970256Y-74577205D01*
X158093285Y-74495000D01*
X159928133Y-74495000D01*
X163528500Y-78095368D01*
X163528501Y-80158714D01*
X163446295Y-80281744D01*
X163368274Y-80470102D01*
X163328500Y-80670061D01*
X163328500Y-80873939D01*
X163368274Y-81073898D01*
X163446295Y-81262256D01*
X163559563Y-81431774D01*
X163703726Y-81575937D01*
X163873244Y-81689205D01*
X164061602Y-81767226D01*
X164261561Y-81807000D01*
X164465439Y-81807000D01*
X164665398Y-81767226D01*
X164853756Y-81689205D01*
X165023274Y-81575937D01*
X165167437Y-81431774D01*
X165280705Y-81262256D01*
X165358726Y-81073898D01*
X165398500Y-80873939D01*
X165398500Y-80670061D01*
X165358726Y-80470102D01*
X165280705Y-80281744D01*
X165198500Y-80158715D01*
X165198500Y-77790507D01*
X165202539Y-77749499D01*
X165198500Y-77708491D01*
X165198500Y-77708481D01*
X165186418Y-77585811D01*
X165138672Y-77428413D01*
X165061136Y-77283354D01*
X164956791Y-77156209D01*
X164924928Y-77130060D01*
X162866289Y-75071422D01*
X162913623Y-75024088D01*
X163026891Y-74854570D01*
X163071428Y-74747050D01*
X164096249Y-74747050D01*
X168383000Y-79033802D01*
X168383000Y-79095939D01*
X168422774Y-79295898D01*
X168500795Y-79484256D01*
X168614063Y-79653774D01*
X168758226Y-79797937D01*
X168927744Y-79911205D01*
X169116102Y-79989226D01*
X169316061Y-80029000D01*
X169519939Y-80029000D01*
X169719898Y-79989226D01*
X169908256Y-79911205D01*
X170077774Y-79797937D01*
X170221937Y-79653774D01*
X170288681Y-79553885D01*
X170288680Y-82891779D01*
X170212470Y-82899285D01*
X169937259Y-82982770D01*
X169683623Y-83118341D01*
X169461309Y-83300789D01*
X169278861Y-83523103D01*
X169143290Y-83776739D01*
X169059805Y-84051950D01*
X169031616Y-84338160D01*
X169059805Y-84624370D01*
X169143290Y-84899581D01*
X169278861Y-85153217D01*
X169461309Y-85375531D01*
X169683623Y-85557979D01*
X169937259Y-85693550D01*
X170212470Y-85777035D01*
X170426957Y-85798160D01*
X171670403Y-85798160D01*
X171884890Y-85777035D01*
X172160101Y-85693550D01*
X172413737Y-85557979D01*
X172568000Y-85431379D01*
X172568000Y-89523821D01*
X172413737Y-89397221D01*
X172160101Y-89261650D01*
X171884890Y-89178165D01*
X171670403Y-89157040D01*
X170769548Y-89157040D01*
X170698516Y-89086008D01*
X170829632Y-89059928D01*
X171127183Y-88936678D01*
X171394972Y-88757747D01*
X171622707Y-88530012D01*
X171801638Y-88262223D01*
X171924888Y-87964672D01*
X171987720Y-87648793D01*
X171987720Y-87326727D01*
X171924888Y-87010848D01*
X171801638Y-86713297D01*
X171622707Y-86445508D01*
X171394972Y-86217773D01*
X171127183Y-86038842D01*
X170829632Y-85915592D01*
X170513753Y-85852760D01*
X170191687Y-85852760D01*
X169875808Y-85915592D01*
X169578257Y-86038842D01*
X169310468Y-86217773D01*
X169082733Y-86445508D01*
X168903802Y-86713297D01*
X168780552Y-87010848D01*
X168717720Y-87326727D01*
X168717720Y-87648793D01*
X168780552Y-87964672D01*
X168903802Y-88262223D01*
X169082733Y-88530012D01*
X169109751Y-88557030D01*
X165570809Y-88557030D01*
X165613067Y-88514772D01*
X165791998Y-88246983D01*
X165915248Y-87949432D01*
X165978080Y-87633553D01*
X165978080Y-87311487D01*
X165915248Y-86995608D01*
X165791998Y-86698057D01*
X165613067Y-86430268D01*
X165385332Y-86202533D01*
X165117543Y-86023602D01*
X164819992Y-85900352D01*
X164504113Y-85837520D01*
X164182047Y-85837520D01*
X163866168Y-85900352D01*
X163568617Y-86023602D01*
X163300828Y-86202533D01*
X163073093Y-86430268D01*
X162894162Y-86698057D01*
X162770912Y-86995608D01*
X162708080Y-87311487D01*
X162708080Y-87633553D01*
X162770912Y-87949432D01*
X162894162Y-88246983D01*
X163073093Y-88514772D01*
X163115351Y-88557030D01*
X161254072Y-88557030D01*
X161254072Y-88050000D01*
X161241812Y-87925518D01*
X161205502Y-87805820D01*
X161146537Y-87695506D01*
X161067185Y-87598815D01*
X160970494Y-87519463D01*
X160860180Y-87460498D01*
X160787620Y-87438487D01*
X160919475Y-87306632D01*
X161081990Y-87063411D01*
X161193932Y-86793158D01*
X161251000Y-86506260D01*
X161251000Y-86213740D01*
X161193932Y-85926842D01*
X161081990Y-85656589D01*
X160919475Y-85413368D01*
X160712632Y-85206525D01*
X160469411Y-85044010D01*
X160199158Y-84932068D01*
X159912260Y-84875000D01*
X159619740Y-84875000D01*
X159332842Y-84932068D01*
X159062589Y-85044010D01*
X158819368Y-85206525D01*
X158612525Y-85413368D01*
X158450010Y-85656589D01*
X158338068Y-85926842D01*
X158281000Y-86213740D01*
X158281000Y-86506260D01*
X158338068Y-86793158D01*
X158450010Y-87063411D01*
X158612525Y-87306632D01*
X158744380Y-87438487D01*
X158671820Y-87460498D01*
X158561506Y-87519463D01*
X158464815Y-87598815D01*
X158385463Y-87695506D01*
X158326498Y-87805820D01*
X158290188Y-87925518D01*
X158277928Y-88050000D01*
X158277928Y-89750000D01*
X158290188Y-89874482D01*
X158326498Y-89994180D01*
X158385463Y-90104494D01*
X158464815Y-90201185D01*
X158561506Y-90280537D01*
X158671820Y-90339502D01*
X158791518Y-90375812D01*
X158916000Y-90388072D01*
X160616000Y-90388072D01*
X160740482Y-90375812D01*
X160860180Y-90339502D01*
X160970494Y-90280537D01*
X161035693Y-90227030D01*
X162400933Y-90227030D01*
X162369445Y-90330830D01*
X162341256Y-90617040D01*
X162369445Y-90903250D01*
X162452930Y-91178461D01*
X162511480Y-91288000D01*
X133502000Y-91288000D01*
X133502000Y-85750061D01*
X140337440Y-85750061D01*
X140337440Y-85953939D01*
X140377214Y-86153898D01*
X140455235Y-86342256D01*
X140537441Y-86465286D01*
X140537441Y-86975412D01*
X140533400Y-87016440D01*
X140549522Y-87180128D01*
X140597268Y-87337526D01*
X140669183Y-87472068D01*
X140674805Y-87482586D01*
X140779150Y-87609731D01*
X140811014Y-87635881D01*
X141797193Y-88622060D01*
X141771000Y-88753740D01*
X141771000Y-89046260D01*
X141828068Y-89333158D01*
X141940010Y-89603411D01*
X142102525Y-89846632D01*
X142309368Y-90053475D01*
X142552589Y-90215990D01*
X142822842Y-90327932D01*
X143109740Y-90385000D01*
X143402260Y-90385000D01*
X143689158Y-90327932D01*
X143959411Y-90215990D01*
X144202632Y-90053475D01*
X144409475Y-89846632D01*
X144526000Y-89672240D01*
X144642525Y-89846632D01*
X144849368Y-90053475D01*
X145092589Y-90215990D01*
X145362842Y-90327932D01*
X145649740Y-90385000D01*
X145942260Y-90385000D01*
X146229158Y-90327932D01*
X146499411Y-90215990D01*
X146742632Y-90053475D01*
X146949475Y-89846632D01*
X147071195Y-89664466D01*
X147140822Y-89781355D01*
X147335731Y-89997588D01*
X147569080Y-90171641D01*
X147831901Y-90296825D01*
X147979110Y-90341476D01*
X148209000Y-90220155D01*
X148209000Y-89027000D01*
X148189000Y-89027000D01*
X148189000Y-88773000D01*
X148209000Y-88773000D01*
X148209000Y-87579845D01*
X147979110Y-87458524D01*
X147831901Y-87503175D01*
X147569080Y-87628359D01*
X147335731Y-87802412D01*
X147140822Y-88018645D01*
X147071195Y-88135534D01*
X146949475Y-87953368D01*
X146742632Y-87746525D01*
X146499411Y-87584010D01*
X146229158Y-87472068D01*
X145942260Y-87415000D01*
X145649740Y-87415000D01*
X145362842Y-87472068D01*
X145092589Y-87584010D01*
X144849368Y-87746525D01*
X144642525Y-87953368D01*
X144526000Y-88127760D01*
X144409475Y-87953368D01*
X144202632Y-87746525D01*
X143959411Y-87584010D01*
X143689158Y-87472068D01*
X143402260Y-87415000D01*
X143109740Y-87415000D01*
X142978060Y-87441193D01*
X142207440Y-86670573D01*
X142207440Y-86465285D01*
X142289645Y-86342256D01*
X142367666Y-86153898D01*
X142407440Y-85953939D01*
X142407440Y-85750061D01*
X142367666Y-85550102D01*
X142289645Y-85361744D01*
X142176377Y-85192226D01*
X142032214Y-85048063D01*
X141862696Y-84934795D01*
X141674338Y-84856774D01*
X141474379Y-84817000D01*
X141270501Y-84817000D01*
X141070542Y-84856774D01*
X140882184Y-84934795D01*
X140712666Y-85048063D01*
X140568503Y-85192226D01*
X140455235Y-85361744D01*
X140377214Y-85550102D01*
X140337440Y-85750061D01*
X133502000Y-85750061D01*
X133502000Y-83908211D01*
X133611167Y-84112449D01*
X133765498Y-84300502D01*
X133953551Y-84454833D01*
X134168099Y-84569511D01*
X134400898Y-84640130D01*
X134582335Y-84658000D01*
X135403665Y-84658000D01*
X135585102Y-84640130D01*
X135817901Y-84569511D01*
X136032449Y-84454833D01*
X136220502Y-84300502D01*
X136374833Y-84112449D01*
X136476154Y-83922890D01*
X147910524Y-83922890D01*
X147955175Y-84070099D01*
X148080359Y-84332920D01*
X148254412Y-84566269D01*
X148470645Y-84761178D01*
X148720748Y-84910157D01*
X148995109Y-85007481D01*
X149225000Y-84886814D01*
X149225000Y-83693000D01*
X148031845Y-83693000D01*
X147910524Y-83922890D01*
X136476154Y-83922890D01*
X136489511Y-83897901D01*
X136560130Y-83665102D01*
X136583975Y-83423000D01*
X136560130Y-83180898D01*
X136489511Y-82948099D01*
X136374833Y-82733551D01*
X136220502Y-82545498D01*
X136032449Y-82391167D01*
X135817901Y-82276489D01*
X135585102Y-82205870D01*
X135403665Y-82188000D01*
X134582335Y-82188000D01*
X134400898Y-82205870D01*
X134168099Y-82276489D01*
X133953551Y-82391167D01*
X133765498Y-82545498D01*
X133611167Y-82733551D01*
X133502000Y-82937789D01*
X133502000Y-81473000D01*
X136727388Y-81473000D01*
X136749785Y-81700400D01*
X136816115Y-81919060D01*
X136923829Y-82120579D01*
X137068788Y-82297212D01*
X137245421Y-82442171D01*
X137446940Y-82549885D01*
X137665600Y-82616215D01*
X137836021Y-82633000D01*
X138149979Y-82633000D01*
X138320400Y-82616215D01*
X138539060Y-82549885D01*
X138740579Y-82442171D01*
X138917212Y-82297212D01*
X139062171Y-82120579D01*
X139169885Y-81919060D01*
X139236215Y-81700400D01*
X139258612Y-81473000D01*
X139236215Y-81245600D01*
X139169885Y-81026940D01*
X139062171Y-80825421D01*
X138917212Y-80648788D01*
X138740579Y-80503829D01*
X138539060Y-80396115D01*
X138320400Y-80329785D01*
X138149979Y-80313000D01*
X137836021Y-80313000D01*
X137665600Y-80329785D01*
X137446940Y-80396115D01*
X137245421Y-80503829D01*
X137068788Y-80648788D01*
X136923829Y-80825421D01*
X136816115Y-81026940D01*
X136749785Y-81245600D01*
X136727388Y-81473000D01*
X133502000Y-81473000D01*
X133502000Y-77023000D01*
X136727388Y-77023000D01*
X136749785Y-77250400D01*
X136816115Y-77469060D01*
X136923829Y-77670579D01*
X137068788Y-77847212D01*
X137245421Y-77992171D01*
X137446940Y-78099885D01*
X137665600Y-78166215D01*
X137836021Y-78183000D01*
X138149979Y-78183000D01*
X138320400Y-78166215D01*
X138539060Y-78099885D01*
X138740579Y-77992171D01*
X138917212Y-77847212D01*
X139062171Y-77670579D01*
X139169885Y-77469060D01*
X139236215Y-77250400D01*
X139258612Y-77023000D01*
X139236215Y-76795600D01*
X139169885Y-76576940D01*
X139062171Y-76375421D01*
X138917212Y-76198788D01*
X138740579Y-76053829D01*
X138539060Y-75946115D01*
X138320400Y-75879785D01*
X138149979Y-75863000D01*
X137836021Y-75863000D01*
X137665600Y-75879785D01*
X137446940Y-75946115D01*
X137245421Y-76053829D01*
X137068788Y-76198788D01*
X136923829Y-76375421D01*
X136816115Y-76576940D01*
X136749785Y-76795600D01*
X136727388Y-77023000D01*
X133502000Y-77023000D01*
X133502000Y-75558211D01*
X133611167Y-75762449D01*
X133765498Y-75950502D01*
X133953551Y-76104833D01*
X134168099Y-76219511D01*
X134400898Y-76290130D01*
X134582335Y-76308000D01*
X135403665Y-76308000D01*
X135585102Y-76290130D01*
X135817901Y-76219511D01*
X136032449Y-76104833D01*
X136220502Y-75950502D01*
X136374833Y-75762449D01*
X136489511Y-75547901D01*
X136560130Y-75315102D01*
X136583975Y-75073000D01*
X136560130Y-74830898D01*
X136489511Y-74598099D01*
X136374833Y-74383551D01*
X136220502Y-74195498D01*
X136032449Y-74041167D01*
X135817901Y-73926489D01*
X135585102Y-73855870D01*
X135403665Y-73838000D01*
X134582335Y-73838000D01*
X134400898Y-73855870D01*
X134168099Y-73926489D01*
X133953551Y-74041167D01*
X133765498Y-74195498D01*
X133611167Y-74383551D01*
X133502000Y-74587789D01*
X133502000Y-71032000D01*
X148879928Y-71032000D01*
X148879928Y-72732000D01*
X148892188Y-72856482D01*
X148928498Y-72976180D01*
X148987463Y-73086494D01*
X149066815Y-73183185D01*
X149163506Y-73262537D01*
X149273820Y-73321502D01*
X149393518Y-73357812D01*
X149518000Y-73370072D01*
X151218000Y-73370072D01*
X151342482Y-73357812D01*
X151462180Y-73321502D01*
X151572494Y-73262537D01*
X151669185Y-73183185D01*
X151748537Y-73086494D01*
X151807502Y-72976180D01*
X151843812Y-72856482D01*
X151856072Y-72732000D01*
X151856072Y-71032000D01*
X151843812Y-70907518D01*
X151807502Y-70787820D01*
X151748537Y-70677506D01*
X151669185Y-70580815D01*
X151572494Y-70501463D01*
X151462180Y-70442498D01*
X151342482Y-70406188D01*
X151218000Y-70393928D01*
X149518000Y-70393928D01*
X149393518Y-70406188D01*
X149273820Y-70442498D01*
X149163506Y-70501463D01*
X149066815Y-70580815D01*
X148987463Y-70677506D01*
X148928498Y-70787820D01*
X148892188Y-70907518D01*
X148879928Y-71032000D01*
X133502000Y-71032000D01*
X133502000Y-65938000D01*
X158943810Y-65938000D01*
X158808589Y-65994010D01*
G36*
X149479000Y-78359000D02*
G01*
X149499000Y-78359000D01*
X149499000Y-78613000D01*
X149479000Y-78613000D01*
X149479000Y-78633000D01*
X149225000Y-78633000D01*
X149225000Y-78613000D01*
X149205000Y-78613000D01*
X149205000Y-78359000D01*
X149225000Y-78359000D01*
X149225000Y-78339000D01*
X149479000Y-78339000D01*
X149479000Y-78359000D01*
G37*
X149479000Y-78359000D02*
X149499000Y-78359000D01*
X149499000Y-78613000D01*
X149479000Y-78613000D01*
X149479000Y-78633000D01*
X149225000Y-78633000D01*
X149225000Y-78613000D01*
X149205000Y-78613000D01*
X149205000Y-78359000D01*
X149225000Y-78359000D01*
X149225000Y-78339000D01*
X149479000Y-78339000D01*
X149479000Y-78359000D01*
M02*
