M48
; DRILL file {KiCad 5.1.6+dfsg1-1} date Sat Feb 27 20:02:37 2021
; FORMAT={-:-/ absolute / inch / decimal}
; #@! TF.CreationDate,2021-02-27T20:02:37-07:00
; #@! TF.GenerationSoftware,Kicad,Pcbnew,5.1.6+dfsg1-1
FMAT,2
INCH
T1C0.0157
T2C0.0236
T3C0.0256
T4C0.0354
T5C0.0394
T6C0.0787
%
G90
G05
T1
X5.5658Y-3.38
X5.81Y-3.03
X6.1194Y-3.026
X6.2Y-2.9
X6.21Y-3.274
X6.3Y-3.03
X6.3823Y-2.9277
X6.409Y-3.18
X6.47Y-3.0
X6.471Y-3.18
X6.67Y-3.11
X6.74Y-3.04
T5
X6.21Y-3.15
X5.88Y-2.99
X5.88Y-3.09
X5.88Y-3.19
X5.88Y-3.29
X6.29Y-3.4
X6.29Y-3.5
X5.56Y-2.99
X6.28Y-2.65
X6.28Y-2.75
X5.92Y-2.83
X5.98Y-2.99
X5.98Y-3.09
X5.98Y-3.19
X5.98Y-3.29
X5.64Y-3.5
X5.74Y-3.5
X5.84Y-3.5
X5.94Y-3.5
X6.04Y-3.5
X6.14Y-3.5
T6
X6.4702Y-2.7438
X6.7068Y-2.7444
X6.4702Y-3.4438
X6.7068Y-3.4444
T2
G00X5.3285Y-2.9556
M15
G01X5.3009Y-2.9556
M16
G05
G00X5.3285Y-3.2844
M15
G01X5.3009Y-3.2844
M16
G05
T3
G00X5.4367Y-3.0324
M15
G01X5.4289Y-3.0324
M16
G05
G00X5.4367Y-3.2076
M15
G01X5.4289Y-3.2076
M16
G05
T4
G00X6.4932Y-2.6194
M15
G01X6.446Y-2.6194
M16
G05
G00X6.4944Y-2.8676
M15
G01X6.4472Y-2.8676
M16
G05
G00X6.631Y-2.8682
M15
G01X6.5838Y-2.8682
M16
G05
G00X6.7578Y-2.6204
M15
G01X6.7106Y-2.6204
M16
G05
G00X6.7578Y-2.8676
M15
G01X6.7106Y-2.8676
M16
G05
G00X6.4932Y-3.3194
M15
G01X6.446Y-3.3194
M16
G05
G00X6.4944Y-3.5676
M15
G01X6.4472Y-3.5676
M16
G05
G00X6.631Y-3.5682
M15
G01X6.5838Y-3.5682
M16
G05
G00X6.7578Y-3.3204
M15
G01X6.7106Y-3.3204
M16
G05
G00X6.7578Y-3.5676
M15
G01X6.7106Y-3.5676
M16
G05
T0
M30
