G04 #@! TF.GenerationSoftware,KiCad,Pcbnew,5.1.6+dfsg1-1*
G04 #@! TF.CreationDate,2021-02-27T20:02:44-07:00*
G04 #@! TF.ProjectId,CurrentSensorV1,43757272-656e-4745-9365-6e736f725631,rev?*
G04 #@! TF.SameCoordinates,Original*
G04 #@! TF.FileFunction,Soldermask,Bot*
G04 #@! TF.FilePolarity,Negative*
%FSLAX46Y46*%
G04 Gerber Fmt 4.6, Leading zero omitted, Abs format (unit mm)*
G04 Created by KiCad (PCBNEW 5.1.6+dfsg1-1) date 2021-02-27 20:02:44*
%MOMM*%
%LPD*%
G01*
G04 APERTURE LIST*
%ADD10C,0.100000*%
G04 APERTURE END LIST*
D10*
G36*
X168549684Y-89768955D02*
G01*
X168714815Y-89819047D01*
X168866993Y-89900388D01*
X169000383Y-90009857D01*
X169109852Y-90143247D01*
X169191193Y-90295425D01*
X169241285Y-90460556D01*
X169258198Y-90632280D01*
X169241285Y-90804004D01*
X169191193Y-90969135D01*
X169109852Y-91121313D01*
X169000383Y-91254703D01*
X168866993Y-91364172D01*
X168714815Y-91445513D01*
X168549684Y-91495605D01*
X168420992Y-91508280D01*
X167234928Y-91508280D01*
X167106236Y-91495605D01*
X166941105Y-91445513D01*
X166788927Y-91364172D01*
X166655537Y-91254703D01*
X166546068Y-91121313D01*
X166464727Y-90969135D01*
X166414635Y-90804004D01*
X166397722Y-90632280D01*
X166414635Y-90460556D01*
X166464727Y-90295425D01*
X166546068Y-90143247D01*
X166655537Y-90009857D01*
X166788927Y-89900388D01*
X166941105Y-89819047D01*
X167106236Y-89768955D01*
X167234928Y-89756280D01*
X168420992Y-89756280D01*
X168549684Y-89768955D01*
G37*
G36*
X171770404Y-89753715D02*
G01*
X171935535Y-89803807D01*
X172087713Y-89885148D01*
X172221103Y-89994617D01*
X172330572Y-90128007D01*
X172411913Y-90280185D01*
X172462005Y-90445316D01*
X172478918Y-90617040D01*
X172462005Y-90788764D01*
X172411913Y-90953895D01*
X172330572Y-91106073D01*
X172221103Y-91239463D01*
X172087713Y-91348932D01*
X171935535Y-91430273D01*
X171770404Y-91480365D01*
X171641712Y-91493040D01*
X170455648Y-91493040D01*
X170326956Y-91480365D01*
X170161825Y-91430273D01*
X170009647Y-91348932D01*
X169876257Y-91239463D01*
X169766788Y-91106073D01*
X169685447Y-90953895D01*
X169635355Y-90788764D01*
X169618442Y-90617040D01*
X169635355Y-90445316D01*
X169685447Y-90280185D01*
X169766788Y-90128007D01*
X169876257Y-89994617D01*
X170009647Y-89885148D01*
X170161825Y-89803807D01*
X170326956Y-89753715D01*
X170455648Y-89741040D01*
X171641712Y-89741040D01*
X171770404Y-89753715D01*
G37*
G36*
X165080044Y-89753715D02*
G01*
X165245175Y-89803807D01*
X165397353Y-89885148D01*
X165530743Y-89994617D01*
X165640212Y-90128007D01*
X165721553Y-90280185D01*
X165771645Y-90445316D01*
X165788558Y-90617040D01*
X165771645Y-90788764D01*
X165721553Y-90953895D01*
X165640212Y-91106073D01*
X165530743Y-91239463D01*
X165397353Y-91348932D01*
X165245175Y-91430273D01*
X165080044Y-91480365D01*
X164951352Y-91493040D01*
X163765288Y-91493040D01*
X163636596Y-91480365D01*
X163471465Y-91430273D01*
X163319287Y-91348932D01*
X163185897Y-91239463D01*
X163076428Y-91106073D01*
X162995087Y-90953895D01*
X162944995Y-90788764D01*
X162928082Y-90617040D01*
X162944995Y-90445316D01*
X162995087Y-90280185D01*
X163076428Y-90128007D01*
X163185897Y-89994617D01*
X163319287Y-89885148D01*
X163471465Y-89803807D01*
X163636596Y-89753715D01*
X163765288Y-89741040D01*
X164951352Y-89741040D01*
X165080044Y-89753715D01*
G37*
G36*
X156857000Y-89801000D02*
G01*
X155055000Y-89801000D01*
X155055000Y-87999000D01*
X156857000Y-87999000D01*
X156857000Y-89801000D01*
G37*
G36*
X153529512Y-88003927D02*
G01*
X153678812Y-88033624D01*
X153842784Y-88101544D01*
X153990354Y-88200147D01*
X154115853Y-88325646D01*
X154214456Y-88473216D01*
X154282376Y-88637188D01*
X154317000Y-88811259D01*
X154317000Y-88988741D01*
X154282376Y-89162812D01*
X154214456Y-89326784D01*
X154115853Y-89474354D01*
X153990354Y-89599853D01*
X153842784Y-89698456D01*
X153678812Y-89766376D01*
X153529512Y-89796073D01*
X153504742Y-89801000D01*
X153327258Y-89801000D01*
X153302488Y-89796073D01*
X153153188Y-89766376D01*
X152989216Y-89698456D01*
X152841646Y-89599853D01*
X152716147Y-89474354D01*
X152617544Y-89326784D01*
X152549624Y-89162812D01*
X152515000Y-88988741D01*
X152515000Y-88811259D01*
X152549624Y-88637188D01*
X152617544Y-88473216D01*
X152716147Y-88325646D01*
X152841646Y-88200147D01*
X152989216Y-88101544D01*
X153153188Y-88033624D01*
X153302488Y-88003927D01*
X153327258Y-87999000D01*
X153504742Y-87999000D01*
X153529512Y-88003927D01*
G37*
G36*
X150989512Y-88003927D02*
G01*
X151138812Y-88033624D01*
X151302784Y-88101544D01*
X151450354Y-88200147D01*
X151575853Y-88325646D01*
X151674456Y-88473216D01*
X151742376Y-88637188D01*
X151777000Y-88811259D01*
X151777000Y-88988741D01*
X151742376Y-89162812D01*
X151674456Y-89326784D01*
X151575853Y-89474354D01*
X151450354Y-89599853D01*
X151302784Y-89698456D01*
X151138812Y-89766376D01*
X150989512Y-89796073D01*
X150964742Y-89801000D01*
X150787258Y-89801000D01*
X150762488Y-89796073D01*
X150613188Y-89766376D01*
X150449216Y-89698456D01*
X150301646Y-89599853D01*
X150176147Y-89474354D01*
X150077544Y-89326784D01*
X150009624Y-89162812D01*
X149975000Y-88988741D01*
X149975000Y-88811259D01*
X150009624Y-88637188D01*
X150077544Y-88473216D01*
X150176147Y-88325646D01*
X150301646Y-88200147D01*
X150449216Y-88101544D01*
X150613188Y-88033624D01*
X150762488Y-88003927D01*
X150787258Y-87999000D01*
X150964742Y-87999000D01*
X150989512Y-88003927D01*
G37*
G36*
X148449512Y-88003927D02*
G01*
X148598812Y-88033624D01*
X148762784Y-88101544D01*
X148910354Y-88200147D01*
X149035853Y-88325646D01*
X149134456Y-88473216D01*
X149202376Y-88637188D01*
X149237000Y-88811259D01*
X149237000Y-88988741D01*
X149202376Y-89162812D01*
X149134456Y-89326784D01*
X149035853Y-89474354D01*
X148910354Y-89599853D01*
X148762784Y-89698456D01*
X148598812Y-89766376D01*
X148449512Y-89796073D01*
X148424742Y-89801000D01*
X148247258Y-89801000D01*
X148222488Y-89796073D01*
X148073188Y-89766376D01*
X147909216Y-89698456D01*
X147761646Y-89599853D01*
X147636147Y-89474354D01*
X147537544Y-89326784D01*
X147469624Y-89162812D01*
X147435000Y-88988741D01*
X147435000Y-88811259D01*
X147469624Y-88637188D01*
X147537544Y-88473216D01*
X147636147Y-88325646D01*
X147761646Y-88200147D01*
X147909216Y-88101544D01*
X148073188Y-88033624D01*
X148222488Y-88003927D01*
X148247258Y-87999000D01*
X148424742Y-87999000D01*
X148449512Y-88003927D01*
G37*
G36*
X145909512Y-88003927D02*
G01*
X146058812Y-88033624D01*
X146222784Y-88101544D01*
X146370354Y-88200147D01*
X146495853Y-88325646D01*
X146594456Y-88473216D01*
X146662376Y-88637188D01*
X146697000Y-88811259D01*
X146697000Y-88988741D01*
X146662376Y-89162812D01*
X146594456Y-89326784D01*
X146495853Y-89474354D01*
X146370354Y-89599853D01*
X146222784Y-89698456D01*
X146058812Y-89766376D01*
X145909512Y-89796073D01*
X145884742Y-89801000D01*
X145707258Y-89801000D01*
X145682488Y-89796073D01*
X145533188Y-89766376D01*
X145369216Y-89698456D01*
X145221646Y-89599853D01*
X145096147Y-89474354D01*
X144997544Y-89326784D01*
X144929624Y-89162812D01*
X144895000Y-88988741D01*
X144895000Y-88811259D01*
X144929624Y-88637188D01*
X144997544Y-88473216D01*
X145096147Y-88325646D01*
X145221646Y-88200147D01*
X145369216Y-88101544D01*
X145533188Y-88033624D01*
X145682488Y-88003927D01*
X145707258Y-87999000D01*
X145884742Y-87999000D01*
X145909512Y-88003927D01*
G37*
G36*
X143369512Y-88003927D02*
G01*
X143518812Y-88033624D01*
X143682784Y-88101544D01*
X143830354Y-88200147D01*
X143955853Y-88325646D01*
X144054456Y-88473216D01*
X144122376Y-88637188D01*
X144157000Y-88811259D01*
X144157000Y-88988741D01*
X144122376Y-89162812D01*
X144054456Y-89326784D01*
X143955853Y-89474354D01*
X143830354Y-89599853D01*
X143682784Y-89698456D01*
X143518812Y-89766376D01*
X143369512Y-89796073D01*
X143344742Y-89801000D01*
X143167258Y-89801000D01*
X143142488Y-89796073D01*
X142993188Y-89766376D01*
X142829216Y-89698456D01*
X142681646Y-89599853D01*
X142556147Y-89474354D01*
X142457544Y-89326784D01*
X142389624Y-89162812D01*
X142355000Y-88988741D01*
X142355000Y-88811259D01*
X142389624Y-88637188D01*
X142457544Y-88473216D01*
X142556147Y-88325646D01*
X142681646Y-88200147D01*
X142829216Y-88101544D01*
X142993188Y-88033624D01*
X143142488Y-88003927D01*
X143167258Y-87999000D01*
X143344742Y-87999000D01*
X143369512Y-88003927D01*
G37*
G36*
X160667000Y-89801000D02*
G01*
X158865000Y-89801000D01*
X158865000Y-87999000D01*
X160667000Y-87999000D01*
X160667000Y-89801000D01*
G37*
G36*
X170659284Y-86477149D02*
G01*
X170850553Y-86556375D01*
X170850555Y-86556376D01*
X171022693Y-86671395D01*
X171169085Y-86817787D01*
X171246973Y-86934354D01*
X171284105Y-86989927D01*
X171363331Y-87181196D01*
X171403720Y-87384244D01*
X171403720Y-87591276D01*
X171363331Y-87794324D01*
X171290417Y-87970355D01*
X171284104Y-87985595D01*
X171169085Y-88157733D01*
X171022693Y-88304125D01*
X170850555Y-88419144D01*
X170850554Y-88419145D01*
X170850553Y-88419145D01*
X170659284Y-88498371D01*
X170456236Y-88538760D01*
X170249204Y-88538760D01*
X170046156Y-88498371D01*
X169854887Y-88419145D01*
X169854886Y-88419145D01*
X169854885Y-88419144D01*
X169682747Y-88304125D01*
X169536355Y-88157733D01*
X169421336Y-87985595D01*
X169415023Y-87970355D01*
X169342109Y-87794324D01*
X169301720Y-87591276D01*
X169301720Y-87384244D01*
X169342109Y-87181196D01*
X169421335Y-86989927D01*
X169458468Y-86934354D01*
X169536355Y-86817787D01*
X169682747Y-86671395D01*
X169854885Y-86556376D01*
X169854887Y-86556375D01*
X170046156Y-86477149D01*
X170249204Y-86436760D01*
X170456236Y-86436760D01*
X170659284Y-86477149D01*
G37*
G36*
X164649644Y-86461909D02*
G01*
X164840913Y-86541135D01*
X164840915Y-86541136D01*
X165013053Y-86656155D01*
X165159445Y-86802547D01*
X165247516Y-86934354D01*
X165274465Y-86974687D01*
X165353691Y-87165956D01*
X165394080Y-87369004D01*
X165394080Y-87576036D01*
X165353691Y-87779084D01*
X165274465Y-87970353D01*
X165274464Y-87970355D01*
X165159445Y-88142493D01*
X165013053Y-88288885D01*
X164840915Y-88403904D01*
X164840914Y-88403905D01*
X164840913Y-88403905D01*
X164649644Y-88483131D01*
X164446596Y-88523520D01*
X164239564Y-88523520D01*
X164036516Y-88483131D01*
X163845247Y-88403905D01*
X163845246Y-88403905D01*
X163845245Y-88403904D01*
X163673107Y-88288885D01*
X163526715Y-88142493D01*
X163411696Y-87970355D01*
X163411695Y-87970353D01*
X163332469Y-87779084D01*
X163292080Y-87576036D01*
X163292080Y-87369004D01*
X163332469Y-87165956D01*
X163411695Y-86974687D01*
X163438645Y-86934354D01*
X163526715Y-86802547D01*
X163673107Y-86656155D01*
X163845245Y-86541136D01*
X163845247Y-86541135D01*
X164036516Y-86461909D01*
X164239564Y-86421520D01*
X164446596Y-86421520D01*
X164649644Y-86461909D01*
G37*
G36*
X159879512Y-85463927D02*
G01*
X160028812Y-85493624D01*
X160192784Y-85561544D01*
X160340354Y-85660147D01*
X160465853Y-85785646D01*
X160564456Y-85933216D01*
X160632376Y-86097188D01*
X160667000Y-86271259D01*
X160667000Y-86448741D01*
X160632376Y-86622812D01*
X160564456Y-86786784D01*
X160465853Y-86934354D01*
X160340354Y-87059853D01*
X160192784Y-87158456D01*
X160028812Y-87226376D01*
X159879512Y-87256073D01*
X159854742Y-87261000D01*
X159677258Y-87261000D01*
X159652488Y-87256073D01*
X159503188Y-87226376D01*
X159339216Y-87158456D01*
X159191646Y-87059853D01*
X159066147Y-86934354D01*
X158967544Y-86786784D01*
X158899624Y-86622812D01*
X158865000Y-86448741D01*
X158865000Y-86271259D01*
X158899624Y-86097188D01*
X158967544Y-85933216D01*
X159066147Y-85785646D01*
X159191646Y-85660147D01*
X159339216Y-85561544D01*
X159503188Y-85493624D01*
X159652488Y-85463927D01*
X159677258Y-85459000D01*
X159854742Y-85459000D01*
X159879512Y-85463927D01*
G37*
G36*
X171770404Y-83474835D02*
G01*
X171935535Y-83524927D01*
X172087713Y-83606268D01*
X172221103Y-83715737D01*
X172330572Y-83849127D01*
X172411913Y-84001305D01*
X172462005Y-84166436D01*
X172478918Y-84338160D01*
X172462005Y-84509884D01*
X172411913Y-84675015D01*
X172330572Y-84827193D01*
X172221103Y-84960583D01*
X172087713Y-85070052D01*
X171935535Y-85151393D01*
X171770404Y-85201485D01*
X171641712Y-85214160D01*
X170455648Y-85214160D01*
X170326956Y-85201485D01*
X170161825Y-85151393D01*
X170009647Y-85070052D01*
X169876257Y-84960583D01*
X169766788Y-84827193D01*
X169685447Y-84675015D01*
X169635355Y-84509884D01*
X169618442Y-84338160D01*
X169635355Y-84166436D01*
X169685447Y-84001305D01*
X169766788Y-83849127D01*
X169876257Y-83715737D01*
X170009647Y-83606268D01*
X170161825Y-83524927D01*
X170326956Y-83474835D01*
X170455648Y-83462160D01*
X171641712Y-83462160D01*
X171770404Y-83474835D01*
G37*
G36*
X165049564Y-83449435D02*
G01*
X165214695Y-83499527D01*
X165366873Y-83580868D01*
X165500263Y-83690337D01*
X165609732Y-83823727D01*
X165691073Y-83975905D01*
X165741165Y-84141036D01*
X165758078Y-84312760D01*
X165741165Y-84484484D01*
X165691073Y-84649615D01*
X165609732Y-84801793D01*
X165500263Y-84935183D01*
X165366873Y-85044652D01*
X165214695Y-85125993D01*
X165049564Y-85176085D01*
X164920872Y-85188760D01*
X163734808Y-85188760D01*
X163606116Y-85176085D01*
X163440985Y-85125993D01*
X163288807Y-85044652D01*
X163155417Y-84935183D01*
X163045948Y-84801793D01*
X162964607Y-84649615D01*
X162914515Y-84484484D01*
X162897602Y-84312760D01*
X162914515Y-84141036D01*
X162964607Y-83975905D01*
X163045948Y-83823727D01*
X163155417Y-83690337D01*
X163288807Y-83580868D01*
X163440985Y-83499527D01*
X163606116Y-83449435D01*
X163734808Y-83436760D01*
X164920872Y-83436760D01*
X165049564Y-83449435D01*
G37*
G36*
X152793000Y-84467000D02*
G01*
X150991000Y-84467000D01*
X150991000Y-82665000D01*
X152793000Y-82665000D01*
X152793000Y-84467000D01*
G37*
G36*
X149465512Y-82669927D02*
G01*
X149614812Y-82699624D01*
X149778784Y-82767544D01*
X149926354Y-82866147D01*
X150051853Y-82991646D01*
X150150456Y-83139216D01*
X150218376Y-83303188D01*
X150253000Y-83477259D01*
X150253000Y-83654741D01*
X150218376Y-83828812D01*
X150150456Y-83992784D01*
X150051853Y-84140354D01*
X149926354Y-84265853D01*
X149778784Y-84364456D01*
X149614812Y-84432376D01*
X149465512Y-84462073D01*
X149440742Y-84467000D01*
X149263258Y-84467000D01*
X149238488Y-84462073D01*
X149089188Y-84432376D01*
X148925216Y-84364456D01*
X148777646Y-84265853D01*
X148652147Y-84140354D01*
X148553544Y-83992784D01*
X148485624Y-83828812D01*
X148451000Y-83654741D01*
X148451000Y-83477259D01*
X148485624Y-83303188D01*
X148553544Y-83139216D01*
X148652147Y-82991646D01*
X148777646Y-82866147D01*
X148925216Y-82767544D01*
X149089188Y-82699624D01*
X149238488Y-82669927D01*
X149263258Y-82665000D01*
X149440742Y-82665000D01*
X149465512Y-82669927D01*
G37*
G36*
X135406855Y-82775140D02*
G01*
X135470618Y-82781420D01*
X135561404Y-82808960D01*
X135593336Y-82818646D01*
X135706425Y-82879094D01*
X135805554Y-82960446D01*
X135886906Y-83059575D01*
X135947354Y-83172664D01*
X135947355Y-83172668D01*
X135984580Y-83295382D01*
X135997149Y-83423000D01*
X135984580Y-83550618D01*
X135967698Y-83606269D01*
X135947354Y-83673336D01*
X135886906Y-83786425D01*
X135805554Y-83885554D01*
X135706425Y-83966906D01*
X135593336Y-84027354D01*
X135561404Y-84037040D01*
X135470618Y-84064580D01*
X135406855Y-84070860D01*
X135374974Y-84074000D01*
X134611026Y-84074000D01*
X134579145Y-84070860D01*
X134515382Y-84064580D01*
X134424596Y-84037040D01*
X134392664Y-84027354D01*
X134279575Y-83966906D01*
X134180446Y-83885554D01*
X134099094Y-83786425D01*
X134038646Y-83673336D01*
X134018302Y-83606269D01*
X134001420Y-83550618D01*
X133988851Y-83423000D01*
X134001420Y-83295382D01*
X134038645Y-83172668D01*
X134038646Y-83172664D01*
X134099094Y-83059575D01*
X134180446Y-82960446D01*
X134279575Y-82879094D01*
X134392664Y-82818646D01*
X134424596Y-82808960D01*
X134515382Y-82781420D01*
X134579145Y-82775140D01*
X134611026Y-82772000D01*
X135374974Y-82772000D01*
X135406855Y-82775140D01*
G37*
G36*
X138205916Y-80905334D02*
G01*
X138311156Y-80937259D01*
X138314495Y-80938272D01*
X138350601Y-80957571D01*
X138414557Y-80991756D01*
X138502264Y-81063736D01*
X138574244Y-81151443D01*
X138608429Y-81215399D01*
X138627728Y-81251505D01*
X138627729Y-81251508D01*
X138660666Y-81360084D01*
X138671787Y-81473000D01*
X138660666Y-81585916D01*
X138627729Y-81694492D01*
X138627728Y-81694495D01*
X138608429Y-81730601D01*
X138574244Y-81794557D01*
X138502264Y-81882264D01*
X138414557Y-81954244D01*
X138350601Y-81988429D01*
X138314495Y-82007728D01*
X138314492Y-82007729D01*
X138205916Y-82040666D01*
X138121298Y-82049000D01*
X137864702Y-82049000D01*
X137780084Y-82040666D01*
X137671508Y-82007729D01*
X137671505Y-82007728D01*
X137635399Y-81988429D01*
X137571443Y-81954244D01*
X137483736Y-81882264D01*
X137411756Y-81794557D01*
X137377571Y-81730601D01*
X137358272Y-81694495D01*
X137358271Y-81694492D01*
X137325334Y-81585916D01*
X137314213Y-81473000D01*
X137325334Y-81360084D01*
X137358271Y-81251508D01*
X137358272Y-81251505D01*
X137377571Y-81215399D01*
X137411756Y-81151443D01*
X137483736Y-81063736D01*
X137571443Y-80991756D01*
X137635399Y-80957571D01*
X137671505Y-80938272D01*
X137674844Y-80937259D01*
X137780084Y-80905334D01*
X137864702Y-80897000D01*
X138121298Y-80897000D01*
X138205916Y-80905334D01*
G37*
G36*
X152005512Y-80129927D02*
G01*
X152154812Y-80159624D01*
X152318784Y-80227544D01*
X152466354Y-80326147D01*
X152591853Y-80451646D01*
X152690456Y-80599216D01*
X152758376Y-80763188D01*
X152793000Y-80937259D01*
X152793000Y-81114741D01*
X152758376Y-81288812D01*
X152690456Y-81452784D01*
X152591853Y-81600354D01*
X152466354Y-81725853D01*
X152318784Y-81824456D01*
X152154812Y-81892376D01*
X152005512Y-81922073D01*
X151980742Y-81927000D01*
X151803258Y-81927000D01*
X151778488Y-81922073D01*
X151629188Y-81892376D01*
X151465216Y-81824456D01*
X151317646Y-81725853D01*
X151192147Y-81600354D01*
X151093544Y-81452784D01*
X151025624Y-81288812D01*
X150991000Y-81114741D01*
X150991000Y-80937259D01*
X151025624Y-80763188D01*
X151093544Y-80599216D01*
X151192147Y-80451646D01*
X151317646Y-80326147D01*
X151465216Y-80227544D01*
X151629188Y-80159624D01*
X151778488Y-80129927D01*
X151803258Y-80125000D01*
X151980742Y-80125000D01*
X152005512Y-80129927D01*
G37*
G36*
X149465512Y-80129927D02*
G01*
X149614812Y-80159624D01*
X149778784Y-80227544D01*
X149926354Y-80326147D01*
X150051853Y-80451646D01*
X150150456Y-80599216D01*
X150218376Y-80763188D01*
X150253000Y-80937259D01*
X150253000Y-81114741D01*
X150218376Y-81288812D01*
X150150456Y-81452784D01*
X150051853Y-81600354D01*
X149926354Y-81725853D01*
X149778784Y-81824456D01*
X149614812Y-81892376D01*
X149465512Y-81922073D01*
X149440742Y-81927000D01*
X149263258Y-81927000D01*
X149238488Y-81922073D01*
X149089188Y-81892376D01*
X148925216Y-81824456D01*
X148777646Y-81725853D01*
X148652147Y-81600354D01*
X148553544Y-81452784D01*
X148485624Y-81288812D01*
X148451000Y-81114741D01*
X148451000Y-80937259D01*
X148485624Y-80763188D01*
X148553544Y-80599216D01*
X148652147Y-80451646D01*
X148777646Y-80326147D01*
X148925216Y-80227544D01*
X149089188Y-80159624D01*
X149238488Y-80129927D01*
X149263258Y-80125000D01*
X149440742Y-80125000D01*
X149465512Y-80129927D01*
G37*
G36*
X158635000Y-80911000D02*
G01*
X156833000Y-80911000D01*
X156833000Y-79109000D01*
X158635000Y-79109000D01*
X158635000Y-80911000D01*
G37*
G36*
X152005512Y-77589927D02*
G01*
X152154812Y-77619624D01*
X152318784Y-77687544D01*
X152466354Y-77786147D01*
X152591853Y-77911646D01*
X152690456Y-78059216D01*
X152758376Y-78223188D01*
X152793000Y-78397259D01*
X152793000Y-78574741D01*
X152758376Y-78748812D01*
X152690456Y-78912784D01*
X152591853Y-79060354D01*
X152466354Y-79185853D01*
X152318784Y-79284456D01*
X152154812Y-79352376D01*
X152005512Y-79382073D01*
X151980742Y-79387000D01*
X151803258Y-79387000D01*
X151778488Y-79382073D01*
X151629188Y-79352376D01*
X151465216Y-79284456D01*
X151317646Y-79185853D01*
X151192147Y-79060354D01*
X151093544Y-78912784D01*
X151025624Y-78748812D01*
X150991000Y-78574741D01*
X150991000Y-78397259D01*
X151025624Y-78223188D01*
X151093544Y-78059216D01*
X151192147Y-77911646D01*
X151317646Y-77786147D01*
X151465216Y-77687544D01*
X151629188Y-77619624D01*
X151778488Y-77589927D01*
X151803258Y-77585000D01*
X151980742Y-77585000D01*
X152005512Y-77589927D01*
G37*
G36*
X149465512Y-77589927D02*
G01*
X149614812Y-77619624D01*
X149778784Y-77687544D01*
X149926354Y-77786147D01*
X150051853Y-77911646D01*
X150150456Y-78059216D01*
X150218376Y-78223188D01*
X150253000Y-78397259D01*
X150253000Y-78574741D01*
X150218376Y-78748812D01*
X150150456Y-78912784D01*
X150051853Y-79060354D01*
X149926354Y-79185853D01*
X149778784Y-79284456D01*
X149614812Y-79352376D01*
X149465512Y-79382073D01*
X149440742Y-79387000D01*
X149263258Y-79387000D01*
X149238488Y-79382073D01*
X149089188Y-79352376D01*
X148925216Y-79284456D01*
X148777646Y-79185853D01*
X148652147Y-79060354D01*
X148553544Y-78912784D01*
X148485624Y-78748812D01*
X148451000Y-78574741D01*
X148451000Y-78397259D01*
X148485624Y-78223188D01*
X148553544Y-78059216D01*
X148652147Y-77911646D01*
X148777646Y-77786147D01*
X148925216Y-77687544D01*
X149089188Y-77619624D01*
X149238488Y-77589927D01*
X149263258Y-77585000D01*
X149440742Y-77585000D01*
X149465512Y-77589927D01*
G37*
G36*
X138205916Y-76455334D02*
G01*
X138314492Y-76488271D01*
X138314495Y-76488272D01*
X138350601Y-76507571D01*
X138414557Y-76541756D01*
X138502264Y-76613736D01*
X138574244Y-76701443D01*
X138608429Y-76765399D01*
X138627728Y-76801505D01*
X138627729Y-76801508D01*
X138660666Y-76910084D01*
X138671787Y-77023000D01*
X138660666Y-77135916D01*
X138627729Y-77244492D01*
X138627728Y-77244495D01*
X138608429Y-77280601D01*
X138574244Y-77344557D01*
X138502264Y-77432264D01*
X138414557Y-77504244D01*
X138350601Y-77538429D01*
X138314495Y-77557728D01*
X138314492Y-77557729D01*
X138205916Y-77590666D01*
X138121298Y-77599000D01*
X137864702Y-77599000D01*
X137780084Y-77590666D01*
X137671508Y-77557729D01*
X137671505Y-77557728D01*
X137635399Y-77538429D01*
X137571443Y-77504244D01*
X137483736Y-77432264D01*
X137411756Y-77344557D01*
X137377571Y-77280601D01*
X137358272Y-77244495D01*
X137358271Y-77244492D01*
X137325334Y-77135916D01*
X137314213Y-77023000D01*
X137325334Y-76910084D01*
X137358271Y-76801508D01*
X137358272Y-76801505D01*
X137377571Y-76765399D01*
X137411756Y-76701443D01*
X137483736Y-76613736D01*
X137571443Y-76541756D01*
X137635399Y-76507571D01*
X137671505Y-76488272D01*
X137671508Y-76488271D01*
X137780084Y-76455334D01*
X137864702Y-76447000D01*
X138121298Y-76447000D01*
X138205916Y-76455334D01*
G37*
G36*
X142125000Y-76847000D02*
G01*
X140323000Y-76847000D01*
X140323000Y-75045000D01*
X142125000Y-75045000D01*
X142125000Y-76847000D01*
G37*
G36*
X150253000Y-76847000D02*
G01*
X148451000Y-76847000D01*
X148451000Y-75045000D01*
X150253000Y-75045000D01*
X150253000Y-76847000D01*
G37*
G36*
X152005512Y-75049927D02*
G01*
X152154812Y-75079624D01*
X152318784Y-75147544D01*
X152466354Y-75246147D01*
X152591853Y-75371646D01*
X152690456Y-75519216D01*
X152758376Y-75683188D01*
X152793000Y-75857259D01*
X152793000Y-76034741D01*
X152758376Y-76208812D01*
X152690456Y-76372784D01*
X152591853Y-76520354D01*
X152466354Y-76645853D01*
X152318784Y-76744456D01*
X152154812Y-76812376D01*
X152005512Y-76842073D01*
X151980742Y-76847000D01*
X151803258Y-76847000D01*
X151778488Y-76842073D01*
X151629188Y-76812376D01*
X151465216Y-76744456D01*
X151317646Y-76645853D01*
X151192147Y-76520354D01*
X151093544Y-76372784D01*
X151025624Y-76208812D01*
X150991000Y-76034741D01*
X150991000Y-75857259D01*
X151025624Y-75683188D01*
X151093544Y-75519216D01*
X151192147Y-75371646D01*
X151317646Y-75246147D01*
X151465216Y-75147544D01*
X151629188Y-75079624D01*
X151778488Y-75049927D01*
X151803258Y-75045000D01*
X151980742Y-75045000D01*
X152005512Y-75049927D01*
G37*
G36*
X135406855Y-74425140D02*
G01*
X135470618Y-74431420D01*
X135561404Y-74458960D01*
X135593336Y-74468646D01*
X135706425Y-74529094D01*
X135805554Y-74610446D01*
X135886906Y-74709575D01*
X135947354Y-74822664D01*
X135947355Y-74822668D01*
X135984580Y-74945382D01*
X135997149Y-75073000D01*
X135984580Y-75200618D01*
X135957040Y-75291404D01*
X135947354Y-75323336D01*
X135886906Y-75436425D01*
X135805554Y-75535554D01*
X135706425Y-75616906D01*
X135593336Y-75677354D01*
X135574100Y-75683189D01*
X135470618Y-75714580D01*
X135406855Y-75720860D01*
X135374974Y-75724000D01*
X134611026Y-75724000D01*
X134579145Y-75720860D01*
X134515382Y-75714580D01*
X134411900Y-75683189D01*
X134392664Y-75677354D01*
X134279575Y-75616906D01*
X134180446Y-75535554D01*
X134099094Y-75436425D01*
X134038646Y-75323336D01*
X134028960Y-75291404D01*
X134001420Y-75200618D01*
X133988851Y-75073000D01*
X134001420Y-74945382D01*
X134038645Y-74822668D01*
X134038646Y-74822664D01*
X134099094Y-74709575D01*
X134180446Y-74610446D01*
X134279575Y-74529094D01*
X134392664Y-74468646D01*
X134424596Y-74458960D01*
X134515382Y-74431420D01*
X134579145Y-74425140D01*
X134611026Y-74422000D01*
X135374974Y-74422000D01*
X135406855Y-74425140D01*
G37*
G36*
X168549684Y-71988955D02*
G01*
X168714815Y-72039047D01*
X168866993Y-72120388D01*
X169000383Y-72229857D01*
X169109852Y-72363247D01*
X169191193Y-72515425D01*
X169241285Y-72680556D01*
X169258198Y-72852280D01*
X169241285Y-73024004D01*
X169191193Y-73189135D01*
X169109852Y-73341313D01*
X169000383Y-73474703D01*
X168866993Y-73584172D01*
X168714815Y-73665513D01*
X168549684Y-73715605D01*
X168420992Y-73728280D01*
X167234928Y-73728280D01*
X167106236Y-73715605D01*
X166941105Y-73665513D01*
X166788927Y-73584172D01*
X166655537Y-73474703D01*
X166546068Y-73341313D01*
X166464727Y-73189135D01*
X166414635Y-73024004D01*
X166397722Y-72852280D01*
X166414635Y-72680556D01*
X166464727Y-72515425D01*
X166546068Y-72363247D01*
X166655537Y-72229857D01*
X166788927Y-72120388D01*
X166941105Y-72039047D01*
X167106236Y-71988955D01*
X167234928Y-71976280D01*
X168420992Y-71976280D01*
X168549684Y-71988955D01*
G37*
G36*
X171770404Y-71973715D02*
G01*
X171935535Y-72023807D01*
X172087713Y-72105148D01*
X172221103Y-72214617D01*
X172330572Y-72348007D01*
X172411913Y-72500185D01*
X172462005Y-72665316D01*
X172478918Y-72837040D01*
X172462005Y-73008764D01*
X172411913Y-73173895D01*
X172330572Y-73326073D01*
X172221103Y-73459463D01*
X172087713Y-73568932D01*
X171935535Y-73650273D01*
X171770404Y-73700365D01*
X171641712Y-73713040D01*
X170455648Y-73713040D01*
X170326956Y-73700365D01*
X170161825Y-73650273D01*
X170009647Y-73568932D01*
X169876257Y-73459463D01*
X169766788Y-73326073D01*
X169685447Y-73173895D01*
X169635355Y-73008764D01*
X169618442Y-72837040D01*
X169635355Y-72665316D01*
X169685447Y-72500185D01*
X169766788Y-72348007D01*
X169876257Y-72214617D01*
X170009647Y-72105148D01*
X170161825Y-72023807D01*
X170326956Y-71973715D01*
X170455648Y-71961040D01*
X171641712Y-71961040D01*
X171770404Y-71973715D01*
G37*
G36*
X165080044Y-71973715D02*
G01*
X165245175Y-72023807D01*
X165397353Y-72105148D01*
X165530743Y-72214617D01*
X165640212Y-72348007D01*
X165721553Y-72500185D01*
X165771645Y-72665316D01*
X165788558Y-72837040D01*
X165771645Y-73008764D01*
X165721553Y-73173895D01*
X165640212Y-73326073D01*
X165530743Y-73459463D01*
X165397353Y-73568932D01*
X165245175Y-73650273D01*
X165080044Y-73700365D01*
X164951352Y-73713040D01*
X163765288Y-73713040D01*
X163636596Y-73700365D01*
X163471465Y-73650273D01*
X163319287Y-73568932D01*
X163185897Y-73459463D01*
X163076428Y-73326073D01*
X162995087Y-73173895D01*
X162944995Y-73008764D01*
X162928082Y-72837040D01*
X162944995Y-72665316D01*
X162995087Y-72500185D01*
X163076428Y-72348007D01*
X163185897Y-72214617D01*
X163319287Y-72105148D01*
X163471465Y-72023807D01*
X163636596Y-71973715D01*
X163765288Y-71961040D01*
X164951352Y-71961040D01*
X165080044Y-71973715D01*
G37*
G36*
X151269000Y-72783000D02*
G01*
X149467000Y-72783000D01*
X149467000Y-70981000D01*
X151269000Y-70981000D01*
X151269000Y-72783000D01*
G37*
G36*
X170659284Y-68697149D02*
G01*
X170850553Y-68776375D01*
X170850555Y-68776376D01*
X170999885Y-68876155D01*
X171022693Y-68891395D01*
X171169085Y-69037787D01*
X171284105Y-69209927D01*
X171363331Y-69401196D01*
X171403720Y-69604244D01*
X171403720Y-69811276D01*
X171363331Y-70014324D01*
X171290417Y-70190355D01*
X171284104Y-70205595D01*
X171169085Y-70377733D01*
X171022693Y-70524125D01*
X170850555Y-70639144D01*
X170850554Y-70639145D01*
X170850553Y-70639145D01*
X170659284Y-70718371D01*
X170456236Y-70758760D01*
X170249204Y-70758760D01*
X170046156Y-70718371D01*
X169854887Y-70639145D01*
X169854886Y-70639145D01*
X169854885Y-70639144D01*
X169682747Y-70524125D01*
X169536355Y-70377733D01*
X169421336Y-70205595D01*
X169415023Y-70190355D01*
X169342109Y-70014324D01*
X169301720Y-69811276D01*
X169301720Y-69604244D01*
X169342109Y-69401196D01*
X169421335Y-69209927D01*
X169536355Y-69037787D01*
X169682747Y-68891395D01*
X169705555Y-68876155D01*
X169854885Y-68776376D01*
X169854887Y-68776375D01*
X170046156Y-68697149D01*
X170249204Y-68656760D01*
X170456236Y-68656760D01*
X170659284Y-68697149D01*
G37*
G36*
X160413000Y-70751000D02*
G01*
X158611000Y-70751000D01*
X158611000Y-68949000D01*
X160413000Y-68949000D01*
X160413000Y-70751000D01*
G37*
G36*
X164649644Y-68681909D02*
G01*
X164840913Y-68761135D01*
X164840915Y-68761136D01*
X164863723Y-68776376D01*
X165013053Y-68876155D01*
X165159445Y-69022547D01*
X165274465Y-69194687D01*
X165353691Y-69385956D01*
X165394080Y-69589004D01*
X165394080Y-69796036D01*
X165353691Y-69999084D01*
X165274465Y-70190353D01*
X165274464Y-70190355D01*
X165159445Y-70362493D01*
X165013053Y-70508885D01*
X164840915Y-70623904D01*
X164840914Y-70623905D01*
X164840913Y-70623905D01*
X164649644Y-70703131D01*
X164446596Y-70743520D01*
X164239564Y-70743520D01*
X164036516Y-70703131D01*
X163845247Y-70623905D01*
X163845246Y-70623905D01*
X163845245Y-70623904D01*
X163673107Y-70508885D01*
X163526715Y-70362493D01*
X163411696Y-70190355D01*
X163411695Y-70190353D01*
X163332469Y-69999084D01*
X163292080Y-69796036D01*
X163292080Y-69589004D01*
X163332469Y-69385956D01*
X163411695Y-69194687D01*
X163526715Y-69022547D01*
X163673107Y-68876155D01*
X163822437Y-68776376D01*
X163845245Y-68761136D01*
X163845247Y-68761135D01*
X164036516Y-68681909D01*
X164239564Y-68641520D01*
X164446596Y-68641520D01*
X164649644Y-68681909D01*
G37*
G36*
X159625512Y-66413927D02*
G01*
X159774812Y-66443624D01*
X159938784Y-66511544D01*
X160086354Y-66610147D01*
X160211853Y-66735646D01*
X160310456Y-66883216D01*
X160378376Y-67047188D01*
X160413000Y-67221259D01*
X160413000Y-67398741D01*
X160378376Y-67572812D01*
X160310456Y-67736784D01*
X160211853Y-67884354D01*
X160086354Y-68009853D01*
X159938784Y-68108456D01*
X159774812Y-68176376D01*
X159625512Y-68206073D01*
X159600742Y-68211000D01*
X159423258Y-68211000D01*
X159398488Y-68206073D01*
X159249188Y-68176376D01*
X159085216Y-68108456D01*
X158937646Y-68009853D01*
X158812147Y-67884354D01*
X158713544Y-67736784D01*
X158645624Y-67572812D01*
X158611000Y-67398741D01*
X158611000Y-67221259D01*
X158645624Y-67047188D01*
X158713544Y-66883216D01*
X158812147Y-66735646D01*
X158937646Y-66610147D01*
X159085216Y-66511544D01*
X159249188Y-66443624D01*
X159398488Y-66413927D01*
X159423258Y-66409000D01*
X159600742Y-66409000D01*
X159625512Y-66413927D01*
G37*
G36*
X171770404Y-65694835D02*
G01*
X171935535Y-65744927D01*
X172087713Y-65826268D01*
X172221103Y-65935737D01*
X172330572Y-66069127D01*
X172411913Y-66221305D01*
X172462005Y-66386436D01*
X172478918Y-66558160D01*
X172462005Y-66729884D01*
X172411913Y-66895015D01*
X172330572Y-67047193D01*
X172221103Y-67180583D01*
X172087713Y-67290052D01*
X171935535Y-67371393D01*
X171770404Y-67421485D01*
X171641712Y-67434160D01*
X170455648Y-67434160D01*
X170326956Y-67421485D01*
X170161825Y-67371393D01*
X170009647Y-67290052D01*
X169876257Y-67180583D01*
X169766788Y-67047193D01*
X169685447Y-66895015D01*
X169635355Y-66729884D01*
X169618442Y-66558160D01*
X169635355Y-66386436D01*
X169685447Y-66221305D01*
X169766788Y-66069127D01*
X169876257Y-65935737D01*
X170009647Y-65826268D01*
X170161825Y-65744927D01*
X170326956Y-65694835D01*
X170455648Y-65682160D01*
X171641712Y-65682160D01*
X171770404Y-65694835D01*
G37*
G36*
X165049564Y-65669435D02*
G01*
X165214695Y-65719527D01*
X165366873Y-65800868D01*
X165500263Y-65910337D01*
X165609732Y-66043727D01*
X165691073Y-66195905D01*
X165741165Y-66361036D01*
X165758078Y-66532760D01*
X165741165Y-66704484D01*
X165691073Y-66869615D01*
X165609732Y-67021793D01*
X165500263Y-67155183D01*
X165366873Y-67264652D01*
X165214695Y-67345993D01*
X165049564Y-67396085D01*
X164920872Y-67408760D01*
X163734808Y-67408760D01*
X163606116Y-67396085D01*
X163440985Y-67345993D01*
X163288807Y-67264652D01*
X163155417Y-67155183D01*
X163045948Y-67021793D01*
X162964607Y-66869615D01*
X162914515Y-66704484D01*
X162897602Y-66532760D01*
X162914515Y-66361036D01*
X162964607Y-66195905D01*
X163045948Y-66043727D01*
X163155417Y-65910337D01*
X163288807Y-65800868D01*
X163440985Y-65719527D01*
X163606116Y-65669435D01*
X163734808Y-65656760D01*
X164920872Y-65656760D01*
X165049564Y-65669435D01*
G37*
M02*
