G04 #@! TF.GenerationSoftware,KiCad,Pcbnew,5.1.6+dfsg1-1*
G04 #@! TF.CreationDate,2021-02-27T20:02:43-07:00*
G04 #@! TF.ProjectId,CurrentSensorV1,43757272-656e-4745-9365-6e736f725631,rev?*
G04 #@! TF.SameCoordinates,Original*
G04 #@! TF.FileFunction,Copper,L1,Top*
G04 #@! TF.FilePolarity,Positive*
%FSLAX46Y46*%
G04 Gerber Fmt 4.6, Leading zero omitted, Abs format (unit mm)*
G04 Created by KiCad (PCBNEW 5.1.6+dfsg1-1) date 2021-02-27 20:02:44*
%MOMM*%
%LPD*%
G01*
G04 APERTURE LIST*
G04 #@! TA.AperFunction,ComponentPad*
%ADD10O,2.750000X1.650000*%
G04 #@! TD*
G04 #@! TA.AperFunction,SMDPad,CuDef*
%ADD11R,1.699999X1.000001*%
G04 #@! TD*
G04 #@! TA.AperFunction,SMDPad,CuDef*
%ADD12R,1.500000X2.000000*%
G04 #@! TD*
G04 #@! TA.AperFunction,SMDPad,CuDef*
%ADD13R,3.800000X2.000000*%
G04 #@! TD*
G04 #@! TA.AperFunction,ComponentPad*
%ADD14R,1.700000X1.700000*%
G04 #@! TD*
G04 #@! TA.AperFunction,SMDPad,CuDef*
%ADD15R,1.200000X0.900000*%
G04 #@! TD*
G04 #@! TA.AperFunction,ComponentPad*
%ADD16O,1.250000X1.050000*%
G04 #@! TD*
G04 #@! TA.AperFunction,SMDPad,CuDef*
%ADD17R,0.100000X0.500000*%
G04 #@! TD*
G04 #@! TA.AperFunction,ComponentPad*
%ADD18O,1.900000X1.200000*%
G04 #@! TD*
G04 #@! TA.AperFunction,SMDPad,CuDef*
%ADD19R,1.900000X1.260000*%
G04 #@! TD*
G04 #@! TA.AperFunction,SMDPad,CuDef*
%ADD20R,1.900000X1.800000*%
G04 #@! TD*
G04 #@! TA.AperFunction,SMDPad,CuDef*
%ADD21R,1.778000X0.400050*%
G04 #@! TD*
G04 #@! TA.AperFunction,ComponentPad*
%ADD22O,1.700000X1.700000*%
G04 #@! TD*
G04 #@! TA.AperFunction,ViaPad*
%ADD23C,0.800000*%
G04 #@! TD*
G04 #@! TA.AperFunction,Conductor*
%ADD24C,0.400000*%
G04 #@! TD*
G04 #@! TA.AperFunction,Conductor*
%ADD25C,0.250000*%
G04 #@! TD*
G04 #@! TA.AperFunction,Conductor*
%ADD26C,0.254000*%
G04 #@! TD*
G04 APERTURE END LIST*
D10*
X164327840Y-66532760D03*
X164358320Y-72837040D03*
X167827960Y-72852280D03*
X171048680Y-66558160D03*
X171048680Y-72837040D03*
X164327840Y-84312760D03*
X164358320Y-90617040D03*
X167827960Y-90632280D03*
X171048680Y-84338160D03*
X171048680Y-90617040D03*
D11*
X153517996Y-66425999D03*
X147217999Y-66425999D03*
X153517996Y-70225996D03*
X147217999Y-70225996D03*
D12*
X160034000Y-76860000D03*
X155434000Y-76860000D03*
X157734000Y-76860000D03*
D13*
X157734000Y-83160000D03*
G04 #@! TA.AperFunction,SMDPad,CuDef*
G36*
G01*
X167435000Y-79665000D02*
X167435000Y-79815000D01*
G75*
G02*
X167360000Y-79890000I-75000J0D01*
G01*
X166060000Y-79890000D01*
G75*
G02*
X165985000Y-79815000I0J75000D01*
G01*
X165985000Y-79665000D01*
G75*
G02*
X166060000Y-79590000I75000J0D01*
G01*
X167360000Y-79590000D01*
G75*
G02*
X167435000Y-79665000I0J-75000D01*
G01*
G37*
G04 #@! TD.AperFunction*
G04 #@! TA.AperFunction,SMDPad,CuDef*
G36*
G01*
X167435000Y-79165000D02*
X167435000Y-79315000D01*
G75*
G02*
X167360000Y-79390000I-75000J0D01*
G01*
X166060000Y-79390000D01*
G75*
G02*
X165985000Y-79315000I0J75000D01*
G01*
X165985000Y-79165000D01*
G75*
G02*
X166060000Y-79090000I75000J0D01*
G01*
X167360000Y-79090000D01*
G75*
G02*
X167435000Y-79165000I0J-75000D01*
G01*
G37*
G04 #@! TD.AperFunction*
G04 #@! TA.AperFunction,SMDPad,CuDef*
G36*
G01*
X167435000Y-78665000D02*
X167435000Y-78815000D01*
G75*
G02*
X167360000Y-78890000I-75000J0D01*
G01*
X166060000Y-78890000D01*
G75*
G02*
X165985000Y-78815000I0J75000D01*
G01*
X165985000Y-78665000D01*
G75*
G02*
X166060000Y-78590000I75000J0D01*
G01*
X167360000Y-78590000D01*
G75*
G02*
X167435000Y-78665000I0J-75000D01*
G01*
G37*
G04 #@! TD.AperFunction*
G04 #@! TA.AperFunction,SMDPad,CuDef*
G36*
G01*
X167435000Y-78165000D02*
X167435000Y-78315000D01*
G75*
G02*
X167360000Y-78390000I-75000J0D01*
G01*
X166060000Y-78390000D01*
G75*
G02*
X165985000Y-78315000I0J75000D01*
G01*
X165985000Y-78165000D01*
G75*
G02*
X166060000Y-78090000I75000J0D01*
G01*
X167360000Y-78090000D01*
G75*
G02*
X167435000Y-78165000I0J-75000D01*
G01*
G37*
G04 #@! TD.AperFunction*
G04 #@! TA.AperFunction,SMDPad,CuDef*
G36*
G01*
X167435000Y-77665000D02*
X167435000Y-77815000D01*
G75*
G02*
X167360000Y-77890000I-75000J0D01*
G01*
X166060000Y-77890000D01*
G75*
G02*
X165985000Y-77815000I0J75000D01*
G01*
X165985000Y-77665000D01*
G75*
G02*
X166060000Y-77590000I75000J0D01*
G01*
X167360000Y-77590000D01*
G75*
G02*
X167435000Y-77665000I0J-75000D01*
G01*
G37*
G04 #@! TD.AperFunction*
G04 #@! TA.AperFunction,SMDPad,CuDef*
G36*
G01*
X171835000Y-77665000D02*
X171835000Y-77815000D01*
G75*
G02*
X171760000Y-77890000I-75000J0D01*
G01*
X170460000Y-77890000D01*
G75*
G02*
X170385000Y-77815000I0J75000D01*
G01*
X170385000Y-77665000D01*
G75*
G02*
X170460000Y-77590000I75000J0D01*
G01*
X171760000Y-77590000D01*
G75*
G02*
X171835000Y-77665000I0J-75000D01*
G01*
G37*
G04 #@! TD.AperFunction*
G04 #@! TA.AperFunction,SMDPad,CuDef*
G36*
G01*
X171835000Y-78165000D02*
X171835000Y-78315000D01*
G75*
G02*
X171760000Y-78390000I-75000J0D01*
G01*
X170460000Y-78390000D01*
G75*
G02*
X170385000Y-78315000I0J75000D01*
G01*
X170385000Y-78165000D01*
G75*
G02*
X170460000Y-78090000I75000J0D01*
G01*
X171760000Y-78090000D01*
G75*
G02*
X171835000Y-78165000I0J-75000D01*
G01*
G37*
G04 #@! TD.AperFunction*
G04 #@! TA.AperFunction,SMDPad,CuDef*
G36*
G01*
X171835000Y-78665000D02*
X171835000Y-78815000D01*
G75*
G02*
X171760000Y-78890000I-75000J0D01*
G01*
X170460000Y-78890000D01*
G75*
G02*
X170385000Y-78815000I0J75000D01*
G01*
X170385000Y-78665000D01*
G75*
G02*
X170460000Y-78590000I75000J0D01*
G01*
X171760000Y-78590000D01*
G75*
G02*
X171835000Y-78665000I0J-75000D01*
G01*
G37*
G04 #@! TD.AperFunction*
G04 #@! TA.AperFunction,SMDPad,CuDef*
G36*
G01*
X171835000Y-79165000D02*
X171835000Y-79315000D01*
G75*
G02*
X171760000Y-79390000I-75000J0D01*
G01*
X170460000Y-79390000D01*
G75*
G02*
X170385000Y-79315000I0J75000D01*
G01*
X170385000Y-79165000D01*
G75*
G02*
X170460000Y-79090000I75000J0D01*
G01*
X171760000Y-79090000D01*
G75*
G02*
X171835000Y-79165000I0J-75000D01*
G01*
G37*
G04 #@! TD.AperFunction*
G04 #@! TA.AperFunction,SMDPad,CuDef*
G36*
G01*
X171835000Y-79665000D02*
X171835000Y-79815000D01*
G75*
G02*
X171760000Y-79890000I-75000J0D01*
G01*
X170460000Y-79890000D01*
G75*
G02*
X170385000Y-79815000I0J75000D01*
G01*
X170385000Y-79665000D01*
G75*
G02*
X170460000Y-79590000I75000J0D01*
G01*
X171760000Y-79590000D01*
G75*
G02*
X171835000Y-79665000I0J-75000D01*
G01*
G37*
G04 #@! TD.AperFunction*
D14*
X150368000Y-71882000D03*
X157734000Y-80010000D03*
G04 #@! TA.AperFunction,SMDPad,CuDef*
G36*
G01*
X146301750Y-76042000D02*
X146814250Y-76042000D01*
G75*
G02*
X147033000Y-76260750I0J-218750D01*
G01*
X147033000Y-76698250D01*
G75*
G02*
X146814250Y-76917000I-218750J0D01*
G01*
X146301750Y-76917000D01*
G75*
G02*
X146083000Y-76698250I0J218750D01*
G01*
X146083000Y-76260750D01*
G75*
G02*
X146301750Y-76042000I218750J0D01*
G01*
G37*
G04 #@! TD.AperFunction*
G04 #@! TA.AperFunction,SMDPad,CuDef*
G36*
G01*
X146301750Y-74467000D02*
X146814250Y-74467000D01*
G75*
G02*
X147033000Y-74685750I0J-218750D01*
G01*
X147033000Y-75123250D01*
G75*
G02*
X146814250Y-75342000I-218750J0D01*
G01*
X146301750Y-75342000D01*
G75*
G02*
X146083000Y-75123250I0J218750D01*
G01*
X146083000Y-74685750D01*
G75*
G02*
X146301750Y-74467000I218750J0D01*
G01*
G37*
G04 #@! TD.AperFunction*
G04 #@! TA.AperFunction,SMDPad,CuDef*
G36*
G01*
X141221750Y-84170000D02*
X141734250Y-84170000D01*
G75*
G02*
X141953000Y-84388750I0J-218750D01*
G01*
X141953000Y-84826250D01*
G75*
G02*
X141734250Y-85045000I-218750J0D01*
G01*
X141221750Y-85045000D01*
G75*
G02*
X141003000Y-84826250I0J218750D01*
G01*
X141003000Y-84388750D01*
G75*
G02*
X141221750Y-84170000I218750J0D01*
G01*
G37*
G04 #@! TD.AperFunction*
G04 #@! TA.AperFunction,SMDPad,CuDef*
G36*
G01*
X141221750Y-82595000D02*
X141734250Y-82595000D01*
G75*
G02*
X141953000Y-82813750I0J-218750D01*
G01*
X141953000Y-83251250D01*
G75*
G02*
X141734250Y-83470000I-218750J0D01*
G01*
X141221750Y-83470000D01*
G75*
G02*
X141003000Y-83251250I0J218750D01*
G01*
X141003000Y-82813750D01*
G75*
G02*
X141221750Y-82595000I218750J0D01*
G01*
G37*
G04 #@! TD.AperFunction*
G04 #@! TA.AperFunction,SMDPad,CuDef*
G36*
G01*
X143761750Y-84170000D02*
X144274250Y-84170000D01*
G75*
G02*
X144493000Y-84388750I0J-218750D01*
G01*
X144493000Y-84826250D01*
G75*
G02*
X144274250Y-85045000I-218750J0D01*
G01*
X143761750Y-85045000D01*
G75*
G02*
X143543000Y-84826250I0J218750D01*
G01*
X143543000Y-84388750D01*
G75*
G02*
X143761750Y-84170000I218750J0D01*
G01*
G37*
G04 #@! TD.AperFunction*
G04 #@! TA.AperFunction,SMDPad,CuDef*
G36*
G01*
X143761750Y-82595000D02*
X144274250Y-82595000D01*
G75*
G02*
X144493000Y-82813750I0J-218750D01*
G01*
X144493000Y-83251250D01*
G75*
G02*
X144274250Y-83470000I-218750J0D01*
G01*
X143761750Y-83470000D01*
G75*
G02*
X143543000Y-83251250I0J218750D01*
G01*
X143543000Y-82813750D01*
G75*
G02*
X143761750Y-82595000I218750J0D01*
G01*
G37*
G04 #@! TD.AperFunction*
G04 #@! TA.AperFunction,SMDPad,CuDef*
G36*
G01*
X171354000Y-81277750D02*
X171354000Y-81790250D01*
G75*
G02*
X171135250Y-82009000I-218750J0D01*
G01*
X170697750Y-82009000D01*
G75*
G02*
X170479000Y-81790250I0J218750D01*
G01*
X170479000Y-81277750D01*
G75*
G02*
X170697750Y-81059000I218750J0D01*
G01*
X171135250Y-81059000D01*
G75*
G02*
X171354000Y-81277750I0J-218750D01*
G01*
G37*
G04 #@! TD.AperFunction*
G04 #@! TA.AperFunction,SMDPad,CuDef*
G36*
G01*
X172929000Y-81277750D02*
X172929000Y-81790250D01*
G75*
G02*
X172710250Y-82009000I-218750J0D01*
G01*
X172272750Y-82009000D01*
G75*
G02*
X172054000Y-81790250I0J218750D01*
G01*
X172054000Y-81277750D01*
G75*
G02*
X172272750Y-81059000I218750J0D01*
G01*
X172710250Y-81059000D01*
G75*
G02*
X172929000Y-81277750I0J-218750D01*
G01*
G37*
G04 #@! TD.AperFunction*
G04 #@! TA.AperFunction,SMDPad,CuDef*
G36*
G01*
X163926000Y-81028250D02*
X163926000Y-80515750D01*
G75*
G02*
X164144750Y-80297000I218750J0D01*
G01*
X164582250Y-80297000D01*
G75*
G02*
X164801000Y-80515750I0J-218750D01*
G01*
X164801000Y-81028250D01*
G75*
G02*
X164582250Y-81247000I-218750J0D01*
G01*
X164144750Y-81247000D01*
G75*
G02*
X163926000Y-81028250I0J218750D01*
G01*
G37*
G04 #@! TD.AperFunction*
G04 #@! TA.AperFunction,SMDPad,CuDef*
G36*
G01*
X162351000Y-81028250D02*
X162351000Y-80515750D01*
G75*
G02*
X162569750Y-80297000I218750J0D01*
G01*
X163007250Y-80297000D01*
G75*
G02*
X163226000Y-80515750I0J-218750D01*
G01*
X163226000Y-81028250D01*
G75*
G02*
X163007250Y-81247000I-218750J0D01*
G01*
X162569750Y-81247000D01*
G75*
G02*
X162351000Y-81028250I0J218750D01*
G01*
G37*
G04 #@! TD.AperFunction*
G04 #@! TA.AperFunction,SMDPad,CuDef*
G36*
G01*
X163926000Y-78234250D02*
X163926000Y-77721750D01*
G75*
G02*
X164144750Y-77503000I218750J0D01*
G01*
X164582250Y-77503000D01*
G75*
G02*
X164801000Y-77721750I0J-218750D01*
G01*
X164801000Y-78234250D01*
G75*
G02*
X164582250Y-78453000I-218750J0D01*
G01*
X164144750Y-78453000D01*
G75*
G02*
X163926000Y-78234250I0J218750D01*
G01*
G37*
G04 #@! TD.AperFunction*
G04 #@! TA.AperFunction,SMDPad,CuDef*
G36*
G01*
X162351000Y-78234250D02*
X162351000Y-77721750D01*
G75*
G02*
X162569750Y-77503000I218750J0D01*
G01*
X163007250Y-77503000D01*
G75*
G02*
X163226000Y-77721750I0J-218750D01*
G01*
X163226000Y-78234250D01*
G75*
G02*
X163007250Y-78453000I-218750J0D01*
G01*
X162569750Y-78453000D01*
G75*
G02*
X162351000Y-78234250I0J218750D01*
G01*
G37*
G04 #@! TD.AperFunction*
G04 #@! TA.AperFunction,SMDPad,CuDef*
G36*
G01*
X140774000Y-78283750D02*
X140774000Y-79196250D01*
G75*
G02*
X140530250Y-79440000I-243750J0D01*
G01*
X140042750Y-79440000D01*
G75*
G02*
X139799000Y-79196250I0J243750D01*
G01*
X139799000Y-78283750D01*
G75*
G02*
X140042750Y-78040000I243750J0D01*
G01*
X140530250Y-78040000D01*
G75*
G02*
X140774000Y-78283750I0J-243750D01*
G01*
G37*
G04 #@! TD.AperFunction*
G04 #@! TA.AperFunction,SMDPad,CuDef*
G36*
G01*
X142649000Y-78283750D02*
X142649000Y-79196250D01*
G75*
G02*
X142405250Y-79440000I-243750J0D01*
G01*
X141917750Y-79440000D01*
G75*
G02*
X141674000Y-79196250I0J243750D01*
G01*
X141674000Y-78283750D01*
G75*
G02*
X141917750Y-78040000I243750J0D01*
G01*
X142405250Y-78040000D01*
G75*
G02*
X142649000Y-78283750I0J-243750D01*
G01*
G37*
G04 #@! TD.AperFunction*
G04 #@! TA.AperFunction,SMDPad,CuDef*
G36*
G01*
X140695500Y-80569750D02*
X140695500Y-81482250D01*
G75*
G02*
X140451750Y-81726000I-243750J0D01*
G01*
X139964250Y-81726000D01*
G75*
G02*
X139720500Y-81482250I0J243750D01*
G01*
X139720500Y-80569750D01*
G75*
G02*
X139964250Y-80326000I243750J0D01*
G01*
X140451750Y-80326000D01*
G75*
G02*
X140695500Y-80569750I0J-243750D01*
G01*
G37*
G04 #@! TD.AperFunction*
G04 #@! TA.AperFunction,SMDPad,CuDef*
G36*
G01*
X142570500Y-80569750D02*
X142570500Y-81482250D01*
G75*
G02*
X142326750Y-81726000I-243750J0D01*
G01*
X141839250Y-81726000D01*
G75*
G02*
X141595500Y-81482250I0J243750D01*
G01*
X141595500Y-80569750D01*
G75*
G02*
X141839250Y-80326000I243750J0D01*
G01*
X142326750Y-80326000D01*
G75*
G02*
X142570500Y-80569750I0J-243750D01*
G01*
G37*
G04 #@! TD.AperFunction*
D15*
X146050000Y-81406000D03*
X146050000Y-78106000D03*
G04 #@! TA.AperFunction,SMDPad,CuDef*
G36*
G01*
X146047750Y-84170000D02*
X146560250Y-84170000D01*
G75*
G02*
X146779000Y-84388750I0J-218750D01*
G01*
X146779000Y-84826250D01*
G75*
G02*
X146560250Y-85045000I-218750J0D01*
G01*
X146047750Y-85045000D01*
G75*
G02*
X145829000Y-84826250I0J218750D01*
G01*
X145829000Y-84388750D01*
G75*
G02*
X146047750Y-84170000I218750J0D01*
G01*
G37*
G04 #@! TD.AperFunction*
G04 #@! TA.AperFunction,SMDPad,CuDef*
G36*
G01*
X146047750Y-82595000D02*
X146560250Y-82595000D01*
G75*
G02*
X146779000Y-82813750I0J-218750D01*
G01*
X146779000Y-83251250D01*
G75*
G02*
X146560250Y-83470000I-218750J0D01*
G01*
X146047750Y-83470000D01*
G75*
G02*
X145829000Y-83251250I0J218750D01*
G01*
X145829000Y-82813750D01*
G75*
G02*
X146047750Y-82595000I218750J0D01*
G01*
G37*
G04 #@! TD.AperFunction*
G04 #@! TA.AperFunction,SMDPad,CuDef*
G36*
G01*
X163004000Y-74848500D02*
X163004000Y-74503500D01*
G75*
G02*
X163151500Y-74356000I147500J0D01*
G01*
X163446500Y-74356000D01*
G75*
G02*
X163594000Y-74503500I0J-147500D01*
G01*
X163594000Y-74848500D01*
G75*
G02*
X163446500Y-74996000I-147500J0D01*
G01*
X163151500Y-74996000D01*
G75*
G02*
X163004000Y-74848500I0J147500D01*
G01*
G37*
G04 #@! TD.AperFunction*
G04 #@! TA.AperFunction,SMDPad,CuDef*
G36*
G01*
X162034000Y-74848500D02*
X162034000Y-74503500D01*
G75*
G02*
X162181500Y-74356000I147500J0D01*
G01*
X162476500Y-74356000D01*
G75*
G02*
X162624000Y-74503500I0J-147500D01*
G01*
X162624000Y-74848500D01*
G75*
G02*
X162476500Y-74996000I-147500J0D01*
G01*
X162181500Y-74996000D01*
G75*
G02*
X162034000Y-74848500I0J147500D01*
G01*
G37*
G04 #@! TD.AperFunction*
G04 #@! TA.AperFunction,SMDPad,CuDef*
G36*
G01*
X141050000Y-70650000D02*
X141050000Y-69050000D01*
G75*
G02*
X141300000Y-68800000I250000J0D01*
G01*
X145300000Y-68800000D01*
G75*
G02*
X145550000Y-69050000I0J-250000D01*
G01*
X145550000Y-70650000D01*
G75*
G02*
X145300000Y-70900000I-250000J0D01*
G01*
X141300000Y-70900000D01*
G75*
G02*
X141050000Y-70650000I0J250000D01*
G01*
G37*
G04 #@! TD.AperFunction*
G04 #@! TA.AperFunction,SMDPad,CuDef*
G36*
G01*
X133850000Y-70650000D02*
X133850000Y-69050000D01*
G75*
G02*
X134100000Y-68800000I250000J0D01*
G01*
X138100000Y-68800000D01*
G75*
G02*
X138350000Y-69050000I0J-250000D01*
G01*
X138350000Y-70650000D01*
G75*
G02*
X138100000Y-70900000I-250000J0D01*
G01*
X134100000Y-70900000D01*
G75*
G02*
X133850000Y-70650000I0J250000D01*
G01*
G37*
G04 #@! TD.AperFunction*
G04 #@! TA.AperFunction,SMDPad,CuDef*
G36*
G01*
X162624000Y-75773500D02*
X162624000Y-76118500D01*
G75*
G02*
X162476500Y-76266000I-147500J0D01*
G01*
X162181500Y-76266000D01*
G75*
G02*
X162034000Y-76118500I0J147500D01*
G01*
X162034000Y-75773500D01*
G75*
G02*
X162181500Y-75626000I147500J0D01*
G01*
X162476500Y-75626000D01*
G75*
G02*
X162624000Y-75773500I0J-147500D01*
G01*
G37*
G04 #@! TD.AperFunction*
G04 #@! TA.AperFunction,SMDPad,CuDef*
G36*
G01*
X163594000Y-75773500D02*
X163594000Y-76118500D01*
G75*
G02*
X163446500Y-76266000I-147500J0D01*
G01*
X163151500Y-76266000D01*
G75*
G02*
X163004000Y-76118500I0J147500D01*
G01*
X163004000Y-75773500D01*
G75*
G02*
X163151500Y-75626000I147500J0D01*
G01*
X163446500Y-75626000D01*
G75*
G02*
X163594000Y-75773500I0J-147500D01*
G01*
G37*
G04 #@! TD.AperFunction*
G04 #@! TA.AperFunction,SMDPad,CuDef*
G36*
G01*
X156605000Y-72480999D02*
X156605000Y-74331001D01*
G75*
G02*
X156355001Y-74581000I-249999J0D01*
G01*
X155529999Y-74581000D01*
G75*
G02*
X155280000Y-74331001I0J249999D01*
G01*
X155280000Y-72480999D01*
G75*
G02*
X155529999Y-72231000I249999J0D01*
G01*
X156355001Y-72231000D01*
G75*
G02*
X156605000Y-72480999I0J-249999D01*
G01*
G37*
G04 #@! TD.AperFunction*
G04 #@! TA.AperFunction,SMDPad,CuDef*
G36*
G01*
X159680000Y-72480999D02*
X159680000Y-74331001D01*
G75*
G02*
X159430001Y-74581000I-249999J0D01*
G01*
X158604999Y-74581000D01*
G75*
G02*
X158355000Y-74331001I0J249999D01*
G01*
X158355000Y-72480999D01*
G75*
G02*
X158604999Y-72231000I249999J0D01*
G01*
X159430001Y-72231000D01*
G75*
G02*
X159680000Y-72480999I0J-249999D01*
G01*
G37*
G04 #@! TD.AperFunction*
G04 #@! TA.AperFunction,SMDPad,CuDef*
G36*
G01*
X143591500Y-80200000D02*
X143936500Y-80200000D01*
G75*
G02*
X144084000Y-80347500I0J-147500D01*
G01*
X144084000Y-80642500D01*
G75*
G02*
X143936500Y-80790000I-147500J0D01*
G01*
X143591500Y-80790000D01*
G75*
G02*
X143444000Y-80642500I0J147500D01*
G01*
X143444000Y-80347500D01*
G75*
G02*
X143591500Y-80200000I147500J0D01*
G01*
G37*
G04 #@! TD.AperFunction*
G04 #@! TA.AperFunction,SMDPad,CuDef*
G36*
G01*
X143591500Y-79230000D02*
X143936500Y-79230000D01*
G75*
G02*
X144084000Y-79377500I0J-147500D01*
G01*
X144084000Y-79672500D01*
G75*
G02*
X143936500Y-79820000I-147500J0D01*
G01*
X143591500Y-79820000D01*
G75*
G02*
X143444000Y-79672500I0J147500D01*
G01*
X143444000Y-79377500D01*
G75*
G02*
X143591500Y-79230000I147500J0D01*
G01*
G37*
G04 #@! TD.AperFunction*
D16*
X137993000Y-77023000D03*
D17*
X134093000Y-75358000D03*
X135893000Y-75358000D03*
D18*
X134993000Y-75073000D03*
D19*
X134993000Y-76008000D03*
D17*
X134093000Y-83148000D03*
D20*
X134993000Y-80523000D03*
D21*
X137871200Y-77948000D03*
X137871200Y-80548000D03*
D20*
X134993000Y-77973000D03*
D18*
X134993000Y-83423000D03*
D19*
X134993000Y-82488000D03*
D17*
X135893000Y-83138000D03*
D16*
X137993000Y-81473000D03*
D14*
X141224000Y-75946000D03*
D11*
X134010004Y-91054001D03*
X140310001Y-91054001D03*
X134010004Y-87254004D03*
X140310001Y-87254004D03*
D22*
X149352000Y-83566000D03*
X149352000Y-81026000D03*
X149352000Y-78486000D03*
D14*
X149352000Y-75946000D03*
D22*
X159512000Y-67310000D03*
D14*
X159512000Y-69850000D03*
D22*
X159766000Y-86360000D03*
D14*
X159766000Y-88900000D03*
D22*
X151892000Y-75946000D03*
X151892000Y-78486000D03*
X151892000Y-81026000D03*
D14*
X151892000Y-83566000D03*
D22*
X143256000Y-88900000D03*
X145796000Y-88900000D03*
X148336000Y-88900000D03*
X150876000Y-88900000D03*
X153416000Y-88900000D03*
D14*
X155956000Y-88900000D03*
D23*
X157734000Y-83160000D03*
X162788500Y-80772000D03*
X164338000Y-76200000D03*
X155434000Y-76860000D03*
X157480000Y-73660000D03*
X164363500Y-80772000D03*
X169418000Y-78994000D03*
X162109686Y-74364314D03*
X160020000Y-76962000D03*
X141372440Y-85852000D03*
X147574000Y-76962000D03*
X171196000Y-77216000D03*
D24*
X148972000Y-78106000D02*
X149352000Y-78486000D01*
X146050000Y-78106000D02*
X148972000Y-78106000D01*
X146349499Y-74695999D02*
X140945999Y-74695999D01*
X140945999Y-74695999D02*
X136100000Y-69850000D01*
X146558000Y-74904500D02*
X146349499Y-74695999D01*
X145682990Y-75779510D02*
X146558000Y-74904500D01*
X145682990Y-77738990D02*
X145682990Y-75779510D01*
X146050000Y-78106000D02*
X145682990Y-77738990D01*
X157734000Y-76860000D02*
X157734000Y-80010000D01*
X157734000Y-80010000D02*
X157734000Y-83160000D01*
X157734000Y-78260000D02*
X157734000Y-76860000D01*
X156257999Y-79736001D02*
X157734000Y-78260000D01*
X150602001Y-79736001D02*
X156257999Y-79736001D01*
X149352000Y-78486000D02*
X150602001Y-79736001D01*
X163299000Y-75946000D02*
X163299000Y-74676000D01*
X163299000Y-75946000D02*
X163681560Y-75946000D01*
X162788500Y-78511500D02*
X162788500Y-77978000D01*
X162788500Y-80772000D02*
X162788500Y-78511500D01*
X162349000Y-73406000D02*
X159017500Y-73406000D01*
X163299000Y-74356000D02*
X162349000Y-73406000D01*
X163299000Y-74676000D02*
X163299000Y-74356000D01*
D25*
X164084000Y-75946000D02*
X163681560Y-75946000D01*
X164338000Y-76200000D02*
X164084000Y-75946000D01*
X165919298Y-78740000D02*
X165608000Y-78428702D01*
X166710000Y-78740000D02*
X165919298Y-78740000D01*
X165608000Y-77470000D02*
X164338000Y-76200000D01*
X165608000Y-78428702D02*
X165608000Y-77470000D01*
X162581499Y-78185001D02*
X162788500Y-77978000D01*
X157809001Y-78185001D02*
X162581499Y-78185001D01*
X157734000Y-78110000D02*
X157809001Y-78185001D01*
X157734000Y-76860000D02*
X157734000Y-78110000D01*
D24*
X144018000Y-83170042D02*
X144018000Y-83032500D01*
X144893010Y-84045052D02*
X144018000Y-83170042D01*
X144893010Y-85457010D02*
X144893010Y-84045052D01*
X148336000Y-88900000D02*
X144893010Y-85457010D01*
X140286500Y-76883500D02*
X141224000Y-75946000D01*
X140286500Y-78740000D02*
X140286500Y-76883500D01*
X140286500Y-78740000D02*
X139524500Y-77978000D01*
X137901200Y-77978000D02*
X137871200Y-77948000D01*
X139524500Y-77978000D02*
X137901200Y-77978000D01*
X163488490Y-77102990D02*
X164363500Y-77978000D01*
X162391692Y-77102990D02*
X163488490Y-77102990D01*
X161633990Y-75781990D02*
X161633990Y-76345288D01*
X161633990Y-76345288D02*
X162391692Y-77102990D01*
X161311999Y-75459999D02*
X161633990Y-75781990D01*
X154363999Y-75459999D02*
X161311999Y-75459999D01*
X151892000Y-77931998D02*
X154363999Y-75459999D01*
X151892000Y-78486000D02*
X151892000Y-77931998D01*
D25*
X164483510Y-78098010D02*
X164363500Y-77978000D01*
X164363500Y-78184202D02*
X164363500Y-77978000D01*
X165919298Y-79740000D02*
X164363500Y-78184202D01*
X166710000Y-79740000D02*
X165919298Y-79740000D01*
D24*
X147217999Y-66425999D02*
X153517996Y-66425999D01*
X160575499Y-84560001D02*
X164363500Y-80772000D01*
X155426001Y-84560001D02*
X160575499Y-84560001D01*
X151892000Y-81026000D02*
X155426001Y-84560001D01*
D25*
X166968702Y-80772000D02*
X164363500Y-80772000D01*
X167760010Y-79980692D02*
X166968702Y-80772000D01*
X167760010Y-79499308D02*
X167760010Y-79980692D01*
X167500702Y-79240000D02*
X167760010Y-79499308D01*
X166710000Y-79240000D02*
X167500702Y-79240000D01*
D24*
X157480000Y-70388003D02*
X153517996Y-66425999D01*
X157480000Y-73660000D02*
X157480000Y-70388003D01*
X143233000Y-81026000D02*
X143764000Y-80495000D01*
X142083000Y-81026000D02*
X143233000Y-81026000D01*
X143764000Y-79525000D02*
X143764000Y-79326500D01*
X142946500Y-79525000D02*
X142161500Y-78740000D01*
X143764000Y-79525000D02*
X142946500Y-79525000D01*
X139730000Y-80548000D02*
X140208000Y-81026000D01*
X137871200Y-80548000D02*
X139730000Y-80548000D01*
X134010004Y-91054001D02*
X140310001Y-91054001D01*
X141101999Y-91054001D02*
X143256000Y-88900000D01*
X140310001Y-91054001D02*
X141101999Y-91054001D01*
X146842003Y-69850000D02*
X147217999Y-70225996D01*
X143300000Y-69850000D02*
X146842003Y-69850000D01*
X148711996Y-70225996D02*
X150368000Y-71882000D01*
X147217999Y-70225996D02*
X148711996Y-70225996D01*
X151861992Y-71882000D02*
X153517996Y-70225996D01*
X150368000Y-71882000D02*
X151861992Y-71882000D01*
X151892000Y-73406000D02*
X150368000Y-71882000D01*
X151892000Y-75946000D02*
X151892000Y-73406000D01*
X136582199Y-79258999D02*
X137871200Y-80548000D01*
X136582199Y-74897972D02*
X136582199Y-79258999D01*
X133449990Y-71765763D02*
X136582199Y-74897972D01*
X133449990Y-68780754D02*
X133449990Y-71765763D01*
X133830754Y-68399990D02*
X133449990Y-68780754D01*
X141849990Y-68399990D02*
X133830754Y-68399990D01*
X143300000Y-69850000D02*
X141849990Y-68399990D01*
X162329000Y-74676000D02*
X162329000Y-75946000D01*
X153517996Y-70981496D02*
X153517996Y-70225996D01*
X155942500Y-73406000D02*
X153517996Y-70981496D01*
D25*
X172491500Y-81121500D02*
X171110000Y-79740000D01*
X172491500Y-81534000D02*
X172491500Y-81121500D01*
X171900702Y-79740000D02*
X171110000Y-79740000D01*
X172160010Y-79480692D02*
X171900702Y-79740000D01*
X172160010Y-78999308D02*
X172160010Y-79480692D01*
X171900702Y-78740000D02*
X172160010Y-78999308D01*
X171110000Y-78740000D02*
X171900702Y-78740000D01*
X169672000Y-78740000D02*
X169418000Y-78994000D01*
X171110000Y-78740000D02*
X169672000Y-78740000D01*
X162109686Y-74456686D02*
X162329000Y-74676000D01*
X162109686Y-74364314D02*
X162109686Y-74456686D01*
X160034000Y-76948000D02*
X160020000Y-76962000D01*
X160034000Y-76860000D02*
X160034000Y-76948000D01*
D24*
X141478000Y-82296000D02*
X140208000Y-81026000D01*
X141478000Y-83032500D02*
X141478000Y-82296000D01*
X140602990Y-85082550D02*
X141372440Y-85852000D01*
X140602990Y-83907510D02*
X140602990Y-85082550D01*
X141478000Y-83032500D02*
X140602990Y-83907510D01*
X141372440Y-85852000D02*
X141372440Y-85852000D01*
X145428990Y-83732490D02*
X146304000Y-84607500D01*
X145428990Y-83093430D02*
X145428990Y-83732490D01*
X144530550Y-82194990D02*
X145428990Y-83093430D01*
X143505450Y-82194990D02*
X144530550Y-82194990D01*
X143142990Y-82557450D02*
X143505450Y-82194990D01*
X143142990Y-82942510D02*
X143142990Y-82557450D01*
X141478000Y-84607500D02*
X143142990Y-82942510D01*
X154705999Y-90150001D02*
X155956000Y-88900000D01*
X150275999Y-90150001D02*
X154705999Y-90150001D01*
X149625999Y-89500001D02*
X150275999Y-90150001D01*
X149625999Y-87454499D02*
X149625999Y-89500001D01*
X146779000Y-84607500D02*
X149625999Y-87454499D01*
X146304000Y-84607500D02*
X146779000Y-84607500D01*
X146304000Y-81660000D02*
X146050000Y-81406000D01*
X146304000Y-83032500D02*
X146304000Y-81660000D01*
X148972000Y-81406000D02*
X149352000Y-81026000D01*
X146050000Y-81406000D02*
X148972000Y-81406000D01*
X147091500Y-76479500D02*
X147574000Y-76962000D01*
X146558000Y-76479500D02*
X147091500Y-76479500D01*
X150876000Y-84582000D02*
X151892000Y-83566000D01*
X150876000Y-88900000D02*
X150876000Y-84582000D01*
X171752721Y-85042201D02*
X171048680Y-84338160D01*
X171752721Y-89912999D02*
X171752721Y-85042201D01*
X171048680Y-90617040D02*
X171752721Y-89912999D01*
D25*
X171196000Y-77654000D02*
X171110000Y-77740000D01*
X171196000Y-77216000D02*
X171196000Y-77654000D01*
D24*
X163550600Y-67310000D02*
X164327840Y-66532760D01*
X159512000Y-67310000D02*
X163550600Y-67310000D01*
X165743081Y-71452279D02*
X164358320Y-72837040D01*
X165743081Y-67948001D02*
X165743081Y-71452279D01*
X164327840Y-66532760D02*
X165743081Y-67948001D01*
D25*
X166710000Y-75188720D02*
X164358320Y-72837040D01*
X166710000Y-77740000D02*
X166710000Y-75188720D01*
D24*
X171752721Y-67262201D02*
X171752721Y-72132999D01*
X171752721Y-72132999D02*
X171048680Y-72837040D01*
X171048680Y-66558160D02*
X171752721Y-67262201D01*
D25*
X171048680Y-74692022D02*
X171048680Y-72837040D01*
X167500702Y-78240000D02*
X171048680Y-74692022D01*
X166710000Y-78240000D02*
X167500702Y-78240000D01*
X170059990Y-79499308D02*
X170319298Y-79240000D01*
X170319298Y-79240000D02*
X171110000Y-79240000D01*
X170059990Y-80677490D02*
X170059990Y-79499308D01*
X170916500Y-81534000D02*
X170059990Y-80677490D01*
D24*
X134010004Y-87254004D02*
X140310001Y-87254004D01*
X141371496Y-87254004D02*
X144018000Y-84607500D01*
X140310001Y-87254004D02*
X141371496Y-87254004D01*
X165743081Y-85728001D02*
X164327840Y-84312760D01*
X165743081Y-89232279D02*
X165743081Y-85728001D01*
X164358320Y-90617040D02*
X165743081Y-89232279D01*
X161813240Y-84312760D02*
X159766000Y-86360000D01*
X164327840Y-84312760D02*
X161813240Y-84312760D01*
D25*
X171110000Y-78240000D02*
X170319298Y-78240000D01*
X169098998Y-78240000D02*
X171110000Y-78240000D01*
X168692999Y-78645999D02*
X169098998Y-78240000D01*
X168692999Y-81572601D02*
X168692999Y-78645999D01*
X165952840Y-84312760D02*
X168692999Y-81572601D01*
X164327840Y-84312760D02*
X165952840Y-84312760D01*
D26*
G36*
X154806560Y-85121428D02*
G01*
X154832710Y-85153292D01*
X154896799Y-85205888D01*
X154959855Y-85257637D01*
X155104914Y-85335173D01*
X155262312Y-85382919D01*
X155426000Y-85399041D01*
X155467019Y-85395001D01*
X158630892Y-85395001D01*
X158612525Y-85413368D01*
X158450010Y-85656589D01*
X158338068Y-85926842D01*
X158281000Y-86213740D01*
X158281000Y-86506260D01*
X158338068Y-86793158D01*
X158450010Y-87063411D01*
X158612525Y-87306632D01*
X158744380Y-87438487D01*
X158671820Y-87460498D01*
X158561506Y-87519463D01*
X158464815Y-87598815D01*
X158385463Y-87695506D01*
X158326498Y-87805820D01*
X158290188Y-87925518D01*
X158277928Y-88050000D01*
X158277928Y-89750000D01*
X158290188Y-89874482D01*
X158326498Y-89994180D01*
X158385463Y-90104494D01*
X158464815Y-90201185D01*
X158561506Y-90280537D01*
X158671820Y-90339502D01*
X158791518Y-90375812D01*
X158916000Y-90388072D01*
X160616000Y-90388072D01*
X160740482Y-90375812D01*
X160860180Y-90339502D01*
X160970494Y-90280537D01*
X161067185Y-90201185D01*
X161146537Y-90104494D01*
X161205502Y-89994180D01*
X161241812Y-89874482D01*
X161254072Y-89750000D01*
X161254072Y-88050000D01*
X161241812Y-87925518D01*
X161205502Y-87805820D01*
X161146537Y-87695506D01*
X161067185Y-87598815D01*
X160970494Y-87519463D01*
X160860180Y-87460498D01*
X160787620Y-87438487D01*
X160919475Y-87306632D01*
X161081990Y-87063411D01*
X161193932Y-86793158D01*
X161251000Y-86506260D01*
X161251000Y-86213740D01*
X161224807Y-86082061D01*
X162159109Y-85147760D01*
X162574388Y-85147760D01*
X162740469Y-85350131D01*
X162962783Y-85532579D01*
X163216419Y-85668150D01*
X163491630Y-85751635D01*
X163706117Y-85772760D01*
X164606972Y-85772760D01*
X164713352Y-85879140D01*
X164504113Y-85837520D01*
X164182047Y-85837520D01*
X163866168Y-85900352D01*
X163568617Y-86023602D01*
X163300828Y-86202533D01*
X163073093Y-86430268D01*
X162894162Y-86698057D01*
X162770912Y-86995608D01*
X162708080Y-87311487D01*
X162708080Y-87633553D01*
X162770912Y-87949432D01*
X162894162Y-88246983D01*
X163073093Y-88514772D01*
X163300828Y-88742507D01*
X163568617Y-88921438D01*
X163866168Y-89044688D01*
X164182047Y-89107520D01*
X164504113Y-89107520D01*
X164732376Y-89062116D01*
X164637452Y-89157040D01*
X163736597Y-89157040D01*
X163522110Y-89178165D01*
X163246899Y-89261650D01*
X162993263Y-89397221D01*
X162770949Y-89579669D01*
X162588501Y-89801983D01*
X162452930Y-90055619D01*
X162369445Y-90330830D01*
X162341256Y-90617040D01*
X162369445Y-90903250D01*
X162452930Y-91178461D01*
X162511480Y-91288000D01*
X141743249Y-91288000D01*
X141636250Y-91181001D01*
X140437001Y-91181001D01*
X140437001Y-91201001D01*
X140183001Y-91201001D01*
X140183001Y-91181001D01*
X138983752Y-91181001D01*
X138876753Y-91288000D01*
X135443252Y-91288000D01*
X135336253Y-91181001D01*
X134137004Y-91181001D01*
X134137004Y-91201001D01*
X133883004Y-91201001D01*
X133883004Y-91181001D01*
X133863004Y-91181001D01*
X133863004Y-90927001D01*
X133883004Y-90927001D01*
X133883004Y-90077751D01*
X134137004Y-90077751D01*
X134137004Y-90927001D01*
X135336253Y-90927001D01*
X135495003Y-90768251D01*
X135498075Y-90554001D01*
X138821930Y-90554001D01*
X138825002Y-90768251D01*
X138983752Y-90927001D01*
X140183001Y-90927001D01*
X140183001Y-90077751D01*
X140437001Y-90077751D01*
X140437001Y-90927001D01*
X141636250Y-90927001D01*
X141795000Y-90768251D01*
X141798072Y-90554001D01*
X141785812Y-90429519D01*
X141749502Y-90309821D01*
X141690537Y-90199507D01*
X141611185Y-90102816D01*
X141514494Y-90023464D01*
X141404180Y-89964499D01*
X141284482Y-89928189D01*
X141160000Y-89915929D01*
X140595751Y-89919001D01*
X140437001Y-90077751D01*
X140183001Y-90077751D01*
X140024251Y-89919001D01*
X139460002Y-89915929D01*
X139335520Y-89928189D01*
X139215822Y-89964499D01*
X139105508Y-90023464D01*
X139008817Y-90102816D01*
X138929465Y-90199507D01*
X138870500Y-90309821D01*
X138834190Y-90429519D01*
X138821930Y-90554001D01*
X135498075Y-90554001D01*
X135485815Y-90429519D01*
X135449505Y-90309821D01*
X135390540Y-90199507D01*
X135311188Y-90102816D01*
X135214497Y-90023464D01*
X135104183Y-89964499D01*
X134984485Y-89928189D01*
X134860003Y-89915929D01*
X134295754Y-89919001D01*
X134137004Y-90077751D01*
X133883004Y-90077751D01*
X133724254Y-89919001D01*
X133502000Y-89917791D01*
X133502000Y-89256891D01*
X141814519Y-89256891D01*
X141911843Y-89531252D01*
X142060822Y-89781355D01*
X142255731Y-89997588D01*
X142489080Y-90171641D01*
X142751901Y-90296825D01*
X142899110Y-90341476D01*
X143129000Y-90220155D01*
X143129000Y-89027000D01*
X141935186Y-89027000D01*
X141814519Y-89256891D01*
X133502000Y-89256891D01*
X133502000Y-88543109D01*
X141814519Y-88543109D01*
X141935186Y-88773000D01*
X143129000Y-88773000D01*
X143129000Y-87579845D01*
X142899110Y-87458524D01*
X142751901Y-87503175D01*
X142489080Y-87628359D01*
X142255731Y-87802412D01*
X142060822Y-88018645D01*
X141911843Y-88268748D01*
X141814519Y-88543109D01*
X133502000Y-88543109D01*
X133502000Y-88392076D01*
X134860003Y-88392076D01*
X134984485Y-88379816D01*
X135104183Y-88343506D01*
X135214497Y-88284541D01*
X135311188Y-88205189D01*
X135390540Y-88108498D01*
X135400960Y-88089004D01*
X138919045Y-88089004D01*
X138929465Y-88108498D01*
X139008817Y-88205189D01*
X139105508Y-88284541D01*
X139215822Y-88343506D01*
X139335520Y-88379816D01*
X139460002Y-88392076D01*
X141160000Y-88392076D01*
X141284482Y-88379816D01*
X141404180Y-88343506D01*
X141514494Y-88284541D01*
X141611185Y-88205189D01*
X141690537Y-88108498D01*
X141749077Y-87998979D01*
X141837642Y-87951640D01*
X141964787Y-87847295D01*
X141990942Y-87815425D01*
X144096992Y-85709376D01*
X144117838Y-85778096D01*
X144195374Y-85923155D01*
X144299719Y-86050301D01*
X144331589Y-86076456D01*
X145670133Y-87415000D01*
X145649740Y-87415000D01*
X145362842Y-87472068D01*
X145092589Y-87584010D01*
X144849368Y-87746525D01*
X144642525Y-87953368D01*
X144520805Y-88135534D01*
X144451178Y-88018645D01*
X144256269Y-87802412D01*
X144022920Y-87628359D01*
X143760099Y-87503175D01*
X143612890Y-87458524D01*
X143383000Y-87579845D01*
X143383000Y-88773000D01*
X143403000Y-88773000D01*
X143403000Y-89027000D01*
X143383000Y-89027000D01*
X143383000Y-90220155D01*
X143612890Y-90341476D01*
X143760099Y-90296825D01*
X144022920Y-90171641D01*
X144256269Y-89997588D01*
X144451178Y-89781355D01*
X144520805Y-89664466D01*
X144642525Y-89846632D01*
X144849368Y-90053475D01*
X145092589Y-90215990D01*
X145362842Y-90327932D01*
X145649740Y-90385000D01*
X145942260Y-90385000D01*
X146229158Y-90327932D01*
X146499411Y-90215990D01*
X146742632Y-90053475D01*
X146949475Y-89846632D01*
X147066000Y-89672240D01*
X147182525Y-89846632D01*
X147389368Y-90053475D01*
X147632589Y-90215990D01*
X147902842Y-90327932D01*
X148189740Y-90385000D01*
X148482260Y-90385000D01*
X148769158Y-90327932D01*
X149039411Y-90215990D01*
X149112371Y-90167240D01*
X149656562Y-90711432D01*
X149682708Y-90743292D01*
X149714567Y-90769438D01*
X149714569Y-90769440D01*
X149809853Y-90847637D01*
X149954912Y-90925173D01*
X150112310Y-90972919D01*
X150275999Y-90989041D01*
X150317017Y-90985001D01*
X154664981Y-90985001D01*
X154705999Y-90989041D01*
X154747017Y-90985001D01*
X154747018Y-90985001D01*
X154869688Y-90972919D01*
X155027086Y-90925173D01*
X155172145Y-90847637D01*
X155299290Y-90743292D01*
X155325445Y-90711422D01*
X155648795Y-90388072D01*
X156806000Y-90388072D01*
X156930482Y-90375812D01*
X157050180Y-90339502D01*
X157160494Y-90280537D01*
X157257185Y-90201185D01*
X157336537Y-90104494D01*
X157395502Y-89994180D01*
X157431812Y-89874482D01*
X157444072Y-89750000D01*
X157444072Y-88050000D01*
X157431812Y-87925518D01*
X157395502Y-87805820D01*
X157336537Y-87695506D01*
X157257185Y-87598815D01*
X157160494Y-87519463D01*
X157050180Y-87460498D01*
X156930482Y-87424188D01*
X156806000Y-87411928D01*
X155106000Y-87411928D01*
X154981518Y-87424188D01*
X154861820Y-87460498D01*
X154751506Y-87519463D01*
X154654815Y-87598815D01*
X154575463Y-87695506D01*
X154516498Y-87805820D01*
X154494487Y-87878380D01*
X154362632Y-87746525D01*
X154119411Y-87584010D01*
X153849158Y-87472068D01*
X153562260Y-87415000D01*
X153269740Y-87415000D01*
X152982842Y-87472068D01*
X152712589Y-87584010D01*
X152469368Y-87746525D01*
X152262525Y-87953368D01*
X152146000Y-88127760D01*
X152029475Y-87953368D01*
X151822632Y-87746525D01*
X151711000Y-87671935D01*
X151711000Y-85054072D01*
X152742000Y-85054072D01*
X152866482Y-85041812D01*
X152986180Y-85005502D01*
X153096494Y-84946537D01*
X153193185Y-84867185D01*
X153272537Y-84770494D01*
X153331502Y-84660180D01*
X153367812Y-84540482D01*
X153380072Y-84416000D01*
X153380072Y-83694940D01*
X154806560Y-85121428D01*
G37*
X154806560Y-85121428D02*
X154832710Y-85153292D01*
X154896799Y-85205888D01*
X154959855Y-85257637D01*
X155104914Y-85335173D01*
X155262312Y-85382919D01*
X155426000Y-85399041D01*
X155467019Y-85395001D01*
X158630892Y-85395001D01*
X158612525Y-85413368D01*
X158450010Y-85656589D01*
X158338068Y-85926842D01*
X158281000Y-86213740D01*
X158281000Y-86506260D01*
X158338068Y-86793158D01*
X158450010Y-87063411D01*
X158612525Y-87306632D01*
X158744380Y-87438487D01*
X158671820Y-87460498D01*
X158561506Y-87519463D01*
X158464815Y-87598815D01*
X158385463Y-87695506D01*
X158326498Y-87805820D01*
X158290188Y-87925518D01*
X158277928Y-88050000D01*
X158277928Y-89750000D01*
X158290188Y-89874482D01*
X158326498Y-89994180D01*
X158385463Y-90104494D01*
X158464815Y-90201185D01*
X158561506Y-90280537D01*
X158671820Y-90339502D01*
X158791518Y-90375812D01*
X158916000Y-90388072D01*
X160616000Y-90388072D01*
X160740482Y-90375812D01*
X160860180Y-90339502D01*
X160970494Y-90280537D01*
X161067185Y-90201185D01*
X161146537Y-90104494D01*
X161205502Y-89994180D01*
X161241812Y-89874482D01*
X161254072Y-89750000D01*
X161254072Y-88050000D01*
X161241812Y-87925518D01*
X161205502Y-87805820D01*
X161146537Y-87695506D01*
X161067185Y-87598815D01*
X160970494Y-87519463D01*
X160860180Y-87460498D01*
X160787620Y-87438487D01*
X160919475Y-87306632D01*
X161081990Y-87063411D01*
X161193932Y-86793158D01*
X161251000Y-86506260D01*
X161251000Y-86213740D01*
X161224807Y-86082061D01*
X162159109Y-85147760D01*
X162574388Y-85147760D01*
X162740469Y-85350131D01*
X162962783Y-85532579D01*
X163216419Y-85668150D01*
X163491630Y-85751635D01*
X163706117Y-85772760D01*
X164606972Y-85772760D01*
X164713352Y-85879140D01*
X164504113Y-85837520D01*
X164182047Y-85837520D01*
X163866168Y-85900352D01*
X163568617Y-86023602D01*
X163300828Y-86202533D01*
X163073093Y-86430268D01*
X162894162Y-86698057D01*
X162770912Y-86995608D01*
X162708080Y-87311487D01*
X162708080Y-87633553D01*
X162770912Y-87949432D01*
X162894162Y-88246983D01*
X163073093Y-88514772D01*
X163300828Y-88742507D01*
X163568617Y-88921438D01*
X163866168Y-89044688D01*
X164182047Y-89107520D01*
X164504113Y-89107520D01*
X164732376Y-89062116D01*
X164637452Y-89157040D01*
X163736597Y-89157040D01*
X163522110Y-89178165D01*
X163246899Y-89261650D01*
X162993263Y-89397221D01*
X162770949Y-89579669D01*
X162588501Y-89801983D01*
X162452930Y-90055619D01*
X162369445Y-90330830D01*
X162341256Y-90617040D01*
X162369445Y-90903250D01*
X162452930Y-91178461D01*
X162511480Y-91288000D01*
X141743249Y-91288000D01*
X141636250Y-91181001D01*
X140437001Y-91181001D01*
X140437001Y-91201001D01*
X140183001Y-91201001D01*
X140183001Y-91181001D01*
X138983752Y-91181001D01*
X138876753Y-91288000D01*
X135443252Y-91288000D01*
X135336253Y-91181001D01*
X134137004Y-91181001D01*
X134137004Y-91201001D01*
X133883004Y-91201001D01*
X133883004Y-91181001D01*
X133863004Y-91181001D01*
X133863004Y-90927001D01*
X133883004Y-90927001D01*
X133883004Y-90077751D01*
X134137004Y-90077751D01*
X134137004Y-90927001D01*
X135336253Y-90927001D01*
X135495003Y-90768251D01*
X135498075Y-90554001D01*
X138821930Y-90554001D01*
X138825002Y-90768251D01*
X138983752Y-90927001D01*
X140183001Y-90927001D01*
X140183001Y-90077751D01*
X140437001Y-90077751D01*
X140437001Y-90927001D01*
X141636250Y-90927001D01*
X141795000Y-90768251D01*
X141798072Y-90554001D01*
X141785812Y-90429519D01*
X141749502Y-90309821D01*
X141690537Y-90199507D01*
X141611185Y-90102816D01*
X141514494Y-90023464D01*
X141404180Y-89964499D01*
X141284482Y-89928189D01*
X141160000Y-89915929D01*
X140595751Y-89919001D01*
X140437001Y-90077751D01*
X140183001Y-90077751D01*
X140024251Y-89919001D01*
X139460002Y-89915929D01*
X139335520Y-89928189D01*
X139215822Y-89964499D01*
X139105508Y-90023464D01*
X139008817Y-90102816D01*
X138929465Y-90199507D01*
X138870500Y-90309821D01*
X138834190Y-90429519D01*
X138821930Y-90554001D01*
X135498075Y-90554001D01*
X135485815Y-90429519D01*
X135449505Y-90309821D01*
X135390540Y-90199507D01*
X135311188Y-90102816D01*
X135214497Y-90023464D01*
X135104183Y-89964499D01*
X134984485Y-89928189D01*
X134860003Y-89915929D01*
X134295754Y-89919001D01*
X134137004Y-90077751D01*
X133883004Y-90077751D01*
X133724254Y-89919001D01*
X133502000Y-89917791D01*
X133502000Y-89256891D01*
X141814519Y-89256891D01*
X141911843Y-89531252D01*
X142060822Y-89781355D01*
X142255731Y-89997588D01*
X142489080Y-90171641D01*
X142751901Y-90296825D01*
X142899110Y-90341476D01*
X143129000Y-90220155D01*
X143129000Y-89027000D01*
X141935186Y-89027000D01*
X141814519Y-89256891D01*
X133502000Y-89256891D01*
X133502000Y-88543109D01*
X141814519Y-88543109D01*
X141935186Y-88773000D01*
X143129000Y-88773000D01*
X143129000Y-87579845D01*
X142899110Y-87458524D01*
X142751901Y-87503175D01*
X142489080Y-87628359D01*
X142255731Y-87802412D01*
X142060822Y-88018645D01*
X141911843Y-88268748D01*
X141814519Y-88543109D01*
X133502000Y-88543109D01*
X133502000Y-88392076D01*
X134860003Y-88392076D01*
X134984485Y-88379816D01*
X135104183Y-88343506D01*
X135214497Y-88284541D01*
X135311188Y-88205189D01*
X135390540Y-88108498D01*
X135400960Y-88089004D01*
X138919045Y-88089004D01*
X138929465Y-88108498D01*
X139008817Y-88205189D01*
X139105508Y-88284541D01*
X139215822Y-88343506D01*
X139335520Y-88379816D01*
X139460002Y-88392076D01*
X141160000Y-88392076D01*
X141284482Y-88379816D01*
X141404180Y-88343506D01*
X141514494Y-88284541D01*
X141611185Y-88205189D01*
X141690537Y-88108498D01*
X141749077Y-87998979D01*
X141837642Y-87951640D01*
X141964787Y-87847295D01*
X141990942Y-87815425D01*
X144096992Y-85709376D01*
X144117838Y-85778096D01*
X144195374Y-85923155D01*
X144299719Y-86050301D01*
X144331589Y-86076456D01*
X145670133Y-87415000D01*
X145649740Y-87415000D01*
X145362842Y-87472068D01*
X145092589Y-87584010D01*
X144849368Y-87746525D01*
X144642525Y-87953368D01*
X144520805Y-88135534D01*
X144451178Y-88018645D01*
X144256269Y-87802412D01*
X144022920Y-87628359D01*
X143760099Y-87503175D01*
X143612890Y-87458524D01*
X143383000Y-87579845D01*
X143383000Y-88773000D01*
X143403000Y-88773000D01*
X143403000Y-89027000D01*
X143383000Y-89027000D01*
X143383000Y-90220155D01*
X143612890Y-90341476D01*
X143760099Y-90296825D01*
X144022920Y-90171641D01*
X144256269Y-89997588D01*
X144451178Y-89781355D01*
X144520805Y-89664466D01*
X144642525Y-89846632D01*
X144849368Y-90053475D01*
X145092589Y-90215990D01*
X145362842Y-90327932D01*
X145649740Y-90385000D01*
X145942260Y-90385000D01*
X146229158Y-90327932D01*
X146499411Y-90215990D01*
X146742632Y-90053475D01*
X146949475Y-89846632D01*
X147066000Y-89672240D01*
X147182525Y-89846632D01*
X147389368Y-90053475D01*
X147632589Y-90215990D01*
X147902842Y-90327932D01*
X148189740Y-90385000D01*
X148482260Y-90385000D01*
X148769158Y-90327932D01*
X149039411Y-90215990D01*
X149112371Y-90167240D01*
X149656562Y-90711432D01*
X149682708Y-90743292D01*
X149714567Y-90769438D01*
X149714569Y-90769440D01*
X149809853Y-90847637D01*
X149954912Y-90925173D01*
X150112310Y-90972919D01*
X150275999Y-90989041D01*
X150317017Y-90985001D01*
X154664981Y-90985001D01*
X154705999Y-90989041D01*
X154747017Y-90985001D01*
X154747018Y-90985001D01*
X154869688Y-90972919D01*
X155027086Y-90925173D01*
X155172145Y-90847637D01*
X155299290Y-90743292D01*
X155325445Y-90711422D01*
X155648795Y-90388072D01*
X156806000Y-90388072D01*
X156930482Y-90375812D01*
X157050180Y-90339502D01*
X157160494Y-90280537D01*
X157257185Y-90201185D01*
X157336537Y-90104494D01*
X157395502Y-89994180D01*
X157431812Y-89874482D01*
X157444072Y-89750000D01*
X157444072Y-88050000D01*
X157431812Y-87925518D01*
X157395502Y-87805820D01*
X157336537Y-87695506D01*
X157257185Y-87598815D01*
X157160494Y-87519463D01*
X157050180Y-87460498D01*
X156930482Y-87424188D01*
X156806000Y-87411928D01*
X155106000Y-87411928D01*
X154981518Y-87424188D01*
X154861820Y-87460498D01*
X154751506Y-87519463D01*
X154654815Y-87598815D01*
X154575463Y-87695506D01*
X154516498Y-87805820D01*
X154494487Y-87878380D01*
X154362632Y-87746525D01*
X154119411Y-87584010D01*
X153849158Y-87472068D01*
X153562260Y-87415000D01*
X153269740Y-87415000D01*
X152982842Y-87472068D01*
X152712589Y-87584010D01*
X152469368Y-87746525D01*
X152262525Y-87953368D01*
X152146000Y-88127760D01*
X152029475Y-87953368D01*
X151822632Y-87746525D01*
X151711000Y-87671935D01*
X151711000Y-85054072D01*
X152742000Y-85054072D01*
X152866482Y-85041812D01*
X152986180Y-85005502D01*
X153096494Y-84946537D01*
X153193185Y-84867185D01*
X153272537Y-84770494D01*
X153331502Y-84660180D01*
X153367812Y-84540482D01*
X153380072Y-84416000D01*
X153380072Y-83694940D01*
X154806560Y-85121428D01*
G36*
X172568000Y-83244941D02*
G01*
X172413737Y-83118341D01*
X172160101Y-82982770D01*
X171884890Y-82899285D01*
X171670403Y-82878160D01*
X170426957Y-82878160D01*
X170212470Y-82899285D01*
X169937259Y-82982770D01*
X169683623Y-83118341D01*
X169461309Y-83300789D01*
X169278861Y-83523103D01*
X169143290Y-83776739D01*
X169059805Y-84051950D01*
X169031616Y-84338160D01*
X169059805Y-84624370D01*
X169143290Y-84899581D01*
X169278861Y-85153217D01*
X169461309Y-85375531D01*
X169683623Y-85557979D01*
X169937259Y-85693550D01*
X170212470Y-85777035D01*
X170426957Y-85798160D01*
X170917722Y-85798160D01*
X170917722Y-85952080D01*
X170829632Y-85915592D01*
X170513753Y-85852760D01*
X170191687Y-85852760D01*
X169875808Y-85915592D01*
X169578257Y-86038842D01*
X169310468Y-86217773D01*
X169082733Y-86445508D01*
X168903802Y-86713297D01*
X168780552Y-87010848D01*
X168717720Y-87326727D01*
X168717720Y-87648793D01*
X168780552Y-87964672D01*
X168903802Y-88262223D01*
X169082733Y-88530012D01*
X169310468Y-88757747D01*
X169578257Y-88936678D01*
X169875808Y-89059928D01*
X170191687Y-89122760D01*
X170513753Y-89122760D01*
X170829632Y-89059928D01*
X170917721Y-89023440D01*
X170917721Y-89157040D01*
X170426957Y-89157040D01*
X170212470Y-89178165D01*
X169937259Y-89261650D01*
X169683623Y-89397221D01*
X169461309Y-89579669D01*
X169432066Y-89615301D01*
X169415331Y-89594909D01*
X169193017Y-89412461D01*
X168939381Y-89276890D01*
X168664170Y-89193405D01*
X168449683Y-89172280D01*
X167206237Y-89172280D01*
X166991750Y-89193405D01*
X166716539Y-89276890D01*
X166570013Y-89355209D01*
X166571875Y-89336313D01*
X166578081Y-89273298D01*
X166578081Y-89273297D01*
X166582121Y-89232279D01*
X166578081Y-89191261D01*
X166578081Y-85769019D01*
X166582121Y-85728000D01*
X166565999Y-85564312D01*
X166518253Y-85406914D01*
X166440717Y-85261855D01*
X166369675Y-85175290D01*
X166336372Y-85134710D01*
X166304507Y-85108559D01*
X166221430Y-85025482D01*
X166245087Y-85018306D01*
X166377116Y-84947734D01*
X166492841Y-84852761D01*
X166516644Y-84823757D01*
X169204003Y-82136399D01*
X169233000Y-82112602D01*
X169285351Y-82048812D01*
X169327973Y-81996878D01*
X169398545Y-81864848D01*
X169403377Y-81848918D01*
X169442002Y-81721587D01*
X169452999Y-81609934D01*
X169452999Y-81609924D01*
X169456675Y-81572602D01*
X169452999Y-81535279D01*
X169452999Y-81135863D01*
X169463226Y-81148325D01*
X169519989Y-81217491D01*
X169548992Y-81241293D01*
X169840928Y-81533229D01*
X169840928Y-81790250D01*
X169857392Y-81957408D01*
X169906150Y-82118142D01*
X169985329Y-82266275D01*
X170091885Y-82396115D01*
X170221725Y-82502671D01*
X170369858Y-82581850D01*
X170530592Y-82630608D01*
X170697750Y-82647072D01*
X171135250Y-82647072D01*
X171302408Y-82630608D01*
X171463142Y-82581850D01*
X171611275Y-82502671D01*
X171632930Y-82484900D01*
X171699506Y-82539537D01*
X171809820Y-82598502D01*
X171929518Y-82634812D01*
X172054000Y-82647072D01*
X172205750Y-82644000D01*
X172364500Y-82485250D01*
X172364500Y-81661000D01*
X172344500Y-81661000D01*
X172344500Y-81407000D01*
X172364500Y-81407000D01*
X172364500Y-80582750D01*
X172205750Y-80424000D01*
X172184277Y-80423565D01*
X172279263Y-80348003D01*
X172360078Y-80252531D01*
X172420715Y-80143127D01*
X172458844Y-80023996D01*
X172470000Y-79921750D01*
X172311250Y-79763000D01*
X172310355Y-79763000D01*
X172352898Y-79711162D01*
X172394018Y-79634232D01*
X172470000Y-79558250D01*
X172458844Y-79456004D01*
X172458820Y-79455929D01*
X172459371Y-79454113D01*
X172473072Y-79315000D01*
X172473072Y-79165000D01*
X172459371Y-79025887D01*
X172458820Y-79024071D01*
X172458844Y-79023996D01*
X172470000Y-78921750D01*
X172394018Y-78845768D01*
X172352898Y-78768838D01*
X172329231Y-78740000D01*
X172352898Y-78711162D01*
X172394018Y-78634232D01*
X172470000Y-78558250D01*
X172458844Y-78456004D01*
X172458820Y-78455929D01*
X172459371Y-78454113D01*
X172473072Y-78315000D01*
X172473072Y-78165000D01*
X172459371Y-78025887D01*
X172448485Y-77990000D01*
X172459371Y-77954113D01*
X172473072Y-77815000D01*
X172473072Y-77665000D01*
X172459371Y-77525887D01*
X172418793Y-77392119D01*
X172352898Y-77268838D01*
X172264218Y-77160782D01*
X172231000Y-77133520D01*
X172231000Y-77114061D01*
X172191226Y-76914102D01*
X172113205Y-76725744D01*
X171999937Y-76556226D01*
X171855774Y-76412063D01*
X171686256Y-76298795D01*
X171497898Y-76220774D01*
X171297939Y-76181000D01*
X171094061Y-76181000D01*
X170894102Y-76220774D01*
X170705744Y-76298795D01*
X170536226Y-76412063D01*
X170392063Y-76556226D01*
X170278795Y-76725744D01*
X170200774Y-76914102D01*
X170181898Y-77008998D01*
X170063838Y-77072102D01*
X169955782Y-77160782D01*
X169867102Y-77268838D01*
X169801207Y-77392119D01*
X169774549Y-77480000D01*
X169335503Y-77480000D01*
X171559684Y-75255820D01*
X171588681Y-75232023D01*
X171683654Y-75116298D01*
X171754226Y-74984269D01*
X171797683Y-74841008D01*
X171808680Y-74729355D01*
X171808680Y-74729354D01*
X171812357Y-74692022D01*
X171808680Y-74654689D01*
X171808680Y-74283421D01*
X171884890Y-74275915D01*
X172160101Y-74192430D01*
X172413737Y-74056859D01*
X172568001Y-73930258D01*
X172568000Y-83244941D01*
G37*
X172568000Y-83244941D02*
X172413737Y-83118341D01*
X172160101Y-82982770D01*
X171884890Y-82899285D01*
X171670403Y-82878160D01*
X170426957Y-82878160D01*
X170212470Y-82899285D01*
X169937259Y-82982770D01*
X169683623Y-83118341D01*
X169461309Y-83300789D01*
X169278861Y-83523103D01*
X169143290Y-83776739D01*
X169059805Y-84051950D01*
X169031616Y-84338160D01*
X169059805Y-84624370D01*
X169143290Y-84899581D01*
X169278861Y-85153217D01*
X169461309Y-85375531D01*
X169683623Y-85557979D01*
X169937259Y-85693550D01*
X170212470Y-85777035D01*
X170426957Y-85798160D01*
X170917722Y-85798160D01*
X170917722Y-85952080D01*
X170829632Y-85915592D01*
X170513753Y-85852760D01*
X170191687Y-85852760D01*
X169875808Y-85915592D01*
X169578257Y-86038842D01*
X169310468Y-86217773D01*
X169082733Y-86445508D01*
X168903802Y-86713297D01*
X168780552Y-87010848D01*
X168717720Y-87326727D01*
X168717720Y-87648793D01*
X168780552Y-87964672D01*
X168903802Y-88262223D01*
X169082733Y-88530012D01*
X169310468Y-88757747D01*
X169578257Y-88936678D01*
X169875808Y-89059928D01*
X170191687Y-89122760D01*
X170513753Y-89122760D01*
X170829632Y-89059928D01*
X170917721Y-89023440D01*
X170917721Y-89157040D01*
X170426957Y-89157040D01*
X170212470Y-89178165D01*
X169937259Y-89261650D01*
X169683623Y-89397221D01*
X169461309Y-89579669D01*
X169432066Y-89615301D01*
X169415331Y-89594909D01*
X169193017Y-89412461D01*
X168939381Y-89276890D01*
X168664170Y-89193405D01*
X168449683Y-89172280D01*
X167206237Y-89172280D01*
X166991750Y-89193405D01*
X166716539Y-89276890D01*
X166570013Y-89355209D01*
X166571875Y-89336313D01*
X166578081Y-89273298D01*
X166578081Y-89273297D01*
X166582121Y-89232279D01*
X166578081Y-89191261D01*
X166578081Y-85769019D01*
X166582121Y-85728000D01*
X166565999Y-85564312D01*
X166518253Y-85406914D01*
X166440717Y-85261855D01*
X166369675Y-85175290D01*
X166336372Y-85134710D01*
X166304507Y-85108559D01*
X166221430Y-85025482D01*
X166245087Y-85018306D01*
X166377116Y-84947734D01*
X166492841Y-84852761D01*
X166516644Y-84823757D01*
X169204003Y-82136399D01*
X169233000Y-82112602D01*
X169285351Y-82048812D01*
X169327973Y-81996878D01*
X169398545Y-81864848D01*
X169403377Y-81848918D01*
X169442002Y-81721587D01*
X169452999Y-81609934D01*
X169452999Y-81609924D01*
X169456675Y-81572602D01*
X169452999Y-81535279D01*
X169452999Y-81135863D01*
X169463226Y-81148325D01*
X169519989Y-81217491D01*
X169548992Y-81241293D01*
X169840928Y-81533229D01*
X169840928Y-81790250D01*
X169857392Y-81957408D01*
X169906150Y-82118142D01*
X169985329Y-82266275D01*
X170091885Y-82396115D01*
X170221725Y-82502671D01*
X170369858Y-82581850D01*
X170530592Y-82630608D01*
X170697750Y-82647072D01*
X171135250Y-82647072D01*
X171302408Y-82630608D01*
X171463142Y-82581850D01*
X171611275Y-82502671D01*
X171632930Y-82484900D01*
X171699506Y-82539537D01*
X171809820Y-82598502D01*
X171929518Y-82634812D01*
X172054000Y-82647072D01*
X172205750Y-82644000D01*
X172364500Y-82485250D01*
X172364500Y-81661000D01*
X172344500Y-81661000D01*
X172344500Y-81407000D01*
X172364500Y-81407000D01*
X172364500Y-80582750D01*
X172205750Y-80424000D01*
X172184277Y-80423565D01*
X172279263Y-80348003D01*
X172360078Y-80252531D01*
X172420715Y-80143127D01*
X172458844Y-80023996D01*
X172470000Y-79921750D01*
X172311250Y-79763000D01*
X172310355Y-79763000D01*
X172352898Y-79711162D01*
X172394018Y-79634232D01*
X172470000Y-79558250D01*
X172458844Y-79456004D01*
X172458820Y-79455929D01*
X172459371Y-79454113D01*
X172473072Y-79315000D01*
X172473072Y-79165000D01*
X172459371Y-79025887D01*
X172458820Y-79024071D01*
X172458844Y-79023996D01*
X172470000Y-78921750D01*
X172394018Y-78845768D01*
X172352898Y-78768838D01*
X172329231Y-78740000D01*
X172352898Y-78711162D01*
X172394018Y-78634232D01*
X172470000Y-78558250D01*
X172458844Y-78456004D01*
X172458820Y-78455929D01*
X172459371Y-78454113D01*
X172473072Y-78315000D01*
X172473072Y-78165000D01*
X172459371Y-78025887D01*
X172448485Y-77990000D01*
X172459371Y-77954113D01*
X172473072Y-77815000D01*
X172473072Y-77665000D01*
X172459371Y-77525887D01*
X172418793Y-77392119D01*
X172352898Y-77268838D01*
X172264218Y-77160782D01*
X172231000Y-77133520D01*
X172231000Y-77114061D01*
X172191226Y-76914102D01*
X172113205Y-76725744D01*
X171999937Y-76556226D01*
X171855774Y-76412063D01*
X171686256Y-76298795D01*
X171497898Y-76220774D01*
X171297939Y-76181000D01*
X171094061Y-76181000D01*
X170894102Y-76220774D01*
X170705744Y-76298795D01*
X170536226Y-76412063D01*
X170392063Y-76556226D01*
X170278795Y-76725744D01*
X170200774Y-76914102D01*
X170181898Y-77008998D01*
X170063838Y-77072102D01*
X169955782Y-77160782D01*
X169867102Y-77268838D01*
X169801207Y-77392119D01*
X169774549Y-77480000D01*
X169335503Y-77480000D01*
X171559684Y-75255820D01*
X171588681Y-75232023D01*
X171683654Y-75116298D01*
X171754226Y-74984269D01*
X171797683Y-74841008D01*
X171808680Y-74729355D01*
X171808680Y-74729354D01*
X171812357Y-74692022D01*
X171808680Y-74654689D01*
X171808680Y-74283421D01*
X171884890Y-74275915D01*
X172160101Y-74192430D01*
X172413737Y-74056859D01*
X172568001Y-73930258D01*
X172568000Y-83244941D01*
G36*
X140335000Y-80899000D02*
G01*
X140355000Y-80899000D01*
X140355000Y-81153000D01*
X140335000Y-81153000D01*
X140335000Y-82202250D01*
X140437906Y-82305156D01*
X140413498Y-82350820D01*
X140377188Y-82470518D01*
X140364928Y-82595000D01*
X140368000Y-82746750D01*
X140526750Y-82905500D01*
X141351000Y-82905500D01*
X141351000Y-82885500D01*
X141605000Y-82885500D01*
X141605000Y-82905500D01*
X141625000Y-82905500D01*
X141625000Y-83159500D01*
X141605000Y-83159500D01*
X141605000Y-83179500D01*
X141351000Y-83179500D01*
X141351000Y-83159500D01*
X140526750Y-83159500D01*
X140368000Y-83318250D01*
X140364928Y-83470000D01*
X140377188Y-83594482D01*
X140413498Y-83714180D01*
X140472463Y-83824494D01*
X140527100Y-83891070D01*
X140509329Y-83912725D01*
X140430150Y-84060858D01*
X140381392Y-84221592D01*
X140364928Y-84388750D01*
X140364928Y-84826250D01*
X140381392Y-84993408D01*
X140430150Y-85154142D01*
X140509329Y-85302275D01*
X140615885Y-85432115D01*
X140745725Y-85538671D01*
X140893858Y-85617850D01*
X141054592Y-85666608D01*
X141221750Y-85683072D01*
X141734250Y-85683072D01*
X141764544Y-85680088D01*
X141309002Y-86135630D01*
X141284482Y-86128192D01*
X141160000Y-86115932D01*
X139460002Y-86115932D01*
X139335520Y-86128192D01*
X139215822Y-86164502D01*
X139105508Y-86223467D01*
X139008817Y-86302819D01*
X138929465Y-86399510D01*
X138919045Y-86419004D01*
X135400960Y-86419004D01*
X135390540Y-86399510D01*
X135311188Y-86302819D01*
X135214497Y-86223467D01*
X135104183Y-86164502D01*
X134984485Y-86128192D01*
X134860003Y-86115932D01*
X133502000Y-86115932D01*
X133502000Y-83908211D01*
X133611167Y-84112449D01*
X133765498Y-84300502D01*
X133953551Y-84454833D01*
X134168099Y-84569511D01*
X134400898Y-84640130D01*
X134582335Y-84658000D01*
X135403665Y-84658000D01*
X135585102Y-84640130D01*
X135817901Y-84569511D01*
X136032449Y-84454833D01*
X136220502Y-84300502D01*
X136374833Y-84112449D01*
X136489511Y-83897901D01*
X136560130Y-83665102D01*
X136583975Y-83423000D01*
X136580800Y-83390763D01*
X136581072Y-83388000D01*
X136581072Y-81858000D01*
X136568812Y-81733518D01*
X136540595Y-81640500D01*
X136568812Y-81547482D01*
X136581072Y-81423000D01*
X136581072Y-81240324D01*
X136634717Y-81283181D01*
X136740681Y-81338039D01*
X136727388Y-81473000D01*
X136749785Y-81700400D01*
X136816115Y-81919060D01*
X136923829Y-82120579D01*
X137068788Y-82297212D01*
X137245421Y-82442171D01*
X137446940Y-82549885D01*
X137665600Y-82616215D01*
X137836021Y-82633000D01*
X138149979Y-82633000D01*
X138320400Y-82616215D01*
X138539060Y-82549885D01*
X138740579Y-82442171D01*
X138917212Y-82297212D01*
X139062171Y-82120579D01*
X139136779Y-81980996D01*
X139189963Y-82080494D01*
X139269315Y-82177185D01*
X139366006Y-82256537D01*
X139476320Y-82315502D01*
X139596018Y-82351812D01*
X139720500Y-82364072D01*
X139922250Y-82361000D01*
X140081000Y-82202250D01*
X140081000Y-81153000D01*
X140061000Y-81153000D01*
X140061000Y-80899000D01*
X140081000Y-80899000D01*
X140081000Y-80879000D01*
X140335000Y-80879000D01*
X140335000Y-80899000D01*
G37*
X140335000Y-80899000D02*
X140355000Y-80899000D01*
X140355000Y-81153000D01*
X140335000Y-81153000D01*
X140335000Y-82202250D01*
X140437906Y-82305156D01*
X140413498Y-82350820D01*
X140377188Y-82470518D01*
X140364928Y-82595000D01*
X140368000Y-82746750D01*
X140526750Y-82905500D01*
X141351000Y-82905500D01*
X141351000Y-82885500D01*
X141605000Y-82885500D01*
X141605000Y-82905500D01*
X141625000Y-82905500D01*
X141625000Y-83159500D01*
X141605000Y-83159500D01*
X141605000Y-83179500D01*
X141351000Y-83179500D01*
X141351000Y-83159500D01*
X140526750Y-83159500D01*
X140368000Y-83318250D01*
X140364928Y-83470000D01*
X140377188Y-83594482D01*
X140413498Y-83714180D01*
X140472463Y-83824494D01*
X140527100Y-83891070D01*
X140509329Y-83912725D01*
X140430150Y-84060858D01*
X140381392Y-84221592D01*
X140364928Y-84388750D01*
X140364928Y-84826250D01*
X140381392Y-84993408D01*
X140430150Y-85154142D01*
X140509329Y-85302275D01*
X140615885Y-85432115D01*
X140745725Y-85538671D01*
X140893858Y-85617850D01*
X141054592Y-85666608D01*
X141221750Y-85683072D01*
X141734250Y-85683072D01*
X141764544Y-85680088D01*
X141309002Y-86135630D01*
X141284482Y-86128192D01*
X141160000Y-86115932D01*
X139460002Y-86115932D01*
X139335520Y-86128192D01*
X139215822Y-86164502D01*
X139105508Y-86223467D01*
X139008817Y-86302819D01*
X138929465Y-86399510D01*
X138919045Y-86419004D01*
X135400960Y-86419004D01*
X135390540Y-86399510D01*
X135311188Y-86302819D01*
X135214497Y-86223467D01*
X135104183Y-86164502D01*
X134984485Y-86128192D01*
X134860003Y-86115932D01*
X133502000Y-86115932D01*
X133502000Y-83908211D01*
X133611167Y-84112449D01*
X133765498Y-84300502D01*
X133953551Y-84454833D01*
X134168099Y-84569511D01*
X134400898Y-84640130D01*
X134582335Y-84658000D01*
X135403665Y-84658000D01*
X135585102Y-84640130D01*
X135817901Y-84569511D01*
X136032449Y-84454833D01*
X136220502Y-84300502D01*
X136374833Y-84112449D01*
X136489511Y-83897901D01*
X136560130Y-83665102D01*
X136583975Y-83423000D01*
X136580800Y-83390763D01*
X136581072Y-83388000D01*
X136581072Y-81858000D01*
X136568812Y-81733518D01*
X136540595Y-81640500D01*
X136568812Y-81547482D01*
X136581072Y-81423000D01*
X136581072Y-81240324D01*
X136634717Y-81283181D01*
X136740681Y-81338039D01*
X136727388Y-81473000D01*
X136749785Y-81700400D01*
X136816115Y-81919060D01*
X136923829Y-82120579D01*
X137068788Y-82297212D01*
X137245421Y-82442171D01*
X137446940Y-82549885D01*
X137665600Y-82616215D01*
X137836021Y-82633000D01*
X138149979Y-82633000D01*
X138320400Y-82616215D01*
X138539060Y-82549885D01*
X138740579Y-82442171D01*
X138917212Y-82297212D01*
X139062171Y-82120579D01*
X139136779Y-81980996D01*
X139189963Y-82080494D01*
X139269315Y-82177185D01*
X139366006Y-82256537D01*
X139476320Y-82315502D01*
X139596018Y-82351812D01*
X139720500Y-82364072D01*
X139922250Y-82361000D01*
X140081000Y-82202250D01*
X140081000Y-81153000D01*
X140061000Y-81153000D01*
X140061000Y-80899000D01*
X140081000Y-80899000D01*
X140081000Y-80879000D01*
X140335000Y-80879000D01*
X140335000Y-80899000D01*
G36*
X136627706Y-78678562D02*
G01*
X136738020Y-78737527D01*
X136857718Y-78773837D01*
X136982200Y-78786097D01*
X137688653Y-78786097D01*
X137737511Y-78800918D01*
X137860181Y-78813000D01*
X137860191Y-78813000D01*
X137901199Y-78817039D01*
X137942207Y-78813000D01*
X139160928Y-78813000D01*
X139160928Y-79196250D01*
X139177872Y-79368285D01*
X139228053Y-79533709D01*
X139309542Y-79686164D01*
X139389108Y-79783115D01*
X139366006Y-79795463D01*
X139269315Y-79874815D01*
X139231104Y-79921375D01*
X139205410Y-79890893D01*
X139107683Y-79812819D01*
X138996603Y-79755312D01*
X138876437Y-79720580D01*
X138751805Y-79709958D01*
X138156950Y-79712975D01*
X137998200Y-79871725D01*
X137998200Y-80313000D01*
X137836021Y-80313000D01*
X137744200Y-80322044D01*
X137744200Y-79871725D01*
X137585450Y-79712975D01*
X136990595Y-79709958D01*
X136865963Y-79720580D01*
X136745797Y-79755312D01*
X136634717Y-79812819D01*
X136581072Y-79855676D01*
X136581072Y-79623000D01*
X136568812Y-79498518D01*
X136532502Y-79378820D01*
X136473537Y-79268506D01*
X136456708Y-79248000D01*
X136473537Y-79227494D01*
X136532502Y-79117180D01*
X136568812Y-78997482D01*
X136581072Y-78873000D01*
X136581072Y-78640291D01*
X136627706Y-78678562D01*
G37*
X136627706Y-78678562D02*
X136738020Y-78737527D01*
X136857718Y-78773837D01*
X136982200Y-78786097D01*
X137688653Y-78786097D01*
X137737511Y-78800918D01*
X137860181Y-78813000D01*
X137860191Y-78813000D01*
X137901199Y-78817039D01*
X137942207Y-78813000D01*
X139160928Y-78813000D01*
X139160928Y-79196250D01*
X139177872Y-79368285D01*
X139228053Y-79533709D01*
X139309542Y-79686164D01*
X139389108Y-79783115D01*
X139366006Y-79795463D01*
X139269315Y-79874815D01*
X139231104Y-79921375D01*
X139205410Y-79890893D01*
X139107683Y-79812819D01*
X138996603Y-79755312D01*
X138876437Y-79720580D01*
X138751805Y-79709958D01*
X138156950Y-79712975D01*
X137998200Y-79871725D01*
X137998200Y-80313000D01*
X137836021Y-80313000D01*
X137744200Y-80322044D01*
X137744200Y-79871725D01*
X137585450Y-79712975D01*
X136990595Y-79709958D01*
X136865963Y-79720580D01*
X136745797Y-79755312D01*
X136634717Y-79812819D01*
X136581072Y-79855676D01*
X136581072Y-79623000D01*
X136568812Y-79498518D01*
X136532502Y-79378820D01*
X136473537Y-79268506D01*
X136456708Y-79248000D01*
X136473537Y-79227494D01*
X136532502Y-79117180D01*
X136568812Y-78997482D01*
X136581072Y-78873000D01*
X136581072Y-78640291D01*
X136627706Y-78678562D01*
G36*
X169452999Y-79040935D02*
G01*
X169452999Y-79000000D01*
X169486594Y-79000000D01*
X169452999Y-79040935D01*
G37*
X169452999Y-79040935D02*
X169452999Y-79000000D01*
X169486594Y-79000000D01*
X169452999Y-79040935D01*
G36*
X133606614Y-71388405D02*
G01*
X133760150Y-71470472D01*
X133926746Y-71521008D01*
X134100000Y-71538072D01*
X136607205Y-71538072D01*
X139832029Y-74762898D01*
X139784498Y-74851820D01*
X139748188Y-74971518D01*
X139735928Y-75096000D01*
X139735928Y-76253205D01*
X139725074Y-76264059D01*
X139693210Y-76290209D01*
X139614345Y-76386307D01*
X139588864Y-76417355D01*
X139511328Y-76562414D01*
X139463582Y-76719812D01*
X139447460Y-76883500D01*
X139451501Y-76924528D01*
X139451501Y-77143000D01*
X139246793Y-77143000D01*
X139258612Y-77023000D01*
X139236215Y-76795600D01*
X139169885Y-76576940D01*
X139062171Y-76375421D01*
X138917212Y-76198788D01*
X138740579Y-76053829D01*
X138539060Y-75946115D01*
X138320400Y-75879785D01*
X138149979Y-75863000D01*
X137836021Y-75863000D01*
X137665600Y-75879785D01*
X137446940Y-75946115D01*
X137245421Y-76053829D01*
X137068788Y-76198788D01*
X136923829Y-76375421D01*
X136816115Y-76576940D01*
X136749785Y-76795600D01*
X136727388Y-77023000D01*
X136740652Y-77157674D01*
X136738020Y-77158473D01*
X136627706Y-77217438D01*
X136581072Y-77255709D01*
X136581072Y-77073000D01*
X136568812Y-76948518D01*
X136540595Y-76855500D01*
X136568812Y-76762482D01*
X136581072Y-76638000D01*
X136581072Y-75108000D01*
X136580800Y-75105237D01*
X136583975Y-75073000D01*
X136560130Y-74830898D01*
X136489511Y-74598099D01*
X136374833Y-74383551D01*
X136220502Y-74195498D01*
X136032449Y-74041167D01*
X135817901Y-73926489D01*
X135585102Y-73855870D01*
X135403665Y-73838000D01*
X134582335Y-73838000D01*
X134400898Y-73855870D01*
X134168099Y-73926489D01*
X133953551Y-74041167D01*
X133765498Y-74195498D01*
X133611167Y-74383551D01*
X133502000Y-74587789D01*
X133502000Y-71302551D01*
X133606614Y-71388405D01*
G37*
X133606614Y-71388405D02*
X133760150Y-71470472D01*
X133926746Y-71521008D01*
X134100000Y-71538072D01*
X136607205Y-71538072D01*
X139832029Y-74762898D01*
X139784498Y-74851820D01*
X139748188Y-74971518D01*
X139735928Y-75096000D01*
X139735928Y-76253205D01*
X139725074Y-76264059D01*
X139693210Y-76290209D01*
X139614345Y-76386307D01*
X139588864Y-76417355D01*
X139511328Y-76562414D01*
X139463582Y-76719812D01*
X139447460Y-76883500D01*
X139451501Y-76924528D01*
X139451501Y-77143000D01*
X139246793Y-77143000D01*
X139258612Y-77023000D01*
X139236215Y-76795600D01*
X139169885Y-76576940D01*
X139062171Y-76375421D01*
X138917212Y-76198788D01*
X138740579Y-76053829D01*
X138539060Y-75946115D01*
X138320400Y-75879785D01*
X138149979Y-75863000D01*
X137836021Y-75863000D01*
X137665600Y-75879785D01*
X137446940Y-75946115D01*
X137245421Y-76053829D01*
X137068788Y-76198788D01*
X136923829Y-76375421D01*
X136816115Y-76576940D01*
X136749785Y-76795600D01*
X136727388Y-77023000D01*
X136740652Y-77157674D01*
X136738020Y-77158473D01*
X136627706Y-77217438D01*
X136581072Y-77255709D01*
X136581072Y-77073000D01*
X136568812Y-76948518D01*
X136540595Y-76855500D01*
X136568812Y-76762482D01*
X136581072Y-76638000D01*
X136581072Y-75108000D01*
X136580800Y-75105237D01*
X136583975Y-75073000D01*
X136560130Y-74830898D01*
X136489511Y-74598099D01*
X136374833Y-74383551D01*
X136220502Y-74195498D01*
X136032449Y-74041167D01*
X135817901Y-73926489D01*
X135585102Y-73855870D01*
X135403665Y-73838000D01*
X134582335Y-73838000D01*
X134400898Y-73855870D01*
X134168099Y-73926489D01*
X133953551Y-74041167D01*
X133765498Y-74195498D01*
X133611167Y-74383551D01*
X133502000Y-74587789D01*
X133502000Y-71302551D01*
X133606614Y-71388405D01*
G36*
X160161000Y-76733000D02*
G01*
X160181000Y-76733000D01*
X160181000Y-76987000D01*
X160161000Y-76987000D01*
X160161000Y-77007000D01*
X159907000Y-77007000D01*
X159907000Y-76987000D01*
X159887000Y-76987000D01*
X159887000Y-76733000D01*
X159907000Y-76733000D01*
X159907000Y-76713000D01*
X160161000Y-76713000D01*
X160161000Y-76733000D01*
G37*
X160161000Y-76733000D02*
X160181000Y-76733000D01*
X160181000Y-76987000D01*
X160161000Y-76987000D01*
X160161000Y-77007000D01*
X159907000Y-77007000D01*
X159907000Y-76987000D01*
X159887000Y-76987000D01*
X159887000Y-76733000D01*
X159907000Y-76733000D01*
X159907000Y-76713000D01*
X160161000Y-76713000D01*
X160161000Y-76733000D01*
G36*
X145729928Y-66925999D02*
G01*
X145742188Y-67050481D01*
X145778498Y-67170179D01*
X145837463Y-67280493D01*
X145916815Y-67377184D01*
X146013506Y-67456536D01*
X146123820Y-67515501D01*
X146243518Y-67551811D01*
X146368000Y-67564071D01*
X148067998Y-67564071D01*
X148192480Y-67551811D01*
X148312178Y-67515501D01*
X148422492Y-67456536D01*
X148519183Y-67377184D01*
X148598535Y-67280493D01*
X148608955Y-67260999D01*
X152127040Y-67260999D01*
X152137460Y-67280493D01*
X152216812Y-67377184D01*
X152313503Y-67456536D01*
X152423817Y-67515501D01*
X152543515Y-67551811D01*
X152667997Y-67564071D01*
X153475201Y-67564071D01*
X156645001Y-70733873D01*
X156645001Y-71596868D01*
X156605000Y-71592928D01*
X156228250Y-71596000D01*
X156069500Y-71754750D01*
X156069500Y-73279000D01*
X156089500Y-73279000D01*
X156089500Y-73533000D01*
X156069500Y-73533000D01*
X156069500Y-73553000D01*
X155815500Y-73553000D01*
X155815500Y-73533000D01*
X154803750Y-73533000D01*
X154645000Y-73691750D01*
X154641928Y-74581000D01*
X154646261Y-74624999D01*
X154405017Y-74624999D01*
X154363999Y-74620959D01*
X154322981Y-74624999D01*
X154322980Y-74624999D01*
X154200310Y-74637081D01*
X154042912Y-74684827D01*
X153897853Y-74762363D01*
X153848337Y-74803000D01*
X153803631Y-74839689D01*
X153770708Y-74866708D01*
X153744562Y-74898567D01*
X153260563Y-75382566D01*
X153163641Y-75179080D01*
X152989588Y-74945731D01*
X152773355Y-74750822D01*
X152523252Y-74601843D01*
X152248891Y-74504519D01*
X152019000Y-74625186D01*
X152019000Y-75819000D01*
X152039000Y-75819000D01*
X152039000Y-76073000D01*
X152019000Y-76073000D01*
X152019000Y-76093000D01*
X151765000Y-76093000D01*
X151765000Y-76073000D01*
X151745000Y-76073000D01*
X151745000Y-75819000D01*
X151765000Y-75819000D01*
X151765000Y-74625186D01*
X151535109Y-74504519D01*
X151260748Y-74601843D01*
X151010645Y-74750822D01*
X150814498Y-74927626D01*
X150791502Y-74851820D01*
X150732537Y-74741506D01*
X150653185Y-74644815D01*
X150556494Y-74565463D01*
X150446180Y-74506498D01*
X150326482Y-74470188D01*
X150202000Y-74457928D01*
X148502000Y-74457928D01*
X148377518Y-74470188D01*
X148257820Y-74506498D01*
X148147506Y-74565463D01*
X148050815Y-74644815D01*
X147971463Y-74741506D01*
X147912498Y-74851820D01*
X147876188Y-74971518D01*
X147863928Y-75096000D01*
X147863928Y-75964393D01*
X147730774Y-75937907D01*
X147710946Y-75918079D01*
X147684791Y-75886209D01*
X147557646Y-75781864D01*
X147498283Y-75750134D01*
X147450574Y-75692000D01*
X147526671Y-75599275D01*
X147605850Y-75451142D01*
X147654608Y-75290408D01*
X147671072Y-75123250D01*
X147671072Y-74685750D01*
X147654608Y-74518592D01*
X147605850Y-74357858D01*
X147526671Y-74209725D01*
X147420115Y-74079885D01*
X147290275Y-73973329D01*
X147142142Y-73894150D01*
X146981408Y-73845392D01*
X146814250Y-73828928D01*
X146301750Y-73828928D01*
X146134592Y-73845392D01*
X146083142Y-73860999D01*
X141291868Y-73860999D01*
X140162869Y-72732000D01*
X148879928Y-72732000D01*
X148892188Y-72856482D01*
X148928498Y-72976180D01*
X148987463Y-73086494D01*
X149066815Y-73183185D01*
X149163506Y-73262537D01*
X149273820Y-73321502D01*
X149393518Y-73357812D01*
X149518000Y-73370072D01*
X150082250Y-73367000D01*
X150241000Y-73208250D01*
X150241000Y-72009000D01*
X150495000Y-72009000D01*
X150495000Y-73208250D01*
X150653750Y-73367000D01*
X151218000Y-73370072D01*
X151342482Y-73357812D01*
X151462180Y-73321502D01*
X151572494Y-73262537D01*
X151669185Y-73183185D01*
X151748537Y-73086494D01*
X151807502Y-72976180D01*
X151843812Y-72856482D01*
X151856072Y-72732000D01*
X151853345Y-72231000D01*
X154641928Y-72231000D01*
X154645000Y-73120250D01*
X154803750Y-73279000D01*
X155815500Y-73279000D01*
X155815500Y-71754750D01*
X155656750Y-71596000D01*
X155280000Y-71592928D01*
X155155518Y-71605188D01*
X155035820Y-71641498D01*
X154925506Y-71700463D01*
X154828815Y-71779815D01*
X154749463Y-71876506D01*
X154690498Y-71986820D01*
X154654188Y-72106518D01*
X154641928Y-72231000D01*
X151853345Y-72231000D01*
X151853000Y-72167750D01*
X151694250Y-72009000D01*
X150495000Y-72009000D01*
X150241000Y-72009000D01*
X149041750Y-72009000D01*
X148883000Y-72167750D01*
X148879928Y-72732000D01*
X140162869Y-72732000D01*
X138717454Y-71286586D01*
X138727962Y-71277962D01*
X138838405Y-71143386D01*
X138920472Y-70989850D01*
X138947727Y-70900000D01*
X140411928Y-70900000D01*
X140424188Y-71024482D01*
X140460498Y-71144180D01*
X140519463Y-71254494D01*
X140598815Y-71351185D01*
X140695506Y-71430537D01*
X140805820Y-71489502D01*
X140925518Y-71525812D01*
X141050000Y-71538072D01*
X143014250Y-71535000D01*
X143173000Y-71376250D01*
X143173000Y-69977000D01*
X140573750Y-69977000D01*
X140415000Y-70135750D01*
X140411928Y-70900000D01*
X138947727Y-70900000D01*
X138971008Y-70823254D01*
X138988072Y-70650000D01*
X138988072Y-69050000D01*
X138971008Y-68876746D01*
X138947728Y-68800000D01*
X140411928Y-68800000D01*
X140415000Y-69564250D01*
X140573750Y-69723000D01*
X143173000Y-69723000D01*
X143173000Y-68323750D01*
X143427000Y-68323750D01*
X143427000Y-69723000D01*
X143447000Y-69723000D01*
X143447000Y-69977000D01*
X143427000Y-69977000D01*
X143427000Y-71376250D01*
X143585750Y-71535000D01*
X145550000Y-71538072D01*
X145674482Y-71525812D01*
X145794180Y-71489502D01*
X145904494Y-71430537D01*
X146001185Y-71351185D01*
X146058935Y-71280816D01*
X146123820Y-71315498D01*
X146243518Y-71351808D01*
X146368000Y-71364068D01*
X146932249Y-71360996D01*
X147090999Y-71202246D01*
X147090999Y-70352996D01*
X147344999Y-70352996D01*
X147344999Y-71202246D01*
X147503749Y-71360996D01*
X148067998Y-71364068D01*
X148192480Y-71351808D01*
X148312178Y-71315498D01*
X148422492Y-71256533D01*
X148519183Y-71177181D01*
X148598535Y-71080490D01*
X148624453Y-71032000D01*
X148879928Y-71032000D01*
X148883000Y-71596250D01*
X149041750Y-71755000D01*
X150241000Y-71755000D01*
X150241000Y-70555750D01*
X150495000Y-70555750D01*
X150495000Y-71755000D01*
X151694250Y-71755000D01*
X151853000Y-71596250D01*
X151856072Y-71032000D01*
X151843812Y-70907518D01*
X151807502Y-70787820D01*
X151774456Y-70725996D01*
X152029925Y-70725996D01*
X152042185Y-70850478D01*
X152078495Y-70970176D01*
X152137460Y-71080490D01*
X152216812Y-71177181D01*
X152313503Y-71256533D01*
X152423817Y-71315498D01*
X152543515Y-71351808D01*
X152667997Y-71364068D01*
X153232246Y-71360996D01*
X153390996Y-71202246D01*
X153390996Y-70352996D01*
X153644996Y-70352996D01*
X153644996Y-71202246D01*
X153803746Y-71360996D01*
X154367995Y-71364068D01*
X154492477Y-71351808D01*
X154612175Y-71315498D01*
X154722489Y-71256533D01*
X154819180Y-71177181D01*
X154898532Y-71080490D01*
X154957497Y-70970176D01*
X154993807Y-70850478D01*
X155006067Y-70725996D01*
X155002995Y-70511746D01*
X154844245Y-70352996D01*
X153644996Y-70352996D01*
X153390996Y-70352996D01*
X152191747Y-70352996D01*
X152032997Y-70511746D01*
X152029925Y-70725996D01*
X151774456Y-70725996D01*
X151748537Y-70677506D01*
X151669185Y-70580815D01*
X151572494Y-70501463D01*
X151462180Y-70442498D01*
X151342482Y-70406188D01*
X151218000Y-70393928D01*
X150653750Y-70397000D01*
X150495000Y-70555750D01*
X150241000Y-70555750D01*
X150082250Y-70397000D01*
X149518000Y-70393928D01*
X149393518Y-70406188D01*
X149273820Y-70442498D01*
X149163506Y-70501463D01*
X149066815Y-70580815D01*
X148987463Y-70677506D01*
X148928498Y-70787820D01*
X148892188Y-70907518D01*
X148879928Y-71032000D01*
X148624453Y-71032000D01*
X148657500Y-70970176D01*
X148693810Y-70850478D01*
X148706070Y-70725996D01*
X148702998Y-70511746D01*
X148544248Y-70352996D01*
X147344999Y-70352996D01*
X147090999Y-70352996D01*
X147070999Y-70352996D01*
X147070999Y-70098996D01*
X147090999Y-70098996D01*
X147090999Y-69249746D01*
X147344999Y-69249746D01*
X147344999Y-70098996D01*
X148544248Y-70098996D01*
X148702998Y-69940246D01*
X148706070Y-69725996D01*
X152029925Y-69725996D01*
X152032997Y-69940246D01*
X152191747Y-70098996D01*
X153390996Y-70098996D01*
X153390996Y-69249746D01*
X153644996Y-69249746D01*
X153644996Y-70098996D01*
X154844245Y-70098996D01*
X155002995Y-69940246D01*
X155006067Y-69725996D01*
X154993807Y-69601514D01*
X154957497Y-69481816D01*
X154898532Y-69371502D01*
X154819180Y-69274811D01*
X154722489Y-69195459D01*
X154612175Y-69136494D01*
X154492477Y-69100184D01*
X154367995Y-69087924D01*
X153803746Y-69090996D01*
X153644996Y-69249746D01*
X153390996Y-69249746D01*
X153232246Y-69090996D01*
X152667997Y-69087924D01*
X152543515Y-69100184D01*
X152423817Y-69136494D01*
X152313503Y-69195459D01*
X152216812Y-69274811D01*
X152137460Y-69371502D01*
X152078495Y-69481816D01*
X152042185Y-69601514D01*
X152029925Y-69725996D01*
X148706070Y-69725996D01*
X148693810Y-69601514D01*
X148657500Y-69481816D01*
X148598535Y-69371502D01*
X148519183Y-69274811D01*
X148422492Y-69195459D01*
X148312178Y-69136494D01*
X148192480Y-69100184D01*
X148067998Y-69087924D01*
X147503749Y-69090996D01*
X147344999Y-69249746D01*
X147090999Y-69249746D01*
X146932249Y-69090996D01*
X146368000Y-69087924D01*
X146243518Y-69100184D01*
X146186796Y-69117390D01*
X146188072Y-68800000D01*
X146175812Y-68675518D01*
X146139502Y-68555820D01*
X146080537Y-68445506D01*
X146001185Y-68348815D01*
X145904494Y-68269463D01*
X145794180Y-68210498D01*
X145674482Y-68174188D01*
X145550000Y-68161928D01*
X143585750Y-68165000D01*
X143427000Y-68323750D01*
X143173000Y-68323750D01*
X143014250Y-68165000D01*
X141050000Y-68161928D01*
X140925518Y-68174188D01*
X140805820Y-68210498D01*
X140695506Y-68269463D01*
X140598815Y-68348815D01*
X140519463Y-68445506D01*
X140460498Y-68555820D01*
X140424188Y-68675518D01*
X140411928Y-68800000D01*
X138947728Y-68800000D01*
X138920472Y-68710150D01*
X138838405Y-68556614D01*
X138727962Y-68422038D01*
X138593386Y-68311595D01*
X138439850Y-68229528D01*
X138273254Y-68178992D01*
X138100000Y-68161928D01*
X134100000Y-68161928D01*
X133926746Y-68178992D01*
X133760150Y-68229528D01*
X133606614Y-68311595D01*
X133502000Y-68397449D01*
X133502000Y-65938000D01*
X145729928Y-65938000D01*
X145729928Y-66925999D01*
G37*
X145729928Y-66925999D02*
X145742188Y-67050481D01*
X145778498Y-67170179D01*
X145837463Y-67280493D01*
X145916815Y-67377184D01*
X146013506Y-67456536D01*
X146123820Y-67515501D01*
X146243518Y-67551811D01*
X146368000Y-67564071D01*
X148067998Y-67564071D01*
X148192480Y-67551811D01*
X148312178Y-67515501D01*
X148422492Y-67456536D01*
X148519183Y-67377184D01*
X148598535Y-67280493D01*
X148608955Y-67260999D01*
X152127040Y-67260999D01*
X152137460Y-67280493D01*
X152216812Y-67377184D01*
X152313503Y-67456536D01*
X152423817Y-67515501D01*
X152543515Y-67551811D01*
X152667997Y-67564071D01*
X153475201Y-67564071D01*
X156645001Y-70733873D01*
X156645001Y-71596868D01*
X156605000Y-71592928D01*
X156228250Y-71596000D01*
X156069500Y-71754750D01*
X156069500Y-73279000D01*
X156089500Y-73279000D01*
X156089500Y-73533000D01*
X156069500Y-73533000D01*
X156069500Y-73553000D01*
X155815500Y-73553000D01*
X155815500Y-73533000D01*
X154803750Y-73533000D01*
X154645000Y-73691750D01*
X154641928Y-74581000D01*
X154646261Y-74624999D01*
X154405017Y-74624999D01*
X154363999Y-74620959D01*
X154322981Y-74624999D01*
X154322980Y-74624999D01*
X154200310Y-74637081D01*
X154042912Y-74684827D01*
X153897853Y-74762363D01*
X153848337Y-74803000D01*
X153803631Y-74839689D01*
X153770708Y-74866708D01*
X153744562Y-74898567D01*
X153260563Y-75382566D01*
X153163641Y-75179080D01*
X152989588Y-74945731D01*
X152773355Y-74750822D01*
X152523252Y-74601843D01*
X152248891Y-74504519D01*
X152019000Y-74625186D01*
X152019000Y-75819000D01*
X152039000Y-75819000D01*
X152039000Y-76073000D01*
X152019000Y-76073000D01*
X152019000Y-76093000D01*
X151765000Y-76093000D01*
X151765000Y-76073000D01*
X151745000Y-76073000D01*
X151745000Y-75819000D01*
X151765000Y-75819000D01*
X151765000Y-74625186D01*
X151535109Y-74504519D01*
X151260748Y-74601843D01*
X151010645Y-74750822D01*
X150814498Y-74927626D01*
X150791502Y-74851820D01*
X150732537Y-74741506D01*
X150653185Y-74644815D01*
X150556494Y-74565463D01*
X150446180Y-74506498D01*
X150326482Y-74470188D01*
X150202000Y-74457928D01*
X148502000Y-74457928D01*
X148377518Y-74470188D01*
X148257820Y-74506498D01*
X148147506Y-74565463D01*
X148050815Y-74644815D01*
X147971463Y-74741506D01*
X147912498Y-74851820D01*
X147876188Y-74971518D01*
X147863928Y-75096000D01*
X147863928Y-75964393D01*
X147730774Y-75937907D01*
X147710946Y-75918079D01*
X147684791Y-75886209D01*
X147557646Y-75781864D01*
X147498283Y-75750134D01*
X147450574Y-75692000D01*
X147526671Y-75599275D01*
X147605850Y-75451142D01*
X147654608Y-75290408D01*
X147671072Y-75123250D01*
X147671072Y-74685750D01*
X147654608Y-74518592D01*
X147605850Y-74357858D01*
X147526671Y-74209725D01*
X147420115Y-74079885D01*
X147290275Y-73973329D01*
X147142142Y-73894150D01*
X146981408Y-73845392D01*
X146814250Y-73828928D01*
X146301750Y-73828928D01*
X146134592Y-73845392D01*
X146083142Y-73860999D01*
X141291868Y-73860999D01*
X140162869Y-72732000D01*
X148879928Y-72732000D01*
X148892188Y-72856482D01*
X148928498Y-72976180D01*
X148987463Y-73086494D01*
X149066815Y-73183185D01*
X149163506Y-73262537D01*
X149273820Y-73321502D01*
X149393518Y-73357812D01*
X149518000Y-73370072D01*
X150082250Y-73367000D01*
X150241000Y-73208250D01*
X150241000Y-72009000D01*
X150495000Y-72009000D01*
X150495000Y-73208250D01*
X150653750Y-73367000D01*
X151218000Y-73370072D01*
X151342482Y-73357812D01*
X151462180Y-73321502D01*
X151572494Y-73262537D01*
X151669185Y-73183185D01*
X151748537Y-73086494D01*
X151807502Y-72976180D01*
X151843812Y-72856482D01*
X151856072Y-72732000D01*
X151853345Y-72231000D01*
X154641928Y-72231000D01*
X154645000Y-73120250D01*
X154803750Y-73279000D01*
X155815500Y-73279000D01*
X155815500Y-71754750D01*
X155656750Y-71596000D01*
X155280000Y-71592928D01*
X155155518Y-71605188D01*
X155035820Y-71641498D01*
X154925506Y-71700463D01*
X154828815Y-71779815D01*
X154749463Y-71876506D01*
X154690498Y-71986820D01*
X154654188Y-72106518D01*
X154641928Y-72231000D01*
X151853345Y-72231000D01*
X151853000Y-72167750D01*
X151694250Y-72009000D01*
X150495000Y-72009000D01*
X150241000Y-72009000D01*
X149041750Y-72009000D01*
X148883000Y-72167750D01*
X148879928Y-72732000D01*
X140162869Y-72732000D01*
X138717454Y-71286586D01*
X138727962Y-71277962D01*
X138838405Y-71143386D01*
X138920472Y-70989850D01*
X138947727Y-70900000D01*
X140411928Y-70900000D01*
X140424188Y-71024482D01*
X140460498Y-71144180D01*
X140519463Y-71254494D01*
X140598815Y-71351185D01*
X140695506Y-71430537D01*
X140805820Y-71489502D01*
X140925518Y-71525812D01*
X141050000Y-71538072D01*
X143014250Y-71535000D01*
X143173000Y-71376250D01*
X143173000Y-69977000D01*
X140573750Y-69977000D01*
X140415000Y-70135750D01*
X140411928Y-70900000D01*
X138947727Y-70900000D01*
X138971008Y-70823254D01*
X138988072Y-70650000D01*
X138988072Y-69050000D01*
X138971008Y-68876746D01*
X138947728Y-68800000D01*
X140411928Y-68800000D01*
X140415000Y-69564250D01*
X140573750Y-69723000D01*
X143173000Y-69723000D01*
X143173000Y-68323750D01*
X143427000Y-68323750D01*
X143427000Y-69723000D01*
X143447000Y-69723000D01*
X143447000Y-69977000D01*
X143427000Y-69977000D01*
X143427000Y-71376250D01*
X143585750Y-71535000D01*
X145550000Y-71538072D01*
X145674482Y-71525812D01*
X145794180Y-71489502D01*
X145904494Y-71430537D01*
X146001185Y-71351185D01*
X146058935Y-71280816D01*
X146123820Y-71315498D01*
X146243518Y-71351808D01*
X146368000Y-71364068D01*
X146932249Y-71360996D01*
X147090999Y-71202246D01*
X147090999Y-70352996D01*
X147344999Y-70352996D01*
X147344999Y-71202246D01*
X147503749Y-71360996D01*
X148067998Y-71364068D01*
X148192480Y-71351808D01*
X148312178Y-71315498D01*
X148422492Y-71256533D01*
X148519183Y-71177181D01*
X148598535Y-71080490D01*
X148624453Y-71032000D01*
X148879928Y-71032000D01*
X148883000Y-71596250D01*
X149041750Y-71755000D01*
X150241000Y-71755000D01*
X150241000Y-70555750D01*
X150495000Y-70555750D01*
X150495000Y-71755000D01*
X151694250Y-71755000D01*
X151853000Y-71596250D01*
X151856072Y-71032000D01*
X151843812Y-70907518D01*
X151807502Y-70787820D01*
X151774456Y-70725996D01*
X152029925Y-70725996D01*
X152042185Y-70850478D01*
X152078495Y-70970176D01*
X152137460Y-71080490D01*
X152216812Y-71177181D01*
X152313503Y-71256533D01*
X152423817Y-71315498D01*
X152543515Y-71351808D01*
X152667997Y-71364068D01*
X153232246Y-71360996D01*
X153390996Y-71202246D01*
X153390996Y-70352996D01*
X153644996Y-70352996D01*
X153644996Y-71202246D01*
X153803746Y-71360996D01*
X154367995Y-71364068D01*
X154492477Y-71351808D01*
X154612175Y-71315498D01*
X154722489Y-71256533D01*
X154819180Y-71177181D01*
X154898532Y-71080490D01*
X154957497Y-70970176D01*
X154993807Y-70850478D01*
X155006067Y-70725996D01*
X155002995Y-70511746D01*
X154844245Y-70352996D01*
X153644996Y-70352996D01*
X153390996Y-70352996D01*
X152191747Y-70352996D01*
X152032997Y-70511746D01*
X152029925Y-70725996D01*
X151774456Y-70725996D01*
X151748537Y-70677506D01*
X151669185Y-70580815D01*
X151572494Y-70501463D01*
X151462180Y-70442498D01*
X151342482Y-70406188D01*
X151218000Y-70393928D01*
X150653750Y-70397000D01*
X150495000Y-70555750D01*
X150241000Y-70555750D01*
X150082250Y-70397000D01*
X149518000Y-70393928D01*
X149393518Y-70406188D01*
X149273820Y-70442498D01*
X149163506Y-70501463D01*
X149066815Y-70580815D01*
X148987463Y-70677506D01*
X148928498Y-70787820D01*
X148892188Y-70907518D01*
X148879928Y-71032000D01*
X148624453Y-71032000D01*
X148657500Y-70970176D01*
X148693810Y-70850478D01*
X148706070Y-70725996D01*
X148702998Y-70511746D01*
X148544248Y-70352996D01*
X147344999Y-70352996D01*
X147090999Y-70352996D01*
X147070999Y-70352996D01*
X147070999Y-70098996D01*
X147090999Y-70098996D01*
X147090999Y-69249746D01*
X147344999Y-69249746D01*
X147344999Y-70098996D01*
X148544248Y-70098996D01*
X148702998Y-69940246D01*
X148706070Y-69725996D01*
X152029925Y-69725996D01*
X152032997Y-69940246D01*
X152191747Y-70098996D01*
X153390996Y-70098996D01*
X153390996Y-69249746D01*
X153644996Y-69249746D01*
X153644996Y-70098996D01*
X154844245Y-70098996D01*
X155002995Y-69940246D01*
X155006067Y-69725996D01*
X154993807Y-69601514D01*
X154957497Y-69481816D01*
X154898532Y-69371502D01*
X154819180Y-69274811D01*
X154722489Y-69195459D01*
X154612175Y-69136494D01*
X154492477Y-69100184D01*
X154367995Y-69087924D01*
X153803746Y-69090996D01*
X153644996Y-69249746D01*
X153390996Y-69249746D01*
X153232246Y-69090996D01*
X152667997Y-69087924D01*
X152543515Y-69100184D01*
X152423817Y-69136494D01*
X152313503Y-69195459D01*
X152216812Y-69274811D01*
X152137460Y-69371502D01*
X152078495Y-69481816D01*
X152042185Y-69601514D01*
X152029925Y-69725996D01*
X148706070Y-69725996D01*
X148693810Y-69601514D01*
X148657500Y-69481816D01*
X148598535Y-69371502D01*
X148519183Y-69274811D01*
X148422492Y-69195459D01*
X148312178Y-69136494D01*
X148192480Y-69100184D01*
X148067998Y-69087924D01*
X147503749Y-69090996D01*
X147344999Y-69249746D01*
X147090999Y-69249746D01*
X146932249Y-69090996D01*
X146368000Y-69087924D01*
X146243518Y-69100184D01*
X146186796Y-69117390D01*
X146188072Y-68800000D01*
X146175812Y-68675518D01*
X146139502Y-68555820D01*
X146080537Y-68445506D01*
X146001185Y-68348815D01*
X145904494Y-68269463D01*
X145794180Y-68210498D01*
X145674482Y-68174188D01*
X145550000Y-68161928D01*
X143585750Y-68165000D01*
X143427000Y-68323750D01*
X143173000Y-68323750D01*
X143014250Y-68165000D01*
X141050000Y-68161928D01*
X140925518Y-68174188D01*
X140805820Y-68210498D01*
X140695506Y-68269463D01*
X140598815Y-68348815D01*
X140519463Y-68445506D01*
X140460498Y-68555820D01*
X140424188Y-68675518D01*
X140411928Y-68800000D01*
X138947728Y-68800000D01*
X138920472Y-68710150D01*
X138838405Y-68556614D01*
X138727962Y-68422038D01*
X138593386Y-68311595D01*
X138439850Y-68229528D01*
X138273254Y-68178992D01*
X138100000Y-68161928D01*
X134100000Y-68161928D01*
X133926746Y-68178992D01*
X133760150Y-68229528D01*
X133606614Y-68311595D01*
X133502000Y-68397449D01*
X133502000Y-65938000D01*
X145729928Y-65938000D01*
X145729928Y-66925999D01*
G36*
X162365928Y-74603796D02*
G01*
X162365928Y-74823000D01*
X162202000Y-74823000D01*
X162202000Y-74803000D01*
X162182000Y-74803000D01*
X162182000Y-74549000D01*
X162202000Y-74549000D01*
X162202000Y-74529000D01*
X162291132Y-74529000D01*
X162365928Y-74603796D01*
G37*
X162365928Y-74603796D02*
X162365928Y-74823000D01*
X162202000Y-74823000D01*
X162202000Y-74803000D01*
X162182000Y-74803000D01*
X162182000Y-74549000D01*
X162202000Y-74549000D01*
X162202000Y-74529000D01*
X162291132Y-74529000D01*
X162365928Y-74603796D01*
M02*
