G04 #@! TF.GenerationSoftware,KiCad,Pcbnew,5.1.6+dfsg1-1*
G04 #@! TF.CreationDate,2021-02-27T20:02:44-07:00*
G04 #@! TF.ProjectId,CurrentSensorV1,43757272-656e-4745-9365-6e736f725631,rev?*
G04 #@! TF.SameCoordinates,Original*
G04 #@! TF.FileFunction,Legend,Top*
G04 #@! TF.FilePolarity,Positive*
%FSLAX46Y46*%
G04 Gerber Fmt 4.6, Leading zero omitted, Abs format (unit mm)*
G04 Created by KiCad (PCBNEW 5.1.6+dfsg1-1) date 2021-02-27 20:02:44*
%MOMM*%
%LPD*%
G01*
G04 APERTURE LIST*
%ADD10C,0.120000*%
%ADD11C,0.150000*%
%ADD12C,0.249999*%
%ADD13C,0.100000*%
G04 APERTURE END LIST*
D10*
X147574000Y-72644000D02*
X147574000Y-74676000D01*
X172212000Y-72644000D02*
X147574000Y-72644000D01*
X172212000Y-86868000D02*
X172212000Y-72644000D01*
X147574000Y-86868000D02*
X172212000Y-86868000D01*
X147574000Y-72644000D02*
X147574000Y-86868000D01*
X153162000Y-74676000D02*
X148082000Y-74676000D01*
X153162000Y-84836000D02*
X153162000Y-74676000D01*
X148082000Y-84836000D02*
X153162000Y-84836000D01*
X148082000Y-74676000D02*
X148082000Y-84836000D01*
D11*
X172593000Y-72806560D02*
X172958760Y-72806560D01*
X172958760Y-72806560D02*
X172958760Y-66410840D01*
X172958760Y-66410840D02*
X172582840Y-66410840D01*
X172582840Y-66410840D02*
X172562520Y-66390520D01*
X169580560Y-66507360D02*
X165806120Y-66507360D01*
X165806120Y-66507360D02*
X165806120Y-66532760D01*
X162874960Y-66497200D02*
X161549080Y-66497200D01*
X161559240Y-66497200D02*
X161559240Y-72877680D01*
X161559240Y-72877680D02*
X162844480Y-72877680D01*
X166385240Y-72857360D02*
X165856920Y-72857360D01*
X169580560Y-72852280D02*
X169331640Y-72852280D01*
X175021240Y-72364600D02*
X175021240Y-66929000D01*
X175021240Y-66929000D02*
X172994320Y-66929000D01*
X174995840Y-72374760D02*
X172907960Y-72374760D01*
X172593000Y-90586560D02*
X172958760Y-90586560D01*
X172958760Y-90586560D02*
X172958760Y-84190840D01*
X172958760Y-84190840D02*
X172582840Y-84190840D01*
X172582840Y-84190840D02*
X172562520Y-84170520D01*
X169580560Y-84287360D02*
X165806120Y-84287360D01*
X165806120Y-84287360D02*
X165806120Y-84312760D01*
X162874960Y-84277200D02*
X161549080Y-84277200D01*
X161559240Y-84277200D02*
X161559240Y-90657680D01*
X161559240Y-90657680D02*
X162844480Y-90657680D01*
X166385240Y-90637360D02*
X165856920Y-90637360D01*
X169580560Y-90632280D02*
X169331640Y-90632280D01*
X175021240Y-90144600D02*
X175021240Y-84709000D01*
X175021240Y-84709000D02*
X172994320Y-84709000D01*
X174995840Y-90154760D02*
X172907960Y-90154760D01*
D12*
X147343000Y-71275997D02*
G75*
G03*
X147343000Y-71275997I-125001J0D01*
G01*
D11*
X152867998Y-69325998D02*
X152867998Y-67325997D01*
X151367998Y-70825998D02*
X149367997Y-70825998D01*
X151367998Y-65825997D02*
X149367997Y-65825997D01*
X147867997Y-69325998D02*
X147867997Y-67325997D01*
X148467999Y-66725998D02*
X149367997Y-65825997D01*
X152267996Y-66725998D02*
X151367998Y-65825997D01*
X151367998Y-70825998D02*
X152267996Y-69925997D01*
X149367997Y-70825998D02*
X148467999Y-69925997D01*
D10*
X154324000Y-81920000D02*
X155584000Y-81920000D01*
X161144000Y-81920000D02*
X159884000Y-81920000D01*
X154324000Y-78160000D02*
X154324000Y-81920000D01*
X161144000Y-75910000D02*
X161144000Y-81920000D01*
X168910000Y-77130000D02*
X167410000Y-77130000D01*
X168910000Y-77130000D02*
X170410000Y-77130000D01*
X168910000Y-80350000D02*
X167410000Y-80350000D01*
X168910000Y-80350000D02*
X171835000Y-80350000D01*
X149038000Y-73212000D02*
X151698000Y-73212000D01*
X149038000Y-73092000D02*
X149038000Y-73212000D01*
X151698000Y-73092000D02*
X151698000Y-73212000D01*
X151698000Y-70552000D02*
X151698000Y-71882000D01*
X150368000Y-70552000D02*
X151698000Y-70552000D01*
X156404000Y-81340000D02*
X159064000Y-81340000D01*
X156404000Y-81220000D02*
X156404000Y-81340000D01*
X159064000Y-81220000D02*
X159064000Y-81340000D01*
X159064000Y-78680000D02*
X159064000Y-80010000D01*
X157734000Y-78680000D02*
X159064000Y-78680000D01*
X147068000Y-75529221D02*
X147068000Y-75854779D01*
X146048000Y-75529221D02*
X146048000Y-75854779D01*
X141988000Y-83657221D02*
X141988000Y-83982779D01*
X140968000Y-83657221D02*
X140968000Y-83982779D01*
X144528000Y-83657221D02*
X144528000Y-83982779D01*
X143508000Y-83657221D02*
X143508000Y-83982779D01*
X171866779Y-82044000D02*
X171541221Y-82044000D01*
X171866779Y-81024000D02*
X171541221Y-81024000D01*
X163413221Y-80262000D02*
X163738779Y-80262000D01*
X163413221Y-81282000D02*
X163738779Y-81282000D01*
X163413221Y-77468000D02*
X163738779Y-77468000D01*
X163413221Y-78488000D02*
X163738779Y-78488000D01*
X141482578Y-79450000D02*
X140965422Y-79450000D01*
X141482578Y-78030000D02*
X140965422Y-78030000D01*
X141404078Y-81736000D02*
X140886922Y-81736000D01*
X141404078Y-80316000D02*
X140886922Y-80316000D01*
X147050000Y-77506000D02*
X145050000Y-77506000D01*
X145050000Y-77506000D02*
X145050000Y-81406000D01*
X147050000Y-77506000D02*
X147050000Y-81406000D01*
X146814000Y-83657221D02*
X146814000Y-83982779D01*
X145794000Y-83657221D02*
X145794000Y-83982779D01*
X143960000Y-74110000D02*
X143960000Y-71160000D01*
X143960000Y-65590000D02*
X143960000Y-68540000D01*
X136504437Y-65590000D02*
X143960000Y-65590000D01*
X136504437Y-74110000D02*
X143960000Y-74110000D01*
X135440000Y-73045563D02*
X135440000Y-71160000D01*
X135440000Y-66654437D02*
X135440000Y-68540000D01*
X135440000Y-66654437D02*
X136504437Y-65590000D01*
X135440000Y-73045563D02*
X136504437Y-74110000D01*
X155730000Y-74916000D02*
X159940000Y-74916000D01*
X159940000Y-74916000D02*
X159940000Y-71896000D01*
X159940000Y-71896000D02*
X155730000Y-71896000D01*
D13*
X138118000Y-83448000D02*
X138118000Y-82948000D01*
X138118000Y-83448000D02*
X137618000Y-83448000D01*
X138118000Y-75548000D02*
X138118000Y-75048000D01*
X138118000Y-75048000D02*
X137618000Y-75048000D01*
X132868000Y-75048000D02*
X132868000Y-75548000D01*
X132868000Y-75048000D02*
X133368000Y-75048000D01*
X132868000Y-82948000D02*
X132868000Y-83448000D01*
X132868000Y-83448000D02*
X133368000Y-83448000D01*
X138268000Y-77648000D02*
X137068000Y-77648000D01*
X138861800Y-77647800D02*
X138861800Y-77947800D01*
X138290300Y-77647800D02*
X138780800Y-77647800D01*
D10*
X139894000Y-77276000D02*
X142554000Y-77276000D01*
X139894000Y-77156000D02*
X139894000Y-77276000D01*
X142554000Y-77156000D02*
X142554000Y-77276000D01*
X142554000Y-74616000D02*
X142554000Y-75946000D01*
X141224000Y-74616000D02*
X142554000Y-74616000D01*
D12*
X140435002Y-86204003D02*
G75*
G03*
X140435002Y-86204003I-125001J0D01*
G01*
D11*
X134660002Y-88154002D02*
X134660002Y-90154003D01*
X136160002Y-86654002D02*
X138160003Y-86654002D01*
X136160002Y-91654003D02*
X138160003Y-91654003D01*
X139660003Y-88154002D02*
X139660003Y-90154003D01*
X139060001Y-90754002D02*
X138160003Y-91654003D01*
X135260004Y-90754002D02*
X136160002Y-91654003D01*
X136160002Y-86654002D02*
X135260004Y-87554003D01*
X138160003Y-86654002D02*
X139060001Y-87554003D01*
D10*
X148022000Y-84896000D02*
X150682000Y-84896000D01*
X148022000Y-77216000D02*
X148022000Y-84896000D01*
X150682000Y-77216000D02*
X150682000Y-84896000D01*
X148022000Y-77216000D02*
X150682000Y-77216000D01*
X148022000Y-75946000D02*
X148022000Y-74616000D01*
X148022000Y-74616000D02*
X149352000Y-74616000D01*
X160842000Y-65980000D02*
X158182000Y-65980000D01*
X160842000Y-68580000D02*
X160842000Y-65980000D01*
X158182000Y-68580000D02*
X158182000Y-65980000D01*
X160842000Y-68580000D02*
X158182000Y-68580000D01*
X160842000Y-69850000D02*
X160842000Y-71180000D01*
X160842000Y-71180000D02*
X159512000Y-71180000D01*
X161096000Y-85030000D02*
X158436000Y-85030000D01*
X161096000Y-87630000D02*
X161096000Y-85030000D01*
X158436000Y-87630000D02*
X158436000Y-85030000D01*
X161096000Y-87630000D02*
X158436000Y-87630000D01*
X161096000Y-88900000D02*
X161096000Y-90230000D01*
X161096000Y-90230000D02*
X159766000Y-90230000D01*
X153222000Y-74616000D02*
X150562000Y-74616000D01*
X153222000Y-82296000D02*
X153222000Y-74616000D01*
X150562000Y-82296000D02*
X150562000Y-74616000D01*
X153222000Y-82296000D02*
X150562000Y-82296000D01*
X153222000Y-83566000D02*
X153222000Y-84896000D01*
X153222000Y-84896000D02*
X151892000Y-84896000D01*
X141926000Y-87570000D02*
X141926000Y-90230000D01*
X154686000Y-87570000D02*
X141926000Y-87570000D01*
X154686000Y-90230000D02*
X141926000Y-90230000D01*
X154686000Y-87570000D02*
X154686000Y-90230000D01*
X155956000Y-87570000D02*
X157286000Y-87570000D01*
X157286000Y-87570000D02*
X157286000Y-88900000D01*
D11*
X155852761Y-69562023D02*
X155900380Y-69419166D01*
X155900380Y-69181071D01*
X155852761Y-69085833D01*
X155805142Y-69038214D01*
X155709904Y-68990595D01*
X155614666Y-68990595D01*
X155519428Y-69038214D01*
X155471809Y-69085833D01*
X155424190Y-69181071D01*
X155376571Y-69371547D01*
X155328952Y-69466785D01*
X155281333Y-69514404D01*
X155186095Y-69562023D01*
X155090857Y-69562023D01*
X154995619Y-69514404D01*
X154948000Y-69466785D01*
X154900380Y-69371547D01*
X154900380Y-69133452D01*
X154948000Y-68990595D01*
X154900380Y-68657261D02*
X155900380Y-68419166D01*
X155186095Y-68228690D01*
X155900380Y-68038214D01*
X154900380Y-67800119D01*
X154900380Y-67514404D02*
X154900380Y-66895357D01*
X155281333Y-67228690D01*
X155281333Y-67085833D01*
X155328952Y-66990595D01*
X155376571Y-66942976D01*
X155471809Y-66895357D01*
X155709904Y-66895357D01*
X155805142Y-66942976D01*
X155852761Y-66990595D01*
X155900380Y-67085833D01*
X155900380Y-67371547D01*
X155852761Y-67466785D01*
X155805142Y-67514404D01*
X135475357Y-86256761D02*
X135618214Y-86304380D01*
X135856309Y-86304380D01*
X135951547Y-86256761D01*
X135999166Y-86209142D01*
X136046785Y-86113904D01*
X136046785Y-86018666D01*
X135999166Y-85923428D01*
X135951547Y-85875809D01*
X135856309Y-85828190D01*
X135665833Y-85780571D01*
X135570595Y-85732952D01*
X135522976Y-85685333D01*
X135475357Y-85590095D01*
X135475357Y-85494857D01*
X135522976Y-85399619D01*
X135570595Y-85352000D01*
X135665833Y-85304380D01*
X135903928Y-85304380D01*
X136046785Y-85352000D01*
X136380119Y-85304380D02*
X136618214Y-86304380D01*
X136808690Y-85590095D01*
X136999166Y-86304380D01*
X137237261Y-85304380D01*
X137570595Y-85399619D02*
X137618214Y-85352000D01*
X137713452Y-85304380D01*
X137951547Y-85304380D01*
X138046785Y-85352000D01*
X138094404Y-85399619D01*
X138142023Y-85494857D01*
X138142023Y-85590095D01*
X138094404Y-85732952D01*
X137522976Y-86304380D01*
X138142023Y-86304380D01*
X153281000Y-91271285D02*
X153031000Y-90914142D01*
X152852428Y-91271285D02*
X152852428Y-90521285D01*
X153138142Y-90521285D01*
X153209571Y-90557000D01*
X153245285Y-90592714D01*
X153281000Y-90664142D01*
X153281000Y-90771285D01*
X153245285Y-90842714D01*
X153209571Y-90878428D01*
X153138142Y-90914142D01*
X152852428Y-90914142D01*
X153531000Y-90521285D02*
X154031000Y-91271285D01*
X154031000Y-90521285D02*
X153531000Y-91271285D01*
X150304571Y-90521285D02*
X150733142Y-90521285D01*
X150518857Y-91271285D02*
X150518857Y-90521285D01*
X150911714Y-90521285D02*
X151411714Y-91271285D01*
X151411714Y-90521285D02*
X150911714Y-91271285D01*
X147477428Y-90521285D02*
X147941714Y-90521285D01*
X147691714Y-90807000D01*
X147798857Y-90807000D01*
X147870285Y-90842714D01*
X147906000Y-90878428D01*
X147941714Y-90949857D01*
X147941714Y-91128428D01*
X147906000Y-91199857D01*
X147870285Y-91235571D01*
X147798857Y-91271285D01*
X147584571Y-91271285D01*
X147513142Y-91235571D01*
X147477428Y-91199857D01*
X148156000Y-90521285D02*
X148406000Y-91271285D01*
X148656000Y-90521285D01*
X148834571Y-90521285D02*
X149298857Y-90521285D01*
X149048857Y-90807000D01*
X149156000Y-90807000D01*
X149227428Y-90842714D01*
X149263142Y-90878428D01*
X149298857Y-90949857D01*
X149298857Y-91128428D01*
X149263142Y-91199857D01*
X149227428Y-91235571D01*
X149156000Y-91271285D01*
X148941714Y-91271285D01*
X148870285Y-91235571D01*
X148834571Y-91199857D01*
X142684571Y-90557000D02*
X142613142Y-90521285D01*
X142506000Y-90521285D01*
X142398857Y-90557000D01*
X142327428Y-90628428D01*
X142291714Y-90699857D01*
X142256000Y-90842714D01*
X142256000Y-90949857D01*
X142291714Y-91092714D01*
X142327428Y-91164142D01*
X142398857Y-91235571D01*
X142506000Y-91271285D01*
X142577428Y-91271285D01*
X142684571Y-91235571D01*
X142720285Y-91199857D01*
X142720285Y-90949857D01*
X142577428Y-90949857D01*
X143041714Y-91271285D02*
X143041714Y-90521285D01*
X143470285Y-91271285D01*
X143470285Y-90521285D01*
X143827428Y-91271285D02*
X143827428Y-90521285D01*
X144006000Y-90521285D01*
X144113142Y-90557000D01*
X144184571Y-90628428D01*
X144220285Y-90699857D01*
X144256000Y-90842714D01*
X144256000Y-90949857D01*
X144220285Y-91092714D01*
X144184571Y-91164142D01*
X144113142Y-91235571D01*
X144006000Y-91271285D01*
X143827428Y-91271285D01*
M02*
